<?xml version="1.0" encoding="UTF-8"?>
<!-- Generator: Adobe Illustrator 22.1.0, SVG Export Plug-In . SVG Version: 6.00 Build 0)  -->
<svg version="1.1" id="Layer_1" xmlns="http://www.w3.org/2000/svg" xmlns:xlink="http://www.w3.org/1999/xlink" x="0px" y="0px" viewBox="0 0 336.9 301.8" style="enable-background:new 0 0 336.9 301.8;" xml:space="preserve">
<style type="text/css">
	.st0{display:none;}
	.st1{display:inline;}
	.st2{fill:#FFFFFF;}
	.st3{fill:#C2D5ED;}
	.st4{fill:none;stroke:#7BADD3;stroke-width:1.182;stroke-miterlimit:10;}
	.st5{fill:#00263E;stroke:#00263E;stroke-width:0.9522;stroke-linecap:round;stroke-miterlimit:10;}
	.st6{fill:none;stroke:#00263E;stroke-width:8.8871;stroke-miterlimit:10;}
	.st7{fill:#00263E;}
	.st8{fill:none;stroke:#00263E;stroke-width:5.9235;stroke-miterlimit:10;}
	.st9{fill:none;stroke:#FFFFFF;stroke-width:3.174;stroke-linecap:round;stroke-miterlimit:10;}
	.st10{fill:none;stroke:#FFFFFF;stroke-width:3.174;stroke-miterlimit:10;}
	.st11{fill:#1DCAD3;}
	.st12{fill:none;stroke:#FFFFFF;stroke-width:2.364;stroke-miterlimit:10;}
	.st13{fill:none;stroke:#7BADD3;stroke-width:2.364;stroke-miterlimit:10;}
	.st14{clip-path:url(#SVGID_2_);fill:#FFFFFF;}
	.st15{clip-path:url(#SVGID_4_);fill:#FFFFFF;}
	.st16{clip-path:url(#SVGID_6_);fill:#FFFFFF;}
	.st17{clip-path:url(#SVGID_8_);fill:#FFFFFF;}
</style>
<g id="Layer_1_1_" class="st0">
	<g id="bgwhite" class="st1">
		<rect class="st2" width="336.9" height="301.8"/>
	</g>
	<g id="screenover" class="st1">
		<g>
			<rect x="151.9" y="67.1" class="st3" width="78.4" height="88.1"/>
			<line class="st4" x1="232.7" y1="155.3" x2="102.7" y2="155.3"/>
			<g>
				<path class="st5" d="M218.4,36.3h-97.6c-10,0-18.1,8.1-18.1,18.1v6.9h133.8v-6.9C236.5,44.4,228.4,36.3,218.4,36.3z"/>
				<path class="st5" d="M120.8,276.1h97.6c10,0,18.1-8.1,18.1-18.1v-27.4H102.7V258C102.7,268,110.8,276.1,120.8,276.1z"/>
				<path class="st6" d="M218,274.2h-99c-10.2,0-18.5-8.3-18.5-18.5V54.8c0-10.2,8.3-18.5,18.5-18.5h99c10.2,0,18.5,8.3,18.5,18.5      v200.9C236.5,265.9,228.2,274.2,218,274.2z"/>
				<g>
					<path class="st7" d="M230.6,67.2v163.1H106.4V67.2H230.6 M236.5,61.3h-136v174.9h136V61.3L236.5,61.3z"/>
				</g>
				<line class="st8" x1="100.4" y1="61.3" x2="236.5" y2="61.3"/>
				<line class="st9" x1="159.7" y1="48.8" x2="177.2" y2="48.8"/>
				<circle class="st10" cx="168.5" cy="253.5" r="10"/>
			</g>
			<rect x="133.3" y="193.3" class="st11" width="74.5" height="20.6"/>
			<line class="st12" x1="167.7" y1="136.5" x2="222.3" y2="95.2"/>
			<line class="st12" x1="177.2" y1="146.3" x2="222.3" y2="112.2"/>
			<g transform="translate(0,-952.36218)">
				<path class="st7" d="M200.2,1042.5c-4.2,0-7.7,3.4-7.7,7.7c0,1.5,0.4,2.9,1.2,4.1l6.4,10l6.4-10c0.8-1.2,1.2-2.6,1.2-4.1      C207.9,1046,204.4,1042.5,200.2,1042.5z M200.2,1047.4c1.6,0,2.8,1.3,2.8,2.8s-1.3,2.8-2.8,2.8c-1.6,0-2.8-1.3-2.8-2.8      S198.6,1047.4,200.2,1047.4z"/>
			</g>
			<line class="st13" x1="115" y1="78" x2="140.6" y2="78"/>
			<line class="st13" x1="115" y1="84.1" x2="135.8" y2="84.1"/>
			<line class="st13" x1="115" y1="96.3" x2="140.6" y2="96.3"/>
			<line class="st13" x1="115" y1="102.4" x2="135.8" y2="102.4"/>
			<line class="st13" x1="115" y1="114.6" x2="140.6" y2="114.6"/>
			<line class="st13" x1="115" y1="120.7" x2="135.8" y2="120.7"/>
			<line class="st13" x1="115" y1="132.8" x2="140.6" y2="132.8"/>
			<line class="st13" x1="115" y1="139" x2="135.8" y2="139"/>
			<line class="st12" x1="196.7" y1="131.6" x2="163.9" y2="94.1"/>
		</g>
	</g>
</g>
<g id="internal_screen">
	<rect x="101.6" y="64" class="st3" width="132.6" height="127"/>
</g>
<g>
	<circle class="st7" cx="142.7" cy="105.4" r="18"/>
	<g>
		<g>
			<defs>
				<circle id="SVGID_1_" cx="142.7" cy="105.4" r="18"/>
			</defs>
			<clipPath id="SVGID_2_">
				<use xlink:href="#SVGID_1_" style="overflow:visible;"/>
			</clipPath>
			<path class="st14" d="M142.7,105.4V77.1c0,0,17.5,3.7,19,4.1s4.3,15.2,4.3,15.2L142.7,105.4z"/>
		</g>
	</g>
	<circle class="st3" cx="142.7" cy="105.4" r="13.4"/>
</g>
<g>
	<circle class="st7" cx="194.3" cy="105.4" r="18"/>
	<g>
		<g>
			<defs>
				<circle id="SVGID_3_" cx="194.3" cy="105.4" r="18"/>
			</defs>
			<clipPath id="SVGID_4_">
				<use xlink:href="#SVGID_3_" style="overflow:visible;"/>
			</clipPath>
			<path class="st15" d="M194.3,105.4V77.1c0,0,17.5,3.7,19,4.1s3,37.5,3,37.5L194.3,105.4z"/>
		</g>
	</g>
	<circle class="st3" cx="194.3" cy="105.4" r="13.4"/>
</g>
<g>
	<circle class="st7" cx="142.7" cy="157.2" r="18"/>
	<g>
		<g>
			<defs>
				<circle id="SVGID_5_" cx="142.7" cy="157.2" r="18"/>
			</defs>
			<clipPath id="SVGID_6_">
				<use xlink:href="#SVGID_5_" style="overflow:visible;"/>
			</clipPath>
			<path class="st16" d="M142.7,157.2V129c0,0,17.5,3.7,19,4.1s-9.1,3.2-9.1,3.2L142.7,157.2z"/>
		</g>
	</g>
	<circle class="st3" cx="142.7" cy="157.2" r="13.4"/>
</g>
<g>
	<circle class="st7" cx="194.3" cy="157.2" r="18"/>
	<g>
		<g>
			<defs>
				<circle id="SVGID_7_" cx="194.3" cy="157.2" r="18"/>
			</defs>
			<clipPath id="SVGID_8_">
				<use xlink:href="#SVGID_7_" style="overflow:visible;"/>
			</clipPath>
			<path class="st17" d="M194.3,157.2V129c0,0,17.5,3.7,19,4.1s0.7,10.5,0.7,10.5L194.3,157.2z"/>
		</g>
	</g>
	<circle class="st3" cx="194.3" cy="157.2" r="13.4"/>
</g>
<rect x="121.5" y="205.9" class="st7" width="29.5" height="2.8"/>
<rect x="121.5" y="219" class="st11" width="94" height="13.1"/>
<g id="overlay">
	<path class="st5" d="M218.4,36.3h-97.6c-10,0-18.1,8.1-18.1,18.1v6.9h133.8v-6.9C236.5,44.4,228.4,36.3,218.4,36.3z"/>
	<path class="st5" d="M120.8,276.1h97.6c10,0,18.1-8.1,18.1-18.1v-27.4H102.7V258C102.7,268,110.8,276.1,120.8,276.1z"/>
	<path class="st6" d="M218,274.2h-99c-10.2,0-18.5-8.3-18.5-18.5V54.8c0-10.2,8.3-18.5,18.5-18.5h99c10.2,0,18.5,8.3,18.5,18.5   v200.9C236.5,265.9,228.2,274.2,218,274.2z"/>
	<path class="st7" d="M230.6,67.2v163.1H106.4V67.2H230.6 M236.5,61.3h-136v174.9h136V61.3L236.5,61.3z"/>
	<line class="st9" x1="159.7" y1="48.8" x2="177.2" y2="48.8"/>
	<circle class="st10" cx="168.5" cy="253.5" r="10"/>
</g>
<script xmlns="" type="text/javascript" charset="utf-8" id="zm-extension"/></svg>