<svg enable-background="new 0 0 120 120" viewBox="0 0 120 120" xmlns="http://www.w3.org/2000/svg"><circle cx="60" cy="60" fill="#1dcad3" r="60"/><path d="m49.5 73.2-.8-8.2h-3.6c-3.2 0-5.8-2.6-5.8-5.8l.1-29.1s4.6-4.6 8.8-4.8 8.8-.6 12.2-.3 4.6-.3 6.7.9 1.3 5 1.3 6.5.7 16.9.7 16.9l-.6 18.5 5.1 18.8s-17 9.4-18.3 9.1-8.9-7.6-8.8-8.2c.3-.6 3-14.3 3-14.3z" fill="#fff"/><path d="m73.2 74-4.7-6.7-9.6 9.7-4.8 11-2.8-10.6-3.9-7.3-2.8 4.3c-11.6 4.1-17.9 12.8-17.9 23.5v22.1h69.6l.3-13.6c-.1-19.2-14-32-23.4-32.4z" fill="#fff"/><path d="m39.6 37.5h6.1v11.9h3.2" style="fill:none;stroke:#00263e;stroke-width:1.8106;stroke-linecap:round;stroke-linejoin:round;stroke-miterlimit:10"/><path d="m57.4 37.5h-5.2" style="fill:none;stroke:#00263e;stroke-width:1.8106;stroke-linecap:round;stroke-linejoin:round;stroke-miterlimit:10"/><path d="m73.2 74-4.5-6.4-9.8 9.4-4.8 10.9" style="fill:none;stroke:#00263e;stroke-width:1.8106;stroke-linecap:round;stroke-linejoin:round;stroke-miterlimit:10"/><path d="m54.1 87.2-3.1-10.9-3.6-7.1-2.8 5.2" style="fill:none;stroke:#00263e;stroke-width:1.8106;stroke-linecap:round;stroke-linejoin:round;stroke-miterlimit:10"/><circle cx="54.1" cy="38.8" fill="#00263e" r="1.3"/><circle cx="40.9" cy="38.8" fill="#00263e" r="1.3"/><g stroke="#00263e" stroke-linecap="round" stroke-linejoin="round" stroke-miterlimit="10" stroke-width="1.8106"><path d="m73.2 73.9c20.3 6 23.6 21.5 23.6 32.6s0 9.2 0 11" fill="none"/><path d="m48.9 71.3v-6.3h-3.4c-3.3 0-5.9-2.7-5.9-5.9v-26.8c0-7.4 5.9-13.4 13.2-13.5 7.6-.1 13.8 3.4 15.7 11v37" fill="none"/><path d="m48.9 65h7.8" fill="none"/><path d="m26.7 117.7s0-13.2 0-19.8c0-8.3 5.9-18.8 17.9-23.5" fill="none"/><path d="m32.9 102.1.1 15.6" fill="none"/><path d="m76.8 102.1v15.6" fill="none"/><path d="m72.8 74.1-9.1 9.8-4.8-6.9" fill="none"/><path d="m51.1 76.6-3.8 7.3-2.7-9.5" fill="none"/><path d="m63.3 27.8 2.2 3.6v5.8l3 6s4.1-13.8 3.3-17-4.5-4.6-4.5-4.6" fill="#00263e"/><path d="m63.3 27.8s-15.3 5.8-22.6 4c-4.1-1-6.5-7.5-4.2-11.1 2.2-3.6 1.9 1 4.4.6 2.5-.5 9.3-9.7 20.7-4.6 6.5 2.9 5.7 4.9 5.7 4.9z" fill="#00263e"/></g><path d="m52.2 54.6c0 1.9-1.5 3.4-3.4 3.4s-3.4-1.5-3.4-3.4 6.8-1.9 6.8 0z" fill="#00263e"/><path d="m63.3 27.8s-15.3 5.8-22.6 4c-4.1-1-6.5-7.5-4.2-11.1 2.2-3.6 1.9 1 4.4.6 2.5-.5 9.3-9.7 20.7-4.6 6.5 3 1.7 11.1 1.7 11.1z" style="fill:#00263e;stroke:#00263e;stroke-width:1.8106;stroke-linecap:round;stroke-linejoin:round;stroke-miterlimit:10"/><path d="m61.6 99.8h10.9v4.6h-10.9z" fill="#81b0d2"/><path d="m18.5 117.7h86" style="fill:none;stroke:#00263e;stroke-width:1.8106;stroke-linecap:round;stroke-linejoin:round;stroke-miterlimit:10"/><script xmlns="" type="text/javascript" charset="utf-8" id="zm-extension"/></svg>