<?xml version="1.0" encoding="UTF-8"?>
<!-- Generator: Adobe Illustrator 23.0.4, SVG Export Plug-In . SVG Version: 6.00 Build 0)  -->
<svg version="1.1" id="Layer_1" xmlns="http://www.w3.org/2000/svg" xmlns:xlink="http://www.w3.org/1999/xlink" x="0px" y="0px" viewBox="0 0 336.9 301.8" style="enable-background:new 0 0 336.9 301.8;" xml:space="preserve">
<style type="text/css">
	.st0{fill:#FFFFFF;}
	.st1{fill:#1DCAD3;}
	.st2{fill:#7BADD3;}
	.st3{fill:#00263E;}
	.st4{fill:#C2D5ED;}
</style>
<g id="bgwhite">
	<rect class="st0" width="336.9" height="301.8"/>
</g>
<path class="st1" d="M133.3,117.7c-2.9,2.9-2.9,7.5,0,10.4s7.5,2.9,10.4,0c5.5-5.6,12.9-8.6,20.8-8.6c7.9,0,15.2,3.1,20.8,8.6  c2.9,2.9,7.5,2.9,10.4,0c1.4-1.4,2.2-3.3,2.2-5.2s-0.7-3.8-2.2-5.2c-8.3-8.3-19.4-12.9-31.2-12.9S141.6,109.4,133.3,117.7z"/>
<path class="st1" d="M91.7,76.1c-2.9,2.9-2.9,7.5,0,10.4s7.5,2.9,10.4,0c34.4-34.4,90.3-34.4,124.7,0c2.9,2.9,7.5,2.9,10.4,0  c1.4-1.4,2.2-3.3,2.2-5.2s-0.7-3.8-2.2-5.2C197.1,36,131.8,36,91.7,76.1z"/>
<path class="st1" d="M112.5,96.9c-2.9,2.9-2.9,7.5,0,10.4s7.5,2.9,10.4,0c22.9-22.9,60.2-22.9,83.2,0c2.9,2.9,7.5,2.9,10.4,0  c1.4-1.4,2.2-3.3,2.2-5.2s-0.7-3.8-2.2-5.2C187.8,68.3,141.1,68.3,112.5,96.9z"/>
<g>
	<path class="st2" d="M30.8,95.5c0-3.9,2.6-7,5.8-7h0c3.2,0,5.8,3.1,5.8,7v105.3c0,2.2-1.5,3.9-3.3,3.9l0,0c-0.1,0-0.1,0.1-0.1,0.1   v22.8h-4.9v-22.8c0-0.1,0-0.1-0.1-0.1h0c-1.8,0-3.3-1.8-3.3-3.9V95.5c0-3.9,2.6-7,5.8-7h0c3.2,0,5.8,3.1,5.8,7"/>
	<g>
		<path class="st2" d="M92.4,218.2v-77.2c0-2,1.7-3.5,3.8-3.5h0c2.1,0,3.8,1.6,3.8,3.5v77.2"/>
		<path class="st2" d="M100.1,225.1h-7.8c-0.4,0-0.7-0.3-0.7-0.7v-6.3c0-0.4,0.3-0.7,0.7-0.7h7.8c0.4,0,0.7,0.3,0.7,0.7v6.3    C100.7,224.8,100.4,225.1,100.1,225.1z"/>
	</g>
	<rect x="26.3" y="212.2" class="st3" width="284.2" height="52.4"/>
	<g>
		<rect x="39.9" y="224.6" class="st4" width="18" height="11.4"/>
		<rect x="43.1" y="221.5" class="st4" width="11.7" height="14.5"/>
		<rect x="83" y="219.7" class="st4" width="8.6" height="21.3"/>
		<rect x="104.1" y="219.7" class="st4" width="8.6" height="21.3"/>
		<rect x="132.9" y="230.4" class="st4" width="21.2" height="8.3"/>
		<rect x="167.7" y="230.4" class="st4" width="40.6" height="8.3"/>
		<rect x="220.8" y="230.4" class="st4" width="21.2" height="8.3"/>
		<rect x="286.1" y="230.4" class="st4" width="14.1" height="8.3"/>
	</g>
</g>
<script xmlns="" type="text/javascript" charset="utf-8" id="zm-extension"/></svg>