<?xml version="1.0" encoding="UTF-8"?>
<!-- Generator: Adobe Illustrator 22.1.0, SVG Export Plug-In . SVG Version: 6.00 Build 0)  -->
<svg version="1.1" id="Layer_1" xmlns="http://www.w3.org/2000/svg" xmlns:xlink="http://www.w3.org/1999/xlink" x="0px" y="0px" viewBox="0 0 336.9 301.8" style="enable-background:new 0 0 336.9 301.8;" xml:space="preserve">
<style type="text/css">
	.st0{fill:#FFFFFF;}
	.st1{fill:#C2D5ED;}
	.st2{fill:none;stroke:#7BADD3;stroke-width:5.1016;stroke-miterlimit:10;}
	.st3{fill:none;stroke:#FFFFFF;stroke-width:5.1016;stroke-miterlimit:10;}
	.st4{fill:#00263E;}
	.st5{fill:#1DCAD3;}
</style>
<g id="Layer_2_1_">
	<g id="bgwhite">
		<rect class="st0" width="336.9" height="301.8"/>
	</g>
</g>
<rect x="127.5" y="57.2" class="st1" width="172.7" height="89"/>
<g>
	<line class="st2" x1="55.3" y1="80.6" x2="102.2" y2="80.6"/>
	<line class="st2" x1="55.3" y1="93.9" x2="100.1" y2="93.9"/>
</g>
<g>
	<line class="st2" x1="55.3" y1="124.5" x2="110.6" y2="124.5"/>
	<line class="st2" x1="55.3" y1="137.6" x2="96" y2="137.6"/>
</g>
<g>
	<line class="st2" x1="55.3" y1="168.3" x2="87.6" y2="168.3"/>
	<line class="st2" x1="55.3" y1="181.4" x2="108.5" y2="181.4"/>
</g>
<g>
	<line class="st2" x1="55.3" y1="211.9" x2="110.6" y2="211.9"/>
	<line class="st2" x1="55.3" y1="225.3" x2="100.1" y2="225.3"/>
</g>
<polyline class="st3" points="273.5,123.7 253.2,104.4 189.5,104.9 170.2,118.5 141.9,91 "/>
<path class="st4" d="M300.6,42H36.1c-4.4,0-7.9,3.5-7.9,7.9V57h280.6v-7.1C308.5,45.5,305,42,300.6,42z"/>
<g>
	<path class="st4" d="M298.1,61.4v188.2H38.6V61.4 M308.5,54.9H28.2v204.9h280.6v-207L308.5,54.9z"/>
</g>
<g>
	<rect x="220" y="162.8" class="st5" width="60.3" height="9.9"/>
</g>
<g>
	<g>
		<rect x="220" y="190.6" class="st5" width="60.3" height="9.9"/>
	</g>
</g>
<g>
	<rect x="220" y="218.3" class="st5" width="60.3" height="9.9"/>
</g>
<circle class="st5" cx="160.2" cy="195.5" r="32.7"/>
<path class="st4" d="M189.1,180.2c-5.5-10.4-16.4-17.4-28.9-17.4v32.7L189.1,180.2z"/>
<circle class="st0" cx="42.7" cy="51.3" r="4.2"/>
<circle class="st0" cx="57" cy="51.3" r="4.2"/>
<circle class="st0" cx="71.3" cy="51.3" r="4.2"/>
<script xmlns="" type="text/javascript" charset="utf-8" id="zm-extension"/></svg>