<svg enable-background="new 0 0 1125 415" viewBox="0 0 1125 415" xmlns="http://www.w3.org/2000/svg" xmlns:xlink="http://www.w3.org/1999/xlink"><clipPath id="a"><path d="m957.1 148.5h40.7v23h-40.7z"/></clipPath><path d="m212.2 191.8h5.3v-2.7h-41-4.8v4h1.3v4h3.2 36z" fill="#f0f6fe" stroke="#2c2a3e" stroke-linecap="round" stroke-linejoin="round" stroke-width="1.7079"/><path d="m194.6 186.1v.7c0 .1-.1.2-.1.2h-9.8c-.1 0-.2-.1-.1-.2 0-.1 0-.1.1-.1l1.3-.6c.2-.1.5-.2.7-.2 1.5 0 6.8.1 7.8 0 0 0 .1.1.1.2z" fill="#f0f6fe" stroke="#2c2a3e" stroke-linecap="round" stroke-linejoin="round" stroke-width="1.7079"/><path d="m181.1 189h18.9c0-.4-.3-.7-.7-.7h-5.6l-1.7-1.3h-3.7l1.6 1.3h-8.1c-.4.1-.7.4-.7.7z" fill="#f0f6fe" stroke="#2c2a3e" stroke-linecap="round" stroke-linejoin="round" stroke-width="1.7079"/><path d="m220.2 151.2h2v1.3h-2z" fill="#f0f6fe" stroke="#2c2a3e" stroke-linecap="round" stroke-linejoin="round" stroke-width="1.7079"/><path d="m258.7 176.7c-.9-.2-1.4-1.4-1.4-1.4l-2.3-6.4c-.6-1.5-1.5-2.6-4.4-2.6 0 .1-33.1 0-33.1 0v21.3h41.2z" fill="#f0f6fe" stroke="#2c2a3e" stroke-linecap="round" stroke-linejoin="round" stroke-width="1.7079"/><path d="m255.7 179-9.7-1.4c-.6 0-1.1-.5-1.1-1.1v-6.4c0-.6.5-1.1 1.1-1.1h7.9c.6 0 1.1.5 1.1 1.1l1.8 7.8c0 .7-.5 1.1-1.1 1.1z" fill="#f0f6fe" stroke="#2c2a3e" stroke-linecap="round" stroke-linejoin="round" stroke-width=".854"/><path d="m250.6 166.8c2.2 0 3.5.4 4.1 1.3h2.5c.3 0 .5-.2.5-.5 0-.1 0-.2-.1-.3-6.9-8.1-16.9-12.8-29.1-14.2-2.1-1.2-6.5-1.5-8.2-1.5s-1.8.8-2 1.7l-.8 13.4h33.1z" fill="#f0f6fe" stroke="#2c2a3e" stroke-linecap="round" stroke-linejoin="round" stroke-width="1.7079"/><path d="m231.7 170.5c.6 0 1 .5 1 1v2c0 .6-.5 1-1 1-.6 0-1-.5-1-1v-2c0-.6.5-1 1-1z" fill="#f0f6fe" stroke="#2c2a3e" stroke-linecap="round" stroke-linejoin="round" stroke-width=".854"/><path d="m225.7 152.8s-1.3 4.1-2.3 15.7c-.5 6.5-.8 13-.6 19.5" fill="#f0f6fe" stroke="#2c2a3e" stroke-linecap="round" stroke-linejoin="round" stroke-width=".854"/><path d="m242.2 167.1v20.9" fill="none" stroke="#2c2a3e" stroke-linecap="round" stroke-linejoin="round" stroke-width=".854"/><path d="m255.4 196.5c.1-2.4 1.4-4.7 3.4-6.1v-2.7h-41.2v4h-6.8v.7l1.3 2v4.7h43.2z" fill="#f0f6fe" stroke="#2c2a3e" stroke-linecap="round" stroke-linejoin="round" stroke-width="1.7079"/><path d="m276.5 188c-3.3-1.6-7-2.4-10.6-2.3h-7.1v4c1.4-.3 2.8-.6 4.3-.7 2.8 0 5.3 1.5 6.5 4 .2.2.3.5.3.7h10.4v-1.3c0-.6-1.5-3.2-3.8-4.4z" fill="#f0f6fe" stroke="#2c2a3e" stroke-linecap="round" stroke-linejoin="round" stroke-width="1.7079"/><path d="m280.3 193.1h-10.8v5.4h9.5l1.3-.7v-3.3z" fill="#f0f6fe" stroke="#2c2a3e" stroke-linecap="round" stroke-linejoin="round" stroke-width="1.7079"/><path d="m280.3 189.7c-.2-2-.8-5.1-1.1-6.6-.1-1-.8-1.8-1.8-2-5.6-2-11.3-3.6-17.2-4.6-.5-.1-1 0-1.4.3v8.8h6.9c3.7.1 7.3.9 10.7 2.4 1.7 1.1 3 2.6 4 4.3z" fill="#f0f6fe" stroke="#2c2a3e" stroke-linecap="round" stroke-linejoin="round" stroke-width="1.7079"/><path d="m254.3 169.1c.7 0 1.3.6 1.3 1.3v4.7c0 .7-.6 1.3-1.3 1.3-.7 0-1.3-.6-1.3-1.3v-4.7c0-.7.6-1.3 1.3-1.3z" fill="#f0f6fe" stroke="#2c2a3e" stroke-linecap="round" stroke-linejoin="round" stroke-width=".854"/><path d="m239.5 172.5v12.8" fill="none" stroke="#2c2a3e" stroke-linecap="round" stroke-linejoin="round" stroke-width=".854"/><path d="m264.2 180.2s7.6 1.8 8.7 2.1c1 .3 1.8 1 2.1 2" fill="#f0f6fe" stroke="#2c2a3e" stroke-linecap="round" stroke-linejoin="round" stroke-width=".854"/><path d="m280.2 194.1h-2.1c-.4 0-.6.3-.6.7 0 .1 0 .2.1.3l.8 1.2c.1.2.3.3.5.5h1.3c.1-.3.1-.3.2-.3s0-.1.2-.2v-2.1c-.1 0-.3 0-.4-.1z" fill="#f0f6fe" stroke="#2c2a3e" stroke-linecap="round" stroke-linejoin="round" stroke-width=".854"/><circle cx="262.8" cy="196.5" fill="#f0f6fe" r="7.4" stroke="#343346" stroke-linecap="round" stroke-linejoin="round" stroke-width="1.7079"/><circle cx="262.8" cy="196.5" fill="#f0f6fe" r="4" stroke="#343346" stroke-linecap="round" stroke-linejoin="round" stroke-width=".854"/><circle cx="262.8" cy="196.5" fill="#f0f6fe" r="1" stroke="#343346" stroke-linecap="round" stroke-linejoin="round" stroke-width=".854"/><circle cx="200.7" cy="196.5" fill="#f0f6fe" r="7.4" stroke="#343346" stroke-linecap="round" stroke-linejoin="round" stroke-width="1.7079"/><circle cx="200.7" cy="196.5" fill="#f0f6fe" r="4" stroke="#343346" stroke-linecap="round" stroke-linejoin="round" stroke-width=".854"/><circle cx="200.7" cy="196.5" fill="#f0f6fe" r="1" stroke="#343346" stroke-linecap="round" stroke-linejoin="round" stroke-width=".854"/><circle cx="183.1" cy="196.5" fill="#f0f6fe" r="7.4" stroke="#343346" stroke-linecap="round" stroke-linejoin="round" stroke-width="1.7079"/><circle cx="183.1" cy="196.5" fill="#f0f6fe" r="4" stroke="#343346" stroke-linecap="round" stroke-linejoin="round" stroke-width=".854"/><circle cx="183.1" cy="196.5" fill="#f0f6fe" r="1" stroke="#343346" stroke-linecap="round" stroke-linejoin="round" stroke-width=".854"/><path d="m155.5 192.8h-71.5l-4.1-6.8h81.9z" fill="#f0f6fe" stroke="#2c2a3e" stroke-linecap="round" stroke-linejoin="round" stroke-width=".854"/><path d="m86.6 192.4h25v7.4h-25z" fill="#f0f6fe" stroke="#2c2a3e" stroke-linecap="round" stroke-linejoin="round" stroke-width="1.7079"/><circle cx="108.9" cy="196.5" fill="#f0f6fe" r="7.4" stroke="#343346" stroke-linecap="round" stroke-linejoin="round" stroke-width="1.7079"/><circle cx="108.9" cy="196.5" fill="#f0f6fe" r="4" stroke="#343346" stroke-linecap="round" stroke-linejoin="round" stroke-width=".854"/><circle cx="108.9" cy="196.5" fill="#f0f6fe" r="1" stroke="#343346" stroke-linecap="round" stroke-linejoin="round" stroke-width=".854"/><circle cx="91.3" cy="196.5" fill="#f0f6fe" r="7.4" stroke="#343346" stroke-linecap="round" stroke-linejoin="round" stroke-width="1.7079"/><circle cx="91.3" cy="196.5" fill="#f0f6fe" r="4" stroke="#343346" stroke-linecap="round" stroke-linejoin="round" stroke-width=".854"/><circle cx="91.3" cy="196.5" fill="#f0f6fe" r="1" stroke="#343346" stroke-linecap="round" stroke-linejoin="round" stroke-width=".854"/><path d="m74.5 189.9c-.5 0-.9-.4-.9-.9v-36c0-2.2 1.8-4 4-4h127.9c2.2 0 4 1.8 4 4v36c0 .5-.4.9-.9.9z" fill="#f0f6fe"/><path d="m205.6 149.9c1.7 0 3.2 1.4 3.2 3.2v36h-134.3v-36c0-1.7 1.4-3.2 3.2-3.2zm0-1.7h-127.9c-2.7 0-4.9 2.2-4.9 4.9v36c0 .9.8 1.7 1.7 1.7h134.3c.9 0 1.7-.8 1.7-1.7v-36c0-2.7-2.2-4.9-4.9-4.9z" fill="#2c2a3e"/><path d="m74.8 151.6h133.6" fill="none" stroke="#2c2a3e" stroke-linecap="round" stroke-linejoin="round" stroke-width=".854"/><path d="m74.8 186.7h133.6" fill="none" stroke="#2c2a3e" stroke-linecap="round" stroke-linejoin="round" stroke-width=".854"/><path d="m210.1 176.4c-.5 0-.9-.4-.9-.9v-20.9c0-.5.4-.9.9-.9 2 0 3.6 1.6 3.6 3.6v15.5c0 2-1.6 3.6-3.6 3.6z" fill="#f0f6fe"/><path d="m210.1 154.6c1.5 0 2.7 1.2 2.7 2.7v15.5c0 1.5-1.2 2.7-2.7 2.7zm0-1.7c-.9 0-1.7.8-1.7 1.7v20.9c0 .9.8 1.7 1.7 1.7 2.4 0 4.4-2 4.4-4.4v-15.5c0-2.4-1.9-4.4-4.4-4.4z" fill="#2c2a3e"/><path d="m191.6 186.7v-35.1" fill="none" stroke="#2c2a3e" stroke-linecap="round" stroke-linejoin="round" stroke-width=".854"/><path d="m175.4 186.7v-35.1" fill="none" stroke="#2c2a3e" stroke-linecap="round" stroke-linejoin="round" stroke-width=".854"/><path d="m158.5 186.7v-35.1" fill="none" stroke="#2c2a3e" stroke-linecap="round" stroke-linejoin="round" stroke-width=".854"/><path d="m141.6 186.7v-35.1" fill="none" stroke="#2c2a3e" stroke-linecap="round" stroke-linejoin="round" stroke-width=".854"/><path d="m124.7 186.7v-35.1" fill="none" stroke="#2c2a3e" stroke-linecap="round" stroke-linejoin="round" stroke-width=".854"/><path d="m107.9 186.7v-35.1" fill="none" stroke="#2c2a3e" stroke-linecap="round" stroke-linejoin="round" stroke-width=".854"/><path d="m91.7 186.7v-35.1" fill="none" stroke="#2c2a3e" stroke-linecap="round" stroke-linejoin="round" stroke-width=".854"/><path d="m309.4 201.7c-.6 0-1.1-.5-1.1-1.1v-1.8c0-2.8-2.2-5-5-5.1-2.9 0-5.2 2.3-5.2 5.2v.1.8c0 .6-.5 1.1-1.1 1.1-3.3-.3-5.3-.8-6.1-2-.7-1.1-.6-3.2-.5-4.4.1-.4.2-.8.5-1.2l1.3-1.8.7-4.4-.2-1.3v-.1c0-.5.3-.9.7-1.1l.4-.1c3.2-1.1 12.8-4.2 17.4-4.7 2.4-.2 4.8-.4 7.2-.4 3.7-.1 7.3.3 10.9 1.1 5.3 1.4 14.3 5.7 15.4 6.3l2.1.4c.5.1.9.2 1.4.3h.1c.9.3 3.3 1.2 4.4 1.6 1.4.5 5.8 2.4 6.3 6.2.4 1.9.1 3.9-.8 5.7-.2.2-.4.3-.7.3l-4.9.5h-.1c-.6 0-1.1-.5-1.1-1.1v-1.7c0-2.8-2.2-5-5-5.1-2.9 0-5.2 2.3-5.2 5.2v.1 1.7c0 .6-.5 1.1-1.1 1.1z" fill="#f0f6fe"/><path d="m318.5 180.2c3.6-.1 7.2.3 10.7 1.1 5.6 1.5 15.4 6.3 15.4 6.3l2.2.4c.4.1.9.2 1.3.3.9.3 3.3 1.2 4.5 1.6 1.5.5 5.3 2.3 5.7 5.5.4 1.7.1 3.4-.6 5l-5 .5c-.1 0-.2-.1-.2-.2v-1.8c0-3.2-2.6-5.9-5.8-5.9h-.1c-3.3.1-6 2.8-6 6.1v1.7c0 .1-.1.2-.2.2l-30.9-.1c-.1 0-.2-.1-.2-.2v-1.8c0-3.2-2.6-5.9-5.8-5.9h-.1c-3.3.1-6 2.8-6 6.1v.8c0 .1-.1.2-.3.2-3-.3-4.7-.7-5.4-1.7-.5-.8-.5-2.9-.4-3.8 0-.3.1-.5.3-.8l1.4-1.9.8-4.8-.3-1.5c0-.1.1-.2.2-.3 2.7-.9 12.9-4.2 17.7-4.8 2.4-.1 4.7-.2 7.1-.3m0-1.6c-2.4 0-4.9.1-7.3.4-4.2.5-12.1 2.9-17.6 4.7l-.4.1c-.8.3-1.3 1-1.3 1.9v.3l.2 1.2-.7 4-1.2 1.5c-.3.5-.5 1-.6 1.5v.1c-.2 2.3.1 4 .7 4.9 1.1 1.7 3.7 2.1 6.6 2.4h.1c1.1 0 2-.9 2-1.9v-.7c0-2.4 1.9-4.3 4.2-4.4h.1c2.3 0 4.2 1.9 4.2 4.2v1.8c0 1.1.9 1.9 1.9 1.9l30.8.1c1.1 0 1.9-.9 2-1.9v-1.7c0-2.4 1.9-4.3 4.2-4.4h.1c2.3 0 4.2 1.9 4.2 4.2v1.8c0 1.1.9 1.9 1.9 1.9h.2l4.9-.5c.5 0 .9-.2 1.2-.6.5-.6 1.5-3 1-6.3-.6-4.2-5.4-6.3-6.8-6.9-1.2-.4-3.6-1.3-4.5-1.6h-.1c-.5-.1-1-.3-1.5-.3l-2-.4c-1.5-.7-10.2-4.9-15.5-6.3-3.6-.7-7.4-1.1-11-1z" fill="#2c2a3e"/><path d="m339.3 189.1c1.5 3.6-.3 9.6-.3 9.6 0 .4-.3.7-.7.7l-25.5-.4c-1 0-1.8-.6-2.2-1.5l-.6-2c-.2-.7-.5-1.3-.9-1.8l-2.7-2.7c-.8-1.1-.9-2.7-.1-3.8l3.1-4.7" fill="#f0f6fe" stroke="#2c2a3e" stroke-linecap="round" stroke-linejoin="round" stroke-width=".854"/><path d="m343.7 189.4c.1 0 .3 0 .3-.2 0-.1 0-.2-.1-.3-1.8-.9-5.4-2.8-7.6-3.7-4.7-2.2-9.7-3.4-14.8-3.7-4.4-.2-8.9.2-13.2 1.2-2 .5-3.8 1.1-4.8 1.4-.3.1-.4.3-.3.6 0 .1.1.2.1.2l1.2 1.2c.2.2.6.4.9.4z" fill="none" stroke="#2c2a3e" stroke-linecap="round" stroke-linejoin="round" stroke-width=".854"/><path d="m293.5 185.7.3 1.5-.8 4.8h.1c.3 0 .5-.1.7-.3l2.9-3.7c.3-.3.2-.8-.1-1 0 0 0 0-.1 0l-2-1.8c-.4.1-.7.2-1 .3z" fill="#f0f6fe" stroke="#2c2a3e" stroke-linecap="round" stroke-linejoin="round" stroke-width=".854"/><path d="m324.4 191.1c-.4 0-.7-.3-.7-.7 0-.4.3-.8.7-.8h3.2c.4 0 .7.3.7.7 0 .4-.3.7-.7.8z" fill="#f0f6fe"/><path d="m327.5 190c.2 0 .3.1.3.3 0 .2-.1.3-.3.3h-3.2c-.2 0-.3-.1-.3-.3 0-.2.1-.3.3-.3zm0-.9h-3.2c-.6 0-1.2.5-1.2 1.2 0 .6.5 1.2 1.2 1.2h3.2c.6 0 1.2-.5 1.2-1.2 0-.6-.5-1.2-1.2-1.2z" fill="#2c2a3e"/><path d="m308.4 189.9c-.4 0-.7-.3-.7-.7 0-.4.3-.8.7-.8h3.2c.4 0 .7.3.7.7 0 .2 0 .4-.1.5-.1.2-.4.3-.6.3z" fill="#f0f6fe"/><path d="m311.6 188.9c.2 0 .3.1.3.3 0 .2-.1.3-.3.3h-3.2c-.2 0-.3-.1-.3-.3 0-.2.1-.3.3-.3zm0-.9h-3.2c-.6 0-1.1.5-1.1 1.1 0 .6.5 1.2 1.1 1.2h3.2c.4 0 .7-.2.9-.4s.3-.5.2-.8c0-.6-.5-1.1-1.1-1.1z" fill="#2c2a3e"/><path d="m336.6 189.4c-.2 0-.4-.2-.4-.4v-1.7c0-.5.4-.9.9-.9h2c.8 0 1.4.6 1.4 1.4v.1c0 .4-.1.7-.4 1s-.7.4-1.1.4z" fill="#f0f6fe"/><path d="m339 186.9c.5 0 1 .4 1 1v.1c0 .5-.4 1-.9 1 0 0 0 0-.1 0h-2.4v-1.7c0-.2.2-.4.4-.4zm0-.9h-2c-.7 0-1.3.6-1.3 1.3v1.7c0 .5.4.9.9.9h2.4c.5 0 1-.2 1.3-.6.3-.3.5-.8.5-1.3v-.1c0-1.1-.8-1.9-1.8-1.9z" fill="#2c2a3e"/><path d="m355.8 191.6-4.8-.3c-.1 0-.3.1-.3.2s0 .2.1.2l2.5 1.2c.3.2.6.3.9.6.7.5 1.5.9 2.3 1.1l2.1.4c-.6-1.4-1.5-2.6-2.8-3.4z" fill="#f0f6fe" stroke="#2c2a3e" stroke-linecap="round" stroke-linejoin="round" stroke-width=".854"/><path d="m320.6 181.5c1.4 6 1.9 12.8.8 17.7" fill="none" stroke="#2c2a3e" stroke-linecap="round" stroke-linejoin="round" stroke-width=".854"/><path d="m293.8 191.6.5.3c.3.2.6.3.9.3l4.1.1c.2 0 .3.1.5.2l1.3.9" fill="#f0f6fe" stroke="#2c2a3e" stroke-linecap="round" stroke-linejoin="round" stroke-width=".854"/><path d="m346.5 204c-2.8 0-5.1-2.3-5.1-5.1s2.3-5.1 5.1-5.1 5.1 2.3 5.1 5.1c0 2.8-2.3 5.1-5.1 5.1z" fill="#f0f6fe"/><path d="m346.5 194.8c2.3 0 4.2 1.9 4.2 4.2s-1.9 4.2-4.2 4.2-4.2-1.9-4.2-4.2 1.9-4.2 4.2-4.2m0-1.7c-3.3 0-5.9 2.6-5.9 5.9s2.6 5.9 5.9 5.9 5.9-2.6 5.9-5.9c0-3.3-2.6-5.9-5.9-5.9z" fill="#2c2a3e"/><circle cx="346.5" cy="199" fill="#f0f6fe" r="2.1" stroke="#2c2a3e" stroke-linecap="round" stroke-linejoin="round" stroke-width=".854"/><path d="m303.2 204c-2.8 0-5.1-2.3-5.1-5.1s2.3-5.1 5.1-5.1 5.1 2.3 5.1 5.1c0 2.8-2.3 5.1-5.1 5.1z" fill="#f0f6fe"/><path d="m303.2 194.8c2.3 0 4.2 1.9 4.2 4.2s-1.9 4.2-4.2 4.2-4.2-1.9-4.2-4.2 1.9-4.2 4.2-4.2m0-1.7c-3.3 0-5.9 2.6-5.9 5.9s2.6 5.9 5.9 5.9 5.9-2.6 5.9-5.9c0-3.3-2.6-5.9-5.9-5.9z" fill="#2c2a3e"/><circle cx="303.2" cy="199" fill="#f0f6fe" r="2.1" stroke="#2c2a3e" stroke-linecap="round" stroke-linejoin="round" stroke-width=".854"/><path d="m273.2 171.8c3.4-8.1 12.8-11.9 20.9-8.5 5.5 2.3 9.3 7.6 9.7 13.6" fill="none" stroke="#2dccd3" stroke-dasharray="1.0543 5.2713" stroke-miterlimit="10" stroke-width="14.7597"/><path d="m1009.8 192.8v-111.8c0-3-2.4-5.4-5.4-5.4h-168.1c-3 0-5.4 2.4-5.4 5.4v111.8h-26.6v3.3c.1 1.1.9 2 2 2.1l32.2 5.8c.9.1 1.9.2 2.9.2h157.9c1 0 1.9-.1 2.9-.2l32.2-5.8c1.1-.1 1.9-1 1.9-2.1v-3.3z" fill="#f0f6fe" stroke="#2c2a3e" stroke-linecap="round" stroke-linejoin="round" stroke-width="1.7079"/><path d="m1002.6 83.7h-164.4v109.3h164.4z" fill="none" stroke="#2c2a3e" stroke-linecap="round" stroke-linejoin="round" stroke-width=".854"/><path d="m838.7 97.4h163.4" fill="none" stroke="#2c2a3e" stroke-linecap="round" stroke-linejoin="round" stroke-width=".854"/><path d="m838.7 107.4h163.4" fill="none" stroke="#2c2a3e" stroke-linecap="round" stroke-linejoin="round" stroke-width=".854"/><circle cx="845.6" cy="91.1" fill="#2c2a3e" r="2.2"/><circle cx="854.5" cy="91.1" fill="#2c2a3e" r="2.2"/><circle cx="863.3" cy="91.1" fill="#2c2a3e" r="2.2"/><path d="m804.9 192.8h231.3" fill="none" stroke="#2c2a3e" stroke-linecap="round" stroke-linejoin="round" stroke-width="1.7079"/><path d="m956.6 123h41.2v23.2h-41.2z" fill="none" stroke="#2c2a3e" stroke-linecap="round" stroke-linejoin="round" stroke-width="1.0372"/><path d="m977.3 127.4c4 0 7.3 3.2 7.3 7.3 0 4-3.2 7.3-7.3 7.3-4 0-7.3-3.2-7.3-7.3 0-4 3.2-7.3 7.3-7.3" fill="#2dccd3"/><path d="m980.8 134.9-4.7 3.3c-.1.1-.4.1-.6-.1 0 0-.1-.1-.1-.3v-6.7c0-.1.1-.4.4-.4.1 0 .1 0 .3.1l4.7 3.3c.1.4.1.6 0 .8z" fill="#f0f6fe"/><path d="m867.7 123h85.8v48.3h-85.8z" fill="#00263e" stroke="#2c2a3e" stroke-linecap="round" stroke-linejoin="round" stroke-width="1.0372"/><path d="m910.6 136.6c5.8 0 10.6 4.6 10.6 10.6 0 5.8-4.6 10.6-10.6 10.6s-10.6-4.6-10.6-10.6c0-5.7 4.8-10.6 10.6-10.6" fill="#2dccd3" stroke="#f0f6fe" stroke-miterlimit="10"/><path d="m915.7 147.6-6.8 4.8c-.1.1-.6.1-.9-.1 0 0-.1-.1-.1-.4v-9.7c0-.1.1-.6.6-.6.1 0 .1 0 .4.1l6.8 4.8c.1.4.1.8 0 1.1z" fill="#f0f6fe"/><path d="m867.7 174.6h15.5v10.8h-15.5z" fill="none" stroke="#2c2a3e" stroke-linecap="round" stroke-linejoin="round" stroke-width="1.0372"/><path d="m886.8 174.4h15.5v10.8h-15.5z" fill="none" stroke="#2c2a3e" stroke-linecap="round" stroke-linejoin="round" stroke-width="1.0372"/><path d="m905.9 174.4h15.5v10.8h-15.5z" fill="none" stroke="#2c2a3e" stroke-linecap="round" stroke-linejoin="round" stroke-width="1.0372"/><path d="m925 174.4h15.5v10.8h-15.5z" fill="none" stroke="#2c2a3e" stroke-linecap="round" stroke-linejoin="round" stroke-width="1.0372"/><path d="m944.1 174.4h15.5v10.8h-15.5z" fill="none" stroke="#2c2a3e" stroke-linecap="round" stroke-linejoin="round" stroke-width="1.0372"/><path d="m963.2 174.4h15.5v10.8h-15.5z" fill="none" stroke="#2c2a3e" stroke-linecap="round" stroke-linejoin="round" stroke-width="1.0372"/><path d="m982.3 174.4h15.5v10.8h-15.5z" fill="none" stroke="#2c2a3e" stroke-linecap="round" stroke-linejoin="round" stroke-width="1.0372"/><g clip-path="url(#a)" fill="#2c2a3e"><g stroke="#2c2a3e" stroke-linecap="round" stroke-linejoin="round" stroke-width=".369"><path d="m983 164.7c.1.1.1.1 0 0l7.5-7.4h-.2l-7.3 7.4-2.2-2.3.2.4z"/><path d="m978.1 150.6c.1 0 .1 0 0 0 .1 0 .1.1 0 0 .1.1.1.1.1.1l7.9-7.9v-.1h-.1l-7.9 7.9-8-8h-.1v.1z"/><path d="m977 151.8-7.4 7.4.4-.2 7.2-7.2v-.1l-9.1-9.1h-.1v.1z"/><path d="m997.1 150.7s.1 0 0 0l5.5-5.5v-.1h-.1l-5.4 5.4-8-8h-.1v.1z"/><path d="m973.6 157.6 2.8 2.8h.2l-3-2.8c.1-.1.1-.1 0 0v-.2h-.1l-3.2 3.2-.1.4 3.4-3.4c0-.1 0 0 0 0z"/><path d="m1002.6 147.4v-.1h-.1l-4.4 4.4v.1l4.5 4.5v-.1l-4.4-4.4z"/><path d="m961.3 167.7 4.7-4.7h-.2l-4.5 4.5-5.1-5.2h-.1v.1z"/><path d="m974.7 156.3 2.8 2.8v-.2l-2.8-2.6 12.9-12.9 8.3 8.3-2.1 2.1.4-.2 1.9-1.9v-.1l-8.4-8.4z"/><path d="m983.1 166.8-8 7.8v.1l7.8-7.8 7.7 7.7v-.1z"/><path d="m984.3 165.7 7.5-7.5v-.2l-7.5 7.7-.1.1 5.6 5.6 3.4 3.4v-.1z"/><path d="m997.1 152.8-1.6 1.5-.1.3v.1l1.7-1.7 5.6 5.6v-.1z"/><path d="m960.1 168.8c.1 0 .1 0 0 0 .1-.1.1-.1 0-.1l-3.9-3.9h-.1v.1l4 3.9-4 3.9v.1z"/><path d="m961.3 169.8-4.9 4.8v.1l4.7-4.7 4.7 4.7v-.1z"/><path d="m982 165.9c0-.1 0-.1 0 0l-1.9-1.9-.4-.1 2.1 2.1-8.7 8.7v.1z"/><path d="m962.5 168.7 4.5-4.5v-.2l-4.7 4.7 5.8 5.8v-.1z"/></g><path d="m967.5 163.1.4 1.5 1.8-4.6-4.7 2.1 1.7.4c.5 0 .7.2.8.6z"/><path d="m992.4 157.5.4 1.5 1.9-4.6-4.7 2.1 1.7.4c.3-.1.6.2.7.6z"/><path d="m980.5 163.2-2.1-4.6-.4 1.7c-.1.3-.3.6-.7.7l-1.5.4z"/></g><path d="m956.6 148.6h41.2v22.7h-41.2z" fill="none" stroke="#2c2a3e" stroke-linecap="round" stroke-linejoin="round" stroke-width="1.0372"/><path d="m867.7 115.6h5" fill="none" stroke="#2c2a3e" stroke-linecap="round" stroke-linejoin="round" stroke-width="1.0372"/><path d="m874.4 115.6h1.6" fill="none" stroke="#2c2a3e" stroke-linecap="round" stroke-linejoin="round" stroke-width="1.0372"/><path d="m878.3 115.6h10.6" fill="none" stroke="#2c2a3e" stroke-linecap="round" stroke-linejoin="round" stroke-width="1.0372"/><path d="m893.1 115.6h13.5" fill="none" stroke="#2c2a3e" stroke-linecap="round" stroke-linejoin="round" stroke-width="1.0372"/><path d="m842.3 115.6h6.3" fill="none" stroke="#2c2a3e" stroke-linecap="round" stroke-linejoin="round" stroke-width="1.0372"/><path d="m842.3 126.3h5.2" fill="none" stroke="#2c2a3e" stroke-linecap="round" stroke-linejoin="round" stroke-width="1.0372"/><path d="m842.3 119.2h5.9" fill="none" stroke="#2c2a3e" stroke-linecap="round" stroke-linejoin="round" stroke-width="1.0372"/><path d="m850.4 119.2h1.3" fill="none" stroke="#2c2a3e" stroke-linecap="round" stroke-linejoin="round" stroke-width="1.0372"/><path d="m842.3 129.9h3.6" fill="none" stroke="#2c2a3e" stroke-linecap="round" stroke-linejoin="round" stroke-width="1.0372"/><path d="m848.1 129.9h1.3" fill="none" stroke="#2c2a3e" stroke-linecap="round" stroke-linejoin="round" stroke-width="1.0372"/><path d="m842.3 171.3h10.9" fill="none" stroke="#2c2a3e" stroke-linecap="round" stroke-linejoin="round" stroke-width="1.0372"/><path d="m842.3 174.9h9.4" fill="none" stroke="#2c2a3e" stroke-linecap="round" stroke-linejoin="round" stroke-width="1.0372"/><path d="m853.8 174.9h1.3" fill="none" stroke="#2c2a3e" stroke-linecap="round" stroke-linejoin="round" stroke-width="1.0372"/><path d="m842.3 122.8h3.6" fill="none" stroke="#2c2a3e" stroke-linecap="round" stroke-linejoin="round" stroke-width="1.0372"/><path d="m848.1 122.8h1.3" fill="none" stroke="#2c2a3e" stroke-linecap="round" stroke-linejoin="round" stroke-width="1.0372"/><path d="m842.3 164.2h8.6" fill="none" stroke="#2c2a3e" stroke-linecap="round" stroke-linejoin="round" stroke-width="1.0372"/><path d="m842.3 167.7h8.2" fill="none" stroke="#2c2a3e" stroke-linecap="round" stroke-linejoin="round" stroke-width="1.0372"/><path d="m852.7 167.7h1.3" fill="none" stroke="#2c2a3e" stroke-linecap="round" stroke-linejoin="round" stroke-width="1.0372"/><path d="m842.3 160.6h7.1" fill="none" stroke="#2c2a3e" stroke-linecap="round" stroke-linejoin="round" stroke-width="1.0372"/><path d="m851.5 160.6h1.3" fill="none" stroke="#2c2a3e" stroke-linecap="round" stroke-linejoin="round" stroke-width="1.0372"/><path d="m842.3 148.8h3.6" fill="none" stroke="#2c2a3e" stroke-linecap="round" stroke-linejoin="round" stroke-width="1.0372"/><path d="m848.1 148.8h1.3" fill="none" stroke="#2c2a3e" stroke-linecap="round" stroke-linejoin="round" stroke-width="1.0372"/><path d="m842.3 141.7h5.9" fill="none" stroke="#2c2a3e" stroke-linecap="round" stroke-linejoin="round" stroke-width="1.0372"/><path d="m850.4 141.7h1.3" fill="none" stroke="#2c2a3e" stroke-linecap="round" stroke-linejoin="round" stroke-width="1.0372"/><path d="m842.3 145.3h3.6" fill="none" stroke="#2c2a3e" stroke-linecap="round" stroke-linejoin="round" stroke-width="1.0372"/><path d="m848.1 145.3h1.3" fill="none" stroke="#2c2a3e" stroke-linecap="round" stroke-linejoin="round" stroke-width="1.0372"/><path d="m842.3 185.4h3.6" fill="none" stroke="#2c2a3e" stroke-linecap="round" stroke-linejoin="round" stroke-width="1.0372"/><path d="m848.1 185.4h1.3" fill="none" stroke="#2c2a3e" stroke-linecap="round" stroke-linejoin="round" stroke-width="1.0372"/><path d="m842.3 178.2h5.9" fill="none" stroke="#2c2a3e" stroke-linecap="round" stroke-linejoin="round" stroke-width="1.0372"/><path d="m850.4 178.2h1.3" fill="none" stroke="#2c2a3e" stroke-linecap="round" stroke-linejoin="round" stroke-width="1.0372"/><path d="m842.3 181.8h3.6" fill="none" stroke="#2c2a3e" stroke-linecap="round" stroke-linejoin="round" stroke-width="1.0372"/><path d="m848.1 181.8h1.3" fill="none" stroke="#2c2a3e" stroke-linecap="round" stroke-linejoin="round" stroke-width="1.0372"/><path d="m842.3 138.1h4" fill="none" stroke="#2c2a3e" stroke-linecap="round" stroke-linejoin="round" stroke-width="1.0372"/><path d="m842.3 157h8.6" fill="none" stroke="#2c2a3e" stroke-linecap="round" stroke-linejoin="round" stroke-width="1.0372"/><path d="m70.5 291.1c0-4.8 2.6-7.7 6.5-7.7 3.8 0 6.4 2.9 6.4 7.7s-2.7 7.7-6.4 7.7c-3.9.1-6.5-2.9-6.5-7.7zm9.7 0c0-3.3-1.3-4.9-3.3-4.9-2.1 0-3.3 1.6-3.3 4.9s1.3 4.9 3.3 4.9c2.1 0 3.3-1.6 3.3-4.9z" fill="#2dccd3"/><path d="m89.1 287.1-3.7 2.2v-3.3l3.9-2.3h2.9v14.8h-3.1z" fill="#2dccd3"/><path d="m70.6 319.7 1.4-.3c.2 1.1.5 1.9.9 2.4.5.5 1.2.7 2.2.7.8 0 1.5-.2 1.9-.6s.6-.8.6-1.4c0-.5-.2-1-.6-1.3s-1.2-.7-2.5-1.1c-1.2-.4-2.1-.8-2.7-1.3-.5-.5-.8-1.1-.8-1.9s.3-1.5 1-2.1c.6-.6 1.5-.9 2.6-.9s1.9.3 2.6.8 1.1 1.3 1.3 2.3l-1.3.3c-.1-.7-.4-1.2-.8-1.6s-1-.5-1.8-.5c-.7 0-1.2.2-1.6.5s-.6.7-.6 1.2c0 .4.2.8.5 1s1.1.6 2.3 1c1.5.5 2.5 1 3 1.5s.8 1.2.8 2c0 .9-.3 1.7-1 2.3s-1.6.9-2.9.9c-2.6.2-4.1-1.2-4.5-3.9z" fill="#545454"/><path d="m85.9 323.5v-.9c-.2.3-.5.5-.9.8-.4.2-1 .4-1.7.4-.9 0-1.7-.2-2.1-.7-.5-.5-.7-1-.7-1.7s.2-1.3.6-1.7 1.2-.7 2.2-1c.4-.1.7-.2.9-.2.2-.1.4-.1.6-.2s.4-.2.5-.3.2-.2.3-.3.1-.3.1-.4c0-.4-.1-.7-.4-.9s-.7-.4-1.3-.4c-1.1 0-1.8.6-2.1 1.7l-1.2-.3c.1-.7.5-1.4 1-1.8.6-.5 1.3-.7 2.2-.7 1 0 1.8.2 2.3.7.6.5.9 1.2.9 2.3v5.7h-1.2zm-2.3-3.8c-.7.2-1.2.4-1.5.7-.3.2-.4.5-.4.9 0 .9.6 1.3 1.7 1.3.8 0 1.4-.2 1.8-.5s.6-.8.6-1.3v-2.1c-.2.3-.9.6-2.2 1z" fill="#545454"/><path d="m89.7 323.5v-8.5h1.2v.8c.2-.3.5-.6.9-.8s.8-.3 1.3-.3 1 .1 1.4.4c.4.2.7.5.9.9.2-.3.5-.6.9-.9.4-.2.9-.4 1.4-.4.9 0 1.6.3 2.1.8s.8 1.2.8 2.2v5.8h-1.3v-5.4c0-1.4-.6-2.1-1.7-2.1-.6 0-1 .2-1.4.5-.3.4-.5.9-.5 1.5v5.5h-1.3v-5.4c0-1.4-.6-2.1-1.7-2.1-.6 0-1.1.2-1.4.6s-.4.9-.4 1.5v5.5h-1.2z" fill="#545454"/><path d="m102.6 320.7 1.2-.2c.2 1.5.9 2.2 2.4 2.2.7 0 1.2-.1 1.5-.4s.5-.6.5-1-.2-.7-.5-1c-.3-.2-1-.5-2-.7-1-.3-1.8-.6-2.2-1s-.6-.9-.6-1.5.3-1.2.8-1.6c.5-.5 1.2-.7 2.2-.7.9 0 1.7.2 2.2.7.5.4.9 1 1.1 1.8l-1.1.3c-.3-1.1-1.1-1.6-2.2-1.6-.6 0-1 .1-1.3.4-.3.2-.4.5-.4.8 0 .4.1.6.4.8s.9.4 2 .7 1.9.7 2.3 1.1.6.9.6 1.6-.3 1.3-.8 1.7c-.5.5-1.3.7-2.4.7s-2-.3-2.6-.9-1-1.3-1.1-2.2z" fill="#545454"/><path d="m116.5 323.5v-.9c-.2.3-.5.5-.9.8-.4.2-1 .4-1.7.4-.9 0-1.7-.2-2.1-.7-.5-.5-.7-1-.7-1.7s.2-1.3.6-1.7 1.2-.7 2.2-1c.4-.1.7-.2.9-.2.2-.1.4-.1.6-.2s.4-.2.5-.3.2-.2.3-.3.1-.3.1-.4c0-.4-.1-.7-.4-.9s-.7-.4-1.3-.4c-1.1 0-1.8.6-2.1 1.7l-1.2-.3c.1-.7.5-1.4 1-1.8.6-.5 1.3-.7 2.2-.7 1 0 1.8.2 2.3.7.6.5.9 1.2.9 2.3v5.7h-1.2zm-2.4-3.8c-.7.2-1.2.4-1.5.7-.3.2-.4.5-.4.9 0 .9.6 1.3 1.7 1.3.8 0 1.4-.2 1.8-.5s.6-.8.6-1.3v-2.1c-.1.3-.9.6-2.2 1z" fill="#545454"/><path d="m120.2 323.5v-8.5h1.2v.9c.2-.3.4-.6.8-.8.3-.2.7-.3 1-.3h.4s.2.1.3.1h.1l-.2 1.3c-.2-.1-.4-.1-.7-.1-.5 0-.9.2-1.2.5-.2.4-.4.9-.4 1.7v5h-1.3z" fill="#545454"/><path d="m130.7 323.5v-.9c-.2.3-.5.5-.9.8-.4.2-1 .4-1.7.4-.9 0-1.7-.2-2.1-.7-.5-.5-.7-1-.7-1.7s.2-1.3.6-1.7 1.2-.7 2.2-1c.4-.1.7-.2.9-.2.2-.1.4-.1.6-.2s.4-.2.5-.3l.3-.3c.1-.1.1-.3.1-.4 0-.4-.1-.7-.4-.9s-.7-.4-1.3-.4c-1.1 0-1.8.6-2.1 1.7l-1.2-.3c.1-.7.5-1.4 1-1.8.6-.5 1.3-.7 2.2-.7 1 0 1.8.2 2.3.7.6.5.9 1.2.9 2.3v5.7h-1.2zm-2.3-3.8c-.7.2-1.2.4-1.5.7-.3.2-.4.5-.4.9 0 .9.6 1.3 1.7 1.3.8 0 1.4-.2 1.8-.5s.6-.8.6-1.3v-2.1c-.2.3-.9.6-2.2 1z" fill="#545454"/><path d="m143.4 323.5v-.9c-.2.3-.5.5-.9.8-.4.2-1 .4-1.7.4-.9 0-1.7-.2-2.1-.7-.5-.5-.7-1-.7-1.7s.2-1.3.6-1.7 1.2-.7 2.2-1c.4-.1.7-.2.9-.2.2-.1.4-.1.6-.2s.4-.2.5-.3.2-.2.3-.3.1-.3.1-.4c0-.4-.1-.7-.4-.9s-.7-.4-1.3-.4c-1.1 0-1.8.6-2.1 1.7l-1.2-.3c.1-.7.5-1.4 1-1.8.6-.5 1.3-.7 2.2-.7 1 0 1.8.2 2.3.7.6.5.9 1.2.9 2.3v5.7h-1.2zm-2.4-3.8c-.7.2-1.2.4-1.5.7-.3.2-.4.5-.4.9 0 .9.6 1.3 1.7 1.3.8 0 1.4-.2 1.8-.5s.6-.8.6-1.3v-2.1c-.2.3-.9.6-2.2 1z" fill="#545454"/><path d="m147 320.6v-5.5h1.3v5.3c0 .8.2 1.3.5 1.7.3.3.8.5 1.5.5.6 0 1.1-.2 1.5-.6.3-.4.5-.9.5-1.6v-5.3h1.3v8.5h-1.3v-.8c-.1.1-.1.2-.2.3s-.4.3-.7.5c-.4.2-.8.3-1.3.3-.9 0-1.7-.3-2.2-.8-.6-.7-.9-1.5-.9-2.5z" fill="#545454"/><path d="m156.6 321.1v-4.8h-1.2v-1.2h1.2v-2.1h1.2v2.1h2.1v1.2h-2.1v4.7c0 .5.1.9.2 1.1s.4.3.8.3h.6v1.3h-.7c-.8 0-1.4-.2-1.7-.6-.2-.6-.4-1.2-.4-2z" fill="#545454"/><path d="m165 323.8c-1.1 0-2-.4-2.8-1.2-.7-.8-1.1-1.9-1.1-3.3s.4-2.5 1.1-3.3 1.7-1.2 2.7-1.2c1.1 0 2 .4 2.7 1.2s1.1 1.9 1.1 3.3-.4 2.5-1.1 3.3c-.6.8-1.5 1.2-2.6 1.2zm0-1.2c.7 0 1.3-.3 1.8-.9s.7-1.4.7-2.4-.2-1.8-.7-2.4-1.1-.9-1.8-.9-1.4.3-1.8.9c-.5.6-.7 1.4-.7 2.4 0 1.1.2 1.9.7 2.4s1.1.9 1.8.9z" fill="#545454"/><path d="m171 323.5v-8.5h1.2v.8c.2-.3.5-.6.9-.8s.8-.3 1.3-.3 1 .1 1.4.4c.4.2.7.5.9.9.2-.3.5-.6.9-.9.4-.2.9-.4 1.4-.4.9 0 1.6.3 2.1.8s.8 1.2.8 2.2v5.8h-1.3v-5.4c0-1.4-.6-2.1-1.7-2.1-.6 0-1 .2-1.4.5-.3.4-.5.9-.5 1.5v5.5h-1.3v-5.4c0-1.4-.6-2.1-1.7-2.1-.6 0-1.1.2-1.4.6s-.4.9-.4 1.5v5.5h-1.2z" fill="#545454"/><path d="m189.5 323.5v-.9c-.2.3-.5.5-.9.8-.4.2-1 .4-1.7.4-.9 0-1.7-.2-2.1-.7-.5-.5-.7-1-.7-1.7s.2-1.3.6-1.7 1.2-.7 2.2-1c.4-.1.7-.2.9-.2.2-.1.4-.1.6-.2s.4-.2.5-.3.2-.2.3-.3.1-.3.1-.4c0-.4-.1-.7-.4-.9s-.7-.4-1.3-.4c-1.1 0-1.8.6-2.1 1.7l-1.2-.3c.1-.7.5-1.4 1-1.8.6-.5 1.3-.7 2.2-.7 1 0 1.8.2 2.3.7.6.5.9 1.2.9 2.3v5.7h-1.2zm-2.4-3.8c-.7.2-1.2.4-1.5.7-.3.2-.4.5-.4.9 0 .9.6 1.3 1.7 1.3.8 0 1.4-.2 1.8-.5s.6-.8.6-1.3v-2.1c-.1.3-.8.6-2.2 1z" fill="#545454"/><path d="m193.5 321.1v-4.8h-1.2v-1.2h1.2v-2.1h1.2v2.1h2.1v1.2h-2.1v4.7c0 .5.1.9.2 1.1s.4.3.8.3h.6v1.3h-.7c-.8 0-1.4-.2-1.7-.6-.2-.6-.4-1.2-.4-2z" fill="#545454"/><path d="m199 313.3v-1.5h1.5v1.5zm.1 10.2v-8.5h1.3v8.5z" fill="#545454"/><path d="m208.7 320.3 1.3.3c-.1 1-.5 1.8-1.2 2.4-.6.6-1.4.9-2.4.9-1.1 0-2.1-.4-2.8-1.2s-1.1-1.9-1.1-3.3.4-2.5 1.1-3.3 1.7-1.2 2.8-1.2c.9 0 1.7.3 2.3.9s1 1.3 1.2 2.2l-1.2.3c-.1-.6-.4-1.1-.7-1.6-.4-.4-.9-.6-1.5-.6-.8 0-1.4.3-1.9.9s-.7 1.4-.7 2.4.2 1.8.7 2.4 1.1.9 1.9.9c.6 0 1.1-.2 1.5-.7s.7-1.1.7-1.7z" fill="#545454"/><path d="m217 323.5v-.9c-.2.3-.5.5-.9.8-.4.2-1 .4-1.7.4-.9 0-1.7-.2-2.1-.7-.5-.5-.7-1-.7-1.7s.2-1.3.6-1.7 1.2-.7 2.2-1c.4-.1.7-.2.9-.2.2-.1.4-.1.6-.2s.4-.2.5-.3.2-.2.3-.3.1-.3.1-.4c0-.4-.1-.7-.4-.9s-.7-.4-1.3-.4c-1.1 0-1.8.6-2.1 1.7l-1.2-.3c.1-.7.5-1.4 1-1.8.6-.5 1.3-.7 2.2-.7 1 0 1.8.2 2.3.7.6.5.9 1.2.9 2.3v5.7h-1.2zm-2.3-3.8c-.7.2-1.2.4-1.5.7-.3.2-.4.5-.4.9 0 .9.6 1.3 1.7 1.3.8 0 1.4-.2 1.8-.5s.6-.8.6-1.3v-2.1c-.2.3-.9.6-2.2 1z" fill="#545454"/><path d="m220.7 323.5v-11.7h1.3v11.7z" fill="#545454"/><path d="m224.8 323.5v-11.7h1.3v11.7z" fill="#545454"/><path d="m229.3 327.1 1.7-4.5-3.2-7.6h1.4l2.4 5.9 2.2-5.9h1.3l-4.6 12.1z" fill="#545454"/><path d="m240.8 313.3v-1.5h1.5v1.5zm.1 10.2v-8.5h1.3v8.5z" fill="#545454"/><path d="m250.6 323.5v-.8c-.2.3-.6.5-1 .7s-.9.3-1.5.3c-1.1 0-2-.4-2.7-1.2s-1-1.9-1-3.3.3-2.4 1-3.3c.7-.8 1.6-1.2 2.6-1.2s1.8.4 2.4 1.1v-4h1.3v11.7zm-.1-2.8v-2.6c0-.5-.2-1-.6-1.4s-.9-.6-1.6-.6c-.8 0-1.5.3-1.9.9s-.7 1.4-.7 2.4.2 1.9.7 2.4c.4.6 1.1.9 1.9.9.6 0 1.1-.2 1.6-.6.4-.4.6-.9.6-1.4z" fill="#545454"/><path d="m260.4 320.9 1.1.7c-.3.6-.8 1.1-1.4 1.5s-1.3.6-2.2.6c-1.2 0-2.1-.4-2.8-1.2s-1.1-1.9-1.1-3.3.4-2.4 1.1-3.3c.7-.8 1.7-1.2 2.8-1.2s2 .4 2.8 1.2c.7.8 1.1 1.9 1.1 3.3v.4h-6.4c0 .8.2 1.5.7 2.1.4.6 1.1.8 1.9.8.3 0 .6 0 .9-.1s.5-.2.6-.3.3-.2.5-.4.3-.3.3-.4c-.1 0 0-.2.1-.4zm-5.1-2.3h5c0-.7-.2-1.3-.6-1.9s-1-.8-1.9-.8c-.8 0-1.4.3-1.9.8-.3.7-.6 1.3-.6 1.9z" fill="#545454"/><path d="m263.8 323.5v-8.5h1.3v.8c.2-.3.6-.6 1-.8s.9-.3 1.4-.3c.9 0 1.7.3 2.2.8s.8 1.3.8 2.3v5.6h-1.3v-5.2c0-1.6-.7-2.4-2-2.4-.7 0-1.2.2-1.6.6s-.6.9-.6 1.6v5.4h-1.2z" fill="#545454"/><path d="m273.5 321.1v-4.8h-1.2v-1.2h1.2v-2.1h1.2v2.1h2.1v1.2h-2.1v4.7c0 .5.1.9.2 1.1s.4.3.8.3h.6v1.3h-.7c-.8 0-1.4-.2-1.7-.6-.2-.6-.4-1.2-.4-2z" fill="#545454"/><path d="m279 313.3v-1.5h1.5v1.5zm.1 10.2v-8.5h1.3v8.5z" fill="#545454"/><path d="m283.5 323.5v-7.3h-1.2v-1.2h1.2v-1.3c0-.7.2-1.2.5-1.5s.8-.4 1.4-.4h1.2v1.2h-.9c-.3 0-.5.1-.6.2s-.2.4-.2.8v1h4.5v8.5h-1.4v-7.3h-3.2v7.3zm4.4-10.2v-1.5h1.5v1.5z" fill="#545454"/><path d="m298 320.9 1.1.7c-.3.6-.8 1.1-1.4 1.5s-1.3.6-2.2.6c-1.2 0-2.1-.4-2.8-1.2s-1.1-1.9-1.1-3.3.4-2.4 1.1-3.3c.7-.8 1.7-1.2 2.8-1.2s2 .4 2.8 1.2c.7.8 1.1 1.9 1.1 3.3v.4h-6.4c0 .8.2 1.5.7 2.1.4.6 1.1.8 1.9.8.3 0 .6 0 .9-.1s.5-.2.6-.3.3-.2.5-.4.3-.3.3-.4c-.1 0 0-.2.1-.4zm-5.1-2.3h5c0-.7-.2-1.3-.6-1.9s-1-.8-1.9-.8c-.8 0-1.4.3-1.9.8-.3.7-.6 1.3-.6 1.9z" fill="#545454"/><path d="m300.8 320.7 1.2-.2c.2 1.5.9 2.2 2.4 2.2.7 0 1.2-.1 1.5-.4s.5-.6.5-1-.2-.7-.5-1c-.3-.2-1-.5-2-.7-1-.3-1.8-.6-2.2-1s-.6-.9-.6-1.5.3-1.2.8-1.6c.5-.5 1.2-.7 2.2-.7.9 0 1.7.2 2.2.7.5.4.9 1 1.1 1.8l-1.1.3c-.3-1.1-1.1-1.6-2.2-1.6-.6 0-1 .1-1.3.4-.3.2-.4.5-.4.8 0 .4.1.6.4.8s.9.4 2 .7 1.9.7 2.3 1.1.6.9.6 1.6-.3 1.3-.8 1.7c-.5.5-1.3.7-2.4.7s-2-.3-2.6-.9c-.7-.6-1-1.3-1.1-2.2z" fill="#545454"/><path d="m71.1 345.6v-5.5h1.3v5.3c0 .8.2 1.3.5 1.7.3.3.8.5 1.5.5.6 0 1.1-.2 1.5-.6.3-.4.5-.9.5-1.6v-5.3h1.3v8.5h-1.3v-.8c-.1.1-.1.2-.2.3s-.4.3-.7.5c-.4.2-.8.3-1.3.3-.9 0-1.7-.3-2.2-.8-.6-.7-.9-1.5-.9-2.5z" fill="#545454"/><path d="m80.4 348.5v-8.5h1.3v.8c.2-.3.6-.6 1-.8s.9-.3 1.4-.3c.9 0 1.7.3 2.2.8s.8 1.3.8 2.3v5.6h-1.3v-5.2c0-1.6-.7-2.4-2-2.4-.7 0-1.2.2-1.6.6s-.6.9-.6 1.6v5.4h-1.2z" fill="#545454"/><path d="m89.1 345.7 1.2-.2c.2 1.5.9 2.2 2.4 2.2.7 0 1.2-.1 1.5-.4s.5-.6.5-1-.2-.7-.5-1c-.3-.2-1-.5-2-.7-1-.3-1.8-.6-2.2-1s-.6-.9-.6-1.5.3-1.2.8-1.6c.5-.5 1.2-.7 2.2-.7.9 0 1.7.2 2.2.7.5.4.9 1 1.1 1.8l-1.1.3c-.3-1.1-1.1-1.6-2.2-1.6-.6 0-1 .1-1.3.4-.3.2-.4.5-.4.8 0 .4.1.6.4.8s.9.4 2 .7 1.9.7 2.3 1.1.6.9.6 1.6-.3 1.3-.8 1.7c-.5.5-1.3.7-2.4.7s-2-.3-2.6-.9-1-1.3-1.1-2.2z" fill="#545454"/><path d="m103 348.5v-.9c-.2.3-.5.5-.9.8-.4.2-1 .4-1.7.4-.9 0-1.7-.2-2.1-.7-.5-.5-.7-1-.7-1.7s.2-1.3.6-1.7 1.2-.7 2.2-1c.4-.1.7-.2.9-.2.2-.1.4-.1.6-.2s.4-.2.5-.3.2-.2.3-.3.1-.3.1-.4c0-.4-.1-.7-.4-.9s-.7-.4-1.3-.4c-1.1 0-1.8.6-2.1 1.7l-1.2-.3c.1-.7.5-1.4 1-1.8.6-.5 1.3-.7 2.2-.7 1 0 1.8.2 2.3.7.6.5.9 1.2.9 2.3v5.7h-1.2zm-2.4-3.8c-.7.2-1.2.4-1.5.7-.3.2-.4.5-.4.9 0 .9.6 1.3 1.7 1.3.8 0 1.4-.2 1.8-.5s.6-.8.6-1.3v-2.1c-.1.3-.9.6-2.2 1z" fill="#545454"/><path d="m107 348.5v-7.3h-1.2v-1.2h1.2v-1.3c0-.7.2-1.2.5-1.5s.8-.4 1.4-.4h1.4v1.2h-1.1c-.3 0-.6.1-.7.2s-.2.4-.2.8v1h2.1v1.2h-2.1v7.3z" fill="#545454"/><path d="m117.8 345.9 1.1.7c-.3.6-.8 1.1-1.4 1.5s-1.3.6-2.2.6c-1.2 0-2.1-.4-2.8-1.2s-1.1-1.9-1.1-3.3.4-2.4 1.1-3.3c.7-.8 1.7-1.2 2.8-1.2s2 .4 2.8 1.2c.7.8 1.1 1.9 1.1 3.3v.4h-6.4c0 .8.2 1.5.7 2.1.4.6 1.1.8 1.9.8.3 0 .6 0 .9-.1s.5-.2.6-.3.3-.2.5-.4.3-.3.3-.4c0 0 0-.2.1-.4zm-5.1-2.3h5c0-.7-.2-1.3-.6-1.9s-1-.8-1.9-.8c-.8 0-1.4.3-1.9.8-.3.7-.5 1.3-.6 1.9z" fill="#545454"/><path d="m130.9 348.5v-.8c-.2.3-.6.5-1 .7s-.9.3-1.5.3c-1.1 0-2-.4-2.7-1.2s-1-1.9-1-3.3.3-2.4 1-3.3c.7-.8 1.6-1.2 2.6-1.2s1.8.4 2.4 1.1v-4h1.3v11.7zm-.2-2.8v-2.6c0-.5-.2-1-.6-1.4s-.9-.6-1.6-.6c-.8 0-1.5.3-1.9.9s-.7 1.4-.7 2.4.2 1.9.7 2.4c.4.6 1.1.9 1.9.9.6 0 1.1-.2 1.6-.6.4-.4.6-.9.6-1.4z" fill="#545454"/><path d="m134.8 348.5v-8.5h1.2v.9c.2-.3.4-.6.8-.8.3-.2.7-.3 1-.3h.4s.2.1.3.1h.1l-.2 1.3c-.2-.1-.4-.1-.7-.1-.5 0-.9.2-1.2.5-.2.4-.4.9-.4 1.7v5h-1.3z" fill="#545454"/><path d="m140.4 338.3v-1.5h1.5v1.5zm.1 10.2v-8.5h1.3v8.5z" fill="#545454"/><path d="m147.1 348.5-3.4-8.5h1.3l2.6 6.6 2.6-6.6h1.3l-3.4 8.5z" fill="#545454"/><path d="m153.3 338.3v-1.5h1.5v1.5zm.1 10.2v-8.5h1.3v8.5z" fill="#545454"/><path d="m157.5 348.5v-8.5h1.3v.8c.2-.3.6-.6 1-.8s.9-.3 1.4-.3c.9 0 1.7.3 2.2.8s.8 1.3.8 2.3v5.6h-1.2v-5.2c0-1.6-.7-2.4-2-2.4-.7 0-1.2.2-1.6.6s-.6.9-.6 1.6v5.4h-1.3z" fill="#545454"/><path d="m167 350.1 1.1-.6c.2.5.5.9.8 1.2s.8.5 1.4.5c.7 0 1.2-.2 1.6-.6s.6-1 .6-1.7v-1.1c-.6.7-1.3 1-2.4 1s-2-.4-2.7-1.2-1-1.9-1-3.3.4-2.4 1.1-3.3c.7-.8 1.6-1.2 2.6-1.2s1.8.4 2.4 1.1v-.8h1.3v8.6c0 1.2-.3 2.1-.9 2.8-.6.6-1.4 1-2.5 1-.9 0-1.6-.2-2.2-.6-.5-.6-.9-1.1-1.2-1.8zm5.5-4.3v-2.7c0-.5-.2-1-.6-1.4s-.9-.6-1.6-.6c-.8 0-1.5.3-1.9.9-.5.6-.7 1.4-.7 2.4s.2 1.9.7 2.4c.4.6 1.1.9 1.9.9.6 0 1.2-.2 1.6-.6s.6-.9.6-1.3z" fill="#545454"/><path d="m180.3 345.6v-5.5h1.3v5.3c0 .8.2 1.3.5 1.7.3.3.8.5 1.5.5.6 0 1.1-.2 1.5-.6.3-.4.5-.9.5-1.6v-5.3h1.3v8.5h-1.3v-.8c-.1.1-.1.2-.2.3s-.4.3-.7.5c-.4.2-.8.3-1.3.3-.9 0-1.7-.3-2.2-.8-.6-.7-.9-1.5-.9-2.5z" fill="#545454"/><path d="m189 345.7 1.2-.2c.2 1.5.9 2.2 2.4 2.2.7 0 1.2-.1 1.5-.4s.5-.6.5-1-.2-.7-.5-1c-.3-.2-1-.5-2-.7-1-.3-1.8-.6-2.2-1s-.6-.9-.6-1.5.3-1.2.8-1.6c.5-.5 1.2-.7 2.2-.7.9 0 1.7.2 2.2.7.5.4.9 1 1.1 1.8l-1.1.3c-.3-1.1-1.1-1.6-2.2-1.6-.6 0-1 .1-1.3.4-.3.2-.4.5-.4.8 0 .4.1.6.4.8s.9.4 2 .7 1.9.7 2.3 1.1.6.9.6 1.6-.3 1.3-.8 1.7c-.5.5-1.3.7-2.4.7s-2-.3-2.6-.9c-.7-.6-1-1.3-1.1-2.2z" fill="#545454"/><path d="m197.9 338.3v-1.5h1.5v1.5zm.1 10.2v-8.5h1.3v8.5z" fill="#545454"/><path d="m202.1 348.5v-8.5h1.3v.8c.2-.3.6-.6 1-.8s.9-.3 1.4-.3c.9 0 1.7.3 2.2.8s.8 1.3.8 2.3v5.6h-1.3v-5.2c0-1.6-.7-2.4-2-2.4-.7 0-1.2.2-1.6.6s-.6.9-.6 1.6v5.4h-1.2z" fill="#545454"/><path d="m211.6 350.1 1.1-.6c.2.5.5.9.8 1.2s.8.5 1.4.5c.7 0 1.2-.2 1.6-.6s.6-1 .6-1.7v-1.1c-.6.7-1.3 1-2.4 1s-2-.4-2.7-1.2-1-1.9-1-3.3.4-2.4 1.1-3.3c.7-.8 1.6-1.2 2.6-1.2s1.8.4 2.4 1.1v-.8h1.3v8.6c0 1.2-.3 2.1-.9 2.8-.6.6-1.4 1-2.5 1-.9 0-1.6-.2-2.2-.6-.6-.6-1-1.1-1.2-1.8zm5.5-4.3v-2.7c0-.5-.2-1-.6-1.4s-.9-.6-1.6-.6c-.8 0-1.5.3-1.9.9-.5.6-.7 1.4-.7 2.4s.2 1.9.7 2.4c.4.6 1.1.9 1.9.9.6 0 1.2-.2 1.6-.6s.6-.9.6-1.3z" fill="#545454"/><path d="m224.4 345.7 1.2-.2c.2 1.5.9 2.2 2.4 2.2.7 0 1.2-.1 1.5-.4s.5-.6.5-1-.2-.7-.5-1c-.3-.2-1-.5-2-.7-1-.3-1.8-.6-2.2-1s-.6-.9-.6-1.5.3-1.2.8-1.6c.5-.5 1.2-.7 2.2-.7.9 0 1.7.2 2.2.7.5.4.9 1 1.1 1.8l-1.1.3c-.3-1.1-1.1-1.6-2.2-1.6-.6 0-1 .1-1.3.4-.3.2-.4.5-.4.8 0 .4.1.6.4.8s.9.4 2 .7 1.9.7 2.3 1.1.6.9.6 1.6-.3 1.3-.8 1.7c-.5.5-1.3.7-2.4.7s-2-.3-2.6-.9c-.7-.6-1-1.3-1.1-2.2z" fill="#545454"/><path d="m239.1 345.9 1.1.7c-.3.6-.8 1.1-1.4 1.5s-1.3.6-2.2.6c-1.2 0-2.1-.4-2.8-1.2s-1.1-1.9-1.1-3.3.4-2.4 1.1-3.3c.7-.8 1.7-1.2 2.8-1.2s2 .4 2.8 1.2c.7.8 1.1 1.9 1.1 3.3v.4h-6.5c0 .8.2 1.5.7 2.1.4.6 1.1.8 1.9.8.3 0 .6 0 .9-.1s.5-.2.6-.3.3-.2.5-.4.3-.3.3-.4c.1 0 .1-.2.2-.4zm-5-2.3h5c0-.7-.2-1.3-.6-1.9s-1-.8-1.9-.8c-.8 0-1.4.3-1.9.8-.4.7-.6 1.3-.6 1.9z" fill="#545454"/><path d="m242.6 348.5v-8.5h1.3v.8c.2-.3.6-.6 1-.8s.9-.3 1.4-.3c.9 0 1.7.3 2.2.8s.8 1.3.8 2.3v5.6h-1.3v-5.2c0-1.6-.7-2.4-2-2.4-.7 0-1.2.2-1.6.6s-.6.9-.6 1.6v5.4h-1.2z" fill="#545454"/><path d="m251.3 345.7 1.2-.2c.2 1.5.9 2.2 2.4 2.2.7 0 1.2-.1 1.5-.4s.5-.6.5-1-.2-.7-.5-1c-.3-.2-1-.5-2-.7-1-.3-1.8-.6-2.2-1s-.6-.9-.6-1.5.3-1.2.8-1.6c.5-.5 1.2-.7 2.2-.7.9 0 1.7.2 2.2.7.5.4.9 1 1.1 1.8l-1.1.3c-.3-1.1-1.1-1.6-2.2-1.6-.6 0-1 .1-1.3.4-.3.2-.4.5-.4.8 0 .4.1.6.4.8s.9.4 2 .7 1.9.7 2.3 1.1.6.9.6 1.6-.3 1.3-.8 1.7c-.5.5-1.3.7-2.4.7s-2-.3-2.6-.9c-.7-.6-1-1.3-1.1-2.2z" fill="#545454"/><path d="m263.5 348.8c-1.1 0-2-.4-2.8-1.2-.7-.8-1.1-1.9-1.1-3.3s.4-2.5 1.1-3.3 1.7-1.2 2.7-1.2c1.1 0 2 .4 2.7 1.2s1.1 1.9 1.1 3.3-.4 2.5-1.1 3.3c-.6.8-1.5 1.2-2.6 1.2zm0-1.2c.7 0 1.3-.3 1.8-.9s.7-1.4.7-2.4-.2-1.8-.7-2.4-1.1-.9-1.8-.9-1.4.3-1.8.9c-.5.6-.7 1.4-.7 2.4 0 1.1.2 1.9.7 2.4s1.1.9 1.8.9z" fill="#545454"/><path d="m269.5 348.5v-8.5h1.2v.9c.2-.3.4-.6.8-.8.3-.2.7-.3 1-.3h.4s.2.1.3.1h.1l-.2 1.3c-.2-.1-.4-.1-.7-.1-.5 0-.9.2-1.2.5-.2.4-.4.9-.4 1.7v5h-1.3z" fill="#545454"/><path d="m274.4 345.7 1.2-.2c.2 1.5.9 2.2 2.4 2.2.7 0 1.2-.1 1.5-.4s.5-.6.5-1-.2-.7-.5-1c-.3-.2-1-.5-2-.7-1-.3-1.8-.6-2.2-1s-.6-.9-.6-1.5.3-1.2.8-1.6c.5-.5 1.2-.7 2.2-.7.9 0 1.7.2 2.2.7.5.4.9 1 1.1 1.8l-1.1.3c-.3-1.1-1.1-1.6-2.2-1.6-.6 0-1 .1-1.3.4-.3.2-.4.5-.4.8 0 .4.1.6.4.8s.9.4 2 .7 1.9.7 2.3 1.1.6.9.6 1.6-.3 1.3-.8 1.7c-.5.5-1.3.7-2.4.7s-2-.3-2.6-.9-1-1.3-1.1-2.2z" fill="#545454"/><path d="m292.3 348.5v-.9c-.2.3-.5.5-.9.8-.4.2-1 .4-1.7.4-.9 0-1.7-.2-2.1-.7-.5-.5-.7-1-.7-1.7s.2-1.3.6-1.7 1.2-.7 2.2-1c.4-.1.7-.2.9-.2.2-.1.4-.1.6-.2s.4-.2.5-.3.2-.2.3-.3.1-.3.1-.4c0-.4-.1-.7-.4-.9s-.7-.4-1.3-.4c-1.1 0-1.8.6-2.1 1.7l-1.2-.3c.1-.7.5-1.4 1-1.8.6-.5 1.3-.7 2.2-.7 1 0 1.8.2 2.3.7.6.5.9 1.2.9 2.3v5.7h-1.2zm-2.4-3.8c-.7.2-1.2.4-1.5.7-.3.2-.4.5-.4.9 0 .9.6 1.3 1.7 1.3.8 0 1.4-.2 1.8-.5s.6-.8.6-1.3v-2.1c-.1.3-.9.6-2.2 1z" fill="#545454"/><path d="m296 348.5v-8.5h1.3v.8c.2-.3.6-.6 1-.8s.9-.3 1.4-.3c.9 0 1.7.3 2.2.8s.8 1.3.8 2.3v5.6h-1.3v-5.2c0-1.6-.7-2.4-2-2.4-.7 0-1.2.2-1.6.6s-.6.9-.6 1.6v5.4h-1.2z" fill="#545454"/><path d="m311 348.5v-.8c-.2.3-.6.5-1 .7s-.9.3-1.5.3c-1.1 0-2-.4-2.7-1.2s-1-1.9-1-3.3.3-2.4 1-3.3c.7-.8 1.6-1.2 2.6-1.2s1.8.4 2.4 1.1v-4h1.3v11.7zm-.1-2.8v-2.6c0-.5-.2-1-.6-1.4s-.9-.6-1.6-.6c-.8 0-1.5.3-1.9.9s-.7 1.4-.7 2.4.2 1.9.7 2.4c.4.6 1.1.9 1.9.9.6 0 1.1-.2 1.6-.6.4-.4.6-.9.6-1.4z" fill="#545454"/><path d="m76.8 370.3 1.3.3c-.1 1-.5 1.8-1.2 2.4-.6.6-1.4.9-2.4.9-1.1 0-2.1-.4-2.8-1.2s-1.1-1.9-1.1-3.3.4-2.5 1.1-3.3 1.7-1.2 2.8-1.2c.9 0 1.7.3 2.3.9s1 1.3 1.2 2.2l-1.2.3c-.1-.6-.4-1.1-.7-1.6-.4-.4-.9-.6-1.5-.6-.8 0-1.4.3-1.9.9s-.7 1.4-.7 2.4.2 1.8.7 2.4 1.1.9 1.9.9c.6 0 1.1-.2 1.5-.7s.6-1.1.7-1.7z" fill="#545454"/><path d="m83.4 373.8c-1.1 0-2-.4-2.8-1.2-.7-.8-1.1-1.9-1.1-3.3s.4-2.5 1.1-3.3 1.7-1.2 2.7-1.2c1.1 0 2 .4 2.7 1.2s1.1 1.9 1.1 3.3-.4 2.5-1.1 3.3c-.6.8-1.5 1.2-2.6 1.2zm0-1.2c.7 0 1.3-.3 1.8-.9s.7-1.4.7-2.4-.2-1.8-.7-2.4-1.1-.9-1.8-.9-1.4.3-1.8.9c-.5.6-.7 1.4-.7 2.4 0 1.1.2 1.9.7 2.4s1 .9 1.8.9z" fill="#545454"/><path d="m89.3 373.5v-8.5h1.2v.8c.2-.3.5-.6.9-.8s.8-.3 1.3-.3 1 .1 1.4.4c.4.2.7.5.9.9.2-.3.5-.6.9-.9.4-.2.9-.4 1.4-.4.9 0 1.6.3 2.1.8s.8 1.2.8 2.2v5.8h-1.2v-5.4c0-1.4-.6-2.1-1.7-2.1-.6 0-1 .2-1.4.5-.3.4-.5.9-.5 1.5v5.5h-1.3v-5.4c0-1.4-.6-2.1-1.7-2.1-.6 0-1.1.2-1.4.6s-.4.9-.4 1.5v5.5h-1.3z" fill="#545454"/><path d="m102.9 377.1v-12.1h1.2v.8c.2-.3.5-.5 1-.7.4-.2.9-.3 1.5-.3 1.1 0 1.9.4 2.6 1.2s1.1 1.9 1.1 3.3-.3 2.5-1 3.3-1.6 1.2-2.7 1.2c-.5 0-1-.1-1.4-.3s-.7-.5-.9-.7v4.4h-1.4zm1.4-9v2.7c0 .5.2.9.6 1.3s.9.6 1.6.6c.8 0 1.5-.3 1.9-.9.5-.6.7-1.4.7-2.4s-.2-1.8-.7-2.4-1.1-.9-1.9-.9c-.7 0-1.2.2-1.6.6s-.6.8-.6 1.4z" fill="#545454"/><path d="m112.4 370.6v-5.5h1.3v5.3c0 .8.2 1.3.5 1.7.3.3.8.5 1.5.5.6 0 1.1-.2 1.5-.6.3-.4.5-.9.5-1.6v-5.3h1.3v8.5h-1.3v-.8c-.1.1-.1.2-.2.3s-.4.3-.7.5c-.4.2-.8.3-1.3.3-.9 0-1.7-.3-2.2-.8-.6-.7-.9-1.5-.9-2.5z" fill="#545454"/><path d="m122 371.1v-4.8h-1.2v-1.2h1.2v-2.1h1.2v2.1h2.1v1.2h-2.1v4.7c0 .5.1.9.2 1.1s.4.3.8.3h.6v1.3h-.7c-.8 0-1.4-.2-1.7-.6-.2-.6-.4-1.2-.4-2z" fill="#545454"/><path d="m133 370.9 1.1.7c-.3.6-.8 1.1-1.4 1.5s-1.3.6-2.2.6c-1.2 0-2.1-.4-2.8-1.2s-1.1-1.9-1.1-3.3.4-2.4 1.1-3.3c.7-.8 1.7-1.2 2.8-1.2s2 .4 2.8 1.2c.7.8 1.1 1.9 1.1 3.3v.4h-6.4c0 .8.2 1.5.7 2.1.4.6 1.1.8 1.9.8.3 0 .6 0 .9-.1s.5-.2.6-.3.3-.2.5-.4.3-.3.3-.4c-.1 0 0-.2.1-.4zm-5.1-2.3h5c0-.7-.2-1.3-.6-1.9s-1-.8-1.9-.8c-.8 0-1.4.3-1.9.8-.3.7-.6 1.3-.6 1.9z" fill="#545454"/><path d="m136.4 373.5v-8.5h1.2v.9c.2-.3.4-.6.8-.8.3-.2.7-.3 1-.3h.4s.2.1.3.1h.1l-.2 1.3c-.2-.1-.4-.1-.7-.1-.5 0-.9.2-1.2.5-.2.4-.4.9-.4 1.7v5h-1.3z" fill="#545454"/><path d="m148.5 373.5-3.4-8.5h1.3l2.6 6.6 2.6-6.6h1.3l-3.4 8.5z" fill="#545454"/><path d="m154.7 363.3v-1.5h1.5v1.5zm.1 10.2v-8.5h1.3v8.5z" fill="#545454"/><path d="m158.3 370.7 1.2-.2c.2 1.5.9 2.2 2.4 2.2.7 0 1.2-.1 1.5-.4s.5-.6.5-1-.2-.7-.5-1c-.3-.2-1-.5-2-.7-1-.3-1.8-.6-2.2-1s-.6-.9-.6-1.5.3-1.2.8-1.6c.5-.5 1.2-.7 2.2-.7.9 0 1.7.2 2.2.7.5.4.9 1 1.1 1.8l-1.1.3c-.3-1.1-1.1-1.6-2.2-1.6-.6 0-1 .1-1.3.4-.3.2-.4.5-.4.8 0 .4.1.6.4.8s.9.4 2 .7 1.9.7 2.3 1.1.6.9.6 1.6-.3 1.3-.8 1.7c-.5.5-1.3.7-2.4.7s-2-.3-2.6-.9-1-1.3-1.1-2.2z" fill="#545454"/><path d="m167.2 363.3v-1.5h1.5v1.5zm.1 10.2v-8.5h1.3v8.5z" fill="#545454"/><path d="m174.8 373.8c-1.1 0-2-.4-2.8-1.2-.7-.8-1.1-1.9-1.1-3.3s.4-2.5 1.1-3.3 1.7-1.2 2.7-1.2c1.1 0 2 .4 2.7 1.2s1.1 1.9 1.1 3.3-.4 2.5-1.1 3.3c-.6.8-1.5 1.2-2.6 1.2zm0-1.2c.7 0 1.3-.3 1.8-.9s.7-1.4.7-2.4-.2-1.8-.7-2.4-1.1-.9-1.8-.9-1.4.3-1.8.9c-.5.6-.7 1.4-.7 2.4 0 1.1.2 1.9.7 2.4s1 .9 1.8.9z" fill="#545454"/><path d="m180.7 373.5v-8.5h1.3v.8c.2-.3.6-.6 1-.8s.9-.3 1.4-.3c.9 0 1.7.3 2.2.8s.8 1.3.8 2.3v5.6h-1.3v-5.2c0-1.6-.7-2.4-2-2.4-.7 0-1.2.2-1.6.6s-.6.9-.6 1.6v5.4h-1.2z" fill="#545454"/><path d="m190.3 373.5v-1.9h1.9v1.9z" fill="#545454"/><path d="m443.6 291.1c0-4.8 2.6-7.7 6.5-7.7 3.8 0 6.4 2.9 6.4 7.7s-2.7 7.7-6.4 7.7c-3.8.1-6.5-2.9-6.5-7.7zm9.8 0c0-3.3-1.3-4.9-3.3-4.9-2.1 0-3.3 1.6-3.3 4.9s1.3 4.9 3.3 4.9 3.3-1.6 3.3-4.9z" fill="#2dccd3"/><path d="m462.2 295.7h7.5v2.9h-11.1v-2.2c0-1.3.3-2.4.9-3.1.7-.9 1.9-1.6 3.7-2.4 2.6-1.1 3.4-1.8 3.4-2.9s-.9-1.7-2.3-1.7c-1.7 0-2.8.9-2.9 2.7l-3.1-.2c.2-3.3 2.5-5.3 6-5.3 3.2 0 5.5 1.9 5.5 4.6 0 2.2-1.4 3.7-4.4 5-2.4 1-2.8 1.3-3.1 1.7-.1.1-.1.4-.1.9z" fill="#2dccd3"/><path d="m443.3 323.5 4-11.2h1.3l4 11.2h-1.3l-.8-2.2h-5l-.8 2.2zm2.5-3.3h4.2l-2.1-6.1z" fill="#545454"/><path d="m454.6 323.5v-11.2h1.3v11.2z" fill="#545454"/><path d="m463 323.5v-11.2h3.5c.6 0 1.2.1 1.8.3s1.1.6 1.5 1c.5.4.8 1 1.1 1.8.3.7.4 1.6.4 2.5 0 1-.1 1.9-.4 2.7s-.7 1.3-1.1 1.8c-.5.4-1 .7-1.6.9s-1.2.3-1.8.3h-3.4zm1.3-1.2h2c2.4 0 3.6-1.5 3.6-4.4 0-1.4-.3-2.5-1-3.2-.6-.8-1.5-1.1-2.6-1.1h-2.1v8.7z" fill="#545454"/><path d="m478.5 323.5v-.9c-.2.3-.5.5-.9.8-.4.2-1 .4-1.7.4-.9 0-1.7-.2-2.1-.7-.5-.5-.7-1-.7-1.7s.2-1.3.6-1.7 1.2-.7 2.2-1c.4-.1.7-.2.9-.2.2-.1.4-.1.6-.2s.4-.2.5-.3l.3-.3c.1-.1.1-.3.1-.4 0-.4-.1-.7-.4-.9s-.7-.4-1.3-.4c-1.1 0-1.8.6-2.1 1.7l-1.2-.3c.1-.7.5-1.4 1-1.8.6-.5 1.3-.7 2.2-.7 1 0 1.8.2 2.3.7.6.5.9 1.2.9 2.3v5.7h-1.2zm-2.4-3.8c-.7.2-1.2.4-1.5.7s-.4.5-.4.9c0 .9.6 1.3 1.7 1.3.8 0 1.4-.2 1.8-.5s.6-.8.6-1.3v-2.1c-.2.3-.9.6-2.2 1z" fill="#545454"/><path d="m481.5 320.7 1.2-.2c.2 1.5.9 2.2 2.4 2.2.7 0 1.2-.1 1.5-.4s.5-.6.5-1-.2-.7-.5-1c-.3-.2-1-.5-2-.7-1-.3-1.8-.6-2.2-1s-.6-.9-.6-1.5.3-1.2.8-1.6c.5-.5 1.2-.7 2.2-.7.9 0 1.7.2 2.2.7.5.4.9 1 1.1 1.8l-1.1.3c-.3-1.1-1.1-1.6-2.2-1.6-.6 0-1 .1-1.3.4-.3.2-.4.5-.4.8 0 .4.1.6.4.8s.9.4 2 .7 1.9.7 2.3 1.1.6.9.6 1.6-.3 1.3-.8 1.7c-.5.5-1.3.7-2.4.7s-2-.3-2.6-.9-1-1.3-1.1-2.2z" fill="#545454"/><path d="m490.4 323.5v-11.7h1.3v4c.2-.3.6-.6 1-.8.5-.2.9-.3 1.4-.3.9 0 1.6.3 2.2.8s.8 1.3.8 2.4v5.5h-1.1v-5.2c0-1.6-.7-2.3-2-2.3-.7 0-1.2.2-1.7.6-.4.4-.6.9-.6 1.6v5.3h-1.3z" fill="#545454"/><path d="m508.2 313.4c-1 0-1.8.4-2.4 1.1-.6.8-1 1.9-1 3.3 0 1.5.3 2.7.9 3.5s1.4 1.2 2.4 1.2c1.7 0 2.6-1.1 2.8-3.2l1.4.2c-.1 1.3-.5 2.3-1.3 3.1-.7.8-1.7 1.1-3 1.1-.6 0-1.2-.1-1.8-.3-.5-.2-1-.6-1.5-1-.5-.5-.8-1.1-1.1-1.9s-.4-1.7-.4-2.7c0-1.8.5-3.2 1.4-4.2s2-1.5 3.4-1.5c1.2 0 2.1.4 2.9 1.1.7.7 1.2 1.7 1.3 2.8l-1.3.2c-.1-1.9-1.1-2.8-2.7-2.8z" fill="#545454"/><path d="m519.5 323.5v-.9c-.2.3-.5.5-.9.8-.4.2-1 .4-1.7.4-.9 0-1.7-.2-2.1-.7-.5-.5-.7-1-.7-1.7s.2-1.3.6-1.7 1.2-.7 2.2-1c.4-.1.7-.2.9-.2.2-.1.4-.1.6-.2s.4-.2.5-.3.2-.2.3-.3.1-.3.1-.4c0-.4-.1-.7-.4-.9s-.7-.4-1.3-.4c-1.1 0-1.8.6-2.1 1.7l-1.2-.3c.1-.7.5-1.4 1-1.8.6-.5 1.3-.7 2.2-.7 1 0 1.8.2 2.3.7.6.5.9 1.2.9 2.3v5.7h-1.2zm-2.3-3.8c-.7.2-1.2.4-1.5.7s-.4.5-.4.9c0 .9.6 1.3 1.7 1.3.8 0 1.4-.2 1.8-.5s.6-.8.6-1.3v-2.1c-.2.3-.9.6-2.2 1z" fill="#545454"/><path d="m523.3 323.5v-8.5h1.2v.8c.2-.3.5-.6.9-.8s.8-.3 1.3-.3 1 .1 1.4.4c.4.2.7.5.9.9.2-.3.5-.6.9-.9.4-.2.9-.4 1.4-.4.9 0 1.6.3 2.1.8s.8 1.2.8 2.2v5.8h-1.2v-5.4c0-1.4-.6-2.1-1.7-2.1-.6 0-1 .2-1.4.5-.3.4-.5.9-.5 1.5v5.5h-1.3v-5.4c0-1.4-.6-2.1-1.7-2.1-.6 0-1.1.2-1.4.6s-.4.9-.4 1.5v5.5h-1.3z" fill="#545454"/><path d="m545.8 323.5v-.9c-.2.3-.5.5-.9.8-.4.2-1 .4-1.7.4-.9 0-1.7-.2-2.1-.7-.5-.5-.7-1-.7-1.7s.2-1.3.6-1.7 1.2-.7 2.2-1c.4-.1.7-.2.9-.2.2-.1.4-.1.6-.2s.4-.2.5-.3.2-.2.3-.3.1-.3.1-.4c0-.4-.1-.7-.4-.9s-.7-.4-1.3-.4c-1.1 0-1.8.6-2.1 1.7l-1.2-.3c.1-.7.5-1.4 1-1.8.6-.5 1.3-.7 2.2-.7 1 0 1.8.2 2.3.7s.9 1.2.9 2.3v5.7h-1.2zm-2.4-3.8c-.7.2-1.2.4-1.5.7-.3.2-.4.5-.4.9 0 .9.6 1.3 1.7 1.3.8 0 1.4-.2 1.8-.5s.6-.8.6-1.3v-2.1c-.1.3-.9.6-2.2 1z" fill="#545454"/><path d="m549.5 323.5v-11.7h1.3v11.7z" fill="#545454"/><path d="m559.4 320.9 1.1.7c-.3.6-.8 1.1-1.4 1.5s-1.3.6-2.2.6c-1.2 0-2.1-.4-2.8-1.2s-1.1-1.9-1.1-3.3.4-2.4 1.1-3.3c.7-.8 1.7-1.2 2.8-1.2s2 .4 2.8 1.2c.7.8 1.1 1.9 1.1 3.3v.4h-6.4c0 .8.2 1.5.7 2.1s1.1.8 1.9.8c.3 0 .6 0 .9-.1s.5-.2.6-.3.3-.2.5-.4.3-.3.3-.4c-.1 0 0-.2.1-.4zm-5.1-2.3h5c0-.7-.2-1.3-.6-1.9s-1-.8-1.9-.8c-.8 0-1.4.3-1.9.8-.3.7-.6 1.3-.6 1.9z" fill="#545454"/><path d="m562.8 323.5v-8.5h1.2v.9c.2-.3.4-.6.8-.8.3-.2.7-.3 1-.3h.4c.1 0 .2.1.3.1h.1l-.2 1.3c-.2-.1-.4-.1-.7-.1-.5 0-.9.2-1.2.5-.2.4-.4.9-.4 1.7v5h-1.3z" fill="#545454"/><path d="m568.9 321.1v-4.8h-1.2v-1.2h1.2v-2.1h1.2v2.1h2.1v1.2h-2.1v4.7c0 .5.1.9.2 1.1s.4.3.8.3h.6v1.3h-.7c-.8 0-1.4-.2-1.7-.6-.2-.6-.4-1.2-.4-2z" fill="#545454"/><path d="m573.6 320.7 1.2-.2c.2 1.5.9 2.2 2.4 2.2.7 0 1.2-.1 1.5-.4s.5-.6.5-1-.2-.7-.5-1c-.3-.2-1-.5-2-.7-1-.3-1.8-.6-2.2-1s-.6-.9-.6-1.5.3-1.2.8-1.6c.5-.5 1.2-.7 2.2-.7.9 0 1.7.2 2.2.7.5.4.9 1 1.1 1.8l-1.1.3c-.3-1.1-1.1-1.6-2.2-1.6-.6 0-1 .1-1.3.4-.3.2-.4.5-.4.8 0 .4.1.6.4.8s.9.4 2 .7 1.9.7 2.3 1.1.6.9.6 1.6-.3 1.3-.8 1.7c-.5.5-1.3.7-2.4.7s-2-.3-2.6-.9c-.7-.6-1-1.3-1.1-2.2z" fill="#545454"/><path d="m592.1 323.5v-.8c-.2.3-.6.5-1 .7s-.9.3-1.5.3c-1.1 0-2-.4-2.7-1.2s-1-1.9-1-3.3.3-2.4 1-3.3c.7-.8 1.6-1.2 2.6-1.2s1.8.4 2.4 1.1v-4h1.3v11.7zm-.1-2.8v-2.6c0-.5-.2-1-.6-1.4s-.9-.6-1.6-.6c-.8 0-1.5.3-1.9.9s-.7 1.4-.7 2.4.2 1.9.7 2.4c.4.6 1.1.9 1.9.9.6 0 1.1-.2 1.6-.6.4-.4.6-.9.6-1.4z" fill="#545454"/><path d="m596 323.5v-8.5h1.2v.9c.2-.3.4-.6.8-.8.3-.2.7-.3 1-.3h.4c.1 0 .2.1.3.1h.1l-.2 1.3c-.2-.1-.4-.1-.7-.1-.5 0-.9.2-1.2.5s-.4.9-.4 1.7v5h-1.3z" fill="#545454"/><path d="m601.6 313.3v-1.5h1.5v1.5zm.1 10.2v-8.5h1.3v8.5z" fill="#545454"/><path d="m608.3 323.5-3.4-8.5h1.3l2.6 6.6 2.6-6.6h1.3l-3.4 8.5z" fill="#545454"/><path d="m620.1 320.9 1.1.7c-.3.6-.8 1.1-1.4 1.5s-1.3.6-2.2.6c-1.2 0-2.1-.4-2.8-1.2s-1.1-1.9-1.1-3.3.4-2.4 1.1-3.3c.7-.8 1.7-1.2 2.8-1.2s2 .4 2.8 1.2c.7.8 1.1 1.9 1.1 3.3v.4h-6.5c0 .8.2 1.5.7 2.1.4.6 1.1.8 1.9.8.3 0 .6 0 .9-.1s.5-.2.6-.3.3-.2.5-.4.3-.3.3-.4.1-.2.2-.4zm-5.1-2.3h5c0-.7-.2-1.3-.6-1.9s-1-.8-1.9-.8c-.8 0-1.4.3-1.9.8-.4.7-.6 1.3-.6 1.9z" fill="#545454"/><path d="m623.5 323.5v-8.5h1.2v.9c.2-.3.4-.6.8-.8.3-.2.7-.3 1-.3h.4c.1 0 .2.1.3.1h.1l-.2 1.3c-.2-.1-.4-.1-.7-.1-.5 0-.9.2-1.2.5s-.4.9-.4 1.7v5h-1.3z" fill="#545454"/><path d="m634.4 323.5-1.9-8.5h1.3l1.4 6.4 2.2-6.4h1.2l2.2 6.4 1.5-6.4h1.3l-2 8.5h-1.2l-2.4-6.9-2.4 6.9z" fill="#545454"/><path d="m645.7 313.3v-1.5h1.5v1.5zm.1 10.2v-8.5h1.3v8.5z" fill="#545454"/><path d="m650.2 321.1v-4.8h-1.2v-1.2h1.2v-2.1h1.2v2.1h2.1v1.2h-2.1v4.7c0 .5.1.9.2 1.1s.4.3.8.3h.6v1.3h-.7c-.8 0-1.4-.2-1.7-.6-.2-.6-.4-1.2-.4-2z" fill="#545454"/><path d="m655.7 323.5v-11.7h1.3v4c.2-.3.6-.6 1-.8.5-.2.9-.3 1.4-.3.9 0 1.6.3 2.2.8s.8 1.3.8 2.4v5.5h-1.3v-5.2c0-1.6-.7-2.3-2-2.3-.7 0-1.2.2-1.7.6-.4.4-.6.9-.6 1.6v5.3h-1.1z" fill="#545454"/><path d="m444.3 338.3v-1.5h1.5v1.5zm.1 10.2v-8.5h1.3v8.5z" fill="#545454"/><path d="m448.5 348.5v-8.5h1.3v.8c.2-.3.6-.6 1-.8s.9-.3 1.4-.3c.9 0 1.7.3 2.2.8.6.6.8 1.3.8 2.3v5.6h-1.2v-5.2c0-1.6-.7-2.4-2-2.4-.7 0-1.2.2-1.6.6s-.6.9-.6 1.6v5.4h-1.3z" fill="#545454"/><path d="m457.5 343.7v-1.2h5.3v1.2z" fill="#545454"/><path d="m470.5 345.3 1.3.3c-.1 1-.5 1.8-1.2 2.4-.6.6-1.4.9-2.4.9-1.1 0-2.1-.4-2.8-1.2s-1.1-1.9-1.1-3.3.4-2.5 1.1-3.3 1.7-1.2 2.8-1.2c.9 0 1.7.3 2.3.9s1 1.3 1.2 2.2l-1.2.3c-.1-.6-.4-1.1-.7-1.6-.4-.4-.9-.6-1.5-.6-.8 0-1.4.3-1.9.9s-.7 1.4-.7 2.4.2 1.8.7 2.4 1.1.9 1.9.9c.6 0 1.1-.2 1.5-.7s.6-1.1.7-1.7z" fill="#545454"/><path d="m478.8 348.5v-.9c-.2.3-.5.5-.9.8-.4.2-1 .4-1.7.4-.9 0-1.7-.2-2.1-.7-.5-.5-.7-1-.7-1.7s.2-1.3.6-1.7 1.2-.7 2.2-1c.4-.1.7-.2.9-.2.2-.1.4-.1.6-.2s.4-.2.5-.3.2-.2.3-.3.1-.3.1-.4c0-.4-.1-.7-.4-.9s-.7-.4-1.3-.4c-1.1 0-1.8.6-2.1 1.7l-1.2-.3c.1-.7.5-1.4 1-1.8.6-.5 1.3-.7 2.2-.7 1 0 1.8.2 2.3.7s.9 1.2.9 2.3v5.7h-1.2zm-2.3-3.8c-.7.2-1.2.4-1.5.7-.3.2-.4.5-.4.9 0 .9.6 1.3 1.7 1.3.8 0 1.4-.2 1.8-.5s.6-.8.6-1.3v-2.1c-.2.3-.9.6-2.2 1z" fill="#545454"/><path d="m482.5 348.5v-11.7h1.3v4c.6-.7 1.4-1.1 2.4-1.1 1.1 0 1.9.4 2.6 1.2s1 1.9 1 3.2c0 1.4-.3 2.5-1 3.3s-1.6 1.2-2.7 1.2c-.6 0-1.1-.1-1.5-.3s-.8-.5-1-.7v.8h-1.1zm1.3-5.4v2.6c0 .5.2.9.6 1.3s.9.6 1.6.6c.8 0 1.5-.3 1.9-.9s.7-1.4.7-2.4-.2-1.9-.7-2.4c-.4-.6-1.1-.9-1.9-.9-.7 0-1.2.2-1.6.6-.4.5-.6 1-.6 1.5z" fill="#545454"/><path d="m498.5 348.5-3.4-8.5h1.3l2.6 6.6 2.6-6.6h1.3l-3.4 8.5z" fill="#545454"/><path d="m507.7 348.8c-1.1 0-2-.4-2.8-1.2-.7-.8-1.1-1.9-1.1-3.3s.4-2.5 1.1-3.3 1.7-1.2 2.7-1.2c1.1 0 2 .4 2.7 1.2s1.1 1.9 1.1 3.3-.4 2.5-1.1 3.3c-.6.8-1.5 1.2-2.6 1.2zm0-1.2c.7 0 1.3-.3 1.8-.9s.7-1.4.7-2.4-.2-1.8-.7-2.4-1.1-.9-1.8-.9-1.4.3-1.8.9c-.5.6-.7 1.4-.7 2.4 0 1.1.2 1.9.7 2.4.5.6 1.1.9 1.8.9z" fill="#545454"/><path d="m513.7 338.3v-1.5h1.5v1.5zm.1 10.2v-8.5h1.3v8.5z" fill="#545454"/><path d="m523.5 345.3 1.3.3c-.1 1-.5 1.8-1.2 2.4-.6.6-1.4.9-2.4.9-1.1 0-2.1-.4-2.8-1.2s-1.1-1.9-1.1-3.3.4-2.5 1.1-3.3 1.7-1.2 2.8-1.2c.9 0 1.7.3 2.3.9s1 1.3 1.2 2.2l-1.2.3c-.1-.6-.4-1.1-.7-1.6-.4-.4-.9-.6-1.5-.6-.8 0-1.4.3-1.9.9s-.7 1.4-.7 2.4.2 1.8.7 2.4 1.1.9 1.9.9c.6 0 1.1-.2 1.5-.7s.6-1.1.7-1.7z" fill="#545454"/><path d="m532.7 345.9 1.1.7c-.3.6-.8 1.1-1.4 1.5s-1.3.6-2.2.6c-1.2 0-2.1-.4-2.8-1.2s-1.1-1.9-1.1-3.3.4-2.4 1.1-3.3c.7-.8 1.7-1.2 2.8-1.2s2 .4 2.8 1.2c.7.8 1.1 1.9 1.1 3.3v.4h-6.4c0 .8.2 1.5.7 2.1.4.6 1.1.8 1.9.8.3 0 .6 0 .9-.1s.5-.2.6-.3.3-.2.5-.4.3-.3.3-.4 0-.2.1-.4zm-5.1-2.3h5c0-.7-.2-1.3-.6-1.9s-1-.8-1.9-.8c-.8 0-1.4.3-1.9.8-.4.7-.6 1.3-.6 1.9z" fill="#545454"/><path d="m545.7 345.3 1.3.3c-.1 1-.5 1.8-1.2 2.4-.6.6-1.4.9-2.4.9-1.1 0-2.1-.4-2.8-1.2s-1.1-1.9-1.1-3.3.4-2.5 1.1-3.3 1.7-1.2 2.8-1.2c.9 0 1.7.3 2.3.9s1 1.3 1.2 2.2l-1.2.3c-.1-.6-.4-1.1-.7-1.6-.4-.4-.9-.6-1.5-.6-.8 0-1.4.3-1.9.9s-.7 1.4-.7 2.4.2 1.8.7 2.4 1.1.9 1.9.9c.6 0 1.1-.2 1.5-.7s.6-1.1.7-1.7z" fill="#545454"/><path d="m552.3 348.8c-1.1 0-2-.4-2.8-1.2-.7-.8-1.1-1.9-1.1-3.3s.4-2.5 1.1-3.3 1.7-1.2 2.7-1.2c1.1 0 2 .4 2.7 1.2s1.1 1.9 1.1 3.3-.4 2.5-1.1 3.3c-.6.8-1.5 1.2-2.6 1.2zm0-1.2c.7 0 1.3-.3 1.8-.9s.7-1.4.7-2.4-.2-1.8-.7-2.4-1.1-.9-1.8-.9-1.4.3-1.8.9c-.5.6-.7 1.4-.7 2.4 0 1.1.2 1.9.7 2.4.4.6 1.1.9 1.8.9z" fill="#545454"/><path d="m563.2 348.5v-.9c-.2.3-.5.5-.9.8-.4.2-1 .4-1.7.4-.9 0-1.7-.2-2.1-.7-.5-.5-.7-1-.7-1.7s.2-1.3.6-1.7 1.2-.7 2.2-1c.4-.1.7-.2.9-.2.2-.1.4-.1.6-.2s.4-.2.5-.3.2-.2.3-.3.1-.3.1-.4c0-.4-.1-.7-.4-.9s-.7-.4-1.3-.4c-1.1 0-1.8.6-2.1 1.7l-1.2-.3c.1-.7.5-1.4 1-1.8.6-.5 1.3-.7 2.2-.7 1 0 1.8.2 2.3.7.6.5.9 1.2.9 2.3v5.7h-1.2zm-2.3-3.8c-.7.2-1.2.4-1.5.7s-.4.5-.4.9c0 .9.6 1.3 1.7 1.3.8 0 1.4-.2 1.8-.5s.6-.8.6-1.3v-2.1c-.2.3-.9.6-2.2 1z" fill="#545454"/><path d="m572.5 345.3 1.3.3c-.1 1-.5 1.8-1.2 2.4-.6.6-1.4.9-2.4.9-1.1 0-2.1-.4-2.8-1.2s-1.1-1.9-1.1-3.3.4-2.5 1.1-3.3 1.7-1.2 2.8-1.2c.9 0 1.7.3 2.3.9s1 1.3 1.2 2.2l-1.2.3c-.1-.6-.4-1.1-.7-1.6-.4-.4-.9-.6-1.5-.6-.8 0-1.4.3-1.9.9s-.7 1.4-.7 2.4.2 1.8.7 2.4 1.1.9 1.9.9c.6 0 1.1-.2 1.5-.7s.6-1.1.7-1.7z" fill="#545454"/><path d="m575.8 348.5v-11.7h1.3v4c.2-.3.6-.6 1-.8.5-.2.9-.3 1.4-.3.9 0 1.6.3 2.2.8s.8 1.3.8 2.4v5.5h-1.3v-5.2c0-1.6-.7-2.3-2-2.3-.7 0-1.2.2-1.7.6-.4.4-.6.9-.6 1.6v5.3h-1.1z" fill="#545454"/><path d="m585.3 338.3v-1.5h1.5v1.5zm.1 10.2v-8.5h1.3v8.5z" fill="#545454"/><path d="m589.5 348.5v-8.5h1.3v.8c.2-.3.6-.6 1-.8s.9-.3 1.4-.3c.9 0 1.7.3 2.2.8.6.6.8 1.3.8 2.3v5.6h-1.2v-5.2c0-1.6-.7-2.4-2-2.4-.7 0-1.2.2-1.6.6s-.6.9-.6 1.6v5.4h-1.3z" fill="#545454"/><path d="m599 350.1 1.1-.6c.2.5.5.9.8 1.2s.8.5 1.4.5c.7 0 1.2-.2 1.6-.6s.6-1 .6-1.7v-1.1c-.6.7-1.3 1-2.4 1s-2-.4-2.7-1.2-1-1.9-1-3.3.4-2.4 1.1-3.3c.7-.8 1.6-1.2 2.6-1.2s1.8.4 2.4 1.1v-.8h1.3v8.6c0 1.2-.3 2.1-.9 2.8s-1.4 1-2.5 1c-.9 0-1.6-.2-2.2-.6-.6-.6-1-1.1-1.2-1.8zm5.5-4.3v-2.7c0-.5-.2-1-.6-1.4s-.9-.6-1.6-.6c-.8 0-1.5.3-1.9.9-.5.6-.7 1.4-.7 2.4s.2 1.9.7 2.4c.4.6 1.1.9 1.9.9.6 0 1.2-.2 1.6-.6s.6-.9.6-1.3z" fill="#545454"/><path d="m617.3 348.5v-.9c-.2.3-.5.5-.9.8-.4.2-1 .4-1.7.4-.9 0-1.7-.2-2.1-.7-.5-.5-.7-1-.7-1.7s.2-1.3.6-1.7 1.2-.7 2.2-1c.4-.1.7-.2.9-.2.2-.1.4-.1.6-.2s.4-.2.5-.3.2-.2.3-.3.1-.3.1-.4c0-.4-.1-.7-.4-.9s-.7-.4-1.3-.4c-1.1 0-1.8.6-2.1 1.7l-1.2-.3c.1-.7.5-1.4 1-1.8.6-.5 1.3-.7 2.2-.7 1 0 1.8.2 2.3.7s.9 1.2.9 2.3v5.7h-1.2zm-2.3-3.8c-.7.2-1.2.4-1.5.7-.3.2-.4.5-.4.9 0 .9.6 1.3 1.7 1.3.8 0 1.4-.2 1.8-.5s.6-.8.6-1.3v-2.1c-.2.3-.9.6-2.2 1z" fill="#545454"/><path d="m621.1 348.5v-8.5h1.3v.8c.2-.3.6-.6 1-.8s.9-.3 1.4-.3c.9 0 1.7.3 2.2.8.6.6.8 1.3.8 2.3v5.6h-1.3v-5.2c0-1.6-.7-2.4-2-2.4-.7 0-1.2.2-1.6.6s-.6.9-.6 1.6v5.4h-1.2z" fill="#545454"/><path d="m636.1 348.5v-.8c-.2.3-.6.5-1 .7s-.9.3-1.5.3c-1.1 0-2-.4-2.7-1.2s-1-1.9-1-3.3.3-2.4 1-3.3c.7-.8 1.6-1.2 2.6-1.2s1.8.4 2.4 1.1v-4h1.3v11.7zm-.1-2.8v-2.6c0-.5-.2-1-.6-1.4s-.9-.6-1.6-.6c-.8 0-1.5.3-1.9.9s-.7 1.4-.7 2.4.2 1.9.7 2.4c.4.6 1.1.9 1.9.9.6 0 1.1-.2 1.6-.6.3-.4.6-.9.6-1.4z" fill="#545454"/><path d="m449.3 373.5v-.9c-.2.3-.5.5-.9.8-.4.2-1 .4-1.7.4-.9 0-1.7-.2-2.1-.7-.5-.5-.7-1-.7-1.7s.2-1.3.6-1.7 1.2-.7 2.2-1c.4-.1.7-.2.9-.2.2-.1.4-.1.6-.2s.4-.2.5-.3.2-.2.3-.3.1-.3.1-.4c0-.4-.1-.7-.4-.9s-.7-.4-1.3-.4c-1.1 0-1.8.6-2.1 1.7l-1.2-.3c.1-.7.5-1.4 1-1.8.6-.5 1.3-.7 2.2-.7 1 0 1.8.2 2.3.7s.9 1.2.9 2.3v5.7h-1.2zm-2.4-3.8c-.7.2-1.2.4-1.5.7-.3.2-.4.5-.4.9 0 .9.6 1.3 1.7 1.3.8 0 1.4-.2 1.8-.5s.6-.8.6-1.3v-2.1c-.2.3-.9.6-2.2 1z" fill="#545454"/><path d="m452.9 370.6v-5.5h1.3v5.3c0 .8.2 1.3.5 1.7.3.3.8.5 1.5.5.6 0 1.1-.2 1.5-.6.3-.4.5-.9.5-1.6v-5.3h1.3v8.5h-1.3v-.8c-.1.1-.1.2-.2.3s-.4.3-.7.5-.8.3-1.3.3c-.9 0-1.7-.3-2.2-.8s-.9-1.5-.9-2.5z" fill="#545454"/><path d="m462.5 371.1v-4.8h-1.2v-1.2h1.2v-2.1h1.2v2.1h2.1v1.2h-2.1v4.7c0 .5.1.9.2 1.1s.4.3.8.3h.6v1.3h-.7c-.8 0-1.4-.2-1.7-.6-.3-.6-.4-1.2-.4-2z" fill="#545454"/><path d="m470.9 373.8c-1.1 0-2-.4-2.8-1.2-.7-.8-1.1-1.9-1.1-3.3s.4-2.5 1.1-3.3 1.7-1.2 2.7-1.2c1.1 0 2 .4 2.7 1.2s1.1 1.9 1.1 3.3-.4 2.5-1.1 3.3c-.6.8-1.5 1.2-2.6 1.2zm0-1.2c.7 0 1.3-.3 1.8-.9s.7-1.4.7-2.4-.2-1.8-.7-2.4-1.1-.9-1.8-.9-1.4.3-1.8.9c-.5.6-.7 1.4-.7 2.4 0 1.1.2 1.9.7 2.4.4.6 1.1.9 1.8.9z" fill="#545454"/><path d="m476.9 373.5v-8.5h1.2v.8c.2-.3.5-.6.9-.8s.8-.3 1.3-.3 1 .1 1.4.4c.4.2.7.5.9.9.2-.3.5-.6.9-.9.4-.2.9-.4 1.4-.4.9 0 1.6.3 2.1.8s.8 1.2.8 2.2v5.8h-1.3v-5.4c0-1.4-.6-2.1-1.7-2.1-.6 0-1 .2-1.4.5-.3.4-.5.9-.5 1.5v5.5h-1.3v-5.4c0-1.4-.6-2.1-1.7-2.1-.6 0-1.1.2-1.4.6s-.4.9-.4 1.5v5.5h-1.2z" fill="#545454"/><path d="m495.4 373.5v-.9c-.2.3-.5.5-.9.8-.4.2-1 .4-1.7.4-.9 0-1.7-.2-2.1-.7-.5-.5-.7-1-.7-1.7s.2-1.3.6-1.7 1.2-.7 2.2-1c.4-.1.7-.2.9-.2.2-.1.4-.1.6-.2s.4-.2.5-.3l.3-.3c.1-.1.1-.3.1-.4 0-.4-.1-.7-.4-.9s-.7-.4-1.3-.4c-1.1 0-1.8.6-2.1 1.7l-1.2-.3c.1-.7.5-1.4 1-1.8.6-.5 1.3-.7 2.2-.7 1 0 1.8.2 2.3.7.6.5.9 1.2.9 2.3v5.7h-1.2zm-2.4-3.8c-.7.2-1.2.4-1.5.7s-.4.5-.4.9c0 .9.6 1.3 1.7 1.3.8 0 1.4-.2 1.8-.5s.6-.8.6-1.3v-2.1c-.1.3-.9.6-2.2 1z" fill="#545454"/><path d="m499.4 371.1v-4.8h-1.2v-1.2h1.2v-2.1h1.2v2.1h2.1v1.2h-2.1v4.7c0 .5.1.9.2 1.1s.4.3.8.3h.6v1.3h-.7c-.8 0-1.4-.2-1.7-.6-.2-.6-.4-1.2-.4-2z" fill="#545454"/><path d="m504.9 363.3v-1.5h1.5v1.5zm0 10.2v-8.5h1.3v8.5z" fill="#545454"/><path d="m514.6 370.3 1.3.3c-.1 1-.5 1.8-1.2 2.4-.6.6-1.4.9-2.4.9-1.1 0-2.1-.4-2.8-1.2s-1.1-1.9-1.1-3.3.4-2.5 1.1-3.3 1.7-1.2 2.8-1.2c.9 0 1.7.3 2.3.9s1 1.3 1.2 2.2l-1.2.3c-.1-.6-.4-1.1-.7-1.6-.4-.4-.9-.6-1.5-.6-.8 0-1.4.3-1.9.9s-.7 1.4-.7 2.4.2 1.8.7 2.4 1.1.9 1.9.9c.6 0 1.1-.2 1.5-.7s.7-1.1.7-1.7z" fill="#545454"/><path d="m522.9 373.5v-.9c-.2.3-.5.5-.9.8-.4.2-1 .4-1.7.4-.9 0-1.7-.2-2.1-.7-.5-.5-.7-1-.7-1.7s.2-1.3.6-1.7 1.2-.7 2.2-1c.4-.1.7-.2.9-.2.2-.1.4-.1.6-.2s.4-.2.5-.3.2-.2.3-.3.1-.3.1-.4c0-.4-.1-.7-.4-.9s-.7-.4-1.3-.4c-1.1 0-1.8.6-2.1 1.7l-1.2-.3c.1-.7.5-1.4 1-1.8.6-.5 1.3-.7 2.2-.7 1 0 1.8.2 2.3.7.6.5.9 1.2.9 2.3v5.7h-1.2zm-2.3-3.8c-.7.2-1.2.4-1.5.7s-.4.5-.4.9c0 .9.6 1.3 1.7 1.3.8 0 1.4-.2 1.8-.5s.6-.8.6-1.3v-2.1c-.2.3-.9.6-2.2 1z" fill="#545454"/><path d="m526.6 373.5v-11.7h1.3v11.7z" fill="#545454"/><path d="m530.7 373.5v-11.7h1.3v11.7z" fill="#545454"/><path d="m535.2 377.1 1.7-4.5-3.2-7.6h1.4l2.4 5.9 2.2-5.9h1.3l-4.6 12.1z" fill="#545454"/><path d="m546.6 370.6v-5.5h1.3v5.3c0 .8.2 1.3.5 1.7.3.3.8.5 1.5.5.6 0 1.1-.2 1.5-.6.3-.4.5-.9.5-1.6v-5.3h1.3v8.5h-1.3v-.8c-.1.1-.1.2-.2.3s-.4.3-.7.5c-.4.2-.8.3-1.3.3-.9 0-1.7-.3-2.2-.8-.6-.7-.9-1.5-.9-2.5z" fill="#545454"/><path d="m555.9 377.1v-12.1h1.2v.8c.2-.3.5-.5 1-.7s.9-.3 1.5-.3c1.1 0 1.9.4 2.6 1.2s1.1 1.9 1.1 3.3-.3 2.5-1 3.3-1.6 1.2-2.7 1.2c-.5 0-1-.1-1.4-.3s-.7-.5-.9-.7v4.4h-1.4zm1.3-9v2.7c0 .5.2.9.6 1.3s.9.6 1.6.6c.8 0 1.5-.3 1.9-.9.5-.6.7-1.4.7-2.4s-.2-1.8-.7-2.4-1.1-.9-1.9-.9c-.7 0-1.2.2-1.6.6s-.6.8-.6 1.4z" fill="#545454"/><path d="m565.4 373.5v-11.7h1.3v11.7z" fill="#545454"/><path d="m572.8 373.8c-1.1 0-2-.4-2.8-1.2-.7-.8-1.1-1.9-1.1-3.3s.4-2.5 1.1-3.3 1.7-1.2 2.7-1.2c1.1 0 2 .4 2.7 1.2s1.1 1.9 1.1 3.3-.4 2.5-1.1 3.3c-.6.8-1.5 1.2-2.6 1.2zm0-1.2c.7 0 1.3-.3 1.8-.9s.7-1.4.7-2.4-.2-1.8-.7-2.4-1.1-.9-1.8-.9-1.4.3-1.8.9c-.5.6-.7 1.4-.7 2.4 0 1.1.2 1.9.7 2.4.4.6 1 .9 1.8.9z" fill="#545454"/><path d="m583.7 373.5v-.9c-.2.3-.5.5-.9.8-.4.2-1 .4-1.7.4-.9 0-1.7-.2-2.1-.7-.5-.5-.7-1-.7-1.7s.2-1.3.6-1.7 1.2-.7 2.2-1c.4-.1.7-.2.9-.2.2-.1.4-.1.6-.2s.4-.2.5-.3.2-.2.3-.3.1-.3.1-.4c0-.4-.1-.7-.4-.9s-.7-.4-1.3-.4c-1.1 0-1.8.6-2.1 1.7l-1.2-.3c.1-.7.5-1.4 1-1.8.6-.5 1.3-.7 2.2-.7 1 0 1.8.2 2.3.7.6.5.9 1.2.9 2.3v5.7h-1.2zm-2.4-3.8c-.7.2-1.2.4-1.5.7s-.4.5-.4.9c0 .9.6 1.3 1.7 1.3.8 0 1.4-.2 1.8-.5s.6-.8.6-1.3v-2.1c-.1.3-.9.6-2.2 1z" fill="#545454"/><path d="m593 373.5v-.8c-.2.3-.6.5-1 .7s-.9.3-1.5.3c-1.1 0-2-.4-2.7-1.2s-1-1.9-1-3.3.3-2.4 1-3.3c.7-.8 1.6-1.2 2.6-1.2s1.8.4 2.4 1.1v-4h1.3v11.7zm-.1-2.8v-2.6c0-.5-.2-1-.6-1.4s-.9-.6-1.6-.6c-.8 0-1.5.3-1.9.9s-.7 1.4-.7 2.4.2 1.9.7 2.4c.4.6 1.1.9 1.9.9.6 0 1.1-.2 1.6-.6.4-.4.6-.9.6-1.4z" fill="#545454"/><path d="m596.3 370.7 1.2-.2c.2 1.5.9 2.2 2.4 2.2.7 0 1.2-.1 1.5-.4s.5-.6.5-1-.2-.7-.5-1c-.3-.2-1-.5-2-.7-1-.3-1.8-.6-2.2-1s-.6-.9-.6-1.5.3-1.2.8-1.6c.5-.5 1.2-.7 2.2-.7.9 0 1.7.2 2.2.7s.9 1 1.1 1.8l-1.1.3c-.3-1.1-1.1-1.6-2.2-1.6-.6 0-1 .1-1.3.4s-.4.5-.4.8c0 .4.1.6.4.8s.9.4 2 .7 1.9.7 2.3 1.1.6.9.6 1.6-.3 1.3-.8 1.7c-.5.5-1.3.7-2.4.7s-2-.3-2.6-.9-1-1.3-1.1-2.2z" fill="#545454"/><path d="m609.2 363.3v-1.5h1.5v1.5zm.1 10.2v-8.5h1.3v8.5z" fill="#545454"/><path d="m613.4 373.5v-8.5h1.3v.8c.2-.3.6-.6 1-.8s.9-.3 1.4-.3c.9 0 1.7.3 2.2.8.6.6.8 1.3.8 2.3v5.6h-1.3v-5.2c0-1.6-.7-2.4-2-2.4-.7 0-1.2.2-1.6.6s-.6.9-.6 1.6v5.4h-1.2z" fill="#545454"/><path d="m628.4 370.3 1.3.3c-.1 1-.5 1.8-1.2 2.4-.6.6-1.4.9-2.4.9-1.1 0-2.1-.4-2.8-1.2s-1.1-1.9-1.1-3.3.4-2.5 1.1-3.3 1.7-1.2 2.8-1.2c.9 0 1.7.3 2.3.9s1 1.3 1.2 2.2l-1.2.3c-.1-.6-.4-1.1-.7-1.6-.4-.4-.9-.6-1.5-.6-.8 0-1.4.3-1.9.9s-.7 1.4-.7 2.4.2 1.8.7 2.4 1.1.9 1.9.9c.6 0 1.1-.2 1.5-.7s.6-1.1.7-1.7z" fill="#545454"/><path d="m631.7 363.3v-1.5h1.5v1.5zm.1 10.2v-8.5h1.3v8.5z" fill="#545454"/><path d="m641.6 373.5v-.8c-.2.3-.6.5-1 .7s-.9.3-1.5.3c-1.1 0-2-.4-2.7-1.2s-1-1.9-1-3.3.3-2.4 1-3.3c.7-.8 1.6-1.2 2.6-1.2s1.8.4 2.4 1.1v-4h1.3v11.7zm-.2-2.8v-2.6c0-.5-.2-1-.6-1.4s-.9-.6-1.6-.6c-.8 0-1.5.3-1.9.9s-.7 1.4-.7 2.4.2 1.9.7 2.4c.4.6 1.1.9 1.9.9.6 0 1.1-.2 1.6-.6.4-.4.6-.9.6-1.4z" fill="#545454"/><path d="m651.3 370.9 1.1.7c-.3.6-.8 1.1-1.4 1.5s-1.3.6-2.2.6c-1.2 0-2.1-.4-2.8-1.2s-1.1-1.9-1.1-3.3.4-2.4 1.1-3.3c.7-.8 1.7-1.2 2.8-1.2s2 .4 2.8 1.2c.7.8 1.1 1.9 1.1 3.3v.4h-6.4c0 .8.2 1.5.7 2.1.4.6 1.1.8 1.9.8.3 0 .6 0 .9-.1s.5-.2.6-.3.3-.2.5-.4.3-.3.3-.4 0-.2.1-.4zm-5-2.3h5c0-.7-.2-1.3-.6-1.9s-1-.8-1.9-.8c-.8 0-1.4.3-1.9.8-.4.7-.6 1.3-.6 1.9z" fill="#545454"/><path d="m654.8 373.5v-8.5h1.3v.8c.2-.3.6-.6 1-.8s.9-.3 1.4-.3c.9 0 1.7.3 2.2.8.6.6.8 1.3.8 2.3v5.6h-1.3v-5.2c0-1.6-.7-2.4-2-2.4-.7 0-1.2.2-1.6.6s-.6.9-.6 1.6v5.4h-1.2z" fill="#545454"/><path d="m664.5 371.1v-4.8h-1.2v-1.2h1.2v-2.1h1.2v2.1h2.1v1.2h-2.1v4.7c0 .5.1.9.2 1.1s.4.3.8.3h.6v1.3h-.7c-.8 0-1.4-.2-1.7-.6-.3-.6-.4-1.2-.4-2z" fill="#545454"/><path d="m444.6 398.5v-7.3h-1.2v-1.2h1.2v-1.3c0-.7.2-1.2.5-1.5s.8-.4 1.4-.4h1.4v1.2h-1.1c-.3 0-.6.1-.7.2s-.2.4-.2.8v1h2.1v1.2h-2.1v7.3z" fill="#545454"/><path d="m452.9 398.8c-1.1 0-2-.4-2.8-1.2-.7-.8-1.1-1.9-1.1-3.3s.4-2.5 1.1-3.3 1.7-1.2 2.7-1.2c1.1 0 2 .4 2.7 1.2s1.1 1.9 1.1 3.3-.4 2.5-1.1 3.3c-.6.8-1.5 1.2-2.6 1.2zm0-1.2c.7 0 1.3-.3 1.8-.9s.7-1.4.7-2.4-.2-1.8-.7-2.4-1.1-.9-1.8-.9-1.4.3-1.8.9c-.5.6-.7 1.4-.7 2.4 0 1.1.2 1.9.7 2.4.4.6 1.1.9 1.8.9z" fill="#545454"/><path d="m462.1 398.8c-1.1 0-2-.4-2.8-1.2-.7-.8-1.1-1.9-1.1-3.3s.4-2.5 1.1-3.3 1.7-1.2 2.7-1.2c1.1 0 2 .4 2.7 1.2s1.1 1.9 1.1 3.3-.4 2.5-1.1 3.3c-.5.8-1.5 1.2-2.6 1.2zm0-1.2c.7 0 1.3-.3 1.8-.9s.7-1.4.7-2.4-.2-1.8-.7-2.4-1.1-.9-1.8-.9-1.4.3-1.8.9c-.5.6-.7 1.4-.7 2.4 0 1.1.2 1.9.7 2.4.5.6 1.1.9 1.8.9z" fill="#545454"/><path d="m468.4 396.1v-4.8h-1.2v-1.2h1.2v-2.1h1.2v2.1h2.1v1.2h-2.1v4.7c0 .5.1.9.2 1.1s.4.3.8.3h.6v1.3h-.7c-.8 0-1.4-.2-1.7-.6-.2-.6-.4-1.2-.4-2z" fill="#545454"/><path d="m478.6 398.5v-.9c-.2.3-.5.5-.9.8-.4.2-1 .4-1.7.4-.9 0-1.7-.2-2.1-.7-.5-.5-.7-1-.7-1.7s.2-1.3.6-1.7 1.2-.7 2.2-1c.4-.1.7-.2.9-.2.2-.1.4-.1.6-.2s.4-.2.5-.3l.3-.3c.1-.1.1-.3.1-.4 0-.4-.1-.7-.4-.9s-.7-.4-1.3-.4c-1.1 0-1.8.6-2.1 1.7l-1.2-.3c.1-.7.5-1.4 1-1.8.6-.5 1.3-.7 2.2-.7 1 0 1.8.2 2.3.7s.9 1.2.9 2.3v5.7h-1.2zm-2.3-3.8c-.7.2-1.2.4-1.5.7-.3.2-.4.5-.4.9 0 .9.6 1.3 1.7 1.3.8 0 1.4-.2 1.8-.5s.6-.8.6-1.3v-2.1c-.2.3-.9.6-2.2 1z" fill="#545454"/><path d="m482.4 400.1 1.1-.6c.2.5.5.9.8 1.2s.8.5 1.4.5c.7 0 1.2-.2 1.6-.6s.6-1 .6-1.7v-1.1c-.6.7-1.3 1-2.4 1s-2-.4-2.7-1.2-1-1.9-1-3.3.4-2.4 1.1-3.3c.7-.8 1.6-1.2 2.6-1.2s1.8.4 2.4 1.1v-.8h1.3v8.6c0 1.2-.3 2.1-.9 2.8-.6.6-1.4 1-2.5 1-.9 0-1.6-.2-2.2-.6-.5-.6-.9-1.1-1.2-1.8zm5.5-4.3v-2.7c0-.5-.2-1-.6-1.4s-.9-.6-1.6-.6c-.8 0-1.5.3-1.9.9-.5.6-.7 1.4-.7 2.4s.2 1.9.7 2.4c.4.6 1.1.9 1.9.9.6 0 1.2-.2 1.6-.6s.6-.9.6-1.3z" fill="#545454"/><path d="m497.7 395.9 1.1.7c-.3.6-.8 1.1-1.4 1.5s-1.3.6-2.2.6c-1.2 0-2.1-.4-2.8-1.2s-1.1-1.9-1.1-3.3.4-2.4 1.1-3.3c.7-.8 1.7-1.2 2.8-1.2s2 .4 2.8 1.2c.7.8 1.1 1.9 1.1 3.3v.4h-6.4c0 .8.2 1.5.7 2.1s1.1.8 1.9.8c.3 0 .6 0 .9-.1s.5-.2.6-.3.3-.2.5-.4.3-.3.3-.4c-.1 0 0-.2.1-.4zm-5.1-2.3h5c0-.7-.2-1.3-.6-1.9s-1-.8-1.9-.8c-.8 0-1.4.3-1.9.8-.4.7-.6 1.3-.6 1.9z" fill="#545454"/><path d="m505.4 396.1v-4.8h-1.2v-1.2h1.2v-2.1h1.2v2.1h2.1v1.2h-2.1v4.7c0 .5.1.9.2 1.1s.4.3.8.3h.6v1.3h-.7c-.8 0-1.4-.2-1.7-.6-.2-.6-.4-1.2-.4-2z" fill="#545454"/><path d="m513.8 398.8c-1.1 0-2-.4-2.8-1.2-.7-.8-1.1-1.9-1.1-3.3s.4-2.5 1.1-3.3 1.7-1.2 2.7-1.2c1.1 0 2 .4 2.7 1.2s1.1 1.9 1.1 3.3-.4 2.5-1.1 3.3c-.6.8-1.5 1.2-2.6 1.2zm0-1.2c.7 0 1.3-.3 1.8-.9s.7-1.4.7-2.4-.2-1.8-.7-2.4-1.1-.9-1.8-.9-1.4.3-1.8.9c-.5.6-.7 1.4-.7 2.4 0 1.1.2 1.9.7 2.4.5.6 1.1.9 1.8.9z" fill="#545454"/><path d="m523.2 394.7 1.4-.3c.2 1.1.5 1.9.9 2.4s1.2.7 2.2.7c.8 0 1.5-.2 1.9-.6s.6-.8.6-1.4c0-.5-.2-1-.6-1.3s-1.2-.7-2.5-1.1c-1.2-.4-2.1-.8-2.7-1.3s-.8-1.1-.8-1.9.3-1.5 1-2.1c.6-.6 1.5-.9 2.6-.9s1.9.3 2.6.8 1.1 1.3 1.3 2.3l-1.3.3c-.1-.7-.4-1.2-.8-1.6s-1-.5-1.8-.5c-.7 0-1.2.2-1.6.5s-.6.7-.6 1.2c0 .4.2.8.5 1 .3.3 1.1.6 2.3 1 1.5.5 2.5 1 3 1.5s.8 1.2.8 2c0 .9-.3 1.7-1 2.3s-1.6.9-2.9.9c-2.6.2-4.1-1.2-4.5-3.9z" fill="#545454"/><path d="m538.6 398.5v-.9c-.2.3-.5.5-.9.8-.4.2-1 .4-1.7.4-.9 0-1.7-.2-2.1-.7-.5-.5-.7-1-.7-1.7s.2-1.3.6-1.7 1.2-.7 2.2-1c.4-.1.7-.2.9-.2.2-.1.4-.1.6-.2s.4-.2.5-.3.2-.2.3-.3.1-.3.1-.4c0-.4-.1-.7-.4-.9s-.7-.4-1.3-.4c-1.1 0-1.8.6-2.1 1.7l-1.2-.3c.1-.7.5-1.4 1-1.8.6-.5 1.3-.7 2.2-.7 1 0 1.8.2 2.3.7s.9 1.2.9 2.3v5.7h-1.2zm-2.4-3.8c-.7.2-1.2.4-1.5.7-.3.2-.4.5-.4.9 0 .9.6 1.3 1.7 1.3.8 0 1.4-.2 1.8-.5s.6-.8.6-1.3v-2.1c-.1.3-.9.6-2.2 1z" fill="#545454"/><path d="m542.3 398.5v-8.5h1.2v.8c.2-.3.5-.6.9-.8s.8-.3 1.3-.3 1 .1 1.4.4c.4.2.7.5.9.9.2-.3.5-.6.9-.9.4-.2.9-.4 1.4-.4.9 0 1.6.3 2.1.8s.8 1.2.8 2.2v5.8h-1.2v-5.4c0-1.4-.6-2.1-1.7-2.1-.6 0-1 .2-1.4.5-.3.4-.5.9-.5 1.5v5.5h-1.3v-5.4c0-1.4-.6-2.1-1.7-2.1-.6 0-1.1.2-1.4.6s-.4.9-.4 1.5v5.5h-1.3z" fill="#545454"/><path d="m555.2 395.7 1.2-.2c.2 1.5.9 2.2 2.4 2.2.7 0 1.2-.1 1.5-.4s.5-.6.5-1-.2-.7-.5-1c-.3-.2-1-.5-2-.7-1-.3-1.8-.6-2.2-1s-.6-.9-.6-1.5.3-1.2.8-1.6c.5-.5 1.2-.7 2.2-.7.9 0 1.7.2 2.2.7.5.4.9 1 1.1 1.8l-1.1.3c-.3-1.1-1.1-1.6-2.2-1.6-.6 0-1 .1-1.3.4-.3.2-.4.5-.4.8 0 .4.1.6.4.8s.9.4 2 .7 1.9.7 2.3 1.1.6.9.6 1.6-.3 1.3-.8 1.7c-.5.5-1.3.7-2.4.7s-2-.3-2.6-.9-1-1.3-1.1-2.2z" fill="#545454"/><path d="m569.1 398.5v-.9c-.2.3-.5.5-.9.8-.4.2-1 .4-1.7.4-.9 0-1.7-.2-2.1-.7-.5-.5-.7-1-.7-1.7s.2-1.3.6-1.7 1.2-.7 2.2-1c.4-.1.7-.2.9-.2.2-.1.4-.1.6-.2s.4-.2.5-.3.2-.2.3-.3.1-.3.1-.4c0-.4-.1-.7-.4-.9s-.7-.4-1.3-.4c-1.1 0-1.8.6-2.1 1.7l-1.2-.3c.1-.7.5-1.4 1-1.8.6-.5 1.3-.7 2.2-.7 1 0 1.8.2 2.3.7s.9 1.2.9 2.3v5.7h-1.2zm-2.4-3.8c-.7.2-1.2.4-1.5.7-.3.2-.4.5-.4.9 0 .9.6 1.3 1.7 1.3.8 0 1.4-.2 1.8-.5s.6-.8.6-1.3v-2.1c-.1.3-.9.6-2.2 1z" fill="#545454"/><path d="m572.8 398.5v-8.5h1.2v.9c.2-.3.4-.6.8-.8.3-.2.7-.3 1-.3h.4c.1 0 .2.1.3.1h.1l-.2 1.3c-.2-.1-.4-.1-.7-.1-.5 0-.9.2-1.2.5s-.4.9-.4 1.7v5h-1.3z" fill="#545454"/><path d="m583.3 398.5v-.9c-.2.3-.5.5-.9.8-.4.2-1 .4-1.7.4-.9 0-1.7-.2-2.1-.7-.5-.5-.7-1-.7-1.7s.2-1.3.6-1.7 1.2-.7 2.2-1c.4-.1.7-.2.9-.2.2-.1.4-.1.6-.2s.4-.2.5-.3.2-.2.3-.3.1-.3.1-.4c0-.4-.1-.7-.4-.9s-.7-.4-1.3-.4c-1.1 0-1.8.6-2.1 1.7l-1.2-.3c.1-.7.5-1.4 1-1.8.6-.5 1.3-.7 2.2-.7 1 0 1.8.2 2.3.7s.9 1.2.9 2.3v5.7h-1.2zm-2.3-3.8c-.7.2-1.2.4-1.5.7-.3.2-.4.5-.4.9 0 .9.6 1.3 1.7 1.3.8 0 1.4-.2 1.8-.5s.6-.8.6-1.3v-2.1c-.2.3-.9.6-2.2 1z" fill="#545454"/><path d="m596.7 398.5v-.8c-.2.3-.6.5-1 .7s-.9.3-1.5.3c-1.1 0-2-.4-2.7-1.2s-1-1.9-1-3.3.3-2.4 1-3.3c.7-.8 1.6-1.2 2.6-1.2s1.8.4 2.4 1.1v-4h1.3v11.7zm-.2-2.8v-2.6c0-.5-.2-1-.6-1.4s-.9-.6-1.6-.6c-.8 0-1.5.3-1.9.9s-.7 1.4-.7 2.4.2 1.9.7 2.4c.4.6 1.1.9 1.9.9.6 0 1.1-.2 1.6-.6s.6-.9.6-1.4z" fill="#545454"/><path d="m605.5 398.5v-.9c-.2.3-.5.5-.9.8-.4.2-1 .4-1.7.4-.9 0-1.7-.2-2.1-.7-.5-.5-.7-1-.7-1.7s.2-1.3.6-1.7 1.2-.7 2.2-1c.4-.1.7-.2.9-.2.2-.1.4-.1.6-.2s.4-.2.5-.3.2-.2.3-.3.1-.3.1-.4c0-.4-.1-.7-.4-.9s-.7-.4-1.3-.4c-1.1 0-1.8.6-2.1 1.7l-1.2-.3c.1-.7.5-1.4 1-1.8.6-.5 1.3-.7 2.2-.7 1 0 1.8.2 2.3.7s.9 1.2.9 2.3v5.7h-1.2zm-2.3-3.8c-.7.2-1.2.4-1.5.7-.3.2-.4.5-.4.9 0 .9.6 1.3 1.7 1.3.8 0 1.4-.2 1.8-.5s.6-.8.6-1.3v-2.1c-.2.3-.9.6-2.2 1z" fill="#545454"/><path d="m608.6 395.7 1.2-.2c.2 1.5.9 2.2 2.4 2.2.7 0 1.2-.1 1.5-.4s.5-.6.5-1-.2-.7-.5-1c-.3-.2-1-.5-2-.7-1-.3-1.8-.6-2.2-1s-.6-.9-.6-1.5.3-1.2.8-1.6c.5-.5 1.2-.7 2.2-.7.9 0 1.7.2 2.2.7.5.4.9 1 1.1 1.8l-1.1.3c-.3-1.1-1.1-1.6-2.2-1.6-.6 0-1 .1-1.3.4-.3.2-.4.5-.4.8 0 .4.1.6.4.8s.9.4 2 .7 1.9.7 2.3 1.1.6.9.6 1.6-.3 1.3-.8 1.7c-.5.5-1.3.7-2.4.7s-2-.3-2.6-.9c-.7-.6-1-1.3-1.1-2.2z" fill="#545454"/><path d="m617.5 398.5v-11.7h1.3v4c.2-.3.6-.6 1-.8.5-.2.9-.3 1.4-.3.9 0 1.6.3 2.2.8s.8 1.3.8 2.4v5.5h-1.2v-5.2c0-1.6-.7-2.3-2-2.3-.7 0-1.2.2-1.7.6-.4.4-.6.9-.6 1.6v5.3h-1.2z" fill="#545454"/><path d="m627 398.5v-11.7h1.3v4c.6-.7 1.4-1.1 2.4-1.1 1.1 0 1.9.4 2.6 1.2s1 1.9 1 3.2c0 1.4-.3 2.5-1 3.3s-1.6 1.2-2.7 1.2c-.6 0-1.1-.1-1.5-.3s-.8-.5-1-.7v.8h-1.1zm1.3-5.4v2.6c0 .5.2.9.6 1.3s.9.6 1.6.6c.8 0 1.5-.3 1.9-.9s.7-1.4.7-2.4-.2-1.9-.7-2.4c-.4-.6-1.1-.9-1.9-.9-.7 0-1.2.2-1.6.6-.4.5-.6 1-.6 1.5z" fill="#545454"/><path d="m639.8 398.8c-1.1 0-2-.4-2.8-1.2-.7-.8-1.1-1.9-1.1-3.3s.4-2.5 1.1-3.3 1.7-1.2 2.7-1.2c1.1 0 2 .4 2.7 1.2s1.1 1.9 1.1 3.3-.4 2.5-1.1 3.3c-.6.8-1.5 1.2-2.6 1.2zm0-1.2c.7 0 1.3-.3 1.8-.9s.7-1.4.7-2.4-.2-1.8-.7-2.4-1.1-.9-1.8-.9-1.4.3-1.8.9c-.5.6-.7 1.4-.7 2.4 0 1.1.2 1.9.7 2.4.5.6 1.1.9 1.8.9z" fill="#545454"/><path d="m650.7 398.5v-.9c-.2.3-.5.5-.9.8-.4.2-1 .4-1.7.4-.9 0-1.7-.2-2.1-.7-.5-.5-.7-1-.7-1.7s.2-1.3.6-1.7 1.2-.7 2.2-1c.4-.1.7-.2.9-.2.2-.1.4-.1.6-.2s.4-.2.5-.3.2-.2.3-.3.1-.3.1-.4c0-.4-.1-.7-.4-.9s-.7-.4-1.3-.4c-1.1 0-1.8.6-2.1 1.7l-1.2-.3c.1-.7.5-1.4 1-1.8.6-.5 1.3-.7 2.2-.7 1 0 1.8.2 2.3.7s.9 1.2.9 2.3v5.7h-1.2zm-2.3-3.8c-.7.2-1.2.4-1.5.7-.3.2-.4.5-.4.9 0 .9.6 1.3 1.7 1.3.8 0 1.4-.2 1.8-.5s.6-.8.6-1.3v-2.1c-.2.3-.9.6-2.2 1z" fill="#545454"/><path d="m654.4 398.5v-8.5h1.2v.9c.2-.3.4-.6.8-.8.3-.2.7-.3 1-.3h.4c.1 0 .2.1.3.1h.1l-.2 1.3c-.2-.1-.4-.1-.7-.1-.5 0-.9.2-1.2.5s-.4.9-.4 1.7v5h-1.3z" fill="#545454"/><path d="m665.7 398.5v-.8c-.2.3-.6.5-1 .7s-.9.3-1.5.3c-1.1 0-2-.4-2.7-1.2s-1-1.9-1-3.3.3-2.4 1-3.3c.7-.8 1.6-1.2 2.6-1.2s1.8.4 2.4 1.1v-4h1.3v11.7zm-.2-2.8v-2.6c0-.5-.2-1-.6-1.4s-.9-.6-1.6-.6c-.8 0-1.5.3-1.9.9s-.7 1.4-.7 2.4.2 1.9.7 2.4c.4.6 1.1.9 1.9.9.6 0 1.1-.2 1.6-.6s.6-.9.6-1.4z" fill="#545454"/><path d="m669.7 398.5v-1.9h1.9v1.9z" fill="#545454"/><path d="m786.3 291.1c0-4.8 2.6-7.7 6.5-7.7 3.8 0 6.4 2.9 6.4 7.7s-2.7 7.7-6.4 7.7c-3.8.1-6.5-2.9-6.5-7.7zm9.8 0c0-3.3-1.3-4.9-3.3-4.9-2.1 0-3.3 1.6-3.3 4.9s1.3 4.9 3.3 4.9 3.3-1.6 3.3-4.9z" fill="#2dccd3"/><path d="m801.3 293.6 3-.6c.4 2 1.2 3 3.2 3 1.5 0 2.4-.7 2.4-2s-.9-1.9-2.5-1.9h-1.4v-2.4h1.3c1.5 0 2.3-.6 2.3-1.7s-.9-1.8-2.2-1.8c-1.5 0-2.5.8-2.8 2.1l-3.1-.5c.4-2.7 2.7-4.4 5.8-4.4s5.3 1.7 5.3 4.2c0 1.3-.7 2.3-1.9 2.9 1.4.6 2.3 2 2.3 3.7 0 2.6-2.2 4.6-5.5 4.6-3.5.1-5.8-1.9-6.2-5.2z" fill="#2dccd3"/><g fill="#545454"><path d="m787.2 323.5v-11.2h3.5c.6 0 1.2.1 1.8.3s1.1.6 1.5 1c.5.4.8 1 1.1 1.8.3.7.4 1.6.4 2.5 0 1-.1 1.9-.4 2.7s-.7 1.3-1.1 1.8c-.5.4-1 .7-1.6.9s-1.2.3-1.8.3h-3.4zm1.3-1.2h2c2.4 0 3.6-1.5 3.6-4.4 0-1.4-.3-2.5-1-3.2-.6-.8-1.5-1.1-2.6-1.1h-2.1v8.7z"/><path d="m797.7 323.5v-8.5h1.2v.9c.2-.3.4-.6.8-.8.3-.2.7-.3 1-.3h.4c.1 0 .2.1.3.1h.1l-.2 1.3c-.2-.1-.4-.1-.7-.1-.5 0-.9.2-1.2.5-.2.4-.4.9-.4 1.7v5h-1.3z"/><path d="m803.3 313.3v-1.5h1.5v1.5zm.1 10.2v-8.5h1.3v8.5z"/><path d="m810 323.5-3.4-8.5h1.3l2.6 6.6 2.6-6.6h1.3l-3.4 8.5z"/><path d="m821.8 320.9 1.1.7c-.3.6-.8 1.1-1.4 1.5s-1.3.6-2.2.6c-1.2 0-2.1-.4-2.8-1.2s-1.1-1.9-1.1-3.3.4-2.4 1.1-3.3c.7-.8 1.7-1.2 2.8-1.2s2 .4 2.8 1.2c.7.8 1.1 1.9 1.1 3.3v.4h-6.4c0 .8.2 1.5.7 2.1.4.6 1.1.8 1.9.8.3 0 .6 0 .9-.1s.5-.2.6-.3.3-.2.5-.4.3-.3.3-.4 0-.2.1-.4zm-5.1-2.3h5c0-.7-.2-1.3-.6-1.9s-1-.8-1.9-.8c-.8 0-1.4.3-1.9.8-.4.7-.6 1.3-.6 1.9z"/><path d="m825.2 323.5v-8.5h1.2v.9c.2-.3.4-.6.8-.8.3-.2.7-.3 1-.3h.4c.1 0 .2.1.3.1h.1l-.2 1.3c-.2-.1-.4-.1-.7-.1-.5 0-.9.2-1.2.5s-.4.9-.4 1.7v5h-1.3z"/><path d="m834.2 320.7 1.2-.2c.2 1.5.9 2.2 2.4 2.2.7 0 1.2-.1 1.5-.4s.5-.6.5-1-.2-.7-.5-1c-.3-.2-1-.5-2-.7-1-.3-1.8-.6-2.2-1s-.6-.9-.6-1.5.3-1.2.8-1.6c.5-.5 1.2-.7 2.2-.7.9 0 1.7.2 2.2.7s.9 1 1.1 1.8l-1.1.3c-.3-1.1-1.1-1.6-2.2-1.6-.6 0-1 .1-1.3.4s-.4.5-.4.8c0 .4.1.6.4.8s.9.4 2 .7 1.9.7 2.3 1.1.6.9.6 1.6-.3 1.3-.8 1.7c-.5.5-1.3.7-2.4.7s-2-.3-2.6-.9-1-1.3-1.1-2.2z"/><path d="m848.7 320.3 1.3.3c-.1 1-.5 1.8-1.2 2.4-.6.6-1.4.9-2.4.9-1.1 0-2.1-.4-2.8-1.2s-1.1-1.9-1.1-3.3.4-2.5 1.1-3.3 1.7-1.2 2.8-1.2c.9 0 1.7.3 2.3.9s1 1.3 1.2 2.2l-1.2.3c-.1-.6-.4-1.1-.7-1.6-.4-.4-.9-.6-1.5-.6-.8 0-1.4.3-1.9.9s-.7 1.4-.7 2.4.2 1.8.7 2.4 1.1.9 1.9.9c.6 0 1.1-.2 1.5-.7s.6-1.1.7-1.7z"/><path d="m855.3 323.8c-1.1 0-2-.4-2.8-1.2-.7-.8-1.1-1.9-1.1-3.3s.4-2.5 1.1-3.3 1.7-1.2 2.7-1.2c1.1 0 2 .4 2.7 1.2s1.1 1.9 1.1 3.3-.4 2.5-1.1 3.3c-.6.8-1.5 1.2-2.6 1.2zm0-1.2c.7 0 1.3-.3 1.8-.9s.7-1.4.7-2.4-.2-1.8-.7-2.4-1.1-.9-1.8-.9-1.4.3-1.8.9c-.5.6-.7 1.4-.7 2.4 0 1.1.2 1.9.7 2.4.4.6 1.1.9 1.8.9z"/><path d="m861.3 323.5v-8.5h1.2v.9c.2-.3.4-.6.8-.8.3-.2.7-.3 1-.3h.4c.1 0 .2.1.3.1h.1l-.2 1.3c-.2-.1-.4-.1-.7-.1-.5 0-.9.2-1.2.5-.2.4-.4.9-.4 1.7v5h-1.3z"/><path d="m872.7 320.9 1.1.7c-.3.6-.8 1.1-1.4 1.5s-1.3.6-2.2.6c-1.2 0-2.1-.4-2.8-1.2s-1.1-1.9-1.1-3.3.4-2.4 1.1-3.3c.7-.8 1.7-1.2 2.8-1.2s2 .4 2.8 1.2c.7.8 1.1 1.9 1.1 3.3v.4h-6.4c0 .8.2 1.5.7 2.1.4.6 1.1.8 1.9.8.3 0 .6 0 .9-.1s.5-.2.6-.3.3-.2.5-.4.3-.3.3-.4 0-.2.1-.4zm-5-2.3h5c0-.7-.2-1.3-.6-1.9s-1-.8-1.9-.8c-.8 0-1.4.3-1.9.8-.4.7-.6 1.3-.6 1.9z"/><path d="m881.7 320.3 1.3.3c-.1 1-.5 1.8-1.2 2.4-.6.6-1.4.9-2.4.9-1.1 0-2.1-.4-2.8-1.2s-1.1-1.9-1.1-3.3.4-2.5 1.1-3.3 1.7-1.2 2.8-1.2c.9 0 1.7.3 2.3.9s1 1.3 1.2 2.2l-1.2.3c-.1-.6-.4-1.1-.7-1.6-.4-.4-.9-.6-1.5-.6-.8 0-1.4.3-1.9.9s-.7 1.4-.7 2.4.2 1.8.7 2.4 1.1.9 1.9.9c.6 0 1.1-.2 1.5-.7s.6-1.1.7-1.7z"/><path d="m890 323.5v-.9c-.2.3-.5.5-.9.8-.4.2-1 .4-1.7.4-.9 0-1.7-.2-2.1-.7-.5-.5-.7-1-.7-1.7s.2-1.3.6-1.7 1.2-.7 2.2-1c.4-.1.7-.2.9-.2.2-.1.4-.1.6-.2s.4-.2.5-.3.2-.2.3-.3.1-.3.1-.4c0-.4-.1-.7-.4-.9s-.7-.4-1.3-.4c-1.1 0-1.8.6-2.1 1.7l-1.2-.3c.1-.7.5-1.4 1-1.8.6-.5 1.3-.7 2.2-.7 1 0 1.8.2 2.3.7.6.5.9 1.2.9 2.3v5.7h-1.2zm-2.3-3.8c-.7.2-1.2.4-1.5.7s-.4.5-.4.9c0 .9.6 1.3 1.7 1.3.8 0 1.4-.2 1.8-.5s.6-.8.6-1.3v-2.1c-.2.3-.9.6-2.2 1z"/><path d="m893.7 323.5v-8.5h1.2v.9c.2-.3.4-.6.8-.8.3-.2.7-.3 1-.3h.4c.1 0 .2.1.3.1h.1l-.2 1.3c-.2-.1-.4-.1-.7-.1-.5 0-.9.2-1.2.5-.2.4-.4.9-.4 1.7v5h-1.3z"/><path d="m904.9 323.5v-.8c-.2.3-.6.5-1 .7s-.9.3-1.5.3c-1.1 0-2-.4-2.7-1.2s-1-1.9-1-3.3.3-2.4 1-3.3c.7-.8 1.6-1.2 2.6-1.2s1.8.4 2.4 1.1v-4h1.3v11.7zm-.1-2.8v-2.6c0-.5-.2-1-.6-1.4s-.9-.6-1.6-.6c-.8 0-1.5.3-1.9.9s-.7 1.4-.7 2.4.2 1.9.7 2.4c.4.6 1.1.9 1.9.9.6 0 1.1-.2 1.6-.6.4-.4.6-.9.6-1.4z"/><path d="m908.2 320.7 1.2-.2c.2 1.5.9 2.2 2.4 2.2.7 0 1.2-.1 1.5-.4s.5-.6.5-1-.2-.7-.5-1c-.3-.2-1-.5-2-.7-1-.3-1.8-.6-2.2-1s-.6-.9-.6-1.5.3-1.2.8-1.6c.5-.5 1.2-.7 2.2-.7.9 0 1.7.2 2.2.7s.9 1 1.1 1.8l-1.1.3c-.3-1.1-1.1-1.6-2.2-1.6-.6 0-1 .1-1.3.4s-.4.5-.4.8c0 .4.1.6.4.8s.9.4 2 .7 1.9.7 2.3 1.1.6.9.6 1.6-.3 1.3-.8 1.7c-.5.5-1.3.7-2.4.7s-2-.3-2.6-.9-1-1.3-1.1-2.2z"/><path d="m917.1 325.2v-.7c.5-.1.8-.4.8-1h-.8v-1.9h1.9v1.6c0 1.3-.6 1.9-1.9 2z"/><path d="m924.8 321.1v-4.8h-1.2v-1.2h1.2v-2.1h1.2v2.1h2.1v1.2h-2.1v4.7c0 .5.1.9.2 1.1s.4.3.8.3h.6v1.3h-.6c-.8 0-1.4-.2-1.7-.6-.4-.6-.5-1.2-.5-2z"/><path d="m930.2 323.5v-8.5h1.2v.9c.2-.3.4-.6.8-.8.3-.2.7-.3 1-.3h.4c.1 0 .2.1.3.1h.1l-.2 1.3c-.2-.1-.4-.1-.7-.1-.5 0-.9.2-1.2.5s-.4.9-.4 1.7v5h-1.3z"/><path d="m941.7 320.9 1.1.7c-.3.6-.8 1.1-1.4 1.5s-1.3.6-2.2.6c-1.2 0-2.1-.4-2.8-1.2s-1.1-1.9-1.1-3.3.4-2.4 1.1-3.3c.7-.8 1.7-1.2 2.8-1.2s2 .4 2.8 1.2c.7.8 1.1 1.9 1.1 3.3v.4h-6.4c0 .8.2 1.5.7 2.1s1.1.8 1.9.8c.3 0 .6 0 .9-.1s.5-.2.6-.3.3-.2.5-.4.3-.3.3-.4c-.1 0 0-.2.1-.4zm-5.1-2.3h5c0-.7-.2-1.3-.6-1.9s-1-.8-1.9-.8c-.8 0-1.4.3-1.9.8-.4.7-.6 1.3-.6 1.9z"/><path d="m945.1 323.5v-8.5h1.3v.8c.2-.3.6-.6 1-.8s.9-.3 1.4-.3c.9 0 1.7.3 2.2.8.6.6.8 1.3.8 2.3v5.6h-1.3v-5.2c0-1.6-.7-2.4-2-2.4-.7 0-1.2.2-1.6.6s-.6.9-.6 1.6v5.4h-1.2z"/><path d="m960.1 323.5v-.8c-.2.3-.6.5-1 .7s-.9.3-1.5.3c-1.1 0-2-.4-2.7-1.2s-1-1.9-1-3.3.3-2.4 1-3.3c.7-.8 1.6-1.2 2.6-1.2s1.8.4 2.4 1.1v-4h1.3v11.7zm-.1-2.8v-2.6c0-.5-.2-1-.6-1.4s-.9-.6-1.6-.6c-.8 0-1.5.3-1.9.9s-.7 1.4-.7 2.4.2 1.9.7 2.4c.4.6 1.1.9 1.9.9.6 0 1.1-.2 1.6-.6s.6-.9.6-1.4z"/><path d="m968 323.5v-8.5h1.2v.9c.2-.3.4-.6.8-.8.3-.2.7-.3 1-.3h.4c.1 0 .2.1.3.1h.1l-.2 1.3c-.2-.1-.4-.1-.7-.1-.5 0-.9.2-1.2.5s-.4.9-.4 1.7v5h-1.3z"/><path d="m979.5 320.9 1.1.7c-.3.6-.8 1.1-1.4 1.5s-1.3.6-2.2.6c-1.2 0-2.1-.4-2.8-1.2s-1.1-1.9-1.1-3.3.4-2.4 1.1-3.3c.7-.8 1.7-1.2 2.8-1.2s2 .4 2.8 1.2c.7.8 1.1 1.9 1.1 3.3v.4h-6.4c0 .8.2 1.5.7 2.1s1.1.8 1.9.8c.3 0 .6 0 .9-.1s.5-.2.6-.3.3-.2.5-.4.3-.3.3-.4c-.1 0 0-.2.1-.4zm-5.1-2.3h5c0-.7-.2-1.3-.6-1.9s-1-.8-1.9-.8c-.8 0-1.4.3-1.9.8-.3.7-.6 1.3-.6 1.9z"/><path d="m982.9 327.1v-12.1h1.2v.8c.2-.3.5-.5 1-.7.4-.2.9-.3 1.5-.3 1.1 0 1.9.4 2.6 1.2s1.1 1.9 1.1 3.3-.3 2.5-1 3.3-1.6 1.2-2.7 1.2c-.5 0-1-.1-1.4-.3s-.7-.5-.9-.7v4.4h-1.4zm1.3-9v2.7c0 .5.2.9.6 1.3s.9.6 1.6.6c.8 0 1.5-.3 1.9-.9.5-.6.7-1.4.7-2.4s-.2-1.8-.7-2.4-1.1-.9-1.9-.9c-.7 0-1.2.2-1.6.6s-.6.8-.6 1.4z"/><path d="m995.8 323.8c-1.1 0-2-.4-2.8-1.2-.7-.8-1.1-1.9-1.1-3.3s.4-2.5 1.1-3.3 1.7-1.2 2.7-1.2c1.1 0 2 .4 2.7 1.2s1.1 1.9 1.1 3.3-.4 2.5-1.1 3.3c-.6.8-1.5 1.2-2.6 1.2zm0-1.2c.7 0 1.3-.3 1.8-.9s.7-1.4.7-2.4-.2-1.8-.7-2.4-1.1-.9-1.8-.9-1.4.3-1.8.9c-.5.6-.7 1.4-.7 2.4 0 1.1.2 1.9.7 2.4.4.6 1 .9 1.8.9z"/><path d="m1001.7 323.5v-8.5h1.2v.9c.2-.3.4-.6.8-.8.3-.2.7-.3 1-.3h.4c.1 0 .2.1.3.1h.1l-.2 1.3c-.2-.1-.4-.1-.7-.1-.5 0-.9.2-1.2.5s-.4.9-.4 1.7v5h-1.3z"/><path d="m1007.8 321.1v-4.8h-1.2v-1.2h1.2v-2.1h1.2v2.1h2.1v1.2h-2.1v4.7c0 .5.1.9.2 1.1s.4.3.8.3h.6v1.3h-.7c-.8 0-1.4-.2-1.7-.6-.2-.6-.4-1.2-.4-2z"/><path d="m1012.5 320.7 1.2-.2c.2 1.5.9 2.2 2.4 2.2.7 0 1.2-.1 1.5-.4s.5-.6.5-1-.2-.7-.5-1c-.3-.2-1-.5-2-.7-1-.3-1.8-.6-2.2-1s-.6-.9-.6-1.5.3-1.2.8-1.6c.5-.5 1.2-.7 2.2-.7.9 0 1.7.2 2.2.7.5.4.9 1 1.1 1.8l-1.1.3c-.3-1.1-1.1-1.6-2.2-1.6-.6 0-1 .1-1.3.4-.3.2-.4.5-.4.8 0 .4.1.6.4.8s.9.4 2 .7 1.9.7 2.3 1.1.6.9.6 1.6-.3 1.3-.8 1.7c-.5.5-1.3.7-2.4.7s-2-.3-2.6-.9c-.7-.6-1-1.3-1.1-2.2z"/><path d="m1021.4 325.2v-.7c.5-.1.8-.4.8-1h-.8v-1.9h1.9v1.6c0 1.3-.6 1.9-1.9 2z"/><path d="m792 348.5v-.9c-.2.3-.5.5-.9.8-.4.2-1 .4-1.7.4-.9 0-1.7-.2-2.1-.7-.5-.5-.7-1-.7-1.7s.2-1.3.6-1.7 1.2-.7 2.2-1c.4-.1.7-.2.9-.2.2-.1.4-.1.6-.2s.4-.2.5-.3.2-.2.3-.3.1-.3.1-.4c0-.4-.1-.7-.4-.9s-.7-.4-1.3-.4c-1.1 0-1.8.6-2.1 1.7l-1.2-.3c.1-.7.5-1.4 1-1.8.6-.5 1.3-.7 2.2-.7 1 0 1.8.2 2.3.7.6.5.9 1.2.9 2.3v5.7h-1.2zm-2.4-3.8c-.7.2-1.2.4-1.5.7s-.4.5-.4.9c0 .9.6 1.3 1.7 1.3.8 0 1.4-.2 1.8-.5s.6-.8.6-1.3v-2.1c-.2.3-.9.6-2.2 1z"/><path d="m795.7 348.5v-8.5h1.3v.8c.2-.3.6-.6 1-.8s.9-.3 1.4-.3c.9 0 1.7.3 2.2.8.6.6.8 1.3.8 2.3v5.6h-1.3v-5.2c0-1.6-.7-2.4-2-2.4-.7 0-1.2.2-1.6.6s-.6.9-.6 1.6v5.4h-1.2z"/><path d="m810.7 348.5v-.8c-.2.3-.6.5-1 .7s-.9.3-1.5.3c-1.1 0-2-.4-2.7-1.2s-1-1.9-1-3.3.3-2.4 1-3.3c.7-.8 1.6-1.2 2.6-1.2s1.8.4 2.4 1.1v-4h1.3v11.7zm-.1-2.8v-2.6c0-.5-.2-1-.6-1.4s-.9-.6-1.6-.6c-.8 0-1.5.3-1.9.9s-.7 1.4-.7 2.4.2 1.9.7 2.4c.4.6 1.1.9 1.9.9.6 0 1.1-.2 1.6-.6s.6-.9.6-1.4z"/><path d="m824.2 345.3 1.3.3c-.1 1-.5 1.8-1.2 2.4-.6.6-1.4.9-2.4.9-1.1 0-2.1-.4-2.8-1.2s-1.1-1.9-1.1-3.3.4-2.5 1.1-3.3 1.7-1.2 2.8-1.2c.9 0 1.7.3 2.3.9s1 1.3 1.2 2.2l-1.2.3c-.1-.6-.4-1.1-.7-1.6-.4-.4-.9-.6-1.5-.6-.8 0-1.4.3-1.9.9s-.7 1.4-.7 2.4.2 1.8.7 2.4 1.1.9 1.9.9c.6 0 1.1-.2 1.5-.7s.6-1.1.7-1.7z"/><path d="m830.8 348.8c-1.1 0-2-.4-2.8-1.2-.7-.8-1.1-1.9-1.1-3.3s.4-2.5 1.1-3.3 1.7-1.2 2.7-1.2c1.1 0 2 .4 2.7 1.2s1.1 1.9 1.1 3.3-.4 2.5-1.1 3.3c-.6.8-1.5 1.2-2.6 1.2zm0-1.2c.7 0 1.3-.3 1.8-.9s.7-1.4.7-2.4-.2-1.8-.7-2.4-1.1-.9-1.8-.9-1.4.3-1.8.9c-.5.6-.7 1.4-.7 2.4 0 1.1.2 1.9.7 2.4.4.6 1.1.9 1.8.9z"/><path d="m841.7 348.5v-.9c-.2.3-.5.5-.9.8-.4.2-1 .4-1.7.4-.9 0-1.7-.2-2.1-.7-.5-.5-.7-1-.7-1.7s.2-1.3.6-1.7 1.2-.7 2.2-1c.4-.1.7-.2.9-.2.2-.1.4-.1.6-.2s.4-.2.5-.3.2-.2.3-.3.1-.3.1-.4c0-.4-.1-.7-.4-.9s-.7-.4-1.3-.4c-1.1 0-1.8.6-2.1 1.7l-1.2-.3c.1-.7.5-1.4 1-1.8.6-.5 1.3-.7 2.2-.7 1 0 1.8.2 2.3.7s.9 1.2.9 2.3v5.7h-1.2zm-2.4-3.8c-.7.2-1.2.4-1.5.7-.3.2-.4.5-.4.9 0 .9.6 1.3 1.7 1.3.8 0 1.4-.2 1.8-.5s.6-.8.6-1.3v-2.1c-.1.3-.8.6-2.2 1z"/><path d="m851 345.3 1.3.3c-.1 1-.5 1.8-1.2 2.4-.6.6-1.4.9-2.4.9-1.1 0-2.1-.4-2.8-1.2s-1.1-1.9-1.1-3.3.4-2.5 1.1-3.3 1.7-1.2 2.8-1.2c.9 0 1.7.3 2.3.9s1 1.3 1.2 2.2l-1.2.3c-.1-.6-.4-1.1-.7-1.6-.4-.4-.9-.6-1.5-.6-.8 0-1.4.3-1.9.9s-.7 1.4-.7 2.4.2 1.8.7 2.4 1.1.9 1.9.9c.6 0 1.1-.2 1.5-.7s.6-1.1.7-1.7z"/><path d="m854.3 348.5v-11.7h1.3v4c.2-.3.6-.6 1-.8.5-.2.9-.3 1.4-.3.9 0 1.6.3 2.2.8s.8 1.3.8 2.4v5.5h-1.3v-5.2c0-1.6-.7-2.3-2-2.3-.7 0-1.2.2-1.7.6-.4.4-.6.9-.6 1.6v5.3h-1.1z"/><path d="m863.8 338.3v-1.5h1.5v1.5zm.1 10.2v-8.5h1.3v8.5z"/><path d="m868 348.5v-8.5h1.3v.8c.2-.3.6-.6 1-.8s.9-.3 1.4-.3c.9 0 1.7.3 2.2.8.6.6.8 1.3.8 2.3v5.6h-1.3v-5.2c0-1.6-.7-2.4-2-2.4-.7 0-1.2.2-1.6.6s-.6.9-.6 1.6v5.4h-1.2z"/><path d="m877.5 350.1 1.1-.6c.2.5.5.9.8 1.2s.8.5 1.4.5c.7 0 1.2-.2 1.6-.6s.6-1 .6-1.7v-1.1c-.6.7-1.3 1-2.4 1s-2-.4-2.7-1.2-1-1.9-1-3.3.4-2.4 1.1-3.3c.7-.8 1.6-1.2 2.6-1.2s1.8.4 2.4 1.1v-.8h1.3v8.6c0 1.2-.3 2.1-.9 2.8-.6.6-1.4 1-2.5 1-.9 0-1.6-.2-2.2-.6-.6-.6-1-1.1-1.2-1.8zm5.5-4.3v-2.7c0-.5-.2-1-.6-1.4s-.9-.6-1.6-.6c-.8 0-1.5.3-1.9.9-.5.6-.7 1.4-.7 2.4s.2 1.9.7 2.4c.4.6 1.1.9 1.9.9.6 0 1.2-.2 1.6-.6s.6-.9.6-1.3z"/><path d="m892.1 348.5-1.9-8.5h1.3l1.4 6.4 2.2-6.4h1.2l2.2 6.4 1.5-6.4h1.3l-2 8.5h-1.2l-2.4-6.9-2.4 6.9z"/><path d="m906.6 348.8c-1.1 0-2-.4-2.8-1.2-.7-.8-1.1-1.9-1.1-3.3s.4-2.5 1.1-3.3 1.7-1.2 2.7-1.2c1.1 0 2 .4 2.7 1.2s1.1 1.9 1.1 3.3-.4 2.5-1.1 3.3c-.6.8-1.5 1.2-2.6 1.2zm0-1.2c.7 0 1.3-.3 1.8-.9s.7-1.4.7-2.4-.2-1.8-.7-2.4-1.1-.9-1.8-.9-1.4.3-1.8.9c-.5.6-.7 1.4-.7 2.4 0 1.1.2 1.9.7 2.4.5.6 1.1.9 1.8.9z"/><path d="m912.6 348.5v-8.5h1.2v.9c.2-.3.4-.6.8-.8.3-.2.7-.3 1-.3h.4c.1 0 .2.1.3.1h.1l-.2 1.3c-.2-.1-.4-.1-.7-.1-.5 0-.9.2-1.2.5s-.4.9-.4 1.7v5h-1.3z"/><path d="m918.2 348.5v-11.7h1.3v7.1l3.6-3.9h1.7l-3.1 3.4 3.5 5.1h-1.5l-2.9-4.3-1.3 1.4v2.9z"/><path d="m927.2 348.5v-7.3h-1.2v-1.2h1.2v-1.3c0-.7.2-1.2.5-1.5s.8-.4 1.4-.4h1.2v1.2h-.9c-.3 0-.5.1-.6.2s-.2.4-.2.8v1h3.2v-3.2h1.3v11.7h-1.3v-7.3h-3.1v7.3z"/><path d="m938.9 348.8c-1.1 0-2-.4-2.8-1.2-.7-.8-1.1-1.9-1.1-3.3s.4-2.5 1.1-3.3 1.7-1.2 2.7-1.2c1.1 0 2 .4 2.7 1.2s1.1 1.9 1.1 3.3-.4 2.5-1.1 3.3c-.6.8-1.5 1.2-2.6 1.2zm0-1.2c.7 0 1.3-.3 1.8-.9s.7-1.4.7-2.4-.2-1.8-.7-2.4-1.1-.9-1.8-.9-1.4.3-1.8.9c-.5.6-.7 1.4-.7 2.4 0 1.1.2 1.9.7 2.4.5.6 1.1.9 1.8.9z"/><path d="m946.1 348.5-1.9-8.5h1.3l1.4 6.4 2.2-6.4h1.2l2.2 6.4 1.5-6.4h1.3l-2 8.5h-1.2l-2.4-6.9-2.4 6.9z"/><path d="m956.8 345.7 1.2-.2c.2 1.5.9 2.2 2.4 2.2.7 0 1.2-.1 1.5-.4s.5-.6.5-1-.2-.7-.5-1c-.3-.2-1-.5-2-.7-1-.3-1.8-.6-2.2-1s-.6-.9-.6-1.5.3-1.2.8-1.6c.5-.5 1.2-.7 2.2-.7.9 0 1.7.2 2.2.7.5.4.9 1 1.1 1.8l-1.1.3c-.3-1.1-1.1-1.6-2.2-1.6-.6 0-1 .1-1.3.4-.3.2-.4.5-.4.8 0 .4.1.6.4.8s.9.4 2 .7 1.9.7 2.3 1.1.6.9.6 1.6-.3 1.3-.8 1.7c-.5.5-1.3.7-2.4.7s-2-.3-2.6-.9-1-1.3-1.1-2.2z"/><path d="m975.6 345.9 1.1.7c-.3.6-.8 1.1-1.4 1.5s-1.3.6-2.2.6c-1.2 0-2.1-.4-2.8-1.2s-1.1-1.9-1.1-3.3.4-2.4 1.1-3.3c.7-.8 1.7-1.2 2.8-1.2s2 .4 2.8 1.2c.7.8 1.1 1.9 1.1 3.3v.4h-6.4c0 .8.2 1.5.7 2.1s1.1.8 1.9.8c.3 0 .6 0 .9-.1s.5-.2.6-.3.3-.2.5-.4.3-.3.3-.4c-.1 0 0-.2.1-.4zm-5.1-2.3h5c0-.7-.2-1.3-.6-1.9s-1-.8-1.9-.8c-.8 0-1.4.3-1.9.8-.3.7-.6 1.3-.6 1.9z"/><path d="m979 348.5v-8.5h1.3v.8c.2-.3.6-.6 1-.8s.9-.3 1.4-.3c.9 0 1.7.3 2.2.8.6.6.8 1.3.8 2.3v5.6h-1.3v-5.2c0-1.6-.7-2.4-2-2.4-.7 0-1.2.2-1.6.6s-.6.9-.6 1.6v5.4h-1.2z"/><path d="m993.3 348.5v-.9c-.2.3-.5.5-.9.8-.4.2-1 .4-1.7.4-.9 0-1.7-.2-2.1-.7-.5-.5-.7-1-.7-1.7s.2-1.3.6-1.7 1.2-.7 2.2-1c.4-.1.7-.2.9-.2.2-.1.4-.1.6-.2s.4-.2.5-.3.2-.2.3-.3.1-.3.1-.4c0-.4-.1-.7-.4-.9s-.7-.4-1.3-.4c-1.1 0-1.8.6-2.1 1.7l-1.2-.3c.1-.7.5-1.4 1-1.8.6-.5 1.3-.7 2.2-.7 1 0 1.8.2 2.3.7s.9 1.2.9 2.3v5.7h-1.2zm-2.3-3.8c-.7.2-1.2.4-1.5.7-.3.2-.4.5-.4.9 0 .9.6 1.3 1.7 1.3.8 0 1.4-.2 1.8-.5s.6-.8.6-1.3v-2.1c-.2.3-.9.6-2.2 1z"/><path d="m997.1 348.5v-11.7h1.3v4c.6-.7 1.4-1.1 2.4-1.1 1.1 0 1.9.4 2.6 1.2s1 1.9 1 3.2c0 1.4-.3 2.5-1 3.3s-1.6 1.2-2.7 1.2c-.6 0-1.1-.1-1.5-.3s-.8-.5-1-.7v.8h-1.1zm1.3-5.4v2.6c0 .5.2.9.6 1.3s.9.6 1.6.6c.8 0 1.5-.3 1.9-.9s.7-1.4.7-2.4-.2-1.9-.7-2.4c-.4-.6-1.1-.9-1.9-.9-.7 0-1.2.2-1.6.6-.4.5-.6 1-.6 1.5z"/><path d="m1006.6 348.5v-11.7h1.3v11.7z"/><path d="m1016.5 345.9 1.1.7c-.3.6-.8 1.1-1.4 1.5s-1.3.6-2.2.6c-1.2 0-2.1-.4-2.8-1.2s-1.1-1.9-1.1-3.3.4-2.4 1.1-3.3c.7-.8 1.7-1.2 2.8-1.2s2 .4 2.8 1.2c.7.8 1.1 1.9 1.1 3.3v.4h-6.4c0 .8.2 1.5.7 2.1s1.1.8 1.9.8c.3 0 .6 0 .9-.1s.5-.2.6-.3.3-.2.5-.4.3-.3.3-.4c-.1 0 0-.2.1-.4zm-5.1-2.3h5c0-.7-.2-1.3-.6-1.9s-1-.8-1.9-.8c-.8 0-1.4.3-1.9.8-.3.7-.6 1.3-.6 1.9z"/><path d="m787.3 373.5v-7.3h-1.2v-1.2h1.2v-1.3c0-.7.2-1.2.5-1.5s.8-.4 1.4-.4h1.2v1.2h-.9c-.3 0-.5.1-.6.2s-.2.4-.2.8v1h3.2v-3.2h1.3v11.7h-1.3v-7.3h-3.1v7.3z"/><path d="m801.7 370.9 1.1.7c-.3.6-.8 1.1-1.4 1.5s-1.3.6-2.2.6c-1.2 0-2.1-.4-2.8-1.2s-1.1-1.9-1.1-3.3.4-2.4 1.1-3.3c.7-.8 1.7-1.2 2.8-1.2s2 .4 2.8 1.2c.7.8 1.1 1.9 1.1 3.3v.4h-6.4c0 .8.2 1.5.7 2.1s1.1.8 1.9.8c.3 0 .6 0 .9-.1s.5-.2.6-.3.3-.2.5-.4.3-.3.3-.4c-.1 0 0-.2.1-.4zm-5.1-2.3h5c0-.7-.2-1.3-.6-1.9s-1-.8-1.9-.8c-.8 0-1.4.3-1.9.8-.4.7-.6 1.3-.6 1.9z"/><path d="m811 370.9 1.1.7c-.3.6-.8 1.1-1.4 1.5s-1.3.6-2.2.6c-1.2 0-2.1-.4-2.8-1.2s-1.1-1.9-1.1-3.3.4-2.4 1.1-3.3c.7-.8 1.7-1.2 2.8-1.2s2 .4 2.8 1.2c.7.8 1.1 1.9 1.1 3.3v.4h-6.4c0 .8.2 1.5.7 2.1.4.6 1.1.8 1.9.8.3 0 .6 0 .9-.1s.5-.2.6-.3.3-.2.5-.4.3-.3.3-.4 0-.2.1-.4zm-5.1-2.3h5c0-.7-.2-1.3-.6-1.9s-1-.8-1.9-.8c-.8 0-1.4.3-1.9.8-.4.7-.6 1.3-.6 1.9z"/><path d="m814.7 371.1v-4.8h-1.2v-1.2h1.2v-2.1h1.2v2.1h2.1v1.2h-2v4.7c0 .5.1.9.2 1.1s.4.3.8.3h.6v1.3h-.7c-.8 0-1.4-.2-1.7-.6-.3-.6-.5-1.2-.5-2z"/><path d="m819.3 370.7 1.2-.2c.2 1.5.9 2.2 2.4 2.2.7 0 1.2-.1 1.5-.4s.5-.6.5-1-.2-.7-.5-1c-.3-.2-1-.5-2-.7-1-.3-1.8-.6-2.2-1s-.6-.9-.6-1.5.3-1.2.8-1.6c.5-.5 1.2-.7 2.2-.7.9 0 1.7.2 2.2.7.5.4.9 1 1.1 1.8l-1.1.3c-.3-1.1-1.1-1.6-2.2-1.6-.6 0-1 .1-1.3.4-.3.2-.4.5-.4.8 0 .4.1.6.4.8s.9.4 2 .7 1.9.7 2.3 1.1.6.9.6 1.6-.3 1.3-.8 1.7c-.5.5-1.3.7-2.4.7s-2-.3-2.6-.9-1-1.3-1.1-2.2z"/><path d="m832.5 371.1v-4.8h-1.2v-1.2h1.2v-2.1h1.2v2.1h2.1v1.2h-2.1v4.7c0 .5.1.9.2 1.1s.4.3.8.3h.6v1.3h-.7c-.8 0-1.4-.2-1.7-.6-.2-.6-.4-1.2-.4-2z"/><path d="m841 373.8c-1.1 0-2-.4-2.8-1.2-.7-.8-1.1-1.9-1.1-3.3s.4-2.5 1.1-3.3 1.7-1.2 2.7-1.2c1.1 0 2 .4 2.7 1.2s1.1 1.9 1.1 3.3-.4 2.5-1.1 3.3c-.6.8-1.5 1.2-2.6 1.2zm0-1.2c.7 0 1.3-.3 1.8-.9s.7-1.4.7-2.4-.2-1.8-.7-2.4-1.1-.9-1.8-.9-1.4.3-1.8.9c-.5.6-.7 1.4-.7 2.4 0 1.1.2 1.9.7 2.4.4.6 1 .9 1.8.9z"/><path d="m856.5 370.3 1.3.3c-.1 1-.5 1.8-1.2 2.4-.6.6-1.4.9-2.4.9-1.1 0-2.1-.4-2.8-1.2s-1.1-1.9-1.1-3.3.4-2.5 1.1-3.3 1.7-1.2 2.8-1.2c.9 0 1.7.3 2.3.9s1 1.3 1.2 2.2l-1.2.3c-.1-.6-.4-1.1-.7-1.6-.4-.4-.9-.6-1.5-.6-.8 0-1.4.3-1.9.9s-.7 1.4-.7 2.4.2 1.8.7 2.4 1.1.9 1.9.9c.6 0 1.1-.2 1.5-.7s.6-1.1.7-1.7z"/><path d="m859.8 373.5v-8.5h1.2v.9c.2-.3.4-.6.8-.8.3-.2.7-.3 1-.3h.4c.1 0 .2.1.3.1h.1l-.2 1.3c-.2-.1-.4-.1-.7-.1-.5 0-.9.2-1.2.5s-.4.9-.4 1.7v5h-1.3z"/><path d="m871.3 370.9 1.1.7c-.3.6-.8 1.1-1.4 1.5s-1.3.6-2.2.6c-1.2 0-2.1-.4-2.8-1.2s-1.1-1.9-1.1-3.3.4-2.4 1.1-3.3c.7-.8 1.7-1.2 2.8-1.2s2 .4 2.8 1.2c.7.8 1.1 1.9 1.1 3.3v.4h-6.4c0 .8.2 1.5.7 2.1s1.1.8 1.9.8c.3 0 .6 0 .9-.1s.5-.2.6-.3.3-.2.5-.4.3-.3.3-.4c0 0 0-.2.1-.4zm-5.1-2.3h5c0-.7-.2-1.3-.6-1.9s-1-.8-1.9-.8c-.8 0-1.4.3-1.9.8-.3.7-.5 1.3-.6 1.9z"/><path d="m879.7 373.5v-.9c-.2.3-.5.5-.9.8-.4.2-1 .4-1.7.4-.9 0-1.7-.2-2.1-.7-.5-.5-.7-1-.7-1.7s.2-1.3.6-1.7 1.2-.7 2.2-1c.4-.1.7-.2.9-.2.2-.1.4-.1.6-.2s.4-.2.5-.3.2-.2.3-.3.1-.3.1-.4c0-.4-.1-.7-.4-.9s-.7-.4-1.3-.4c-1.1 0-1.8.6-2.1 1.7l-1.2-.3c.1-.7.5-1.4 1-1.8.6-.5 1.3-.7 2.2-.7 1 0 1.8.2 2.3.7s.9 1.2.9 2.3v5.7h-1.2zm-2.4-3.8c-.7.2-1.2.4-1.5.7-.3.2-.4.5-.4.9 0 .9.6 1.3 1.7 1.3.8 0 1.4-.2 1.8-.5s.6-.8.6-1.3v-2.1c-.1.3-.9.6-2.2 1z"/><path d="m883.7 371.1v-4.8h-1.2v-1.2h1.2v-2.1h1.2v2.1h2.1v1.2h-2v4.7c0 .5.1.9.2 1.1s.4.3.8.3h.6v1.3h-.6c-.8 0-1.4-.2-1.7-.6-.4-.6-.6-1.2-.6-2z"/><path d="m894.7 370.9 1.1.7c-.3.6-.8 1.1-1.4 1.5s-1.3.6-2.2.6c-1.2 0-2.1-.4-2.8-1.2s-1.1-1.9-1.1-3.3.4-2.4 1.1-3.3c.7-.8 1.7-1.2 2.8-1.2s2 .4 2.8 1.2c.7.8 1.1 1.9 1.1 3.3v.4h-6.4c0 .8.2 1.5.7 2.1s1.1.8 1.9.8c.3 0 .6 0 .9-.1s.5-.2.6-.3.3-.2.5-.4.3-.3.3-.4c-.1 0 0-.2.1-.4zm-5.1-2.3h5c0-.7-.2-1.3-.6-1.9s-1-.8-1.9-.8c-.8 0-1.4.3-1.9.8-.4.7-.6 1.3-.6 1.9z"/><path d="m902.1 373.5v-11.7h1.3v11.7z"/><path d="m911.1 373.5v-.9c-.2.3-.5.5-.9.8-.4.2-1 .4-1.7.4-.9 0-1.7-.2-2.1-.7-.5-.5-.7-1-.7-1.7s.2-1.3.6-1.7 1.2-.7 2.2-1c.4-.1.7-.2.9-.2.2-.1.4-.1.6-.2s.4-.2.5-.3.2-.2.3-.3.1-.3.1-.4c0-.4-.1-.7-.4-.9s-.7-.4-1.3-.4c-1.1 0-1.8.6-2.1 1.7l-1.2-.3c.1-.7.5-1.4 1-1.8.6-.5 1.3-.7 2.2-.7 1 0 1.8.2 2.3.7s.9 1.2.9 2.3v5.7h-1.2zm-2.4-3.8c-.7.2-1.2.4-1.5.7-.3.2-.4.5-.4.9 0 .9.6 1.3 1.7 1.3.8 0 1.4-.2 1.8-.5s.6-.8.6-1.3v-2.1c-.1.3-.9.6-2.2 1z"/><path d="m914.1 370.7 1.2-.2c.2 1.5.9 2.2 2.4 2.2.7 0 1.2-.1 1.5-.4s.5-.6.5-1-.2-.7-.5-1c-.3-.2-1-.5-2-.7-1-.3-1.8-.6-2.2-1s-.6-.9-.6-1.5.3-1.2.8-1.6c.5-.5 1.2-.7 2.2-.7.9 0 1.7.2 2.2.7.5.4.9 1 1.1 1.8l-1.1.3c-.3-1.1-1.1-1.6-2.2-1.6-.6 0-1 .1-1.3.4-.3.2-.4.5-.4.8 0 .4.1.6.4.8s.9.4 2 .7 1.9.7 2.3 1.1.6.9.6 1.6-.3 1.3-.8 1.7c-.5.5-1.3.7-2.4.7s-2-.3-2.6-.9-1-1.3-1.1-2.2z"/><path d="m923.4 371.1v-4.8h-1.2v-1.2h1.2v-2.1h1.2v2.1h2.1v1.2h-2.1v4.7c0 .5.1.9.2 1.1s.4.3.8.3h.6v1.3h-.7c-.8 0-1.4-.2-1.7-.6-.3-.6-.4-1.2-.4-2z"/><path d="m928.8 363.3v-1.5h1.5v1.5zm.1 10.2v-8.5h1.3v8.5z"/><path d="m933 373.5v-8.5h1.3v.8c.2-.3.6-.6 1-.8s.9-.3 1.4-.3c.9 0 1.7.3 2.2.8.6.6.8 1.3.8 2.3v5.6h-1.3v-5.2c0-1.6-.7-2.4-2-2.4-.7 0-1.2.2-1.6.6s-.6.9-.6 1.6v5.4h-1.2z"/><path d="m942.5 375.1 1.1-.6c.2.5.5.9.8 1.2s.8.5 1.4.5c.7 0 1.2-.2 1.6-.6s.6-1 .6-1.7v-1.1c-.6.7-1.3 1-2.4 1s-2-.4-2.7-1.2-1-1.9-1-3.3.4-2.4 1.1-3.3c.7-.8 1.6-1.2 2.6-1.2s1.8.4 2.4 1.1v-.8h1.3v8.6c0 1.2-.3 2.1-.9 2.8-.6.6-1.4 1-2.5 1-.9 0-1.6-.2-2.2-.6-.5-.6-.9-1.1-1.2-1.8zm5.5-4.3v-2.7c0-.5-.2-1-.6-1.4s-.9-.6-1.6-.6c-.8 0-1.5.3-1.9.9-.5.6-.7 1.4-.7 2.4s.2 1.9.7 2.4c.4.6 1.1.9 1.9.9.6 0 1.2-.2 1.6-.6s.6-.9.6-1.3z"/><path d="m961.5 370.3 1.3.3c-.1 1-.5 1.8-1.2 2.4-.6.6-1.4.9-2.4.9-1.1 0-2.1-.4-2.8-1.2s-1.1-1.9-1.1-3.3.4-2.5 1.1-3.3 1.7-1.2 2.8-1.2c.9 0 1.7.3 2.3.9s1 1.3 1.2 2.2l-1.2.3c-.1-.6-.4-1.1-.7-1.6-.4-.4-.9-.6-1.5-.6-.8 0-1.4.3-1.9.9s-.7 1.4-.7 2.4.2 1.8.7 2.4 1.1.9 1.9.9c.6 0 1.1-.2 1.5-.7s.6-1.1.7-1.7z"/><path d="m964.8 373.5v-11.7h1.3v4c.2-.3.6-.6 1-.8.5-.2.9-.3 1.4-.3.9 0 1.6.3 2.2.8s.8 1.3.8 2.4v5.5h-1.3v-5.2c0-1.6-.7-2.3-2-2.3-.7 0-1.2.2-1.7.6-.4.4-.6.9-.6 1.6v5.3h-1.1z"/><path d="m979.3 373.5v-.9c-.2.3-.5.5-.9.8-.4.2-1 .4-1.7.4-.9 0-1.7-.2-2.1-.7-.5-.5-.7-1-.7-1.7s.2-1.3.6-1.7 1.2-.7 2.2-1c.4-.1.7-.2.9-.2.2-.1.4-.1.6-.2s.4-.2.5-.3.2-.2.3-.3.1-.3.1-.4c0-.4-.1-.7-.4-.9s-.7-.4-1.3-.4c-1.1 0-1.8.6-2.1 1.7l-1.2-.3c.1-.7.5-1.4 1-1.8.6-.5 1.3-.7 2.2-.7 1 0 1.8.2 2.3.7s.9 1.2.9 2.3v5.7h-1.2zm-2.4-3.8c-.7.2-1.2.4-1.5.7-.3.2-.4.5-.4.9 0 .9.6 1.3 1.7 1.3.8 0 1.4-.2 1.8-.5s.6-.8.6-1.3v-2.1c-.1.3-.9.6-2.2 1z"/><path d="m983 373.5v-8.5h1.3v.8c.2-.3.6-.6 1-.8s.9-.3 1.4-.3c.9 0 1.7.3 2.2.8.6.6.8 1.3.8 2.3v5.6h-1.3v-5.2c0-1.6-.7-2.4-2-2.4-.7 0-1.2.2-1.6.6s-.6.9-.6 1.6v5.4h-1.2z"/><path d="m992.5 375.1 1.1-.6c.2.5.5.9.8 1.2s.8.5 1.4.5c.7 0 1.2-.2 1.6-.6s.6-1 .6-1.7v-1.1c-.6.7-1.3 1-2.4 1s-2-.4-2.7-1.2-1-1.9-1-3.3.4-2.4 1.1-3.3c.7-.8 1.6-1.2 2.6-1.2s1.8.4 2.4 1.1v-.8h1.3v8.6c0 1.2-.3 2.1-.9 2.8-.6.6-1.4 1-2.5 1-.9 0-1.6-.2-2.2-.6-.6-.6-1-1.1-1.2-1.8zm5.4-4.3v-2.7c0-.5-.2-1-.6-1.4s-.9-.6-1.6-.6c-.8 0-1.5.3-1.9.9-.5.6-.7 1.4-.7 2.4s.2 1.9.7 2.4c.4.6 1.1.9 1.9.9.6 0 1.2-.2 1.6-.6s.6-.9.6-1.3z"/><path d="m1007.7 370.9 1.1.7c-.3.6-.8 1.1-1.4 1.5s-1.3.6-2.2.6c-1.2 0-2.1-.4-2.8-1.2s-1.1-1.9-1.1-3.3.4-2.4 1.1-3.3c.7-.8 1.7-1.2 2.8-1.2s2 .4 2.8 1.2c.7.8 1.1 1.9 1.1 3.3v.4h-6.4c0 .8.2 1.5.7 2.1s1.1.8 1.9.8c.3 0 .6 0 .9-.1s.5-.2.6-.3.3-.2.5-.4.3-.3.3-.4c0 0 0-.2.1-.4zm-5.1-2.3h5c0-.7-.2-1.3-.6-1.9s-1-.8-1.9-.8c-.8 0-1.4.3-1.9.8-.3.7-.5 1.3-.6 1.9z"/><path d="m1015.4 371.1v-4.8h-1.2v-1.2h1.2v-2.1h1.2v2.1h2.1v1.2h-2.1v4.7c0 .5.1.9.2 1.1s.4.3.8.3h.6v1.3h-.7c-.8 0-1.4-.2-1.7-.6-.2-.6-.4-1.2-.4-2z"/><path d="m1020.9 373.5v-11.7h1.3v4c.2-.3.6-.6 1-.8.5-.2.9-.3 1.4-.3.9 0 1.6.3 2.2.8s.8 1.3.8 2.4v5.5h-1.3v-5.2c0-1.6-.7-2.3-2-2.3-.7 0-1.2.2-1.7.6-.4.4-.6.9-.6 1.6v5.3h-1.1z"/><path d="m1035.3 373.5v-.9c-.2.3-.5.5-.9.8-.4.2-1 .4-1.7.4-.9 0-1.7-.2-2.1-.7-.5-.5-.7-1-.7-1.7s.2-1.3.6-1.7 1.2-.7 2.2-1c.4-.1.7-.2.9-.2.2-.1.4-.1.6-.2s.4-.2.5-.3.2-.2.3-.3.1-.3.1-.4c0-.4-.1-.7-.4-.9s-.7-.4-1.3-.4c-1.1 0-1.8.6-2.1 1.7l-1.2-.3c.1-.7.5-1.4 1-1.8.6-.5 1.3-.7 2.2-.7 1 0 1.8.2 2.3.7s.9 1.2.9 2.3v5.7h-1.2zm-2.3-3.8c-.7.2-1.2.4-1.5.7-.3.2-.4.5-.4.9 0 .9.6 1.3 1.7 1.3.8 0 1.4-.2 1.8-.5s.6-.8.6-1.3v-2.1c-.2.3-.9.6-2.2 1z"/><path d="m1039.3 371.1v-4.8h-1.2v-1.2h1.2v-2.1h1.2v2.1h2.1v1.2h-2.1v4.7c0 .5.1.9.2 1.1s.4.3.8.3h.6v1.3h-.7c-.8 0-1.4-.2-1.7-.6-.2-.6-.4-1.2-.4-2z"/><path d="m787 398.5v-11.7h1.3v11.7z"/><path d="m794.4 398.8c-1.1 0-2-.4-2.8-1.2-.7-.8-1.1-1.9-1.1-3.3s.4-2.5 1.1-3.3 1.7-1.2 2.7-1.2c1.1 0 2 .4 2.7 1.2s1.1 1.9 1.1 3.3-.4 2.5-1.1 3.3c-.6.8-1.5 1.2-2.6 1.2zm0-1.2c.7 0 1.3-.3 1.8-.9s.7-1.4.7-2.4-.2-1.8-.7-2.4-1.1-.9-1.8-.9-1.4.3-1.8.9c-.5.6-.7 1.4-.7 2.4 0 1.1.2 1.9.7 2.4.4.6 1 .9 1.8.9z"/><path d="m801.6 398.5-1.9-8.5h1.3l1.4 6.4 2.2-6.4h1.2l2.2 6.4 1.5-6.4h1.3l-2 8.5h-1.2l-2.4-6.9-2.4 6.9z"/><path d="m818.6 395.9 1.1.7c-.3.6-.8 1.1-1.4 1.5s-1.3.6-2.2.6c-1.2 0-2.1-.4-2.8-1.2s-1.1-1.9-1.1-3.3.4-2.4 1.1-3.3c.7-.8 1.7-1.2 2.8-1.2s2 .4 2.8 1.2c.7.8 1.1 1.9 1.1 3.3v.4h-6.4c0 .8.2 1.5.7 2.1s1.1.8 1.9.8c.3 0 .6 0 .9-.1s.5-.2.6-.3.3-.2.5-.4.3-.3.3-.4c0 0 0-.2.1-.4zm-5.1-2.3h5c0-.7-.2-1.3-.6-1.9s-1-.8-1.9-.8c-.8 0-1.4.3-1.9.8-.3.7-.5 1.3-.6 1.9z"/><path d="m822 398.5v-8.5h1.2v.9c.2-.3.4-.6.8-.8.3-.2.7-.3 1-.3h.4c.1 0 .2.1.3.1h.1l-.2 1.3c-.2-.1-.4-.1-.7-.1-.5 0-.9.2-1.2.5s-.4.9-.4 1.7v5h-1.3z"/><path d="m827 395.7 1.2-.2c.2 1.5.9 2.2 2.4 2.2.7 0 1.2-.1 1.5-.4s.5-.6.5-1-.2-.7-.5-1c-.3-.2-1-.5-2-.7-1-.3-1.8-.6-2.2-1s-.6-.9-.6-1.5.3-1.2.8-1.6c.5-.5 1.2-.7 2.2-.7.9 0 1.7.2 2.2.7.5.4.9 1 1.1 1.8l-1.1.3c-.3-1.1-1.1-1.6-2.2-1.6-.6 0-1 .1-1.3.4-.3.2-.4.5-.4.8 0 .4.1.6.4.8s.9.4 2 .7 1.9.7 2.3 1.1.6.9.6 1.6-.3 1.3-.8 1.7c-.5.5-1.3.7-2.4.7s-2-.3-2.6-.9-1-1.3-1.1-2.2z"/><path d="m845.5 395.3 1.3.3c-.1 1-.5 1.8-1.2 2.4-.6.6-1.4.9-2.4.9-1.1 0-2.1-.4-2.8-1.2s-1.1-1.9-1.1-3.3.4-2.5 1.1-3.3 1.7-1.2 2.8-1.2c.9 0 1.7.3 2.3.9s1 1.3 1.2 2.2l-1.2.3c-.1-.6-.4-1.1-.7-1.6-.4-.4-.9-.6-1.5-.6-.8 0-1.4.3-1.9.9s-.7 1.4-.7 2.4.2 1.8.7 2.4 1.1.9 1.9.9c.6 0 1.1-.2 1.5-.7s.6-1.1.7-1.7z"/><path d="m852.1 398.8c-1.1 0-2-.4-2.8-1.2-.7-.8-1.1-1.9-1.1-3.3s.4-2.5 1.1-3.3 1.7-1.2 2.7-1.2c1.1 0 2 .4 2.7 1.2s1.1 1.9 1.1 3.3-.4 2.5-1.1 3.3c-.6.8-1.5 1.2-2.6 1.2zm0-1.2c.7 0 1.3-.3 1.8-.9s.7-1.4.7-2.4-.2-1.8-.7-2.4-1.1-.9-1.8-.9-1.4.3-1.8.9c-.5.6-.7 1.4-.7 2.4 0 1.1.2 1.9.7 2.4.5.6 1.1.9 1.8.9z"/><path d="m857.4 395.7 1.2-.2c.2 1.5.9 2.2 2.4 2.2.7 0 1.2-.1 1.5-.4s.5-.6.5-1-.2-.7-.5-1c-.3-.2-1-.5-2-.7-1-.3-1.8-.6-2.2-1s-.6-.9-.6-1.5.3-1.2.8-1.6c.5-.5 1.2-.7 2.2-.7.9 0 1.7.2 2.2.7.5.4.9 1 1.1 1.8l-1.1.3c-.3-1.1-1.1-1.6-2.2-1.6-.6 0-1 .1-1.3.4-.3.2-.4.5-.4.8 0 .4.1.6.4.8s.9.4 2 .7 1.9.7 2.3 1.1.6.9.6 1.6-.3 1.3-.8 1.7c-.5.5-1.3.7-2.4.7s-2-.3-2.6-.9-1-1.3-1.1-2.2z"/><path d="m866.7 396.1v-4.8h-1.2v-1.2h1.2v-2.1h1.2v2.1h2.1v1.2h-2v4.7c0 .5.1.9.2 1.1s.4.3.8.3h.6v1.3h-.7c-.8 0-1.4-.2-1.7-.6-.4-.6-.5-1.2-.5-2z"/><path d="m881 398.5v-.9c-.2.3-.5.5-.9.8-.4.2-1 .4-1.7.4-.9 0-1.7-.2-2.1-.7-.5-.5-.7-1-.7-1.7s.2-1.3.6-1.7 1.2-.7 2.2-1c.4-.1.7-.2.9-.2.2-.1.4-.1.6-.2s.4-.2.5-.3.2-.2.3-.3.1-.3.1-.4c0-.4-.1-.7-.4-.9s-.7-.4-1.3-.4c-1.1 0-1.8.6-2.1 1.7l-1.2-.3c.1-.7.5-1.4 1-1.8.6-.5 1.3-.7 2.2-.7 1 0 1.8.2 2.3.7s.9 1.2.9 2.3v5.7h-1.2zm-2.3-3.8c-.7.2-1.2.4-1.5.7-.3.2-.4.5-.4.9 0 .9.6 1.3 1.7 1.3.8 0 1.4-.2 1.8-.5s.6-.8.6-1.3v-2.1c-.2.3-.9.6-2.2 1z"/><path d="m884.8 398.5v-8.5h1.3v.8c.2-.3.6-.6 1-.8s.9-.3 1.4-.3c.9 0 1.7.3 2.2.8.6.6.8 1.3.8 2.3v5.6h-1.3v-5.2c0-1.6-.7-2.4-2-2.4-.7 0-1.2.2-1.6.6s-.6.9-.6 1.6v5.4h-1.2z"/><path d="m899.8 398.5v-.8c-.2.3-.6.5-1 .7s-.9.3-1.5.3c-1.1 0-2-.4-2.7-1.2s-1-1.9-1-3.3.3-2.4 1-3.3c.7-.8 1.6-1.2 2.6-1.2s1.8.4 2.4 1.1v-4h1.3v11.7zm-.1-2.8v-2.6c0-.5-.2-1-.6-1.4s-.9-.6-1.6-.6c-.8 0-1.5.3-1.9.9s-.7 1.4-.7 2.4.2 1.9.7 2.4c.4.6 1.1.9 1.9.9.6 0 1.1-.2 1.6-.6s.6-.9.6-1.4z"/><path d="m907 395.7 1.2-.2c.2 1.5.9 2.2 2.4 2.2.7 0 1.2-.1 1.5-.4s.5-.6.5-1-.2-.7-.5-1c-.3-.2-1-.5-2-.7-1-.3-1.8-.6-2.2-1s-.6-.9-.6-1.5.3-1.2.8-1.6c.5-.5 1.2-.7 2.2-.7.9 0 1.7.2 2.2.7.5.4.9 1 1.1 1.8l-1.1.3c-.3-1.1-1.1-1.6-2.2-1.6-.6 0-1 .1-1.3.4-.3.2-.4.5-.4.8 0 .4.1.6.4.8s.9.4 2 .7 1.9.7 2.3 1.1.6.9.6 1.6-.3 1.3-.8 1.7c-.5.5-1.3.7-2.4.7s-2-.3-2.6-.9-1-1.3-1.1-2.2z"/><path d="m920.9 398.5v-.9c-.2.3-.5.5-.9.8-.4.2-1 .4-1.7.4-.9 0-1.7-.2-2.1-.7-.5-.5-.7-1-.7-1.7s.2-1.3.6-1.7 1.2-.7 2.2-1c.4-.1.7-.2.9-.2.2-.1.4-.1.6-.2s.4-.2.5-.3.2-.2.3-.3.1-.3.1-.4c0-.4-.1-.7-.4-.9s-.7-.4-1.3-.4c-1.1 0-1.8.6-2.1 1.7l-1.2-.3c.1-.7.5-1.4 1-1.8.6-.5 1.3-.7 2.2-.7 1 0 1.8.2 2.3.7s.9 1.2.9 2.3v5.7h-1.2zm-2.4-3.8c-.7.2-1.2.4-1.5.7-.3.2-.4.5-.4.9 0 .9.6 1.3 1.7 1.3.8 0 1.4-.2 1.8-.5s.6-.8.6-1.3v-2.1c-.1.3-.9.6-2.2 1z"/><path d="m926.6 398.5-3.4-8.5h1.3l2.6 6.6 2.6-6.6h1.3l-3.4 8.5z"/><path d="m938.4 395.9 1.1.7c-.3.6-.8 1.1-1.4 1.5s-1.3.6-2.2.6c-1.2 0-2.1-.4-2.8-1.2s-1.1-1.9-1.1-3.3.4-2.4 1.1-3.3c.7-.8 1.7-1.2 2.8-1.2s2 .4 2.8 1.2c.7.8 1.1 1.9 1.1 3.3v.4h-6.4c0 .8.2 1.5.7 2.1s1.1.8 1.9.8c.3 0 .6 0 .9-.1s.5-.2.6-.3.3-.2.5-.4.3-.3.3-.4c-.1 0 0-.2.1-.4zm-5.1-2.3h5c0-.7-.2-1.3-.6-1.9s-1-.8-1.9-.8c-.8 0-1.4.3-1.9.8-.4.7-.6 1.3-.6 1.9z"/><path d="m941.1 395.7 1.2-.2c.2 1.5.9 2.2 2.4 2.2.7 0 1.2-.1 1.5-.4s.5-.6.5-1-.2-.7-.5-1c-.3-.2-1-.5-2-.7-1-.3-1.8-.6-2.2-1s-.6-.9-.6-1.5.3-1.2.8-1.6c.5-.5 1.2-.7 2.2-.7.9 0 1.7.2 2.2.7.5.4.9 1 1.1 1.8l-1.1.3c-.3-1.1-1.1-1.6-2.2-1.6-.6 0-1 .1-1.3.4-.3.2-.4.5-.4.8 0 .4.1.6.4.8s.9.4 2 .7 1.9.7 2.3 1.1.6.9.6 1.6-.3 1.3-.8 1.7c-.5.5-1.3.7-2.4.7s-2-.3-2.6-.9-1-1.3-1.1-2.2z"/><path d="m954.1 398.5v-11.7h1.3v11.7z"/><path d="m958.1 388.3v-1.5h1.5v1.5zm.1 10.2v-8.5h1.3v8.5z"/><path d="m964.8 398.5-3.4-8.5h1.3l2.6 6.6 2.6-6.6h1.3l-3.4 8.5z"/><path d="m976.6 395.9 1.1.7c-.3.6-.8 1.1-1.4 1.5s-1.3.6-2.2.6c-1.2 0-2.1-.4-2.8-1.2s-1.1-1.9-1.1-3.3.4-2.4 1.1-3.3c.7-.8 1.7-1.2 2.8-1.2s2 .4 2.8 1.2c.7.8 1.1 1.9 1.1 3.3v.4h-6.4c0 .8.2 1.5.7 2.1s1.1.8 1.9.8c.3 0 .6 0 .9-.1s.5-.2.6-.3.3-.2.5-.4.3-.3.3-.4c-.1 0 0-.2.1-.4zm-5.1-2.3h5c0-.7-.2-1.3-.6-1.9s-1-.8-1.9-.8c-.8 0-1.4.3-1.9.8-.4.7-.6 1.3-.6 1.9z"/><path d="m979.3 395.7 1.2-.2c.2 1.5.9 2.2 2.4 2.2.7 0 1.2-.1 1.5-.4s.5-.6.5-1-.2-.7-.5-1c-.3-.2-1-.5-2-.7-1-.3-1.8-.6-2.2-1s-.6-.9-.6-1.5.3-1.2.8-1.6c.5-.5 1.2-.7 2.2-.7.9 0 1.7.2 2.2.7.5.4.9 1 1.1 1.8l-1.1.3c-.3-1.1-1.1-1.6-2.2-1.6-.6 0-1 .1-1.3.4-.3.2-.4.5-.4.8 0 .4.1.6.4.8s.9.4 2 .7 1.9.7 2.3 1.1.6.9.6 1.6-.3 1.3-.8 1.7c-.5.5-1.3.7-2.4.7s-2-.3-2.6-.9-1-1.3-1.1-2.2z"/><path d="m988.3 398.5v-1.9h1.9v1.9z"/></g><path d="m323.5 140.3h-48.3c-2.7 0-4.9-2.2-4.9-4.9v-16.7h58v16.7c.1 2.7-2.1 4.9-4.8 4.9z" fill="#00253f"/><path d="m331.5 133.7h-23.9c-3.2 0-6.3-1.1-8.8-3.1l-5.3-4.3c-2-1.6-4.6-2.5-7.2-2.5h-18.7v-11.5c0-3.8 3.1-6.9 6.9-6.9h50.1c3.8 0 6.9 3.1 6.9 6.9z" fill="#00253f"/><path d="m331.5 133.9h-23.9c-3.2 0-6.3-1.1-8.8-3.1l-5.3-4.3c-2-1.6-4.6-2.5-7.2-2.5h-18.7" fill="none" stroke="#f0f6fe" stroke-miterlimit="10" stroke-width=".7954"/><path d="m272.6 119.5v-6.2c0-1.5 1.3-2.7 2.8-2.7h48.5c1.5 0 2.5 1.2 2.5 2.7v17.2" fill="none" stroke="#f0f6fe" stroke-miterlimit="10" stroke-width=".7487"/><circle cx="279.3" cy="131.5" fill="#2dccd3" r="4.3"/><circle cx="277.9" cy="130.4" fill="#fff" r=".9"/><path d="m607.7 205.4h-103c-5.7 0-10.4-4.6-10.4-10.4v-35.6h123.7v35.6c.1 5.8-4.5 10.4-10.3 10.4z" fill="#00253f"/><path d="m624.7 191.5h-51c-6.9 0-13.5-2.4-18.8-6.7l-11.4-9.2c-4.3-3.5-9.7-5.4-15.3-5.4h-39.8v-24.4c0-8.2 6.6-14.8 14.8-14.8h106.8c8.2 0 14.8 6.6 14.8 14.8v45.7z" fill="#00253f"/><path d="m624.7 191.8h-51c-6.9 0-13.5-2.4-18.8-6.7l-11.4-9.2c-4.3-3.5-9.7-5.4-15.3-5.4h-39.8" fill="none" stroke="#f0f6fe" stroke-miterlimit="10" stroke-width="1.6955"/><path d="m499.1 161.2v-13.2c0-3.1 2.8-5.7 6-5.7h103.4c3.1 0 5.4 2.5 5.4 5.7v36.6" fill="none" stroke="#f0f6fe" stroke-miterlimit="10" stroke-width="1.596"/><circle cx="513.5" cy="186.8" fill="#2dccd3" r="9.1"/><circle cx="510.5" cy="184.4" fill="#fff" r="1.9"/><path d="m253 170.4v-38.9h5.8" fill="none" stroke="#2dccd3" stroke-miterlimit="10"/><path d="m556.5 87.7v35.5" fill="none" stroke="#2dccd3" stroke-linecap="round" stroke-miterlimit="10" stroke-width="1.5"/><path d="m552.1 92.1 4.4-4.4 4.5 4.4" fill="none" stroke="#2dccd3" stroke-linecap="round" stroke-miterlimit="10" stroke-width="1.5"/><path d="m522.5 78.1c-9.6 0-17-7.2-17-16.4 0-9.3 7.6-16.9 16.9-16.9h.6.5l.1-.5c1.1-5.7 6.1-9.8 12-9.8 1.5 0 3 .3 4.4.8l.4.1.2-.4c4.7-6.8 12.5-10.9 20.8-10.9 10.3 0 19.5 6.1 23.4 15.7l.1.4.4-.1c.9-.1 2.2-.2 3-.2 10.7 0 19.3 8.6 19.3 19.2s-8.4 18.9-19.2 18.9h-65.9z" fill="#f0f6fe" stroke="#00263e" stroke-miterlimit="10"/><path d="m647.5 153.9c5.9 5.9 5.9 15.5 0 21.4" fill="none" stroke="#2dccd3" stroke-linecap="round" stroke-miterlimit="10" stroke-width="3"/><path d="m656.4 150.1c8 8 8 21 0 29" fill="none" stroke="#2dccd3" stroke-linecap="round" stroke-miterlimit="10" stroke-width="3"/><path d="m665.2 146c10.3 10.3 10.3 26.9 0 37.1" fill="none" stroke="#2dccd3" stroke-linecap="round" stroke-miterlimit="10" stroke-width="3"/><path d="m674 142c12.5 12.5 12.5 32.7 0 45.2" fill="none" stroke="#2dccd3" stroke-linecap="round" stroke-miterlimit="10" stroke-width="3"/><script xmlns="" type="text/javascript" charset="utf-8" id="zm-extension"/></svg>