<svg enable-background="new 0 0 120 120" viewBox="0 0 120 120" xmlns="http://www.w3.org/2000/svg"><circle cx="60" cy="60" fill="#1dcad3" r="60"/><path d="m31.5 92.3s-1.9 6.1-1.9 6.5-2.1 2.6-2.1 2.6-3 3.7-3.5 4.3c-.4.6-1.8 5.7-1.8 5.7s-.6 6.6-.1 7 30.7.7 35.4 1 27.1-1 27.1-1l.4-9.9" fill="#fff"/><path d="m95.3 109 2 10.4-25.6-.3-3.3-3.7" style="fill:#fff;stroke:#00263e;stroke-width:1.8376;stroke-linecap:round;stroke-linejoin:round;stroke-miterlimit:10"/><path d="m29.5 103.8c-.2-17.8 10-25.3 23.6-25.3h19.2c5.5 0 10.3 1.1 14.7 4.5 6.4 5.1 10.1 17 11.1 24l-16.8 5.3" style="fill:#fff;stroke:#00263e;stroke-width:1.8376;stroke-linecap:round;stroke-linejoin:round;stroke-miterlimit:10"/><path d="m53.7 63.3h18.4v20.8h-18.4z" fill="#fff"/><path d="m53.1 70.1v8.4" style="fill:#fff;stroke:#00263e;stroke-width:2.3127;stroke-linecap:round;stroke-linejoin:round;stroke-miterlimit:10"/><path d="m72.3 78.5v-41.2c0-8.3-6.8-15.1-15-14.9-7.9.2-14.1 6.7-14.1 14.6v17.5 2.6c0 1.1.3 2.1.8 3l3.7 6.6c.9 1.7 2.7 2.7 4.7 2.7h7.2" style="fill:#fff;stroke:#00263e;stroke-width:1.8376;stroke-linecap:round;stroke-linejoin:round;stroke-miterlimit:10"/><path d="m51.7 51.6h-2.6v-6.8c0-1.3-2.8-3.6-6-1.9" style="fill:none;stroke:#00263e;stroke-width:1.8376;stroke-linecap:round;stroke-linejoin:round;stroke-miterlimit:10"/><path d="m70.6 27.6 4.9 4.9-3.2 18.2-7.3-16.1s-3.5 3.8-12.6 3.8c-8.3 0-10-3.3-10-3.3 5.6 0 5.7-13.8 14-13.8s11.6 4.3 14.2 6.3z" style="fill:#00263e;stroke:#00263e;stroke-width:2.3127;stroke-linecap:round;stroke-linejoin:round;stroke-miterlimit:10"/><path d="m43.1 34.3h32.6v-9c0-5.4-4.3-9.7-9.7-9.7h-13.2c-5.4 0-9.7 4.3-9.7 9.7z" style="fill:#fff;stroke:#00263e;stroke-width:1.8376;stroke-linecap:round;stroke-linejoin:round;stroke-miterlimit:10"/><path d="m72.2 34.3h-36.9" style="fill:#fff;stroke:#00263e;stroke-width:1.8376;stroke-linecap:round;stroke-linejoin:round;stroke-miterlimit:10"/><circle cx="58.1" cy="45.9" fill="#00263e" r="1.2"/><circle cx="46.3" cy="45.9" fill="#00263e" r="1.2"/><g stroke="#00263e" stroke-linejoin="round" stroke-miterlimit="10"><path d="m48.7 58.1s2.1 3.3 7.3.2" fill="#fff" stroke-linecap="round" stroke-width="1.8376"/><path d="m70.4 103 16.2 15.5" fill="#fff" stroke-linecap="round" stroke-width="1.8376"/><path d="m21.7 118.4c-.9-12.5 6.5-23.7 17.8-26.2 12.6-2.8 25.3 6.4 28.4 20.5.4 1.8.6 3.7.7 5.4" fill="none" stroke-linecap="round" stroke-width="3.9198"/><path d="m35.9 119.3c-.1-.4-.2-.9-.2-1.3-.3-4.2 2.1-7.9 5.9-8.8 4.2-.9 8.4 2.1 9.4 6.8.2.8.3 1.7.2 2.5" fill="none" stroke-width="3.9198"/><path d="m24.6 110.1c-1.8.4-6-1.6-6.1-4s1.8-6.7 4.7-8.3 5.8 1.4 6.6 3.3c.8 2-3.3 8.6-5.2 9z" fill="#fff" stroke-linecap="round" stroke-width="1.8376"/><path d="m57 100.7c.4-2.1 7.5-4.3 10-3.3s5.6 7.3 6 11c.3 3.7-7 1.6-9.3 1.6s-7.2-7.3-6.7-9.3z" fill="#fff" stroke-linecap="round" stroke-width="2.299"/><path d="m61.1 108.6-10.4 6.3" fill="none" stroke-width="3.9198"/><path d="m27.2 107.7 9.1 6.2" fill="none" stroke-width="3.9198"/></g><path d="m16.7 117.7h86.4v2.4h-86.4z" fill="#fff"/><path d="m43.3 34.3h32.6v-9c0-5.4-4.3-9.7-9.7-9.7h-13.2c-5.4 0-9.7 4.3-9.7 9.7z" style="fill:#fff;stroke:#00263e;stroke-width:1.8376;stroke-linecap:round;stroke-linejoin:round;stroke-miterlimit:10"/><path d="m75.8 79.4c-2 3.2-7.1 5.5-13 5.5-6.3 0-11.7-2.6-13.4-6.2" style="fill:none;stroke:#00263e;stroke-width:1.8376;stroke-linecap:round;stroke-linejoin:round;stroke-miterlimit:10"/><path d="m54.7 43.5c1.3-1.2 4.6-2.1 7.2 0" style="fill:#fff;stroke:#00263e;stroke-width:1.8376;stroke-linecap:round;stroke-linejoin:round;stroke-miterlimit:10"/><path d="m18.1 117.7h86.4" style="fill:none;stroke:#00263e;stroke-width:1.8372;stroke-linecap:round;stroke-linejoin:round;stroke-miterlimit:10"/><path d="m44.3 24.8h15.1v5.9h-15.1z" fill="#81b0d2"/><script xmlns="" type="text/javascript" charset="utf-8" id="zm-extension"/></svg>