<?xml version="1.0" encoding="UTF-8"?>
<!-- Generator: Adobe Illustrator 22.1.0, SVG Export Plug-In . SVG Version: 6.00 Build 0)  -->
<svg version="1.1" id="Layer_1" xmlns="http://www.w3.org/2000/svg" xmlns:xlink="http://www.w3.org/1999/xlink" x="0px" y="0px" viewBox="0 0 336.9 301.8" style="enable-background:new 0 0 336.9 301.8;" xml:space="preserve">
<style type="text/css">
	.st0{fill:#FFFFFF;}
	.st1{fill:#1DCAD3;}
	.st2{fill:#00263E;}
	.st3{fill:none;stroke:#FFFFFF;stroke-width:4.7984;stroke-miterlimit:10;}
</style>
<g id="bgwhite">
	<rect class="st0" width="336.9" height="301.8"/>
</g>
<g id="screenover">
	<g>
		<path class="st1" d="M133.3,119.7c-2.9,2.9-2.9,7.5,0,10.4s7.5,2.9,10.4,0c5.5-5.6,12.9-8.6,20.8-8.6c7.9,0,15.2,3.1,20.8,8.6    c2.9,2.9,7.5,2.9,10.4,0c1.4-1.4,2.2-3.3,2.2-5.2s-0.7-3.8-2.2-5.2c-8.3-8.3-19.4-12.9-31.2-12.9S141.6,111.4,133.3,119.7z"/>
		<path class="st1" d="M91.7,78.1c-2.9,2.9-2.9,7.5,0,10.4s7.5,2.9,10.4,0c34.4-34.4,90.3-34.4,124.7,0c2.9,2.9,7.5,2.9,10.4,0    c1.4-1.4,2.2-3.3,2.2-5.2s-0.7-3.8-2.2-5.2C197.1,38,131.8,38,91.7,78.1z"/>
		<path class="st1" d="M112.5,98.9c-2.9,2.9-2.9,7.5,0,10.4s7.5,2.9,10.4,0c22.9-22.9,60.2-22.9,83.2,0c2.9,2.9,7.5,2.9,10.4,0    c1.4-1.4,2.2-3.3,2.2-5.2s-0.7-3.8-2.2-5.2C187.8,70.3,141.1,70.3,112.5,98.9z"/>
		<rect x="29.6" y="177.8" class="st2" width="277.8" height="76"/>
		<polyline class="st3" points="282.2,162.8 248.4,200.8 88.6,200.8 54.7,162.8   "/>
	</g>
</g>
<script xmlns="" type="text/javascript" charset="utf-8" id="zm-extension"/></svg>