<?xml version="1.0" encoding="UTF-8"?>
<!-- Generator: Adobe Illustrator 23.0.1, SVG Export Plug-In . SVG Version: 6.00 Build 0)  -->
<svg version="1.1" id="Layer_1" xmlns="http://www.w3.org/2000/svg" xmlns:xlink="http://www.w3.org/1999/xlink" x="0px" y="0px" viewBox="0 0 400 400" style="enable-background:new 0 0 400 400;" xml:space="preserve">
<style type="text/css">
	.st0{fill:#1DCAD3;}
	.st1{fill:#00263E;}
	.st2{fill:#FFFFFF;}
	.st3{fill:none;stroke:#1DCAD3;stroke-width:8;stroke-linecap:round;stroke-miterlimit:10;}
	.st4{fill:none;stroke:#1DCAD3;stroke-width:3.5857;stroke-miterlimit:10;}
	.st5{enable-background:new    ;}
	.st6{fill:none;stroke:#FFFFFF;stroke-width:4.7984;stroke-miterlimit:10;}
	.st7{fill:none;stroke:#FFFFFF;stroke-width:5.9874;stroke-miterlimit:10;}
	.st8{fill:#C2D5ED;}
	.st9{fill:none;stroke:#7BADD3;stroke-width:1.182;stroke-miterlimit:10;}
	.st10{fill:#00263E;stroke:#00263E;stroke-width:0.9522;stroke-linecap:round;stroke-miterlimit:10;}
	.st11{fill:none;stroke:#00263E;stroke-width:8.8871;stroke-miterlimit:10;}
	.st12{fill:none;stroke:#00263E;stroke-width:5.9235;stroke-miterlimit:10;}
	.st13{fill:none;stroke:#FFFFFF;stroke-width:3.174;stroke-linecap:round;stroke-miterlimit:10;}
	.st14{fill:none;stroke:#FFFFFF;stroke-width:3.174;stroke-miterlimit:10;}
	.st15{fill:none;stroke:#FFFFFF;stroke-width:2.364;stroke-miterlimit:10;}
	.st16{fill:none;stroke:#7BADD3;stroke-width:2.364;stroke-miterlimit:10;}
	.st17{fill:none;stroke:#1DCAD3;stroke-miterlimit:10;}
	.st18{clip-path:url(#SVGID_2_);fill:none;stroke:#1DCAD3;stroke-width:8;stroke-linecap:round;stroke-miterlimit:10;}
	.st19{clip-path:url(#SVGID_4_);fill:none;stroke:#1DCAD3;stroke-width:8;stroke-linecap:round;stroke-miterlimit:10;}
	.st20{clip-path:url(#SVGID_6_);fill:none;stroke:#1DCAD3;stroke-width:8;stroke-linecap:round;stroke-miterlimit:10;}
	.st21{clip-path:url(#SVGID_8_);fill:none;stroke:#1DCAD3;stroke-width:8;stroke-linecap:round;stroke-miterlimit:10;}
	.st22{clip-path:url(#SVGID_10_);fill:none;stroke:#1DCAD3;stroke-width:8;stroke-linecap:round;stroke-miterlimit:10;}
	.st23{clip-path:url(#SVGID_12_);fill:none;stroke:#1DCAD3;stroke-width:8;stroke-linecap:round;stroke-miterlimit:10;}
	.st24{clip-path:url(#SVGID_14_);fill:none;stroke:#1DCAD3;stroke-width:8;stroke-linecap:round;stroke-miterlimit:10;}
	.st25{clip-path:url(#SVGID_16_);fill:none;stroke:#1DCAD3;stroke-width:8;stroke-linecap:round;stroke-miterlimit:10;}
	.st26{clip-path:url(#SVGID_18_);fill:none;stroke:#1DCAD3;stroke-width:8;stroke-linecap:round;stroke-miterlimit:10;}
	.st27{clip-path:url(#SVGID_20_);fill:none;stroke:#1DCAD3;stroke-width:8;stroke-linecap:round;stroke-miterlimit:10;}
	.st28{clip-path:url(#SVGID_22_);fill:none;stroke:#1DCAD3;stroke-width:8;stroke-linecap:round;stroke-miterlimit:10;}
	.st29{clip-path:url(#SVGID_24_);fill:none;stroke:#1DCAD3;stroke-width:8;stroke-linecap:round;stroke-miterlimit:10;}
	.st30{clip-path:url(#SVGID_26_);fill:none;stroke:#1DCAD3;stroke-width:8;stroke-linecap:round;stroke-miterlimit:10;}
	.st31{clip-path:url(#SVGID_28_);fill:none;stroke:#1DCAD3;stroke-width:8;stroke-linecap:round;stroke-miterlimit:10;}
	.st32{clip-path:url(#SVGID_30_);fill:none;stroke:#1DCAD3;stroke-width:8;stroke-linecap:round;stroke-miterlimit:10;}
	.st33{clip-path:url(#SVGID_32_);fill:none;stroke:#1DCAD3;stroke-width:8;stroke-linecap:round;stroke-miterlimit:10;}
	.st34{clip-path:url(#SVGID_34_);fill:none;stroke:#1DCAD3;stroke-width:8;stroke-linecap:round;stroke-miterlimit:10;}
	.st35{clip-path:url(#SVGID_36_);fill:none;stroke:#1DCAD3;stroke-width:8;stroke-linecap:round;stroke-miterlimit:10;}
	.st36{clip-path:url(#SVGID_38_);fill:none;stroke:#1DCAD3;stroke-width:8;stroke-linecap:round;stroke-miterlimit:10;}
	.st37{clip-path:url(#SVGID_40_);fill:none;stroke:#1DCAD3;stroke-width:8;stroke-linecap:round;stroke-miterlimit:10;}
	.st38{clip-path:url(#SVGID_42_);fill:none;stroke:#1DCAD3;stroke-width:8;stroke-linecap:round;stroke-miterlimit:10;}
	.st39{clip-path:url(#SVGID_44_);fill:none;stroke:#1DCAD3;stroke-width:8;stroke-linecap:round;stroke-miterlimit:10;}
	.st40{clip-path:url(#SVGID_46_);fill:none;stroke:#1DCAD3;stroke-width:8;stroke-linecap:round;stroke-miterlimit:10;}
	.st41{clip-path:url(#SVGID_48_);fill:none;stroke:#1DCAD3;stroke-width:8;stroke-linecap:round;stroke-miterlimit:10;}
	.st42{clip-path:url(#SVGID_50_);fill:none;stroke:#1DCAD3;stroke-width:8;stroke-linecap:round;stroke-miterlimit:10;}
	.st43{clip-path:url(#SVGID_52_);fill:none;stroke:#1DCAD3;stroke-width:8;stroke-linecap:round;stroke-miterlimit:10;}
	.st44{clip-path:url(#SVGID_54_);fill:none;stroke:#1DCAD3;stroke-width:8;stroke-linecap:round;stroke-miterlimit:10;}
	.st45{clip-path:url(#SVGID_56_);fill:none;stroke:#1DCAD3;stroke-width:8;stroke-linecap:round;stroke-miterlimit:10;}
	.st46{clip-path:url(#SVGID_58_);fill:none;stroke:#1DCAD3;stroke-width:8;stroke-linecap:round;stroke-miterlimit:10;}
	.st47{clip-path:url(#SVGID_60_);fill:none;stroke:#1DCAD3;stroke-width:8;stroke-linecap:round;stroke-miterlimit:10;}
	.st48{clip-path:url(#SVGID_62_);fill:none;stroke:#1DCAD3;stroke-width:8;stroke-linecap:round;stroke-miterlimit:10;}
	.st49{clip-path:url(#SVGID_64_);fill:none;stroke:#1DCAD3;stroke-width:8;stroke-linecap:round;stroke-miterlimit:10;}
	.st50{clip-path:url(#SVGID_66_);fill:none;stroke:#1DCAD3;stroke-width:8;stroke-linecap:round;stroke-miterlimit:10;}
	.st51{clip-path:url(#SVGID_68_);fill:none;stroke:#1DCAD3;stroke-width:8;stroke-linecap:round;stroke-miterlimit:10;}
	.st52{clip-path:url(#SVGID_70_);fill:none;stroke:#1DCAD3;stroke-width:8;stroke-linecap:round;stroke-miterlimit:10;}
	.st53{clip-path:url(#SVGID_72_);fill:none;stroke:#1DCAD3;stroke-width:8;stroke-linecap:round;stroke-miterlimit:10;}
	.st54{clip-path:url(#SVGID_74_);fill:none;stroke:#1DCAD3;stroke-width:8;stroke-linecap:round;stroke-miterlimit:10;}
	.st55{clip-path:url(#SVGID_76_);fill:none;stroke:#1DCAD3;stroke-width:8;stroke-linecap:round;stroke-miterlimit:10;}
	.st56{clip-path:url(#SVGID_78_);fill:none;stroke:#1DCAD3;stroke-width:8;stroke-linecap:round;stroke-miterlimit:10;}
	.st57{clip-path:url(#SVGID_80_);fill:none;stroke:#1DCAD3;stroke-width:8;stroke-linecap:round;stroke-miterlimit:10;}
	.st58{clip-path:url(#SVGID_82_);fill:none;stroke:#1DCAD3;stroke-width:8;stroke-linecap:round;stroke-miterlimit:10;}
	.st59{clip-path:url(#SVGID_84_);fill:none;stroke:#1DCAD3;stroke-width:8;stroke-linecap:round;stroke-miterlimit:10;}
	.st60{clip-path:url(#SVGID_86_);fill:none;stroke:#1DCAD3;stroke-width:8;stroke-linecap:round;stroke-miterlimit:10;}
	.st61{clip-path:url(#SVGID_88_);fill:none;stroke:#1DCAD3;stroke-width:8;stroke-linecap:round;stroke-miterlimit:10;}
	.st62{clip-path:url(#SVGID_90_);fill:none;stroke:#1DCAD3;stroke-width:8;stroke-linecap:round;stroke-miterlimit:10;}
	.st63{clip-path:url(#SVGID_92_);fill:none;stroke:#1DCAD3;stroke-width:8;stroke-linecap:round;stroke-miterlimit:10;}
	.st64{clip-path:url(#SVGID_94_);fill:none;stroke:#1DCAD3;stroke-width:8;stroke-linecap:round;stroke-miterlimit:10;}
	.st65{clip-path:url(#SVGID_96_);fill:none;stroke:#1DCAD3;stroke-width:8;stroke-linecap:round;stroke-miterlimit:10;}
	.st66{clip-path:url(#SVGID_98_);fill:none;stroke:#1DCAD3;stroke-width:8;stroke-linecap:round;stroke-miterlimit:10;}
	.st67{clip-path:url(#SVGID_100_);fill:none;stroke:#1DCAD3;stroke-width:8;stroke-linecap:round;stroke-miterlimit:10;}
	.st68{clip-path:url(#SVGID_102_);fill:none;stroke:#1DCAD3;stroke-width:8;stroke-linecap:round;stroke-miterlimit:10;}
	.st69{clip-path:url(#SVGID_104_);fill:none;stroke:#1DCAD3;stroke-width:8;stroke-linecap:round;stroke-miterlimit:10;}
	.st70{clip-path:url(#SVGID_106_);fill:none;stroke:#1DCAD3;stroke-width:8;stroke-linecap:round;stroke-miterlimit:10;}
	.st71{clip-path:url(#SVGID_108_);fill:none;stroke:#1DCAD3;stroke-width:8;stroke-linecap:round;stroke-miterlimit:10;}
	.st72{clip-path:url(#SVGID_110_);fill:none;stroke:#1DCAD3;stroke-width:8;stroke-linecap:round;stroke-miterlimit:10;}
	.st73{clip-path:url(#SVGID_112_);fill:none;stroke:#1DCAD3;stroke-width:8;stroke-linecap:round;stroke-miterlimit:10;}
	.st74{clip-path:url(#SVGID_114_);fill:none;stroke:#1DCAD3;stroke-width:8;stroke-linecap:round;stroke-miterlimit:10;}
	.st75{clip-path:url(#SVGID_116_);fill:none;stroke:#1DCAD3;stroke-width:8;stroke-linecap:round;stroke-miterlimit:10;}
	.st76{clip-path:url(#SVGID_118_);fill:none;stroke:#1DCAD3;stroke-width:8;stroke-linecap:round;stroke-miterlimit:10;}
	.st77{clip-path:url(#SVGID_120_);fill:none;stroke:#1DCAD3;stroke-width:8;stroke-linecap:round;stroke-miterlimit:10;}
	.st78{clip-path:url(#SVGID_122_);fill:none;stroke:#1DCAD3;stroke-width:8;stroke-linecap:round;stroke-miterlimit:10;}
	.st79{clip-path:url(#SVGID_124_);fill:none;stroke:#1DCAD3;stroke-width:8;stroke-linecap:round;stroke-miterlimit:10;}
	.st80{clip-path:url(#SVGID_126_);fill:none;stroke:#1DCAD3;stroke-width:8;stroke-linecap:round;stroke-miterlimit:10;}
	.st81{clip-path:url(#SVGID_128_);fill:none;stroke:#1DCAD3;stroke-width:8;stroke-linecap:round;stroke-miterlimit:10;}
	.st82{clip-path:url(#SVGID_130_);fill:none;stroke:#1DCAD3;stroke-width:8;stroke-linecap:round;stroke-miterlimit:10;}
	.st83{clip-path:url(#SVGID_132_);fill:none;stroke:#1DCAD3;stroke-width:8;stroke-linecap:round;stroke-miterlimit:10;}
	.st84{clip-path:url(#SVGID_134_);fill:none;stroke:#1DCAD3;stroke-width:8;stroke-linecap:round;stroke-miterlimit:10;}
	.st85{clip-path:url(#SVGID_136_);fill:none;stroke:#1DCAD3;stroke-width:8;stroke-linecap:round;stroke-miterlimit:10;}
	.st86{clip-path:url(#SVGID_138_);fill:none;stroke:#1DCAD3;stroke-width:8;stroke-linecap:round;stroke-miterlimit:10;}
	.st87{clip-path:url(#SVGID_140_);fill:none;stroke:#1DCAD3;stroke-width:8;stroke-linecap:round;stroke-miterlimit:10;}
	.st88{clip-path:url(#SVGID_142_);fill:none;stroke:#1DCAD3;stroke-width:8;stroke-linecap:round;stroke-miterlimit:10;}
	.st89{clip-path:url(#SVGID_144_);fill:none;stroke:#1DCAD3;stroke-width:8;stroke-linecap:round;stroke-miterlimit:10;}
	.st90{clip-path:url(#SVGID_146_);fill:none;stroke:#1DCAD3;stroke-width:8;stroke-linecap:round;stroke-miterlimit:10;}
	.st91{clip-path:url(#SVGID_148_);fill:none;stroke:#1DCAD3;stroke-width:8;stroke-linecap:round;stroke-miterlimit:10;}
	.st92{clip-path:url(#SVGID_150_);fill:none;stroke:#1DCAD3;stroke-width:8;stroke-linecap:round;stroke-miterlimit:10;}
	.st93{clip-path:url(#SVGID_152_);fill:none;stroke:#1DCAD3;stroke-width:8;stroke-linecap:round;stroke-miterlimit:10;}
	.st94{clip-path:url(#SVGID_154_);fill:none;stroke:#1DCAD3;stroke-width:8;stroke-linecap:round;stroke-miterlimit:10;}
	.st95{clip-path:url(#SVGID_156_);fill:none;stroke:#1DCAD3;stroke-width:8;stroke-linecap:round;stroke-miterlimit:10;}
	.st96{clip-path:url(#SVGID_158_);fill:none;stroke:#1DCAD3;stroke-width:8;stroke-linecap:round;stroke-miterlimit:10;}
	.st97{clip-path:url(#SVGID_160_);fill:none;stroke:#1DCAD3;stroke-width:8;stroke-linecap:round;stroke-miterlimit:10;}
	.st98{clip-path:url(#SVGID_162_);fill:none;stroke:#1DCAD3;stroke-width:8;stroke-linecap:round;stroke-miterlimit:10;}
	.st99{clip-path:url(#SVGID_164_);fill:none;stroke:#1DCAD3;stroke-width:8;stroke-linecap:round;stroke-miterlimit:10;}
	.st100{clip-path:url(#SVGID_166_);fill:none;stroke:#1DCAD3;stroke-width:8;stroke-linecap:round;stroke-miterlimit:10;}
	.st101{clip-path:url(#SVGID_168_);fill:none;stroke:#1DCAD3;stroke-width:8;stroke-linecap:round;stroke-miterlimit:10;}
	.st102{clip-path:url(#SVGID_170_);fill:none;stroke:#1DCAD3;stroke-width:8;stroke-linecap:round;stroke-miterlimit:10;}
	.st103{clip-path:url(#SVGID_172_);fill:none;stroke:#1DCAD3;stroke-width:8;stroke-linecap:round;stroke-miterlimit:10;}
	.st104{clip-path:url(#SVGID_174_);fill:none;stroke:#1DCAD3;stroke-width:8;stroke-linecap:round;stroke-miterlimit:10;}
	.st105{clip-path:url(#SVGID_176_);fill:none;stroke:#1DCAD3;stroke-width:8;stroke-linecap:round;stroke-miterlimit:10;}
	.st106{clip-path:url(#SVGID_178_);fill:none;stroke:#1DCAD3;stroke-width:8;stroke-linecap:round;stroke-miterlimit:10;}
	.st107{clip-path:url(#SVGID_180_);fill:none;stroke:#1DCAD3;stroke-width:8;stroke-linecap:round;stroke-miterlimit:10;}
	.st108{clip-path:url(#SVGID_182_);fill:none;stroke:#1DCAD3;stroke-width:8;stroke-linecap:round;stroke-miterlimit:10;}
	.st109{clip-path:url(#SVGID_184_);fill:none;stroke:#1DCAD3;stroke-width:8;stroke-linecap:round;stroke-miterlimit:10;}
	.st110{clip-path:url(#SVGID_186_);fill:none;stroke:#1DCAD3;stroke-width:8;stroke-linecap:round;stroke-miterlimit:10;}
	.st111{clip-path:url(#SVGID_188_);fill:none;stroke:#1DCAD3;stroke-width:8;stroke-linecap:round;stroke-miterlimit:10;}
	.st112{clip-path:url(#SVGID_190_);fill:none;stroke:#1DCAD3;stroke-width:8;stroke-linecap:round;stroke-miterlimit:10;}
	.st113{clip-path:url(#SVGID_192_);fill:none;stroke:#1DCAD3;stroke-width:8;stroke-linecap:round;stroke-miterlimit:10;}
	.st114{clip-path:url(#SVGID_194_);fill:none;stroke:#1DCAD3;stroke-width:8;stroke-linecap:round;stroke-miterlimit:10;}
	.st115{clip-path:url(#SVGID_196_);fill:none;stroke:#1DCAD3;stroke-width:8;stroke-linecap:round;stroke-miterlimit:10;}
	.st116{clip-path:url(#SVGID_198_);fill:none;stroke:#1DCAD3;stroke-width:8;stroke-linecap:round;stroke-miterlimit:10;}
	.st117{clip-path:url(#SVGID_200_);fill:none;stroke:#1DCAD3;stroke-width:8;stroke-linecap:round;stroke-miterlimit:10;}
	.st118{clip-path:url(#SVGID_202_);fill:none;stroke:#1DCAD3;stroke-width:8;stroke-linecap:round;stroke-miterlimit:10;}
	.st119{clip-path:url(#SVGID_204_);fill:none;stroke:#1DCAD3;stroke-width:8;stroke-linecap:round;stroke-miterlimit:10;}
	.st120{clip-path:url(#SVGID_206_);fill:none;stroke:#1DCAD3;stroke-width:8;stroke-linecap:round;stroke-miterlimit:10;}
	.st121{clip-path:url(#SVGID_208_);fill:none;stroke:#1DCAD3;stroke-width:8;stroke-linecap:round;stroke-miterlimit:10;}
	.st122{clip-path:url(#SVGID_210_);fill:none;stroke:#1DCAD3;stroke-width:8;stroke-linecap:round;stroke-miterlimit:10;}
	.st123{clip-path:url(#SVGID_212_);fill:none;stroke:#1DCAD3;stroke-width:8;stroke-linecap:round;stroke-miterlimit:10;}
	.st124{clip-path:url(#SVGID_214_);fill:none;stroke:#1DCAD3;stroke-width:8;stroke-linecap:round;stroke-miterlimit:10;}
	.st125{clip-path:url(#SVGID_216_);fill:none;stroke:#1DCAD3;stroke-width:8;stroke-linecap:round;stroke-miterlimit:10;}
	.st126{clip-path:url(#SVGID_218_);fill:none;stroke:#1DCAD3;stroke-width:8;stroke-linecap:round;stroke-miterlimit:10;}
	.st127{clip-path:url(#SVGID_220_);fill:none;stroke:#1DCAD3;stroke-width:8;stroke-linecap:round;stroke-miterlimit:10;}
	.st128{clip-path:url(#SVGID_222_);fill:none;stroke:#1DCAD3;stroke-width:8;stroke-linecap:round;stroke-miterlimit:10;}
	.st129{clip-path:url(#SVGID_224_);fill:none;stroke:#1DCAD3;stroke-width:8;stroke-linecap:round;stroke-miterlimit:10;}
	.st130{fill:none;stroke:#1DCAD3;stroke-width:8;stroke-linecap:round;stroke-linejoin:round;stroke-miterlimit:10;}
	.st131{fill:#FFFFFF;stroke:#1DCAD3;stroke-width:8;stroke-linecap:round;stroke-linejoin:round;stroke-miterlimit:10;}
	.st132{fill:#E40046;}
	.st133{fill:none;stroke:#2DCCD3;stroke-width:8;stroke-linecap:round;stroke-miterlimit:10;}
	.st134{fill:none;stroke:#1DCAD3;stroke-width:8;stroke-miterlimit:10;}
	.st135{fill:none;stroke:#1DCAD3;stroke-width:8;stroke-linejoin:round;stroke-miterlimit:10;}
	.st136{fill:none;stroke:#FFFFFF;stroke-width:8;stroke-linecap:round;stroke-miterlimit:10;}
	.st137{fill:none;stroke:#FFFFFF;stroke-width:8;stroke-miterlimit:10;}
	.st138{fill:none;stroke:#E40046;stroke-width:8;stroke-miterlimit:10;}
</style>
<g>
	<path class="st0" d="M200.3,19.4c-8.5,0-12.9-3.3-16.7-6.2c-3.4-2.6-6.1-4.6-11.9-4.6s-8.5,2-11.9,4.6c-3.9,2.9-8.2,6.2-16.7,6.2   s-12.9-3.3-16.7-6.2c-3.4-2.6-6.1-4.6-11.9-4.6s-8.5,2-11.9,4.6c-3.9,2.9-8.2,6.2-16.7,6.2c-8.5,0-12.9-3.3-16.7-6.2   c-3.4-2.6-6.1-4.6-11.9-4.6c-5.8,0-8.5,2-11.9,4.6c-3.9,2.9-8.2,6.2-16.7,6.2S15.9,16,12,13.1C8.6,10.6,5.9,8.5,0.1,8.5v-8   c8.5,0,12.9,3.3,16.7,6.2c3.4,2.6,6.1,4.6,11.9,4.6s8.5-2,11.9-4.6c3.9-2.9,8.2-6.2,16.7-6.2S70.2,3.8,74,6.8   c3.4,2.6,6.1,4.6,11.9,4.6s8.5-2,11.9-4.6c3.9-2.9,8.2-6.2,16.7-6.2c8.5,0,12.9,3.3,16.7,6.2c3.4,2.6,6.1,4.6,11.9,4.6   c5.8,0,8.5-2,11.9-4.6c3.9-2.9,8.2-6.2,16.7-6.2s12.9,3.3,16.7,6.2c3.4,2.6,6.1,4.6,11.9,4.6V19.4z"/>
</g>
<g>
	<path class="st0" d="M200.3,56.3c-8.5,0-12.9-3.3-16.7-6.2c-3.4-2.6-6.1-4.6-11.9-4.6s-8.5,2-11.9,4.6c-3.9,2.9-8.2,6.2-16.7,6.2   s-12.9-3.3-16.7-6.2c-3.4-2.6-6.1-4.6-11.9-4.6s-8.5,2-11.9,4.6c-3.9,2.9-8.2,6.2-16.7,6.2c-8.5,0-12.9-3.3-16.7-6.2   c-3.4-2.6-6.1-4.6-11.9-4.6c-5.8,0-8.5,2-11.9,4.6c-3.9,2.9-8.2,6.2-16.7,6.2S15.9,53,12,50.1c-3.4-2.6-6.1-4.6-11.9-4.6v-8   c8.5,0,12.9,3.3,16.7,6.2c3.4,2.6,6.1,4.6,11.9,4.6s8.5-2,11.9-4.6c3.9-2.9,8.2-6.2,16.7-6.2s12.9,3.3,16.7,6.2   c3.4,2.6,6.1,4.6,11.9,4.6s8.5-2,11.9-4.6c3.9-2.9,8.2-6.2,16.7-6.2c8.5,0,12.9,3.3,16.7,6.2c3.4,2.6,6.1,4.6,11.9,4.6   c5.8,0,8.5-2,11.9-4.6c3.9-2.9,8.2-6.2,16.7-6.2s12.9,3.3,16.7,6.2c3.4,2.6,6.1,4.6,11.9,4.6V56.3z"/>
</g>
<g>
	<path class="st0" d="M200.3,130.3c-8.5,0-12.9-3.3-16.7-6.2c-3.4-2.6-6.1-4.6-11.9-4.6s-8.5,2-11.9,4.6c-3.9,2.9-8.2,6.2-16.7,6.2   s-12.9-3.3-16.7-6.2c-3.4-2.6-6.1-4.6-11.9-4.6s-8.5,2-11.9,4.6c-3.9,2.9-8.2,6.2-16.7,6.2c-8.5,0-12.9-3.3-16.7-6.2   c-3.4-2.6-6.1-4.6-11.9-4.6c-5.8,0-8.5,2-11.9,4.6c-3.9,2.9-8.2,6.2-16.7,6.2S15.9,127,12,124.1c-3.4-2.6-6.1-4.6-11.9-4.6v-8   c8.5,0,12.9,3.3,16.7,6.2c3.4,2.6,6.1,4.6,11.9,4.6s8.5-2,11.9-4.6c3.9-2.9,8.2-6.2,16.7-6.2s12.9,3.3,16.7,6.2   c3.4,2.6,6.1,4.6,11.9,4.6s8.5-2,11.9-4.6c3.9-2.9,8.2-6.2,16.7-6.2c8.5,0,12.9,3.3,16.7,6.2c3.4,2.6,6.1,4.6,11.9,4.6   c5.8,0,8.5-2,11.9-4.6c3.9-2.9,8.2-6.2,16.7-6.2s12.9,3.3,16.7,6.2c3.4,2.6,6.1,4.6,11.9,4.6V130.3z"/>
</g>
<g>
	<path class="st0" d="M200.3,167.3c-8.5,0-12.9-3.3-16.7-6.2c-3.4-2.6-6.1-4.6-11.9-4.6s-8.5,2-11.9,4.6c-3.9,2.9-8.2,6.2-16.7,6.2   s-12.9-3.3-16.7-6.2c-3.4-2.6-6.1-4.6-11.9-4.6s-8.5,2-11.9,4.6c-3.9,2.9-8.2,6.2-16.7,6.2c-8.5,0-12.9-3.3-16.7-6.2   c-3.4-2.6-6.1-4.6-11.9-4.6c-5.8,0-8.5,2-11.9,4.6c-3.9,2.9-8.2,6.2-16.7,6.2S15.9,164,12,161.1c-3.4-2.6-6.1-4.6-11.9-4.6v-8   c8.5,0,12.9,3.3,16.7,6.2c3.4,2.6,6.1,4.6,11.9,4.6s8.5-2,11.9-4.6c3.9-2.9,8.2-6.2,16.7-6.2s12.9,3.3,16.7,6.2   c3.4,2.6,6.1,4.6,11.9,4.6s8.5-2,11.9-4.6c3.9-2.9,8.2-6.2,16.7-6.2c8.5,0,12.9,3.3,16.7,6.2c3.4,2.6,6.1,4.6,11.9,4.6   c5.8,0,8.5-2,11.9-4.6c3.9-2.9,8.2-6.2,16.7-6.2s12.9,3.3,16.7,6.2c3.4,2.6,6.1,4.6,11.9,4.6V167.3z"/>
</g>
<g>
	<path class="st0" d="M200.3,204.3c-8.5,0-12.9-3.3-16.7-6.2c-3.4-2.6-6.1-4.6-11.9-4.6s-8.5,2-11.9,4.6c-3.9,2.9-8.2,6.2-16.7,6.2   s-12.9-3.3-16.7-6.2c-3.4-2.6-6.1-4.6-11.9-4.6s-8.5,2-11.9,4.6c-3.9,2.9-8.2,6.2-16.7,6.2c-8.5,0-12.9-3.3-16.7-6.2   c-3.4-2.6-6.1-4.6-11.9-4.6c-5.8,0-8.5,2-11.9,4.6c-3.9,2.9-8.2,6.2-16.7,6.2S15.9,201,12,198c-3.4-2.6-6.1-4.6-11.9-4.6v-8   c8.5,0,12.9,3.3,16.7,6.2c3.4,2.6,6.1,4.6,11.9,4.6s8.5-2,11.9-4.6c3.9-2.9,8.2-6.2,16.7-6.2s12.9,3.3,16.7,6.2   c3.4,2.6,6.1,4.6,11.9,4.6s8.5-2,11.9-4.6c3.9-2.9,8.2-6.2,16.7-6.2c8.5,0,12.9,3.3,16.7,6.2c3.4,2.6,6.1,4.6,11.9,4.6   c5.8,0,8.5-2,11.9-4.6c3.9-2.9,8.2-6.2,16.7-6.2s12.9,3.3,16.7,6.2c3.4,2.6,6.1,4.6,11.9,4.6V204.3z"/>
</g>
<g>
	<path class="st0" d="M200.3,93.3c-8.5,0-12.9-3.3-16.7-6.2c-3.4-2.6-6.1-4.6-11.9-4.6s-8.5,2-11.9,4.6c-3.9,2.9-8.2,6.2-16.7,6.2   s-12.9-3.3-16.7-6.2c-3.4-2.6-6.1-4.6-11.9-4.6s-8.5,2-11.9,4.6c-3.9,2.9-8.2,6.2-16.7,6.2c-8.5,0-12.9-3.3-16.7-6.2   c-3.4-2.6-6.1-4.6-11.9-4.6c-5.8,0-8.5,2-11.9,4.6c-3.9,2.9-8.2,6.2-16.7,6.2S15.9,90,12,87.1c-3.4-2.6-6.1-4.6-11.9-4.6v-8   c8.5,0,12.9,3.3,16.7,6.2c3.4,2.6,6.1,4.6,11.9,4.6s8.5-2,11.9-4.6c3.9-2.9,8.2-6.2,16.7-6.2s12.9,3.3,16.7,6.2   c3.4,2.6,6.1,4.6,11.9,4.6s8.5-2,11.9-4.6c3.9-2.9,8.2-6.2,16.7-6.2c8.5,0,12.9,3.3,16.7,6.2c3.4,2.6,6.1,4.6,11.9,4.6   c5.8,0,8.5-2,11.9-4.6c3.9-2.9,8.2-6.2,16.7-6.2s12.9,3.3,16.7,6.2c3.4,2.6,6.1,4.6,11.9,4.6V93.3z"/>
</g>
<g>
	<path class="st1" d="M288.4,140.4c0-2.2,1.8-4,4-4h65.3c0.1,0,0.2,0,0.2,0c-10.4,25.7-35.6,43.8-65,43.8c-1.5,0-3-0.1-4.5-0.2   V140.4z"/>
	<path class="st1" d="M292.9,40c-38.7,0-70.1,31.4-70.1,70.1c0,4.3,0.4,8.5,1.1,12.6L54.4,292.3c-7.8,7.8-11.7,18-11.7,28.3   s3.9,20.5,11.7,28.3c15.6,15.6,40.9,15.6,56.6,0l169.4-169.4l0-91.6c0-2.2,1.8-4,4-4h73.3c0.1,0,0.2,0,0.2,0   C347.5,58.2,322.3,40,292.9,40z M84.3,303.8c8.2,0,14.9,6.7,14.9,14.9c0,8.2-6.7,14.9-14.9,14.9s-14.9-6.7-14.9-14.9   C69.4,310.5,76.1,303.8,84.3,303.8z"/>
</g>
<script xmlns="" type="text/javascript" charset="utf-8" id="zm-extension"/></svg>