<?xml version="1.0" encoding="utf-8"?>
<!-- Generator: Adobe Illustrator 23.0.1, SVG Export Plug-In . SVG Version: 6.00 Build 0)  -->
<svg version="1.1" id="Layer_1" xmlns="http://www.w3.org/2000/svg" xmlns:xlink="http://www.w3.org/1999/xlink" x="0px" y="0px"
	 viewBox="0 0 2000 1018" style="enable-background:new 0 0 2000 1018;" xml:space="preserve">
<style type="text/css">
	.st0{clip-path:url(#SVGID_2_);}
	
		.st1{opacity:0.7;fill:none;stroke:#D4D4D4;stroke-width:1.9573;stroke-miterlimit:10;stroke-dasharray:15.9076,15.9076,127.2609,15.9076;enable-background:new    ;}
	
		.st2{opacity:0.59;fill:none;stroke:#D4D4D4;stroke-width:1.0243;stroke-miterlimit:10;stroke-dasharray:99.8905,3.9957;enable-background:new    ;}
	
		.st3{opacity:0.59;fill:none;stroke:#D4D4D4;stroke-width:1.8162;stroke-miterlimit:10;stroke-dasharray:7.9912,3.9957;enable-background:new    ;}
	.st4{clip-path:url(#SVGID_4_);}
</style>
<g>
	<g>
		<g>
			<defs>
				<rect id="SVGID_1_" x="249.4" width="1750.6" height="1345.4"/>
			</defs>
			<clipPath id="SVGID_2_">
				<use xlink:href="#SVGID_1_"  style="overflow:visible;"/>
			</clipPath>
			<g class="st0">
				<path class="st1" d="M41.2-50.5c0,0,257.5,154,286.3,170c35.4,19.7,63.8,11.4,90.1-16.9c16.5-17.7,40.6-45.2,58.5-56.2
					c22.9-13.9,62.7-14.9,105-4.4c0,0,245.6,53.5,276.2,59.6c30.5,6.1,42.6,31.5,53.7,65c7.9,24.2,38.3,101.5,48.6,127.7
					c14.5,36.9,32.6,44,64.9,44.3c120.3,0.8,208.4,32.6,351.4,82.5c100,34.9,272.3,94.1,350.8,122.6s111,8.5,146.8-15.2
					c41.9-27.6,263.5-196.8,263.5-196.8"/>
				<path class="st2" d="M659.7-21.3c0,0,9.8,11.1,17.6,15.5s10.2,15.6,12.4,18.4s4.8,9.5,12.7,15.5c7.9,5.9,14.5,1.9,25.6,0.4
					c0,0,11,1.2,16.5,1.3c5.6,0.1,18.4,14.7,27.6,20c9.3,5.3,13.2,9.5,25.6,14.8s14.4,1.2,28.7,4c23,4.4,21.8-9.5,35.8,0.1
					c15.3,10.6,85.6,76.1,98.9,106.8c11.5,26.7,11.6,88.3,21,97c8.1,7.5,28.3-4.2,39.4,13.3c5.7,9,16.3,23.1,27.9,29.7
					c4,2.2,17.7-5.4,26.3-2.4c13.9,4.9,40.3,2.9,72.3,5.9c20.6,2,45.6,22.7,68.3,24.2c75.1,4.5,115.2,18.2,115.2,18.2
					c26.6,8.2,40.3,9.6,45.5,12.8c5.2,3.2,40,18.8,43.1,19.2c13.5,2,17.8,1.7,33.3,2s19.4,0.9,23.4-0.4c3.8-1.3,7.8-2.6,6.5-5.9
					c-1.3-3.4-15.6-7.7-16.8-10.6s4.4-8.3,5-11.9c0.7-3.6,14.8-8.2,26.3-7c11.5,1.1,22.9,37.7,34.6,48.5
					c15.2,13.9,23.8,14.1,23.8,14.1c9.3,0.4,22.7,5,21.4,8.6c-1.3,3.4-5.3,16.7-7.3,20s2.6,8.5,7,9.5c4.2,1.1,50.2,15.3,55.4,14
					c5.2-1.3,30.1-1.5,34.6-0.9c4.5,0.4,56.6,17.8,61.7,13.2c5.2-4.6,32.9,8.5,36.2,11.8s34.9,20,39.5,18.5s15.2-4.6,22.2-8.6
					c6.9-4,43-6.2,46.3-13c3.3-6.7,11-15.7,7.7-17.7s-11.6-9.4-14.5-7.1s-11.8,6.1-14.5,6.2s-3.2-10.6-0.8-13.1
					c2.2-2.4,40.7-14.8,46.8-14.8c26.8,0,48.9-6.6,59.2-18.2c3.6-4,8.7-38.7,10.6-43.3s25.8-14.9,30.4-19.8s48.9-50.2,48.9-50.2"/>
				<path class="st2" d="M935.8-68.3c19.6,6.9,38.9,33,60.5,39.8c71.8,22.2,107.6,45.3,107.6,45.3c23.9,14.3,36.9,19,41.1,23.4
					s34.4,27.8,37.3,28.9c12.6,5.2,16.9,5.9,31.9,9.8c14.9,4,18.6,5.6,22.7,5.3c4.1-0.4,8.2-0.7,7.8-4.2
					c-0.4-3.6-13.2-11.2-13.7-14.3c-0.5-3,6.2-7,7.7-10.3c1.6-3.3,16.3-4.4,27.2-0.5c11,3.8,10.8,10.8,30.4,17s27.2,9,27.2,9
					l38.2,8.7c0,0,7.8-0.7,15.6,3.6c7.7,4.2,34.4,14.9,38.2,17.4c3.7,2.6,2.1,10.2,10.2,15.9s13.6,15.5,21.5,16.5
					c7.9,1.1,66.1,6.9,75.7,8.6c9.6,1.7,30.7,1.9,34.2,2.1c11.2,1.1,22.3-3.3,30.4-1.5c8.1,1.9,58,15.7,62.8,17.6
					c4.6,1.9,45.1,16.7,50.5,21.4c5.4,4.9,36.6,12.6,38.9,10.2c2.2-2.4,33.3-19.6,39.3-21.3c5.9-1.6,21,4.4,25.9-1.1
					c4.9-5.4,34.9-47.2,37-52.3c2.1-5.2,1.9-21.4,2.6-25.1c0.8-3.7,29.6-89.5,31.3-95.4c1.7-6.1,38.3-82.6,72.7-121.9"/>
				<path class="st2" d="M852.7,41.6c2,6.6,5,13.5,19.4,15.7s14,3.3,25.8,11.8c106.1,76.9,106,152.9,113.9,178.4
					c5.2,16.8,21,35.8,25,39.5c7.9,7.3,27.1,7.9,52.2,16.7c12.2,4.4,50.4,0,60.9,2.8c4.6,1.2,8.5,5.7,13.7,5.7
					c45.9,0.9,101.6,0.5,145.9,0c44.5-0.7,80.8,9.8,80.8,9.8c8.5,0.8,26.3,3,26.3,3c7.8,1.3,10-2.8,28.8-4.8s18.1,9.5,25.6,9.9
					s25.1,3.4,31.3,0s0.9-19,16.3-21.7c15.2-2.6,14.5-4.1,31.5-4c16.9,0.1,45.3,0.9,45.3,0.9c8.9,4.6,20.7,15.3,27.4,18.6
					c6.7,3.3,66.7,61.5,94.5,72.6s71.1,18.2,76.5,18.4c5.3,0.1,14.3-3.7,16-6.3c1.7-2.6,13.9-1.2,20.4-7.3
					c6.5-6.1,41.1-42.6,46-51.4c4.9-8.9,28-48.5,82.2-92S2074,127.7,2074,127.7"/>
				<path class="st3" d="M889.7,26.7c16.3,18.8,23.8,20.2,26.8,27.9c3,7.5,32.6,27.1,39,36.2c21.5,30.3,40.7,48.6,54.6,79.2
					c3,6.6,31.5,40,32.4,48.4c1.3,11.9,0.3,15.5,0.1,23.7c0,7.1,4,12.8,7,19.7c3.8,9,24.3,11.8,45.7,19.3c7.4,2.5,58,14.7,134.7,8.7
					c83.5-6.5,101.8-9.8,101.8-9.8c7,0.9,30.7,4.1,35.6,3.2s1.7-9.6,11-11.8c9.3-2.2,16.9,0.1,24.3-0.4s58,32.2,68.9,30.9
					c10.8-1.3,21.3-7.1,28.2-8.7c6.9-1.6,65.2-5,77.3-2.6c21.3,4.2,28.4,4.1,39,10.3c10.6,6.2,79.3,50.8,87.2,53.8
					c7.8,3.2,43.3,17.3,49.4,14.7s19.6,13.9,26.6,16.7c7,2.8,24.8-4.2,29.1-7.5c4.4-3.3,16.1-37.8,18.6-41.9s32.2-45.5,38.5-51
					c6.2-5.6,49.6-28.5,58.3-35.2s68.5-58.2,97-102.2c28.5-44,56.4-121.3,56.4-121.3"/>
				<path class="st2" d="M2082.3-28.8c-64.9,130-140.6,191.4-149.5,200.9s-78.6,61.2-83.7,66.2c-5,5-38.9,57-42.6,61.5
					c-3.8,4.5-25.1,15.1-33.3,12.8s-22.6-9-30.7-11.2c-8.2-2.2-67.5-35-72.7-37s-14.4-16.8-52.1-25.8c0,0-242.8-45.3-270.4-32.8
					c-6.1,2.8-16.1-11.4-19.3-8.3c-7.4,7-72.2,4.2-81.1,9c-59.1,31.5-97.8,12.4-116.7,11.4c-7-0.4-53.1-25.1-57.1-32.2
					c-10-17.7-9.8-31.9-23.8-41.1c-11.8-7.8-25.6-37.7-25.6-37.7s0-18.1,7-15.1s21,13,27.5,16.3c10.3,5.4,12.3,37.4,20.6,42.4
					c8.3,5,38.3,38.7,49.6,39.8c11.2,1.1,38.7,7.1,43,9.1c6.5,3,28.8-5.4,33.3-7.8c10.3-5.3,19.8-20.4,22.9-25
					c3-4.6,2.2-20.2,7.9-22.7c5.7-2.4,24.5-11.4,30-10.3c5.4,1.1,51.7,3,61.6,4.6s88.2,17.6,92.2,19.2c4.1,1.6,15.2,6.1,19.3,7.7
					c4.1,1.6,90.9,10.4,102.6,13.9c11.5,3.4,27.4,5,32.8,6.1s6.5,7.3,15.1,9.5c8.5,2.2,33,14.4,38.1,16.4c5,2,13.7-5,16.8-3.8
					c3,1.2,52.5,18.6,57.2,21.5c4.6,3,36.7,22.9,43.3,26.7c6.7,3.8,46.3,2,50.9-0.9s65.8-56,73.9-64.5s54.2-77.1,57.2-81.7
					s-4.6-14.8-2.9-22.3c1.9-7.5-0.7-13.2,2.2-20.2c2.9-7,11-27.4,13.1-35.8c2.2-8.5,17.6-29.3,17.6-29.3s28.2-2.9,34.9-4.9
					c6.7-2,67.5-98.7,70.2-102.4"/>
				<path class="st3" d="M228.5,782.9c2.6-0.7,106.1,30,111.5,32.6s14.3,21.5,18.6,25.6c4.2,4.1,16.3,6.5,21.8,5.7
					c5.6-0.7,25.4,2.5,29.7,3.6c4.2,1.1,13.2-2.4,17.8-6.3c4.5-4.1,51.9-55.1,55.5-58.3c3.7-3.3,9.3-1.1,13.2-5.3
					c4.1-4.2,22.3-11.6,27.2-13.9c5-2.1,41-13.1,55.6-17.2c14.5-4.2,47.3,6.5,51,7.4s12.4,14.4,18.5,15.6c5.9,1.2,42.2,9.1,46,8.3
					s7.5-5.8,13.6-4.6c5.9,1.2,39.4,13.3,47.6,17.7c7.3,4,23.1,43.6,32.4,53.4c9.3,9.8,27.4,32.9,33.4,35.4
					c6.1,2.4,63.7,14.8,68.6,15.9c4.9,1.1,22.7-8.6,26.2-12.6c3.4-4,11-18.5,15.1-22.2s11-9.8,20.7-8.2c0,0,69.6,14.7,90.8,12
					c21.2-2.7,49.4-20.5,81.8-38.9c32.4-18.2,61.2-53.4,100.3-62.6c18.1-4.2,66.9-36.7,76.8-38.7c9.9-2.1,58.7-0.8,71.5-2.6
					c12.8-2,35.6-41.1,42.3-45.5s18.8-6.6,27.4-18.2s17.4-11.1,21-14.8c3.4-3.7,11.1-2.6,13.5-12c0,0-5.4-8.2-7.8-12.4
					s-17.7-7.7-21.9-10.7c-4.2-3-45.1,2.8-69.4,5.2c-24.4,2.4-28-22.5-34.1-25.5c-6.1-3.2-23.3,1.1-28.7-0.5
					c-5.4-1.6-78.9-56.6-79.2-59.3c-0.3-2.8-4.6-11.9-6.7-13.3c-2.1-1.5-13.3-5.3-19.8-5.8c-20.1-1.7-20.6-3.8-73.7-12.7
					c-3.6-0.7-35.6-18.2-44.4-18.2c-57.2,0.1-61.7,7.9-89.2,5.9c-13.6-0.9-127.4-48.8-161-94.5c-17.3-23.7-20.4-61.2-31.9-79.7
					c-3.2-5-6.1-9.9-8.9-14.7c-7-11.9-18.8-19.3-23.9-28.5c-4.5-8.1,23.8-40.7,24.6-44.5c0.7-3.6,2-15.9-3.3-16.7
					s-36.9,12.6-40.7,10.8c-17.4-8.5-118.8-40.8-118.8-40.8s-5.2,2-16.9-1.6S591,164.1,587.4,163c-3.6-1.2-8.2-2.4-8.2-2.4
					c-10.7-3.7-17.3-5.7-24.2-5.2c-7,0.5-22.2,5.3-28,9.6c-5.8,4.4-36.3,35.8-43.5,38.3c-7,2.5-16.1,7-18.8,9.9
					c-2.6,2.9-14.5,26.4-17.8,36.5c-3.3,10-15.9,56.7-15.9,56.7s-14.8,57.9-18.1,61.2c-3.3,3.3-65.3,39.8-65.3,39.8L213,442.9
					l-62,62.2"/>
				<path class="st2" d="M2151.1,488.3c-44.8,35.2-61.3,25.9-66.3,25.2c-5.2-0.7-47,18.8-52.2,18.1s-23.8-0.8-27.4-0.1
					c-3.6,0.5-20.5,16-21.7,17.4c-1.3,1.5-9,12.6-11.4,16.9c-2.4,4.4-13.1,14.3-16.4,14.3s-34.1,16.5-34.8,18.4
					c-0.7,1.7-11.4,11.6-12.6,13.1c-1.3,1.5-3.2,14.8-5.8,17.8c-2.5,3-12.4,11.1-16.1,15.1c-3.6,4-20.6,30-24.8,33.7
					c-4.1,3.7-9.3,16.4-13,22.3c-3.7,5.9-6.9,27.4-10,30.3c-3.2,2.8-28.5,6.1-31.3,6.3c-2.8,0.3-16.9-11.4-18.5-17.4
					c-1.6-5.9-4.2-9.6-7.4-11.6c-3.2-2-24.2-8.6-29.3-9c-36.9-2.6-83.8-21.9-86.7-23.1c-2.9-1.2-13.2-7.3-11.5-9.9
					c1.7-2.6,11.2,0.4,13.3-1.5c2.1-1.9,2.8-4.2,1.5-12.2c-1.7-10.7-8.1-10.6-6.5-20.9c1.5-10.3,0.9-4.9,3.4-16.4s7-9.6,2.4-15.2
					c-4.6-5.4-2.9-8.7-6.2-9.4c-5.6-1.1-68.7-14.3-76.1-18.2c-7.4-4-54.6-12-56.7-16.9s-9.5-13.9-14.8-21
					c-5.2-7.1-28.3-12.3-33.8-13.5c-5.6-1.2-21-0.3-29.3-6.9c0,0-58.2-27.1-66.6-34.9c-8.6-7.8-9.5-14.1-17-14
					c-7.4,0.1-14.8-5.3-22.5-7.7c-7.7-2.4-10.8-10.6-21.1-13.2c-13.1-3.3-97-31.5-108.2-25.5c-4.6,2.5-22.3,7.4-27.6,6.9
					c-52.1-5-109.6-16.1-117.2-15.3c-6.1,0.5-41.4,1.7-55.8-1.7c-15.1-3.6-84.3-36.7-93.2-51.5c-6.6-11.1-14.4-41.6-18.6-53.8
					c-2.2-6.6-24.8-6.1-30-15.2c-16.1-28.2-6.6-11.8,2.5-31.1c4.5-9.6-24.2-55.6-14.7-70.6c7.7-12,10.3-19.6,8.3-25.9
					c-2-6.2-46.3-16.7-48.1-5c-2.4,14.7-30.9,18-41.4,13.5c-17.7-7.8-102.6-51.1-102.6-51.1s-15.9-9.4-23.4-11.2
					c-7.7-1.9-26.3-5.8-37.3-5.9s-7.4-5.4-17.6-9.1c-10.2-3.7-26.7-11.4-33.3-12.3s-15.2-2.8-15.2-2.8c-7,2-54.7,15.7-66.7,27
					s-58.9,53.4-68.9,56.6c-9.8,3.2-26.2,12.7-28,17.4c-1.9,4.8-7.4,28.7-9.3,32s-9.3,6.9-14.3,10.4c-4.9,3.6-75.3-33-94.9-43.3
					c-19.6-10.3-49.7-44.4-50.8-46.9c-1.1-2.4-9.8-9.4-15.5-11.6s-78.8-43.5-82.6-47.6c-3.8-4.1-14.9-28.2-17.7-30.1
					C99.2,38.2-24.6,2-76.4,34.6"/>
				<path class="st3" d="M477.1,751.9c11.9-6.1,35.8-57.1,38.5-61.1s9.1-20.5,16-24.8c6.7-4.4,42-4.4,52.7-6.1
					c10.7-1.7,19.6-6.2,25.1-10s23.3-17.8,29.9-19.3c6.6-1.5,27.1,7.8,43.9,13.5s71.9,26.6,78,29.1s51.1,5.3,60.5,7
					s15.6,11.2,20.6,16.3c5,5,15.9,8.3,20.9,8.3s15.1-15.1,19.6-21.4c4.5-6.2,6.1-17.7,4.1-25.5s-3.6-26.6-0.9-35.6
					c2.6-9,1.6-21.5-0.8-28.4c-2.2-6.9-12.7-21.1-15.6-31.3c-2.9-10.2-21.4-39.6-26.3-47.7c-4.9-8.1-10.6-16.3-6.5-34.1
					c2.1-9.1-3.8-16.5-12.3-18.4s-22.6-14.4-32.2-18.5c-9.6-4.1-32.6-2.2-43-0.4s-40.7-6.3-44.8-13.9c-4.1-7.5-26.7-52.2-31.9-63
					s-6.2-21.9-12-25.2c-5.8-3.3-11-6.3-17.6-7.3c-6.6-0.9-14.8-0.4-19.7-1.3c-5-0.9-21.9,0-21.9,0c-11.5,2.4-42.2-3-51.7,0.5
					c-9.5,3.6-36.6,6.2-43,8.3c-6.2,2.2-23.9,4.5-27.2,7.9c-3.3,3.4-8.7,15.3-7.9,25s-1.5,35.7-5,43s-2.9,19-12.4,27.9
					c-9.6,8.9-57,70.6-64,76.4c-4.8,4.1-33.6,26.8-37.9,37.9c-3.3,8.2-7.1,14.3-6.7,16.8c1.5,7.9,18.1,25.2,18.8,33.6
					c0.7,8.3-9,42.7-14,55.4s-7.9,31.7-12.2,44.1c-4.2,12.4-3.2,41.6,6.3,44.8s15.9,2.2,23.4,8.6c7.5,6.3,41.2,31.2,47.3,34.2
					c6.1,3.2,18.1-6.9,25.4-11.4C447.4,780.9,471.1,754.9,477.1,751.9z"/>
				<path class="st2" d="M482.5,307.4c0,0,15.6-23.9,21.7-34.2c6.1-10.3,14.9-32.2,21.4-38.5c6.5-6.1,28.7,8.7,34,8.9
					c5.3,0.1,23.9-4.5,30.7-4.5c6.7,0,27.6-0.4,32.9,1.7c7.1,2.9,21,20,28.8,25.2c7.9,5.3,18.6-2.5,30.7,5.4
					c12,8.1,14.1,9.8,19.4,19.3c5.3,9.5-2.9,37.1,3.3,47s7,19.3,9,25.1c2,5.8-7,9.8-9.6,6.1c-5.6-7.8-14.8-44-25-48.1
					c-10.3-4.1-30.9-19.4-50.2-18.4c-19.3,1.1-40.4-1.7-40.4-1.7c-8.1-3-17.6-6.2-28.3-3c-10.6,3.2-23.4,1.5-29.1,9.1
					c-5.8,7.8-53,25.1-65,37.1c-2,2-21.5,49-21.5,49l-29.7,71.9L304,527.1l-31.3,70.6l37,62.2l-28.2,91.7l50.1,42.4
					c7.3,2.4,75.5,35.9,78.1,37c2.5,1.1,10.6-0.8,14.1-4.4c5-5,59.3-60.4,62.4-60.9c3.2-0.5,13.2-5.3,15.7-8.5
					c2.4-3.2,19-18.2,32.9-28s39.9-10.2,46.4-6.7s17.3,9.5,29.3,12.6s103,22.5,108.5,23.9c5.7,1.3,24.5,7.1,32,12.7
					c7.5,5.6,14.8,9.4,27.9,12c4.9,0.9,70.3,7.1,157.4,39.1s119.3,13.3,126,12c6.6-1.5,60.7-32.8,79.3-44.1
					c18.6-11.4,63.4-69.9,66.5-69.4s13.5,7.4,17.4,10c4,2.6,28.7-8.7,31.9-9.4c3.3-0.7,70.6-18.1,83.4-25.1s42.7-36.3,44.9-39.4
					c2.2-3.2,1.3-13.5-1.2-14.5c-2.6-1.1-43.1,2-47.7,1.1s-29.1-16.9-35.2-19.4c-6.1-2.4-23.7-16.4-27.6-24.1s-62.4-43.6-64.9-47.6
					s-34.2-2.5-37.5-1.9c-3.3,0.7-25.5-4.1-28.7-6.3s-11.8-15.7-14.9-18c-3.2-2.2-30.5-9.1-34-10.6s-19.6-3.8-24.6-3.8
					c-27.9,0-63.8,19-121.9,14.8c-5.9-0.4-23.5-16.1-44-37c-7.1-7.3-5.9-21.9-13.3-30.1c-20.4-22.2-49.2-39.1-61.3-55.6
					c-66.7-90.5-69.4-13.1-85-24.6c-4.5-3.3,20.6-73.4,0.8-88.3c-5-3.7-8.1-18.1-13.5-22.2c-47.8-36.1-113.4-70.7-113.4-70.7
					c-7.3-0.4-16.1,6.7-15.9,10.3c0.3,3.4-11.5,5.9-18.5,6.1c-7,0-19.6-2-19.6-2c-10.2-5-25.8-11.2-30.4-13.1s-15.5,1.9-17.8,4.4
					c-2.2,2.4-19.4,8.3-22.5,12.6c-3,4.2-21.7,37.7-23.9,44.8c-2.2,7.1-13,61.2-18,72c-5,10.7-28.5,53-28.5,53s-40.7,61.1-47.4,63.2
					c-6.6,2.2-111.8,41-111.8,41l-104,60.5"/>
				<path class="st2" d="M171.1,429.7l62.6-35.9l94.1-37.1l73.7-70.7c0.5-1.3,17.8-46.1,22.3-55c4.5-8.7,26-24.8,29.9-28.3
					c3.8-3.4,21.4-7,25-12.2s14.7-20.4,18.8-26.7c4.1-6.5,12.7-16.5,15.5-20c2.9-3.4,7.7-9,12.3-10.7s27.1-9.8,31.1-9.8
					c4,0.1,17.8,5.6,21.9,6.7c4.1,1.1,15.3,9.6,18.6,10.7c7.5,2.4,21.1-8.6,25.5-10.4c4.4-1.9,20.6,8.9,30.8,12
					c10.2,3.2,10.6,2.1,17.3,5.2c6.7,2.9,56.3,32.9,64,36.2s49.3,19,53.3,20.2c4.1,1.2,19.8-4.6,19.8-4.6s6.1,1.1,9.3,3.7
					c3.2,2.8-5,22.9-7.3,32s-8.1,30-4.1,36.1c4,6.1,29.2,48.4,30.4,51.3s9.8,10.7,12.2,15.5s4.6,27.5,8.1,33.7
					c3.4,6.2,14.1,28.3,32.2,43.7c18.1,15.5,60.5,29.1,68.1,30.4c7.5,1.5,32.8,6.3,37.4,7c4.6,0.7,29.6-2.4,34.6-2.8
					c4.9-0.4,23.3-1.9,29.6-2.4c6.5-0.5,33,2.4,46.1,5.3c13.2,2.9,34.9,2.5,48.9,8.1c4.4,1.7-0.1,2.2-2.6,5.2
					c-3.7,4.4-2.2,8.5,0.7,9.3c2.8,0.8,11.8,0.8,15.1,0.5c3.2-0.3,12.2-4.1,17.8-6.6c5.7-2.4,13.6-10.6,18-10
					c4.5,0.7,25.5,5.6,28.7,8.3c3.2,2.8,4.2,5.2,8.1,6.3c9.1,2.8,20,8.7,27.8,10.4c23.7,5,37.4,38.9,50,43.3c4.6,1.6,7.9,3.6,9.9,7
					s26.3,6.5,28.4,5.9c2.2-0.5,20.6-7.9,22.9-7c2.4,0.9,11.4,5.2,12.6,9s-1.5,8.9-0.1,12c1.5,3.2,42,17.4,46.9,18.6
					c4.9,1.3,42.6-15.9,51.4-7.7c8.9,8.2,24.7,20.6,28.3,23.4c3.6,2.8,3.8,13.5,7,16.1c1.5,1.3,13.3,5.9,14.5,16.9
					c0.4,4.1-24.8,32-24.5,36.6c0.5,6.5,18.8,8.6,19.8,9c6.9,2.2,26.3,11.5,32.4,14s20.2-12.3,23.9-13.1c9.3-1.9,37-33.3,41.4-36.2
					c5.4-3.7,4.2-9.9,4.2-9.9c-5.2-0.7-20.7-3.6-27.2-0.8s-41.9-19.4-48.5-24.7s-28.9-11.5-31.5-15.2c-2.5-3.7-6.2-18-9-21
					c-2.8-3.2-12.4-17.7-16.4-22.6c-4.1-5-23.4-5.3-28.4-5.9c-5.2-0.7-39,5.3-41,5.2s-11.6-14.7-16.3-16.5
					c-4.6-1.9-16.3-16.5-22.5-19.6c-4.1-2-13-0.5-20-0.9s-16.4-5.7-22.7-10.2c-6.3-4.5-4.6-8.6-5.7-14.5s-18.4-5.9-22.1-8.2
					c-3.7-2.2-16.4-5.2-16.4-5.2c-29.6-9.1-58.3-25-85.2-29.5c-2.6-0.4-16.5,8.2-19.2,8.1c-61.5-2-136.7-5.8-145.5-5.6
					c-58.7,2.1-114.7,27.8-180.4-63.6c-7.5-10.4-5.4-37.4-9.6-49.7c-2.2-6.6-11.9-5.7-17.2-14.8c-16.1-28.2-30.7-51.7-21.5-71
					c4.5-9.6,3.2-24.2,12.7-39.1c7.7-12,5.6-13.7,2.6-18.2c-1.9-3-8.2-10.3-11-8.3c-4,2.9-9.9,7-13.7,10.8c-5.8,5.7-36.3,2-46.8-2.6
					c-17.7-7.8-102.6-51.1-102.6-51.1c-4.9,0.3-4.8,1.7-18.5-2.1s-25.2-4-30.5-2.1s-13.6,4.1-15.7,2.8c-2.1-1.3-5.7-2.5-9.9-5.2
					c-4.2-2.6-11.9-10.2-13.7-10.8c-6.5-2.5-10.8-4.2-14.9-3.8c-4.2,0.4-42.3-1.2-44.7-0.3c-2.4,1.1-16.3,11.6-18.8,14.1
					s-3.4,6.2-5.3,9.5s4.8,8.5,2.8,10.7c-1.9,2.2-24.7,24.3-32.8,26.7c-7.9,2.4-48.9,14.1-53.5,16.9c-4.6,2.6-9.6,7.8-13.5,13.7
					c-3.8,5.9-16.7,19-19.4,22.5c-2.9,3.4-19.7,24.3-19.7,24.3l-52.7,56.7l-106.8-32l-90.8-4.4"/>
				<path class="st3" d="M935.6-33c2.8,2,19,31.2,30.9,33c11.9,1.9-1.1,2.4,15.6,0.9c16.8-1.5,40.2,12.4,44.8,17.2
					c4.6,4.8,13.2,13.9,16,15.9s35.8,35.7,47.3,35.9c11.5,0.4,27.5,4.9,41.8,9.4s13.3,12.3,15.7,14.9c2.4,2.6,24.6,20.7,30.8,20.2
					c3-0.3,21.1-1.3,39.1-2.5c4-0.3,19,1.2,22.7,0.9c14.4-0.9,15.2-3.3,15.2-3.3c12.3,0.5,37.4,4.1,49.4,6.2s69.9,10.6,81.3,16.7
					c11.2,6.1,25.1,9.6,27.6,10.3c2.4,0.7,29.7,7,38.6,9.9s175.8,23.9,181.6,24.2c5.7,0.1,20.5,7.8,24.6,9.5s20.5,13,22.3,13.5
					s9.5,15.5,13.1,16.9c10.4,4,38.7,17.3,44.5,19.6c5.8,2.2,17.2-2.5,20-4.8c2.9-2.2,50.4-39,56.7-46.4
					c6.3-7.5,59.2-66.2,62.2-70.4c3-4.2,20-11.5,22.7-15.1s-3.2-37.5,0.8-47.3s61.2-82.9,68.1-93.6s47.4-63.6,49.4-66.7"/>
				<path class="st2" d="M2060.3,239.1c0,0-60.5,65.9-88.4,87c-28,21-49.7,45.1-53.9,53.4c-4.4,8.3-8.3,23.4-11.1,26.7
					c-2.9,3.4-34.1,25-36.5,26c-2.4,1.1-9.3-0.7-12.8,2s-17.2,21.8-19,22.6c-1.9,0.8-22.6,20.1-24.5,20.9s-13.1,6.3-15.2,4
					c-2.1-2.4-6.9-6.7-9-7.7c-2.1-0.9-10.7,0.3-12-2.8c-1.3-3-10.3-14.7-12.3-17c-2.1-2.4-30.8-4.8-34.4-4.6
					c-3.6,0.1-15.3-2.1-18.4-3.3s-11-3.8-12.8-5.7c-1.9-1.7-8.2-8.3-11.1-9.9s-27.9-5.6-31.1-5.3c-3.2,0.3-33.4,2.5-35.4,2.2
					c-2.5-0.4-8.5-1.6-9.8-2.5c-5.2-4.1-18-23-21.1-25.2c-3.2-2.2-22.5-15.6-26.3-17.2c-4-1.6-26.2-16.3-28.4-18
					c-7.1-5.6-21.5-16.1-18.5-17.4s9.4-5.7,13.2-6.2c3.7-0.5,24.7-18.4,31.3-19.7c6.6-1.5,37.4,3,43.5,3.3c5.4,0.1,9.9,10.4,14,11.6
					c4.1,1.1,26.6,19.2,23.1,21.3c-3.4,2.1-4.2,6.9-10.8,5.7c-6.6-1.1-7.5,1.3-9.8,3s1.3,15.7,3,16.4c1.7,0.7,25.6-4.1,28.3-2.8
					c12.3,6.2,8.3,20.2,23.9,25.4c0,0,26.4,14.7,43.9,18c17.4,3.3,42.7,10.3,49.6,11.4s18.1,5.7,18.1,5.7c5.9,1.3,21.4-4.2,25.2-5.8
					c3.8-1.6,21.7-13.2,27.2-17.3c5.6-4.1,16.7-2.8,21.7-5.4s21.9-13.9,26.4-19.2c4.5-5.3,8.7-16,5.7-18.1c-3-2-8.2-4.9-7.5-8.5
					c0.7-3.7,39-46.9,61.5-62.1s46.5-42.3,59.2-50.6c12.7-8.2,38.7-38.5,46.9-49.2s30.3-42.6,32.5-46.4"/>
				<path class="st2" d="M2123.7,458.6c-9.9,7.1-69.6,33.6-76.3,35s-20.4-2.1-24.4-1.7c-4.2,0.4-21,9.8-26.2,12.7
					c-5.2,2.9-20,17.2-25.5,21c-5.6,3.8-20.1,30.3-25.6,34.1s-25,2.1-29.5,3.3s-9,17.6-15.2,23.1c-6.2,5.6-4.1,10.4-12.4,26.2
					c-8.3,15.9-35.6,36.1-40.2,40.3s-22.7,9-25,12.2c-2.2,3.2-5,12.7-9,17.6c-5,6.1-40-24.7-63.2-34.9
					c-23.1-10.2-55.4-25.2-59.6-27.1c-7.1-3.2-4.2-9.3,3.8-13.9c2.5-1.5,8.2-2.9,14.9-2.8c4,0.1,10.7,3.6,14.9,4.6
					c4.2,1.1,21.8,7.4,27.5,8.3c5.7,0.9,35.3,0.7,39.8,1.1c4.5,0.4,22.7,5,23.7,8.1c0.8,3-3,7.5-2.8,10.3c0.3,2.8,7.8,9.1,9.5,9.8
					s14.3-7.1,15.5-8.6c1.3-1.5,17.6-17.2,16.5-19.6s-0.4-10.8,1.6-14.1s9.4-15.1,13.2-18.2c3.8-3.2,29.9-23.3,29.9-23.3
					c6.2-7.7,15.2-12.7,20.9-15.1c5.7-2.4,21.5-14.8,26-18.5c4.6-3.7,14.7-15.2,20.5-20s31.7-24.8,35.3-25.8
					c3.4-0.9,17-1.7,22.1-0.5c5,1.2,25.5,0.8,28.3-0.4c2.8-1.2,29.7-21.7,36.3-28.4c6.6-6.7,21.9-29.5,30.8-36.1
					c8.9-6.6,67.9-58.8,72.6-62.4s28.8-25.2,28.8-25.2"/>
				<path class="st2" d="M2046.1,1122.7c-5.2-7.4-32.1-60-31.5-63.2c0.5-3.2,5.9-18.4,5.6-23.9c-0.5-5.6-14-57.2-16.8-62.4
					c-2.6-5-22.6-5.7-25.8-7.7s-28-57.5-29.9-73s1.2-28.3,2.4-34.6c1.2-6.2,12.4-34.6,14.7-41.8c2.2-7.1,21.5-52.5,23.8-56.3
					s25.2-41.5,30.5-44.8s23.7-30.8,24.8-33.7c1.2-2.9,2.5-34.9,5-41.2s2.1-18.6,3-22.9c0.9-4.2,28-46.8,31.5-53.5
					c3.4-6.7,9.3-13.1,11.5-15.5s2.4-11.1-0.5-12.3s-11.6,3-15.5,2.5c-3.8-0.5-48.9,25.1-53.8,27.2c-4.9,2.1-28.9,53.1-31.7,55.1
					c-2.8,1.9-25.1,10-25.1,10s-17.7,19.2-20.2,23.1c-2.6,4-37.9,12-41.5,15.7c-3.4,3.7-24.1,67.9-27.4,73.6
					c-11.4,19.8-61.2,24.8-69.8,23.5c-8.5-1.3-36.3-22.5-41.4-27.5s-18.9-0.5-25.6-1.2s-34.9-15.9-38.6-19.4
					c-3.7-3.4-59.2-20.6-64.2-20.6s-21.7,6.5-27.6,6.1s-33.3,7.8-43.3,7.8c-5,0-121.6-5.3-127.9-4.8s-30.7,13.9-36.2,17.7
					c-5.6,3.8-23.4,20.9-30,22.2c-6.6,1.5-26.7,1.5-39,4.6c-2.9,0.8-82.3,32.5-91.7,35.8c-9.4,3.3-51.8,11.5-88.8,51.1
					c-36.9,39.6-94.8,88.9-100.7,93.7c-5.9,4.8-35.4,13.1-42.2,12.4s-15.1-5-23.4-9.4c-8.3-4.4-30-23-34.4-24.7s-12.7-6.1-16.8-5.7
					c-4.2,0.4-6.7,9.4-12.3,13.2s-18,9.9-23.1,9.9c-5,0-86.3-8.2-92.1-13.6c-5.9-5.4-54.3-68.3-68.2-84.1
					c-6.5-7.3-18.9-17.4-33.7-18.6c-14.8-1.2-28.9,2-37.9,3.7c-8.9,1.7-39.3,4.4-45.2,4.4c-5.8,0-8.9-4.1-11-7.9
					c-2-3.7-12.7-22.7-16.4-23.5c-3.7-0.9-10.2,0.7-14.9,2.2c-4.8,1.6-5.8,8.9-14.9,12.3c-9,3.4-28.2,8.7-32.5,9.4
					s-14.5,10-15.6,12.6c-1.1,2.5-34.4,21.5-45.6,24.7s-46.9,16-53.5,16.3s-72.7,2.8-78.2,1.7c-5.4-1.1-24.7-20.5-31.5-24.3
					c-6.7-3.8-40.2-26-48.5-28.7c-8.3-2.8-177.1-15.3-177.1-15.3"/>
				<path class="st3" d="M2054.3,1175.3c-2.1-4.9-48.4-65.6-49.2-70.8c-0.9-5.4-10.6-31.5-12.6-39.3s-27.1-43-50.8-89.6
					s-37.5-87.4-40.3-95.6c-2.8-8.2,5.3-36.1,5.3-46.1c0-19,14.8-30.3,17.2-31.3c2.4-1.1,16.1-8.6,18.8-15.1
					c2.6-6.5,15.1-46.3,16.8-52.3c1.7-6.1,1.5-25.5-2.6-27.2c-4.1-1.6,4.5-32.4-0.3-32.2c-4.8,0.1-31.5,44.4-39.9,57.2
					s-17.8,26.4-27,35.6c-9,9.1-30.3,25.5-44.3,32s-69.6,13.2-69.6,13.2c-26.4-1.1-25.4-5.4-39.1-13c-13.7-7.5-32.9-33.3-43.7-38.2
					c-22.7-10.4-46.5-21.3-57.9-23c-11.4-1.9-42.3-11.5-50.6-10.8c-8.3,0.7-119.6,7.3-133.2,11.2c-13.6,4-46.3,1.7-56.4,13.7
					c-10.2,12-27.4,6.5-36.2,15.1c-8.7,8.6-80.9,31.5-99.3,40.3c-18.2,8.9-88.2,98.3-105.2,107.6s-34.9,16.9-52.2,23.4
					c-17.3,6.5-38.3,9.1-48.1,13c-10.4,4.1-37.3,7.5-44.8,10.7c-7.4,3.2-26.3,1.9-37.3-1.6c-11-3.4-23.7-6.9-30.3-5.9
					c-6.5,0.9-33.6-6.3-48.5-8.7s-89.3-14.5-95-15.9c-5.7-1.3-23-6.5-30.1-12.8s-24.8-32.8-30.3-36.7c-5.4-4-63-11.9-72.8-14
					s-33.6-17.4-39-17c-9.8,0.8-29.2-3.7-40.6-4.4c-12-0.7-32.5-2.1-37.9-0.4c-10.7,3.3-71.2,31.2-71.2,31.2L402.6,899l-115.1-3.3
					l-53.8-15.3"/>
				<path class="st2" d="M2124.9,551c-9.3,16.4-27.5,38.7-36.1,56.7c-8.6,18.1-12.7,28.4-15.5,42.2c-2.8,13.6-3.8,46.8-9.9,61.7
					c-5.9,15.1-29.6,47.2-37.8,68.1c-8.3,20.9-13.6,50.9-14.3,62.6c-0.7,11.8,24.2,80.8,24.2,80.8"/>
				<path class="st2" d="M567.4,693.3c0,0,31.5,21.9,53.7,26.8s169.2,43.2,181.6,45.6s125,36.3,140,35.7c14.9-0.7,62.9,17,82.1,12.6
					s33-5.6,39.1-13.9c5.9-8.3,0.7-18.5,3-24.3c2.2-5.8,13.6-50.9,20.4-50.9s6.2,14.5,12.7,18.5s22.9-0.3,31.5-4.9
					c8.6-4.6,35.3-38.2,43.2-44.4c7.8-6.2,51.3-14.4,59.6-15.1c8.3-0.7,29.2,7.5,39.1,6.2c9.9-1.5,21.7-14.1,21.9-18.1
					s-8.9-18.2-16.4-22.6c-7.7-4.4-24.3-29.9-30.5-37.7s-62-32.8-72-38.1c-9.9-5.3-27.1-9.5-33.8-9.4c-6.7,0-72.8-9-92.1-4.5
					c-19.2,4.4-51.1,3.7-61.1,5.2s-61.3-11-74-16.1c-12.7-5-31.7-25.5-39.8-34.6c-9.3-10.4-13.2,2.8-9.6,10.8
					c3.4,8.1,16.7,18.8,16.7,25.4c0,6.7-2.5,10.6-3.4,12.7c-0.9,2.1,6.2,7,5.7,8.3s20,42.2,23.7,46.7s15.6,3.7,17.6,6.5
					c1.9,2.8,10.8,14.4,11.8,18.2c0.9,4,2.6,12.2-0.3,23.5c-3,11.4-7.8,29.6-15.3,41.1c-7.7,11.5-28,26-31.7,26.6
					c-3.7,0.5-12.7-6.1-18.5-5.4c-5.8,0.7-39.6,2.2-48.8,1.2c-9.1-1.1-104.5-6.5-123.8-12.2s-31.2-7.4-38.3-7.3s-9.5,2.2-14,2.5
					c-4.6,0.1-21.7-6.1-25.1-7.5c-3.4-1.3-5.9-10.4-9.4-11.8c-3.4-1.3-23.9-15.6-32.1-15.3c-8.2,0.3-15.1,5-17.2,7.8
					C561,683.7,564.7,691.7,567.4,693.3z"/>
				<path class="st3" d="M928.7,569.1c6.1-1.3,29.1,9.5,35.3,10.7s35.2-0.8,40.7-1.2c5.6-0.5,17.6-0.4,26.3,3
					c8.7,3.4,55.9,16.3,63,18.4c7.1,2.1,22.6,2.2,25.5,3.4s17.2,7.5,17.4,11.6c0.4,4.2-0.1,15.3,4.9,18c5,2.6,18,3.8,21.5,6.6
					c3.6,2.8,2.2,9.6,1.6,12.7c-0.7,3-9.4,8.3-14.1,15.2s-38.3,12.2-46.8,18.2c-8.5,6.1-33,29.1-38.2,37s-16.7,50.4-21.9,55
					c-5.2,4.6-39.8,12.3-45.6,13.3c-5.8,1.1-63-11.8-73.1-15.1c-10-3.3-41.4-10.4-35.8-14.3c5.6-3.8,10.8-10.4,14-13.2
					s11.5-0.1,14.4-0.9c3-0.8,17.4-8.5,23.7-14c6.2-5.6,27.5-48.8,30.3-55.6c2.8-6.9-3-22.7-6.5-27.4c-3.4-4.8-16.3-19.8-19.6-23.3
					c-3.3-3.3-3.4-11.5-0.7-13.6s7.7-9,3-14.3c-4.6-5.2-19.2-17.7-22.1-20.2C922.9,576.9,926.6,569.6,928.7,569.1z"/>
				<path class="st2" d="M995.6,635.8c2.9,0.3,37,16.8,41.5,19.4s12,9,13.6,11.5s-4.2,11.5-9.3,13.9c-5,2.2-26.8,18.4-30.7,23
					s-7.7,11.5-11.6,16.5c-4,4.9-10,9.4-14.3,7.4c-4.4-2.1,8.2-37.3,10.6-43.3c2.4-6.1,0.9-19.2-0.4-21.5
					c-1.3-2.4-7.8-13.7-8.6-15.2C985.7,645.9,993.3,635.7,995.6,635.8z"/>
				<path class="st2" d="M1169,930.4c9-3.8,28.2-13.6,33.8-19.3c5.7-5.8,47.3-58.3,52.7-63.4s18.4-10.8,25-12.2
					c6.6-1.5,68.6-8.9,72.8-11.2s10.3-14,14.1-18.5c3.8-4.5,49.4-19.8,55.8-22.1c6.2-2.2,53.4-2.9,61.3-2.4
					c7.9,0.4,68.9-8.7,74.7-6.5c5.8,2.2,14.4,13.5,26.2,17.4c11.8,4.1,24.7,25.6,32.8,28.8c8.1,3.2,28,13.9,33,16.5
					s-7.3,15.6-9.4,21.8c-3.6,10.7-14.7,21.7-34.4,27.2c-19.7,5.6-55.8,8.6-68.2,13.1c-12.4,4.4-19,0.5-26.4-7.8
					s-24.3-36.5-35.2-39.5c-10.8-3-52.1-14-65.6-20.7s-37.4-2.1-41.2-0.9c-3.8,1.2-25.5,11.9-29.7,15.6c-4.1,3.7-6.1,13.6-11.9,18.1
					c-5.8,4.4-40.8,38.7-45.3,43c-4.4,4.2-14.8,3.4-20.9,3.7s-27,2-34,7.9s-34.5,22.5-40.3,25.5c-5.9,3-23.5,6.7-27.5,8.5
					c-4.1,1.7-8.9-2.9-10.7-5C1148.7,945.8,1168.2,930.7,1169,930.4z"/>
				<path class="st2" d="M1649.2,783.5c12.2,4.9,39.3,22.7,46.1,25.5c6.9,2.8,54.5,19.7,61.6,24.6c7.1,4.9,19.4,11.8,25.5,14.1
					s3.7,8.5-1.9,12.3s-38.7,3.7-49.3,7.5c-10.6,3.8-19-2.6-24.2-12.7c-5-10-19.8-5.8-24.7-13.9c-4.9-7.9-23.8-28.5-32.5-32.1
					C1641.2,805.3,1642.2,780.7,1649.2,783.5z"/>
				<path class="st2" d="M623.9,380.9c4.9,1.5,10.2,6.1,11,9c0.9,2.9,8.3,24.5,9.4,29.3c1.1,4.9,13.6,23.4,16.9,25.2
					c3.3,1.9,7.5,8.2,9.1,9.3c1.6,1.2,70.4,24.1,77.7,24.5c7.4,0.4,12,3.8,11.2,7s-2,8.7-1.6,10.4c0.1,0.7-3.6,32.2-20.7,44.7
					c-6.2,4.5-4.9,13-1.1,18.4c9.8,13.6,25.1,30.4,25.9,36.9c0.3,2.4,1.9,13.5,1.3,16.4c-0.8,3.6-4,7.8-6.9,9.9
					c-3.6,2.5-79.2-16.9-80.2-15.3c-1.2,1.6-12.7,2.9-17.6,3.6c-4.8,0.7-46.7-20.6-59.7-17.8c-13.2,2.8-38.5,10.8-44,13.2
					c-5.4,2.4-38.6,2.2-46.3,3.7s-11.9-9.3-17.7-11.1c-5.8-1.9-11.5-2.6-14.7-2.4s-15.7-2.2-18.6-2.4s-7.9-5.2-7.7-7.1
					c0.3-2,0.7-9.3,0.8-14.8c0.1-5.4,7.3-31.9,2.6-57.2c-3.7-20.6,8.9-37.3,11.2-40.8c2.4-3.6,7.4-2.1,9-3.4
					c1.6-1.5,3.4-4.6,4.1-6.5c0.7-1.7-1.6-3.7-1.1-7.4c0.5-3.8,7.1-16.8,13.3-30.9c6.1-14.1,13.3-23.4,17.7-24.2
					c4.4-0.8,4.6,0.9,6.7,3.2c2.1,2.3,1.2,11,2.4,13s14.7,14.9,17,16.4c2.4,1.5,19.8-13.2,21.7-16.5s14.1-16.5,12-18.9
					s-1.5-6.6-2.1-8.5C564.3,387.8,618.9,379.4,623.9,380.9z"/>
				<path class="st2" d="M803.4,538.6c1.9-8.6,24.7,11.9,28.2,15.2c3.4,3.3,21.7,51.5,20.2,57c-1.5,5.4-11.6,10.8-16.4,10.8
					c-4.8,0.1-28.4-18-32.2-21.5c-4-3.6-3.4-21.5-6.2-23.3c-2.6-1.7-6.6-5.3-9.5-6.5s-6.1-5-4.6-8.6c1.3-3.4,4.2-12.4,5.9-15.1
					C790.5,544.1,802.6,542.3,803.4,538.6z"/>
				<path class="st2" d="M2007.8,1309.2c-5.7-6.7-26.6-26.4-29.1-30.3s1.9-10.3-3.6-18.5c-5.4-8.2-7-19.4-14-23.3
					c-7-4-58.9-30.7-67.4-35.8c-8.3-5-27.9-13-31.1-14.5c-10.2-5-22.1-5.2-28.8-9.8c-6.7-4.6-48.2-35.9-51.9-39.4
					c-3.6-3.4-35.8-32-39.1-38.5c-3.3-6.5-29.5-25.1-32.5-23.7c-3,1.5-38.2,5.9-44.4,5.3c-6.2-0.7-18-11.8-24.4-8.5
					c-6.5,3.3-49.7,31.1-53.5,35.2s-9.5,19.3-11.6,22.3c-2.1,3.2-60.4,72.3-64.2,77.3c-3.8,5-65.9,62.8-112.3,86.7
					c0,0-75.9,10.7-95,20.6c-19.2,9.9-86.3,50.5-86.3,50.5"/>
				<path class="st3" d="M1979.9,1330.3c-3.7-9.9-11.1-26-21.1-34.9c-3.4-3-18.5,1.6-26.2-3.2c-12.6-7.7-38.9-11.2-69.5-20.9
					c-19.7-6.2-39.6-33-61.9-37.8c-36.1-7.7-45.7-21.3-45.7-21.3c-24.3-13.5-37.4-17.8-41.8-21.9s-35.2-27.1-38.2-27.6
					c-4.9-1.1-13.7-3.6-17,0s-7.1,14.7-11,18.9s-26.6,22.2-34,26.6s-17.7,6.9-25.6,11.8s-11.2,11.9-8.9,15.3
					c2.4,3.4-10.2,8.5-13.6,10.8c-3.4,2.4-57.4,37-68.9,39.8c-11.5,2.6-66.3,26.3-73.2,30c-6.9,3.7-17.2,5.2-23.9,11.1
					c-6.7,5.9-74.1,53.8-74.1,53.8"/>
				<path class="st2" d="M1990,1319c-4.6-9.3-13.1-24.5-22.5-33.8c-3.2-3.2-14.3-1.7-21.1-7.1c-11.2-8.9-32.5-16.3-58.3-29.7
					c-16.5-8.7-36.7-34.2-55-43.1c-60.4-29.3-92.8-54.5-92.8-54.5c-21.4-15.7-32.5-21.8-36.6-26c-4.1-4.4-26.6-13.7-29.1-12.7
					c-5.7,2.5-12.7,1.6-16.8-1.2c-4.1-2.8-13.6-8.3-16.4-6.5c-2.8,1.9-8.5,6.6-11.9,10.2s-15.9,49.2-20.9,55.6
					c-5,6.5-107.2,74.5-142.2,102.2c-35,27.6-49.4,31.1-52.3,31.7c-2.9,0.7-8.7-1.5-14.4,1.1c-5.7,2.5-27.4,15.9-34.1,19.6
					c-6.9,3.7-32.6,28.8-32.6,28.8"/>
				<path class="st2" d="M2025.9,1174.3c-3.2-3-11.9-11.2-15.1-14.1c-3.2-3-80.9-43.1-90.3-50.5s-23.7-14.7-28.3-17.7
					c-4.8-2.9-3.3-9.1-10.4-14.4s-25.5-25.5-29.5-29.2s-14.7-0.3-17-2.5c-2.4-2.2-42-36.5-45.2-41.1c-3.2-4.5-25.8-34.8-30.5-40.7
					c-4.8-6.1-42.3-18.8-47.6-17.8c-5.4,0.9-81.7,28-92.4,32.9c-10.7,5-78.6,51.8-83.3,55c-4.5,3.2-1.1,15.5-5.6,21.8
					s-4.2,12.4-9.5,18.1s-20.2,21.4-25.4,28.5c-5.2,7.1-27.1,20.9-27.1,20.9s-27.2-7.7-34.2-8.2s-99.3,66.9-102.8,69.5
					c-12,8.9-23,12.8-36.1,16.9s-34.1,7.3-44.7,10.3s-39,11.5-51.1,16c-12.2,4.5-47,8.3-54.2,15.9c-7.1,7.5-14.1,12-19.7,18.1
					s-20.7,20.9-15.6,26c5.2,5.2,14.4,5.7,24.1,7.5c9.6,1.7,12.8,7.1,11.9,12s-50.8,15.2-63.2,17.4c-12.4,2.4-43.2-3.7-55.2,2.9
					s-22.7,7.5-31.1,17.8c-8.2,10.3-25.6,20-35.3,23.4c-9.6,3.4-25.9,2.2-32.9,1.5s-41.1,1.3-52.6,4c-11.5,2.6-68.1,11.4-77.3,8.7
					c-9.4-2.6-38.5-18.5-45.6-21.3"/>
				<path class="st2" d="M1813.8,896.2c2.9-2,4.6-6.5,5.7-9.1s-0.7-20.6,1.5-23.4c2.1-2.8,9.8-2.4,14.1-0.1c4.4,2.2,9.5,10,11,37.7
					c1.5,27.6,40.6,51,45.3,56c4.8,5,38.3,52.7,42.3,59.6c4.1,6.9,9.5,23,8.6,26.8s-3.6,6.3-6.2,5.3c-2.6-1.1-14.9-14.8-21.1-20
					c-6.3-5.2-20-0.7-24.2-0.8c-4.1-0.1-13.5,2.4-19.6-2.4c-30.7-23.7-34.9-39.3-39-43.1s-47.3-56-54.1-61.2
					c-6.7-5-17.7-16.7-24.5-21.7c-6.7-5-30.5-3-35.7-0.3c-5.2,2.8-55.6,38.7-62.2,41.5c-6.5,2.9-90.4,25.2-102.2,30.9
					s-93.3,49.3-212.8,132c-16.1,11.2-27.4,5.7-38.3,9.6c-11,4-31.6,11.4-44,18.9s-28.9,17.6-40.8,29.5
					c-12,11.9-44.3,30.3-58.2,41.4c-13.7,11.1-53.3,42.3-63.8,45.3c-10.6,3-88.2,30.4-102.8,41.2c-14.7,10.8-36.1,20-43.1,29.7
					c-7,9.6-4.6,6.5-10.6,13.5c-5.9,7-18.8,18.5-33.7,21.9s-65.9,0.8-73.1-2.1c-7.1-2.9-9.5-10-18.1-14.5s-29.1-15.7-32-19
					s-25.4-38.2-34-42.7s-15.5-13.5-21.9-13c-6.5,0.5-13.3,2-17.6,2.4c-4.4,0.4-8.6,0.8-14.9-1.7c-6.3-2.5-12.4-8.1-17.4-11.1
					l-78-35.3l8.1-68.7l46.9-112.9c0,0,84.5-73.5,77.8-90.5c-6.6-17.2-16.9-35.6-16.9-35.6l-98.1-6.6l-81.9-19.2l-60.5,33.2
					l-85.5,46.5c0,0-40.6,14-93.7,4.4S164,953.2,164,953.2"/>
				<path class="st2" d="M1990,1377.7c-56-97.5-164.4-75.6-178.2-75.7c-8.9-0.1-13.5-20.4-74.4-28.7c-2.6-0.4-17.4,6.9-20,6.1
					c-7.1-2.2-19.4-11.8-33-15.3c-8.2-2.1-13-7.8-16.5-10s-1.3-5.7,1.5-9.9c2.8-4.1,15.7-15.6,15.6-19s-10.8-12.4-14.8-11.8
					s-36.9,26-41.9,31.3c-5,5.4-10.3,42-14.3,46.1s-50.8,44.4-69.1,50.8c-18.4,6.3-47.8,9-56.3,13.3c-8.6,4.4-12.8-0.8-16.3-3
					c-3.4-2.2-29.3-20.2-32.9-14c-5.3,9.5-74.7,54.6-80,53.9"/>
				<path class="st3" d="M2035.3,1251.2c-8.2-9.8-19.8-18.2-21.9-19.7c-2-1.5-25.1-17.4-32.2-23.4c-7.1-5.9-154.8-86.8-160-89.1
					c-5.3-2.2-16.1-14.8-19.3-17.8c-3.2-3-14.3-19.6-15.7-20.6s-3.2-18-5.9-20.5c-8.3-7.5-29.7-30.3-34.2-34.5
					c-4.5-4.2-16.9-3.8-20.4-2.9c-3.4,0.9-61.2,17.7-69.8,22.5c-8.7,4.6-79.4,39.9-83.8,42.7s-22.9,3.3-26.7,5.7
					c-3.8,2.4-10.8,36.1-18.1,43.7c-7.3,7.7-87.4,54.7-97.7,62c-10.3,7.4-67.4,41.8-70.4,44l-93.6,20.9l-85,13.2l-7.4,32.1
					l-69.4,63.8"/>
				<path class="st2" d="M1096.9,105.3c10.7,2,41.1,11.8,45.1,16.8c3.8,5,2.2,20.9,9.9,25.1c7.7,4.2,6.9,12.2,2.2,14.9
					c-4.6,2.9-10.6,8.7-19.8,8.6c-9.4-0.1-41.1-17.6-40.6-27.9c0.7-10.3,2.8-24.7-2.2-26.7C1086.5,114.1,1091.5,104.3,1096.9,105.3z
					"/>
				<path class="st2" d="M1055.2,1012c18.2-1.6,103.6-8.1,119.1-16s82.6-39.3,93.8-45.5c11.2-6.1,59.5-43.2,68.6-48.4
					s38.3-7.7,55.2-6.2c16.9,1.5,50.8,18.5,65.4,17.2c14.5-1.2,23.7,2.4,24.3,9.6c0.7,7.3-1.2,29.5-6.3,38.1
					c-5.2,8.5-142.5,101-147.8,107.6s-43-0.4-50.4,4.6c-7.3,5-31.3,25.4-36.6,32.1s-36.7,43.5-44.1,51.1c-7.4,7.7-42,14.7-50.6,16.5
					c-8.7,1.9-21.9,21.1-29.6,22.6s-83.7,29.5-98.5,37.7c-9.6,5.4-93.6,35.8-94.5,42.6c-0.9,6.7-2.4,14.9-2.8,20.1
					c-0.3,5.2-5.9,8.2-11.6,9.4c-5.8,1.2-81.5,8.1-90,9.1c-8.5,1.1-13.1-7-16.3-10s-42.7-69.9-54.2-76.3s-21.9-20.2-28.8-18.5
					c-6.9,1.7-21.7,12.4-27.5,13.7c-5.8,1.2-15.5-14.1-20.9-16.3c-5.3-2.1-18-30-18.5-44.4c-0.5-14.3,20.2-81.8,27.1-92.2
					c6.9-10.4,75.2-91.6,84.1-95.9s25.2-5.8,32.8-2.8c7.7,3,15.7,11.5,19.4,13.1s44.4,30,49.7,32.1s16.1,2.9,23.3,4.9
					s35.8,8.1,42.6,4.6c6.7-3.6,37-17.8,43.7-21.3c6.7-3.6,14.3-0.5,20.9,3C1003.4,1011.6,1046.1,1012.8,1055.2,1012z"/>
				<path class="st3" d="M1316.9,956.7c11-11.2,47.7-26.8,57.6-22.9c9.9,4,18.2,24.8,26.2,27.2c7.9,2.2,15.1,8.6,14.3,12.7
					c-0.8,4.1-24.8,18.2-35.4,24.7c-10.4,6.3-73.1,13.2-83.9,20.4c-10.8,7.1-49.7,20.7-57.2,22.1c-7.5,1.3-14-18-10.2-20.7
					S1309.3,964.4,1316.9,956.7z"/>
				<path class="st3" d="M796,1021.3c9,4.4,78.9,37.9,85.5,41.8c6.7,3.8,33.4,7.4,39.1,5s37-13.5,43.7-15.5s44.5,11.9,54.6,13.5
					c7,1.2,66.1-18.4,102-24.6c15.5-2.6,17,16.8,18.8,17.2c5.4,1.1-24.6,25.5-25.9,32c-1.5,6.5-18.9,26.8-24.6,35.2
					c-5.7,8.3-115.8,60.8-121.3,71.5c-5.4,10.7-34.2,29.9-44.5,35.2c-10.3,5.3-22.9,1.5-28.9-0.9c-6.1-2.4-54.7-45.3-62.1-50.6
					c-7.3-5.3-16.8-2-23.9-4.9c-7.1-2.8-48.1-41.5-55.4-46.8s-10.2-21.7-5.3-39.6c4.9-18-1.5-46.4,5.2-54.3
					C759.5,1027.4,789,1018,796,1021.3z"/>
				<path class="st2" d="M598.7,423.3c7.7,3,34.9,22.2,39.6,27.2c4.8,5,21,12.6,29.6,17c8.6,4.5,27.2,8.7,38.9,17.6
					c11.6,8.9,19.8,13.1,18,17.6c-1.9,4.5-8.6,13.7-10.4,14.5c-1.9,0.8-4.8,0.1-10.3,3.7s-17.6,10.2-18,13.6
					c-0.4,3.4,1.5,12,5.4,15.2s24.2,24.2,22.6,26.7s-2.6,7.8-5.8,10.7s-19.2,3.8-24.7,7.3c-5.6,3.6-20.1-7-28.2-10.2
					c-8.1-3.2-44.7-13.1-51.9-14.5c-7.3-1.3-53.3-3.6-63.6-7.7c-10.3-4.1-45.1-30.5-49.3-34.2s-6.3-21.8-2.1-30
					c4.4-8.2,19.6-32.2,23.5-38.1c4-5.8,22.2-8.9,31.9-10.7s23.9-10.3,29.5-15.3C578.7,429,592.7,421.1,598.7,423.3z"/>
				<path class="st2" d="M592.6,460.6c7,2,56,18.6,65.3,22.9c9.3,4.2,26.4,12,25.1,16.8c-1.3,4.6-36.2,21.5-46.5,26.7
					c-10.4,5.2-16.9,4.6-22.5,10.8c-5.6,6.1-8.7,9-12.4,11.6s-21.3-0.1-26.6-1.2c-5.3-1.1-38.7-16.5-42.7-19.6
					c-4-3.2-9.1-11-7.9-16.7c1.2-5.7,6.6-14,9-18.8s4.2-10.8,8.7-14.1c4.5-3.4,8.1-7.1,14.9-8.6s10.2-2.1,15.1-6.5
					C577,459.7,588.4,459.4,592.6,460.6z"/>
				<path class="st2" d="M1002.4,607.4c12.4,1.7,38.1,12,45.1,14.1c7,2,33.3,8.6,34.4,13.7c1.1,5.2,0.9,11.4,4.5,14.3
					c3.6,2.9,3.3,11.5-0.1,18c-3.3,6.5-11.4,11.1-19.8,16.3s-15.7,10.2-24.2,17.7s-17.2,7.9-23,16.7c-5.8,8.6-7,9.6-11.9,20.2
					c-4.9,10.6-6.5,12.3-10.2,21.7s-4.5,19.3-13,16.7c-8.3-2.5-21.8-4-21-13.9c0.8-9.8,6.6-30.1,9.6-39.9c3-9.6,7.1-23.7,8.2-30.3
					c1.1-6.6,1.7-18.1,0.7-23.1c-1.1-5.2-8.7-19.2-7.7-25.8c1.1-6.6,2.6-18.5,7-21.4s-1.3-12.3-2.2-15.7s0.8-9.8,7.4-8.7
					C992.7,598.8,996.5,606.6,1002.4,607.4z"/>
				<path class="st2" d="M840.9,1070.1c5.4,2.6,48.1,23.1,52.1,25.4c4.1,2.4,20.4,4.5,23.8,3c3.4-1.5,22.6-8.2,26.7-9.4
					s27.2,7.3,33.2,8.2c4.2,0.7,40.3-11.2,62.1-14.9c9.4-1.6,10.4,10.3,11.4,10.4c3.3,0.7-14.9,15.5-15.9,19.4s-11.5,16.4-14.9,21.4
					s-70.6,37-73.9,43.6c-3.3,6.6-20.9,18.2-27.1,21.4c-6.2,3.2-14,0.9-17.7-0.7c-3.7-1.5-33.3-27.6-37.8-30.8s-10.3-1.2-14.5-2.9
					c-4.4-1.7-29.3-25.2-33.7-28.4c-4.5-3.2-6.2-13.2-3.3-24.2s-0.9-28.3,3.2-33S836.7,1068.1,840.9,1070.1z"/>
				<path class="st2" d="M1924.3,1360.1c-1.5,0-102.3-24.6-119.5-30.5s-39.4-19.2-39.4-19.2h-74.7l-29.3-32c0,0-7.5,2.9-17.7,9.8
					s-15.1,20.6-15.1,20.6l7.9,32.5l-16.3,27.5"/>
				<path class="st2" d="M1094.3-14.4c17.7,9.8,54.1,30.8,57.5,35.3s35.4,24.2,35.4,24.2s30,15.2,30,12.8c0-2.5,11.8-8.3,11.8-10.8
					s-16.3-16.8-16.3-16.8l22.1-6.3L1344,45.1c0,0,108.6,61.5,113.7,64c4.9,2.5,25.9,16.8,25.9,16.8s78.4-4,92.6-3.4
					c14.3,0.5,27.1,4.4,37.4,7.9c10.3,3.4,61.5,25.1,61.5,25.1l59.1-7l49.7-5.9l9.8-33.4l2.5-22.6c0,0,4.4-46.7,18.6-53.7
					s54.1-51.7,54.1-51.7"/>
				<path class="st2" d="M1259.5-10.6c7.4,2.9,75.7,27.4,83.7,31.3c7.9,4,105.7,32.5,109.2,40.4c3.4,7.9,36.3,28.5,36.3,28.5h69.8
					c0,0,38.9,4.9,39.8-2.9c0.9-7.9-6.9-19.7-11.8-26.6s-16.7-23.1-33.4-28c-16.8-4.9-40.8-8.3-42.3-16.3
					c-1.5-7.9-8.3-22.6-8.3-22.6s-28.5-18.6-30-19.2"/>
				<path class="st2" d="M1837.3-14.9c-8.3,5.9-48.6,44.8-48.6,44.8L1757.2,81l-51.7,36.9L1651,99.1c0,0-23.3-27.9-19.2-34.6
					c4.1-6.7,48.2-16.5,48.2-16.5s30,18.8,35.9,16.5c5.9-2.2,21.7-31.7,21.7-31.7l35.9-54.1"/>
				<path class="st2" d="M1750.7-11.5c-10.8,5.4-41.8,44.3-41.8,44.3h-46.7l-32.5,8.9h-33.4l-31.1-31.1l-39.8-25.1"/>
				<path class="st2" d="M1598.4-9.5c3.8,4.9,26.3,20.6,37.4,23.1s56.8-0.5,61.9,0c4.9,0.5,10.8-32.5,10.8-32.5"/>
				<path class="st2" d="M188.8-21.3c35.4,24.6,72.3,54.1,72.3,54.1l95.2,58.5c0,0,28.8-5.4,46.5-18.8S427.9,35,427.9,35l58-53.9"/>
				<path class="st2" d="M305.4-21.3c22.9,26,40.6,48,40.6,48l79.7-41.1"/>
				<path class="st2" d="M213.3,993.2c17.7,4.4,103.2,18.5,129.1,19.2c25.8,0.8,86.3-19.2,86.3-19.2l89.2-22.9l36.9,10.3l51.7-34.5
					c0,0,51.7-10.4,57.6-7.5c5.9,2.9,14.1,12.6,14.4,24.3c0.3,11.8-14.4,39.1-14.4,39.1l-74.7,42l-44.9,51.7l-66.3,133l121.7,42.3
					l60,63l23.4,34.9"/>
				<path class="st2" d="M151.3,1053.6c5.9,2.2,82.6,0,82.6,0l101.5,8.1l112.7-4.1l57.9-27l61.2-16.3l-9.6,32.5l-55.4,62.4
					l-52.9,97.8l-12.8,50.2l61.2,21.1l4.4,78.5"/>
				<path class="st2" d="M171.1,1090.5c14,4.4,112.1,22.1,112.1,22.1l89.2-15.5l34,37.9l14,62.4l-20,59.7l36.1,36.9v54.6"/>
				<path class="st2" d="M196.2,1146.6c34.6,4.4,99.5-20.9,129.8,6.9s28.8,89.7,28.8,89.7l-33.2,45.7l41.4,25.5l24.3,58.5"/>
				<path class="st2" d="M228.5,1192.4c24.6,8.1,75.5,19.2,80.6,31.7s-31.7,75.2-31.7,75.2l-15.5,57.6"/>
			</g>
		</g>
	</g>
</g>
<g>
	<g>
		<g>
			<defs>
				<rect id="SVGID_3_" x="-1501.2" width="1750.6" height="1345.4"/>
			</defs>
			<clipPath id="SVGID_4_">
				<use xlink:href="#SVGID_3_"  style="overflow:visible;"/>
			</clipPath>
			<g class="st4">
				<path class="st1" d="M457.7-50.5c0,0-257.5,154-286.3,170c-35.4,19.7-63.8,11.4-90.1-16.9C64.7,84.8,40.7,57.4,22.7,46.4
					C-0.1,32.5-39.9,31.5-82.2,42c0,0-245.6,53.5-276.2,59.6c-30.5,6.1-42.6,31.5-53.7,65c-7.9,24.2-38.3,101.5-48.6,127.7
					c-14.5,36.9-32.6,44-64.9,44.3c-120.3,0.8-208.4,32.6-351.4,82.5c-100,34.9-272.3,94.1-350.8,122.6s-111,8.5-146.8-15.2
					c-41.9-27.6-263.5-196.8-263.5-196.8"/>
				<path class="st2" d="M-160.9-21.3c0,0-9.8,11.1-17.6,15.5s-10.2,15.6-12.4,18.4s-4.8,9.5-12.7,15.5c-7.9,5.8-14.5,1.9-25.6,0.4
					c0,0-11,1.2-16.5,1.3c-5.6,0.1-18.4,14.7-27.6,20c-9.3,5.3-13.2,9.5-25.6,14.8c-12.3,5.3-14.4,1.2-28.7,4
					c-23,4.4-21.8-9.5-35.8,0.1c-15.3,10.6-85.6,76.1-98.9,106.8c-11.5,26.7-11.6,88.3-21,97c-8.1,7.5-28.3-4.2-39.4,13.3
					c-5.7,9-16.3,23.1-27.9,29.7c-4,2.2-17.7-5.4-26.3-2.4c-13.9,4.9-40.3,2.9-72.3,5.9c-20.6,2-45.6,22.7-68.3,24.2
					c-75.1,4.5-115.2,18.2-115.2,18.2c-26.6,8.2-40.3,9.6-45.5,12.8s-40,18.8-43.1,19.2c-13.5,2-17.8,1.7-33.3,2s-19.4,0.9-23.4-0.4
					c-3.8-1.3-7.8-2.6-6.5-5.9c1.3-3.4,15.6-7.7,16.8-10.6s-4.4-8.3-5-11.9c-0.7-3.6-14.8-8.2-26.3-7s-22.9,37.7-34.6,48.5
					c-15.2,13.9-23.8,14.1-23.8,14.1c-9.3,0.4-22.7,5-21.4,8.6c1.3,3.4,5.3,16.7,7.3,20s-2.6,8.5-7,9.5c-4.2,1.1-50.2,15.3-55.4,14
					s-30.1-1.5-34.6-0.9c-4.5,0.5-56.6,17.8-61.7,13.2c-5.2-4.6-32.9,8.5-36.2,11.8s-34.9,20-39.5,18.5s-15.2-4.6-22.2-8.6
					c-6.9-4-43-6.2-46.3-13c-3.3-6.7-11-15.7-7.7-17.7s11.6-9.4,14.5-7.1s11.8,6.1,14.5,6.2c2.8,0.3,3.2-10.6,0.8-13.1
					c-2.2-2.4-40.7-14.8-46.8-14.8c-26.8,0-48.9-6.6-59.2-18.2c-3.6-4-8.7-38.7-10.6-43.3s-25.8-14.9-30.4-19.8
					s-48.9-50.2-48.9-50.2"/>
				<path class="st2" d="M-436.9-68.3c-19.6,6.9-38.9,33-60.5,39.8C-569.2-6.3-605,16.7-605,16.7c-24,14.2-36.9,19.1-41.2,23.3
					s-34.4,27.8-37.3,28.9c-12.6,5.2-16.9,5.9-31.9,9.8c-14.9,4-18.6,5.6-22.7,5.3c-4.1-0.4-8.2-0.7-7.8-4.2
					c0.4-3.6,13.2-11.2,13.7-14.3c0.5-3-6.2-7-7.7-10.3c-1.6-3.3-16.3-4.4-27.2-0.5c-11,3.8-10.8,10.8-30.4,17
					c-19.6,6.2-27.2,9-27.2,9l-38.2,8.7c0,0-7.8-0.7-15.6,3.6c-7.7,4.2-34.4,14.9-38.2,17.4c-3.7,2.6-2.1,10.2-10.2,15.9
					c-8.1,5.7-13.6,15.5-21.5,16.5c-7.9,1.1-66.1,6.9-75.7,8.6c-9.6,1.7-30.7,1.9-34.2,2.1c-11.2,1.1-22.3-3.3-30.4-1.5
					c-8.1,1.9-58,15.7-62.8,17.6c-4.6,1.9-45.1,16.7-50.5,21.4c-5.4,4.9-36.6,12.6-38.9,10.2c-2.2-2.4-33.3-19.6-39.3-21.3
					c-5.9-1.7-21,4.4-25.9-1.1c-4.9-5.4-34.9-47.2-37-52.3s-1.9-21.4-2.6-25.1c-0.8-3.7-29.6-89.5-31.3-95.4
					c-1.7-6.1-38.3-82.6-72.7-121.9"/>
				<path class="st2" d="M-353.8,41.6c-2,6.6-5,13.5-19.4,15.7s-14,3.3-25.8,11.8C-505.1,146-505,222-512.9,247.5
					c-5.2,16.8-21,35.8-25,39.5c-7.9,7.3-27.1,7.9-52.2,16.7c-12.2,4.4-50.4,0-60.9,2.8c-4.6,1.2-8.5,5.7-13.7,5.7
					c-45.9,0.9-101.6,0.5-145.9,0c-44.5-0.7-80.8,9.8-80.8,9.8c-8.5,0.8-26.3,3-26.3,3c-7.8,1.3-10-2.8-28.8-4.8s-18.1,9.5-25.6,9.9
					s-25.1,3.4-31.3,0s-0.9-19-16.3-21.7c-15.2-2.6-14.5-4.1-31.5-4c-16.9,0.1-45.3,0.9-45.3,0.9c-8.9,4.6-20.7,15.3-27.4,18.6
					c-6.7,3.3-66.7,61.5-94.5,72.6s-71.1,18.2-76.5,18.4c-5.3,0.1-14.3-3.7-16-6.3c-1.7-2.6-13.9-1.2-20.4-7.3
					c-6.5-6.1-41.1-42.6-46-51.4c-4.9-8.9-28-48.5-82.2-92s-115.6-130.3-115.6-130.3"/>
				<path class="st3" d="M-390.8,26.7c-16.3,18.8-23.8,20.2-26.8,27.9c-3,7.5-32.6,27.1-39,36.2c-21.5,30.3-40.7,48.6-54.6,79.2
					c-3,6.6-31.5,40-32.4,48.4c-1.3,11.9-0.3,15.5-0.1,23.7c0,7.1-4,12.8-7,19.7c-3.8,9-24.3,11.8-45.7,19.3
					c-7.4,2.5-58,14.7-134.7,8.7c-83.5-6.5-101.8-9.8-101.8-9.8c-7,0.9-30.7,4.1-35.6,3.2c-4.9-0.9-1.7-9.6-11-11.8
					c-9.3-2.2-16.9,0.1-24.3-0.4c-7.4-0.5-58,32.2-68.9,30.9s-21.3-7.1-28.2-8.7s-65.2-5-77.3-2.6c-21.3,4.2-28.4,4.1-39,10.3
					c-10.6,6.2-79.3,50.8-87.2,53.8c-7.8,3.2-43.3,17.3-49.4,14.7s-19.6,13.9-26.6,16.7s-24.8-4.2-29.1-7.5
					c-4.4-3.3-16.1-37.8-18.6-41.9s-32.2-45.5-38.5-51c-6.2-5.6-49.6-28.5-58.3-35.2c-8.7-6.6-68.5-58.2-97-102.2
					c-28.5-43.9-56.4-121.3-56.4-121.3"/>
				<path class="st2" d="M-1583.4-28.8c64.9,130,140.6,191.4,149.5,200.9s78.6,61.2,83.7,66.2c5,5,38.9,57,42.6,61.5
					c3.8,4.5,25.1,15.1,33.3,12.8s22.6-9,30.7-11.2c8.2-2.2,67.5-35,72.7-37s14.4-16.8,52.1-25.8c0,0,242.8-45.3,270.4-32.8
					c6.1,2.8,16.1-11.4,19.3-8.3c7.4,7,72.2,4.2,81.1,9c59.1,31.5,97.8,12.4,116.7,11.4c7-0.4,53.1-25.1,57.1-32.2
					c10-17.7,9.8-31.9,23.8-41.1c11.8-7.8,25.6-37.7,25.6-37.7s0-18.1-7-15.1s-21,13-27.5,16.3c-10.3,5.4-12.3,37.4-20.6,42.4
					s-38.3,38.7-49.6,39.8c-11.2,1.1-38.7,7.1-43,9.1c-6.5,3-28.8-5.4-33.3-7.8c-10.3-5.3-19.8-20.4-22.9-25
					c-3-4.6-2.2-20.2-7.9-22.7c-5.7-2.4-24.5-11.4-30-10.3c-5.4,1.1-51.7,3-61.6,4.6c-9.9,1.6-88.2,17.6-92.2,19.2
					c-4.1,1.6-15.2,6.1-19.3,7.7s-90.9,10.4-102.6,13.9c-11.5,3.4-27.4,5-32.8,6.1s-6.5,7.3-15.1,9.5c-8.5,2.2-33,14.4-38.1,16.4
					c-5,2-13.7-5-16.8-3.8c-3,1.2-52.5,18.6-57.2,21.5s-36.7,22.9-43.3,26.7c-6.7,3.8-46.3,2-50.9-0.9s-65.8-56-73.9-64.5
					s-54.2-77.1-57.2-81.7s4.6-14.8,2.9-22.3c-1.9-7.5,0.7-13.2-2.2-20.2c-2.8-7.1-11-27.4-13.1-35.8s-17.6-29.3-17.6-29.3
					s-28.2-2.9-34.9-4.9c-6.7-2-67.5-98.7-70.2-102.4"/>
				<path class="st3" d="M270.4,782.9c-2.6-0.7-106.1,30-111.5,32.6s-14.3,21.5-18.6,25.6c-4.2,4.1-16.3,6.5-21.8,5.7
					c-5.6-0.7-25.4,2.5-29.7,3.6c-4.2,1.1-13.2-2.4-17.8-6.3c-4.5-4.1-51.9-55.1-55.5-58.3c-3.7-3.3-9.3-1.1-13.2-5.3
					s-22.3-11.6-27.2-13.9c-4.9-2.2-41-13.1-55.6-17.2c-14.5-4.2-47.3,6.5-51,7.4s-12.4,14.4-18.5,15.6s-42.2,9.1-46,8.3
					s-7.5-5.8-13.6-4.6c-5.9,1.2-39.4,13.3-47.6,17.7c-7.3,4-23.1,43.6-32.4,53.4c-9.3,9.9-27.4,32.9-33.4,35.4
					c-6.1,2.4-63.7,14.8-68.6,15.9c-4.9,1.1-22.7-8.6-26.2-12.6c-3.4-4-11-18.5-15.1-22.2s-11-9.8-20.7-8.2c0,0-69.6,14.7-90.8,12
					c-21.1-2.6-49.4-20.5-81.8-38.9c-32.4-18.2-61.2-53.4-100.3-62.6c-18.1-4.2-66.9-36.7-76.8-38.7c-9.9-2.1-58.7-0.8-71.5-2.6
					c-12.8-2-35.6-41.1-42.3-45.5s-18.8-6.6-27.4-18.2c-8.7-11.6-17.4-11.1-21-14.8c-3.4-3.7-11.1-2.6-13.5-12c0,0,5.4-8.2,7.8-12.4
					s17.7-7.7,21.9-10.7s45.1,2.8,69.4,5.2c24.5,2.4,28-22.5,34.1-25.5c6.1-3.2,23.3,1.1,28.7-0.5s78.9-56.6,79.2-59.3
					s4.6-11.9,6.7-13.3c2.1-1.5,13.3-5.3,19.8-5.8c20.1-1.7,20.6-3.8,73.7-12.7c3.6-0.7,35.6-18.2,44.4-18.2
					c57.2,0.1,61.7,7.9,89.2,5.9c13.6-0.9,127.4-48.8,161-94.5c17.3-23.7,20.4-61.2,31.9-79.7c3.2-5,6.1-9.9,8.9-14.7
					c7-11.9,18.8-19.3,23.9-28.5c4.5-8.1-23.8-40.7-24.6-44.5c-0.7-3.6-2-15.9,3.3-16.7c5.2-0.8,36.9,12.6,40.7,10.8
					c17.4-8.5,118.8-40.8,118.8-40.8s5.2,2,16.9-1.6s31.3-12.4,34.9-13.6c3.6-1.2,8.2-2.4,8.2-2.4c10.7-3.7,17.3-5.7,24.2-5.2
					c7,0.5,22.2,5.3,28,9.6c5.8,4.4,36.3,35.8,43.5,38.3c7,2.5,16.1,7,18.8,9.9c2.5,3,14.5,26.4,17.8,36.5
					c3.3,10,15.9,56.7,15.9,56.7s14.8,57.9,18.1,61.2c3.3,3.3,65.3,39.8,65.3,39.8l134.7,35.4l62,62.2"/>
				<path class="st2" d="M-1652.2,488.3c44.8,35.2,61.3,25.9,66.3,25.2s47,18.8,52.2,18.1s23.8-0.8,27.4-0.1
					c3.6,0.5,20.5,16,21.7,17.4c1.3,1.5,9,12.6,11.4,16.9s13.1,14.3,16.4,14.3s34.1,16.5,34.8,18.4c0.7,1.7,11.4,11.6,12.6,13.1
					c1.3,1.5,3.2,14.8,5.8,17.8c2.5,3,12.4,11.1,16.1,15.1c3.6,4,20.6,30,24.8,33.7c4.1,3.7,9.3,16.4,13,22.3
					c3.7,5.9,6.9,27.4,10,30.3c3.2,2.8,28.5,6.1,31.3,6.3s16.9-11.4,18.5-17.4c1.6-5.9,4.2-9.6,7.4-11.6s24.2-8.6,29.3-9
					c36.9-2.6,83.8-21.9,86.7-23.1s13.2-7.3,11.5-9.9c-1.7-2.6-11.2,0.4-13.3-1.5s-2.8-4.2-1.5-12.2c1.7-10.7,8.1-10.6,6.5-20.9
					c-1.5-10.3-0.9-4.9-3.4-16.4s-7-9.6-2.4-15.2c4.6-5.4,2.9-8.7,6.2-9.4c5.6-1.1,68.7-14.3,76.1-18.2c7.4-4,54.6-12,56.7-16.9
					s9.5-13.9,14.8-21c5.2-7.1,28.3-12.3,33.8-13.5c5.6-1.2,21-0.3,29.3-6.9c0,0,58.2-27.1,66.6-34.9c8.6-7.8,9.5-14.1,17-14
					c7.4,0.1,14.8-5.3,22.5-7.7s10.8-10.6,21.1-13.2c13.1-3.3,97-31.5,108.2-25.5c4.6,2.5,22.3,7.4,27.6,6.9
					c52.1-5,109.6-16.1,117.2-15.3c6.1,0.5,41.4,1.7,55.8-1.7c15.1-3.6,84.3-36.7,93.2-51.5c6.6-11.1,14.4-41.6,18.6-53.8
					c2.2-6.6,24.8-6.1,30-15.2c16.1-28.2,6.6-11.8-2.5-31.1c-4.5-9.6,24.2-55.6,14.7-70.6c-7.7-12-10.3-19.6-8.3-25.9
					c2-6.2,46.3-16.7,48.1-5c2.4,14.7,30.9,18,41.4,13.5c17.7-7.8,102.6-51.1,102.6-51.1s15.9-9.4,23.4-11.2
					c7.7-1.9,26.3-5.8,37.3-5.9s7.4-5.4,17.6-9.1s26.7-11.4,33.3-12.3c6.6-0.9,15.2-2.8,15.2-2.8c7,2,54.7,15.7,66.7,27
					s59,53.3,68.9,56.4c9.8,3.2,26.2,12.7,28.2,17.4c1.9,4.8,7.4,28.7,9.3,32s9.3,6.9,14.3,10.4c4.9,3.6,75.3-33,94.9-43.3
					s49.7-44.4,50.8-46.9c1.1-2.4,9.8-9.4,15.5-11.6s78.8-43.5,82.6-47.6c3.8-4.1,14.9-28.2,17.7-30.1c2.6-2.1,126.5-38.3,178.3-5.7
					"/>
				<path class="st3" d="M21.8,751.9c-11.9-6.1-35.8-57.1-38.5-61.1s-9.1-20.5-16-24.8c-6.7-4.4-42-4.4-52.7-6.1
					c-10.7-1.7-19.6-6.2-25.1-10c-5.6-3.8-23.3-17.8-29.9-19.3c-6.6-1.5-27.1,7.8-43.9,13.5s-71.9,26.6-78,29.1s-51.1,5.3-60.5,7
					s-15.6,11.2-20.6,16.3c-5,5-15.9,8.3-20.9,8.3s-15.1-15.1-19.6-21.4c-4.5-6.2-6.1-17.7-4.1-25.5s3.6-26.6,0.9-35.6
					c-2.6-9-1.6-21.5,0.8-28.4c2.2-6.9,12.7-21.1,15.6-31.3s21.4-39.6,26.3-47.7c4.9-7.9,10.6-16.3,6.5-34.1
					c-2.1-9.1,3.8-16.5,12.3-18.4s22.6-14.4,32.2-18.5s32.6-2.2,43-0.4c10.3,1.9,40.7-6.3,44.8-13.9c4.1-7.5,26.7-52.2,31.9-63
					s6.2-21.9,12-25.2c5.8-3.3,11-6.3,17.6-7.3c6.6-0.9,14.8-0.4,19.7-1.3c5-0.9,21.9,0,21.9,0c11.5,2.4,42.2-3,51.7,0.5
					c9.5,3.6,36.6,6.2,43,8.3c6.2,2.2,23.9,4.5,27.2,7.9s8.7,15.3,7.9,25c-0.8,9.8,1.5,35.7,5,43c3.6,7.3,2.9,19,12.4,27.9
					c9.6,8.9,57,70.6,64,76.4c4.8,4.1,33.6,26.8,37.9,37.9c3.3,8.2,7.1,14.3,6.7,16.8c-1.5,7.9-18.1,25.2-18.8,33.6
					c-0.7,8.3,9,42.7,14,55.4s7.9,31.7,12.2,44.1c4.2,12.4,3.2,41.6-6.3,44.8s-15.9,2.2-23.4,8.6c-7.5,6.3-41.2,31.2-47.3,34.2
					c-6.1,3.2-18.1-6.9-25.4-11.4C51.5,780.9,27.7,754.9,21.8,751.9z"/>
				<path class="st2" d="M16.4,307.4c0,0-15.6-23.9-21.7-34.2c-6.1-10.3-14.9-32.2-21.4-38.5c-6.5-6.1-28.7,8.7-34,8.9
					s-23.9-4.5-30.7-4.5s-27.6-0.4-32.9,1.7c-7.1,2.9-21,20-28.8,25.2c-7.9,5.3-18.6-2.5-30.7,5.4c-12,8.1-14.1,9.8-19.4,19.3
					c-5.3,9.5,2.9,37.1-3.3,47s-7,19.3-9,25.1s7,9.8,9.6,6.1c5.6-7.8,14.8-44,25-48.1c10.3-4.1,30.9-19.4,50.2-18.4
					c19.3,1.1,40.4-1.7,40.4-1.7c8.1-3,17.6-6.2,28.3-3c10.6,3.2,23.4,1.5,29.1,9.1c5.7,7.7,53,25.1,65,37.1c2,2,21.5,49,21.5,49
					l29.6,71.9l111.4,62.1l31.3,70.6l-37,62.2l28.2,91.7L167.2,794c-7.3,2.4-75.5,35.9-78.1,37c-2.5,1.1-10.6-0.8-14.1-4.4
					c-5-5-59.3-60.4-62.4-60.9c-3.2-0.5-13.2-5.3-15.7-8.5c-2.4-3.2-19-18.2-32.9-28s-39.9-10.2-46.4-6.7
					c-6.5,3.4-17.3,9.5-29.3,12.6c-12,3-103,22.5-108.5,23.9c-5.7,1.3-24.5,7.1-32,12.7c-7.5,5.6-14.8,9.4-27.9,12
					c-4.9,0.9-70.3,7.1-157.4,39.1s-119.3,13.3-126,12c-6.6-1.5-60.7-32.8-79.3-44.1c-18.6-11.4-63.4-69.9-66.5-69.4
					c-3.2,0.5-13.5,7.4-17.4,10s-28.7-8.7-31.9-9.4c-3.3-0.7-70.6-18.1-83.4-25.1c-12.8-7-42.7-36.3-44.9-39.4
					c-2.2-3-1.3-13.5,1.2-14.5c2.6-1.1,43.1,2,47.7,1.1c4.6-0.9,29.1-16.9,35.2-19.4s23.7-16.4,27.6-24.1c4-7.7,62.4-43.6,64.9-47.6
					s34.2-2.5,37.5-1.9c3.3,0.7,25.5-4.1,28.7-6.3s11.8-15.7,14.9-18c3.2-2.2,30.5-9.1,34-10.6c3.4-1.3,19.6-3.8,24.6-3.8
					c27.9,0,63.8,19,121.9,14.8c5.9-0.4,23.5-16.1,44-37c7.1-7.3,5.9-21.9,13.3-30.1c20.4-22.2,49.2-39.1,61.3-55.6
					c66.7-90.5,69.4-13.1,85-24.6c4.5-3.3-20.6-73.4-0.8-88.3c5-3.7,8.1-18.1,13.5-22.2c47.8-36.1,113.4-70.7,113.4-70.7
					c7.3-0.4,16.1,6.7,15.9,10.3c-0.3,3.4,11.5,5.9,18.5,6.1c7,0,19.6-2,19.6-2c10.2-5,25.8-11.2,30.4-13.1s15.5,1.9,17.8,4.4
					c2.2,2.4,19.4,8.3,22.5,12.6s21.7,37.7,23.9,44.8c2.2,7.1,13,61.2,18,72s28.5,53,28.5,53s40.7,61.1,47.4,63.2
					c6.6,2.2,111.8,41,111.8,41l104,60.5"/>
				<path class="st2" d="M327.6,429.7l-62.6-36l-94.1-37.1l-73.7-70.7c-0.5-1.3-17.8-46.1-22.3-55c-4.5-8.7-26-24.8-29.9-28.3
					s-21.4-7-25-12.2S5.3,170,1.2,163.7c-4.1-6.5-12.7-16.5-15.5-20s-7.7-9-12.3-10.7s-27.1-9.8-31.1-9.8c-4,0.1-17.8,5.6-21.9,6.7
					c-4.1,1.1-15.3,9.6-18.6,10.7c-7.5,2.4-21.1-8.6-25.5-10.4c-4.4-1.9-20.6,8.9-30.8,12c-10.2,3.2-10.6,2.1-17.3,5.2
					c-6.7,2.9-56.3,32.9-64,36.2s-49.3,19-53.3,20.2c-4.1,1.2-19.8-4.6-19.8-4.6s-6.1,1.1-9.3,3.7c-3.2,2.8,5,22.9,7.3,32
					c2.2,9.1,8.1,30,4.1,36.1c-4,6.2-29.2,48.4-30.4,51.3c-1.2,2.9-9.8,10.7-12.2,15.5c-2.4,4.8-4.6,27.5-8.1,33.7
					c-3.4,6.2-14.1,28.3-32.2,43.7c-18.1,15.5-60.5,29.1-68.1,30.4c-7.5,1.5-32.8,6.3-37.4,7s-29.6-2.4-34.6-2.8
					c-4.9-0.4-23.3-1.9-29.6-2.4c-6.5-0.5-33,2.4-46.1,5.3c-13.2,2.9-34.9,2.5-48.9,8.1c-4.4,1.7,0.1,2.2,2.6,5.2
					c3.7,4.4,2.2,8.5-0.7,9.3s-11.8,0.8-15.1,0.5s-12.2-4.1-17.8-6.6c-5.7-2.5-13.6-10.6-18-10c-4.4,0.5-25.5,5.6-28.7,8.3
					s-4.2,5.2-8.1,6.3c-9.1,2.8-20,8.7-27.8,10.4c-23.7,5-37.4,38.9-50,43.3c-4.6,1.6-7.9,3.6-9.9,7s-26.3,6.5-28.4,5.9
					c-2.2-0.5-20.6-7.9-22.9-7c-2.4,0.9-11.4,5.2-12.6,9s1.5,8.9,0.1,12c-1.5,3.2-42,17.4-46.9,18.6c-4.9,1.3-42.6-15.9-51.4-7.7
					c-8.9,8.2-24.7,20.6-28.3,23.4c-3.6,2.8-3.8,13.5-7,16.1c-1.5,1.3-13.3,5.9-14.5,16.9c-0.4,4.1,24.8,32,24.4,36.6
					c-0.5,6.5-18.8,8.6-19.8,9c-6.9,2.2-26.3,11.5-32.4,14s-20.2-12.3-23.9-13.1c-9.3-1.9-37-33.3-41.4-36.2
					c-5.4-3.7-4.2-9.9-4.2-9.9c5.2-0.7,20.7-3.6,27.2-0.8s41.9-19.4,48.5-24.7s28.9-11.5,31.5-15.2c2.5-3.7,6.2-18,9-21
					s12.4-17.7,16.4-22.6c4.1-5,23.4-5.3,28.4-5.9c5.2-0.7,39,5.3,41,5.2s11.6-14.7,16.3-16.5c4.6-1.9,16.3-16.5,22.5-19.6
					c4.1-2,13-0.5,20-0.9s16.4-5.7,22.7-10.2s4.6-8.6,5.7-14.5c0.9-5.9,18.4-5.9,22.1-8.2c3.7-2.2,16.4-5.2,16.4-5.2
					c29.6-9.1,58.3-25,85.2-29.5c2.6-0.4,16.5,8.2,19.2,8.1c61.5-2,136.7-5.8,145.5-5.6c58.7,2.1,114.7,27.8,180.4-63.6
					c7.5-10.4,5.4-37.4,9.6-49.7c2.2-6.6,11.9-5.7,17.2-14.8c16.1-28.2,30.7-51.7,21.5-71c-4.5-9.6-3.2-24.2-12.7-39.1
					c-7.7-12-5.6-13.7-2.6-18.2c1.9-3,8.2-10.3,11-8.3c4,2.9,9.9,7,13.7,10.8c5.8,5.7,36.3,2,46.8-2.6
					c17.7-7.8,102.6-51.1,102.6-51.1c4.9,0.3,4.8,1.7,18.5-2.1s25.2-4,30.5-2.1s13.6,4.1,15.7,2.8c2.1-1.3,5.7-2.5,9.9-5.2
					c4.2-2.6,11.9-10.2,13.7-10.8c6.5-2.5,10.8-4.2,14.9-3.8c4.1,0.4,42.3-1.2,44.7-0.3c2.4,1.1,16.3,11.6,18.8,14.1
					s3.4,6.2,5.3,9.5s-4.8,8.5-2.8,10.7c1.9,2.2,24.7,24.3,32.8,26.7c7.9,2.4,48.9,14.1,53.5,16.9c4.6,2.6,9.6,7.8,13.5,13.7
					s16.7,19,19.4,22.5c2.9,3.4,19.7,24.3,19.7,24.3l53.4,57l106.7-32.1l90.8-4.4"/>
				<path class="st3" d="M-436.7-33c-2.8,2-19,31.2-30.9,33s1.1,2.4-15.6,0.9s-40.2,12.4-44.8,17.2S-541.2,32-544,34
					s-35.8,35.7-47.3,35.9c-11.5,0.4-27.5,4.9-41.8,9.4s-13.3,12.3-15.7,14.9s-24.6,20.7-30.8,20.2c-3-0.3-21.1-1.3-39.1-2.5
					c-4-0.3-19,1.2-22.7,0.9c-14.4-0.8-15.1-3.2-15.1-3.2c-12.3,0.5-37.4,4.1-49.4,6.2s-69.9,10.6-81.3,16.7
					c-11.2,6.1-25.1,9.6-27.6,10.3s-29.7,7-38.6,9.9s-175.8,23.9-181.6,24.2c-5.8,0.3-20.5,7.8-24.6,9.5s-20.5,13-22.3,13.5
					c-1.9,0.5-9.5,15.5-13.1,16.9c-10.4,4-38.7,17.3-44.5,19.6s-17.2-2.5-20-4.8c-2.9-2.2-50.4-39-56.7-46.4
					c-6.3-7.5-59.2-66.2-62.2-70.4c-3-4.2-20-11.5-22.7-15.1c-2.8-3.6,3.2-37.5-0.8-47.3s-61.2-82.9-68.1-93.6s-47.4-63.6-49.4-66.7
					"/>
				<path class="st2" d="M-1561.4,239.1c0,0,60.5,65.9,88.4,87c28,21,49.7,45.1,53.9,53.4c4.4,8.3,8.3,23.4,11.1,26.7
					c2.9,3.4,34.1,25,36.5,26c2.4,1.1,9.3-0.7,12.8,2c3.6,2.6,17.2,21.8,19,22.6c1.9,0.8,22.6,20.1,24.4,20.9
					c1.9,0.8,13.1,6.3,15.2,4c2.1-2.4,6.9-6.7,9-7.7c2.1-0.9,10.7,0.3,12-2.8c1.3-3,10.3-14.7,12.3-17s30.8-4.8,34.4-4.6
					c3.6,0.1,15.3-2.1,18.4-3.3c3-1.2,11-3.8,12.8-5.7c1.9-1.7,8.2-8.3,11.1-9.9s27.9-5.6,31.1-5.3s33.4,2.5,35.4,2.2
					c2.5-0.4,8.5-1.6,9.8-2.5c5.2-4.1,18-23,21.1-25.2c3.2-2.2,22.5-15.6,26.3-17.2s26.2-16.3,28.4-18c7.1-5.6,21.5-16.1,18.5-17.4
					s-9.4-5.7-13.2-6.2c-3.7-0.5-24.7-18.4-31.3-19.7c-6.6-1.5-37.4,3-43.5,3.3c-5.4,0.1-9.9,10.4-14,11.6
					c-4.1,1.1-26.6,19.2-23.1,21.3c3.4,2.1,4.2,6.9,10.8,5.7c6.6-1.2,7.5,1.3,9.8,3c2.2,1.7-1.3,15.7-3,16.4
					c-1.7,0.7-25.6-4.1-28.3-2.8c-12.3,6.2-8.3,20.2-23.9,25.4c0,0-26.4,14.7-43.9,18c-17.4,3.3-42.7,10.3-49.6,11.4
					c-6.9,1.2-18.1,5.7-18.1,5.7c-5.9,1.3-21.4-4.2-25.2-5.8c-3.8-1.6-21.7-13.2-27.2-17.3c-5.6-4.1-16.7-2.8-21.7-5.4
					s-21.9-13.9-26.4-19.2c-4.5-5.3-8.7-16-5.7-18.1c3-2,8.2-4.9,7.5-8.5c-0.7-3.7-39-46.9-61.5-62.1s-46.5-42.3-59.2-50.6
					c-12.7-8.3-38.7-38.5-46.9-49.2c-8.2-10.7-30.3-42.6-32.5-46.4"/>
				<path class="st2" d="M-1624.8,458.6c9.9,7.1,69.6,33.6,76.3,35s20.4-2.1,24.5-1.7c4.2,0.4,21,9.8,26.2,12.7
					c5.2,2.9,20,17.2,25.5,21c5.6,3.8,20.1,30.3,25.6,34.1c5.6,3.8,25,2.1,29.5,3.3s9,17.6,15.2,23.1c6.2,5.6,4.1,10.4,12.4,26.2
					c8.3,15.9,35.6,36.1,40.2,40.3s22.7,9,25,12.2c2.2,3.2,5,12.7,9,17.6c5,6.1,40-24.7,63.2-34.9c23.1-10.2,55.4-25.2,59.6-27.1
					c7.1-3.2,4.2-9.3-3.8-13.9c-2.5-1.5-8.2-2.9-14.9-2.8c-4,0.1-10.7,3.6-14.9,4.6c-4.2,1.1-21.8,7.4-27.5,8.3
					c-5.7,0.9-35.3,0.7-39.8,1.1c-4.5,0.4-22.7,5-23.7,8.1c-0.8,3,3,7.5,2.8,10.3c-0.3,2.8-7.8,9.1-9.5,9.8s-14.3-7.1-15.5-8.6
					c-1.3-1.5-17.6-17.2-16.5-19.6s0.4-10.8-1.6-14.1s-9.4-15.1-13.2-18.2c-3.8-3.2-29.9-23.3-29.9-23.3
					c-6.2-7.7-15.2-12.7-20.9-15.1c-5.7-2.4-21.5-14.8-26-18.5c-4.6-3.7-14.7-15.2-20.5-20s-31.7-24.8-35.3-25.8
					c-3.4-0.9-17-1.7-22.1-0.5c-5,1.2-25.5,0.8-28.3-0.4c-2.8-1.2-29.7-21.7-36.3-28.4c-6.6-6.7-21.9-29.5-30.8-36.1
					s-67.9-58.8-72.6-62.4c-4.6-3.6-28.8-25.2-28.8-25.2"/>
				<path class="st2" d="M-1547.2,1122.7c5.2-7.4,32.1-60,31.5-63.2c-0.5-3.2-5.9-18.4-5.6-23.9c0.5-5.6,14-57.2,16.8-62.4
					s22.6-5.7,25.8-7.7c3.2-2,28-57.5,29.9-73s-1.2-28.3-2.4-34.6c-1.2-6.2-12.4-34.6-14.7-41.8c-2.2-7.1-21.5-52.5-23.8-56.3
					c-2.2-3.8-25.2-41.5-30.5-44.8s-23.7-30.8-24.8-33.7s-2.5-34.9-5-41.2s-2.1-18.6-3-22.9c-1.1-4.2-28-46.8-31.5-53.5
					s-9.3-13.1-11.5-15.5s-2.4-11.1,0.5-12.3s11.6,3,15.5,2.5c3.8-0.5,48.9,25.1,53.8,27.2s28.9,53.1,31.7,55.1
					c2.8,1.9,25.1,10,25.1,10s17.7,19.2,20.2,23.1c2.6,4,37.9,12,41.5,15.7c3.4,3.7,24.1,67.9,27.4,73.6
					c11.4,19.8,61.2,24.8,69.8,23.5c8.5-1.3,36.3-22.5,41.4-27.5c5-5,18.9-0.5,25.6-1.2s34.9-15.9,38.6-19.4
					c3.7-3.4,59.2-20.6,64.2-20.6s21.7,6.5,27.6,6.1s33.3,7.8,43.3,7.8c5,0,121.6-5.3,127.9-4.8c6.3,0.5,30.7,13.9,36.2,17.7
					c5.6,3.8,23.4,20.9,30,22.2c6.6,1.5,26.7,1.5,39,4.6c2.9,0.8,82.3,32.5,91.7,35.8s51.8,11.5,88.8,51.1
					c36.9,39.6,94.8,88.9,100.7,93.7s35.4,13.1,42.2,12.4c6.7-0.7,15.1-5,23.4-9.4s30-23,34.4-24.7s12.7-6.1,16.8-5.7
					c4.2,0.4,6.7,9.4,12.3,13.2s18,9.9,23.1,9.9c5,0,86.3-8.2,92.1-13.6c5.9-5.4,54.3-68.3,68.2-84.1c6.5-7.3,18.9-17.4,33.7-18.6
					c14.8-1.2,28.9,2,37.9,3.7c8.9,1.7,39.3,4.4,45.2,4.4c5.8,0,8.9-4.1,11-7.9c2-3.7,12.7-22.7,16.4-23.5
					c3.7-0.9,10.2,0.7,14.9,2.2c4.8,1.6,5.8,8.9,14.9,12.3c9,3.4,28.2,8.7,32.5,9.4s14.5,10,15.6,12.6s34.4,21.5,45.6,24.7
					s46.9,16,53.5,16.3s72.7,2.8,78.2,1.7c5.4-1.1,24.7-20.5,31.5-24.3c6.7-3.8,40.2-26,48.5-28.7c8.3-2.8,177.1-15.3,177.1-15.3"/>
				<path class="st3" d="M-1555.4,1175.3c2.1-4.9,48.4-65.6,49.2-70.8c0.9-5.4,10.6-31.5,12.6-39.3s27.1-43,50.8-89.6
					s37.5-87.4,40.3-95.6c2.8-8.2-5.3-36.1-5.3-46.1c0-19-14.8-30.3-17.2-31.3c-2.4-1.1-16.1-8.6-18.8-15.1
					c-2.6-6.5-15.1-46.3-16.8-52.3c-1.7-6.1-1.5-25.5,2.6-27.2c4.1-1.6-4.5-32.4,0.3-32.2c4.8,0.1,31.5,44.4,39.9,57.2
					c8.5,12.7,17.8,26.4,27,35.6c9,9.1,30.3,25.5,44.3,32s69.6,13.2,69.6,13.2c26.4-1.1,25.4-5.4,39.1-13s32.9-33.3,43.7-38.2
					c22.7-10.4,46.5-21.3,57.9-23c11.4-1.9,42.3-11.5,50.6-10.8c8.3,0.7,119.6,7.3,133.2,11.2s46.3,1.7,56.4,13.7
					c10.2,12,27.4,6.5,36.2,15.1c8.7,8.6,80.9,31.5,99.3,40.3c18.2,8.9,88.2,98.3,105.2,107.6s34.9,16.9,52.2,23.4s38.3,9.1,48.1,13
					c10.4,4.1,37.3,7.5,44.8,10.7c7.4,3.2,26.3,1.9,37.3-1.6c11-3.4,23.7-6.9,30.3-5.9c6.5,0.9,33.6-6.3,48.5-8.7s89.3-14.5,95-15.9
					c5.7-1.3,23-6.5,30.1-12.8s24.8-32.8,30.3-36.7c5.4-4,63-11.9,72.8-14s33.6-17.4,39-17c9.8,0.8,29.2-3.7,40.6-4.4
					c12-0.7,32.5-2.1,37.9-0.4c10.7,3.3,71.2,31.2,71.2,31.2L96.3,899l115.1-3.3l53.8-15.3"/>
				<path class="st2" d="M-1626,551c9.3,16.4,27.5,38.7,36.1,56.7c8.6,18.1,12.7,28.4,15.5,42.2c2.8,13.6,3.8,46.8,9.9,61.7
					c5.9,15.1,29.6,47.2,37.8,68.1c8.3,20.9,13.6,50.9,14.3,62.6c0.7,11.8-24.2,80.8-24.2,80.8"/>
				<path class="st2" d="M-68.6,693.3c0,0-31.5,21.9-53.7,26.8c-22.2,4.9-169.2,43.2-181.6,45.6s-125,36.3-140,35.7
					c-14.9-0.7-62.9,17-82.1,12.6c-19.2-4.5-33-5.6-39.1-13.9c-6.1-8.3-0.7-18.5-3-24.3c-2.4-5.8-13.6-50.9-20.4-50.9
					c-6.7,0-6.2,14.5-12.7,18.5s-22.9-0.3-31.5-4.9c-8.6-4.6-35.3-38.2-43.2-44.4s-51.3-14.4-59.6-15.1c-8.3-0.7-29.2,7.5-39.1,6.2
					c-9.9-1.5-21.7-14.1-21.9-18.1c-0.3-4,8.9-18.2,16.4-22.6c7.7-4.4,24.3-29.9,30.5-37.7s62-32.8,72-38.1
					c9.9-5.3,27.1-9.5,33.8-9.4c6.7,0,72.8-9,92.1-4.5s51.1,3.7,61.1,5.2s61.3-11,74-16.1c12.7-5,31.7-25.5,39.8-34.6
					c9.3-10.4,13.2,2.8,9.6,10.8c-3.4,8.1-16.7,18.8-16.7,25.4c0,6.7,2.5,10.6,3.4,12.7s-6.2,7-5.7,8.3s-20,42.2-23.7,46.7
					s-15.6,3.7-17.6,6.5c-1.9,2.8-10.8,14.4-11.8,18.2c-0.9,4-2.6,12.2,0.3,23.5c3,11.4,7.8,29.6,15.3,41.1
					c7.7,11.5,28,26,31.7,26.6c3.7,0.5,12.7-6.1,18.5-5.4c5.8,0.7,39.6,2.2,48.8,1.2c9.1-1.1,104.5-6.5,123.8-12.2
					s31.2-7.4,38.3-7.3s9.5,2.2,14,2.5c4.6,0.1,21.7-6.1,25.1-7.5c3.4-1.5,5.9-10.4,9.4-11.8c3.4-1.3,23.9-15.6,32.1-15.3
					s15.1,5,17.2,7.8C-62.1,683.7-65.8,691.7-68.6,693.3z"/>
				<path class="st3" d="M-429.8,569.1c-6.1-1.3-29.1,9.5-35.3,10.7s-35.2-0.8-40.7-1.2c-5.6-0.5-17.6-0.4-26.3,3
					s-55.9,16.3-63,18.4c-7.1,2.1-22.6,2.2-25.5,3.4s-17.2,7.5-17.4,11.6c-0.4,4.2,0.1,15.3-4.9,18c-5,2.6-18,3.8-21.5,6.6
					c-3.6,2.8-2.2,9.6-1.6,12.7s9.4,8.3,14.1,15.2c4.8,6.9,38.3,12.2,46.8,18.2c8.5,6.1,33,29.1,38.2,37s16.7,50.4,21.9,55
					s39.8,12.3,45.6,13.3c5.8,1.1,63-11.8,73.1-15.1c10-3.3,41.4-10.4,35.8-14.3c-5.6-3.8-10.8-10.4-14-13.2s-11.5-0.1-14.4-0.9
					c-3-0.8-17.4-8.5-23.7-14c-6.2-5.6-27.5-48.8-30.3-55.6c-2.8-7,3-22.7,6.5-27.4c3.4-4.8,16.3-19.8,19.6-23.3
					c3.3-3.3,3.4-11.5,0.7-13.6c-2.9-2.2-7.7-9-3-14.3c4.6-5.2,19.2-17.7,22.1-20.2C-424.1,576.9-427.7,569.6-429.8,569.1z"/>
				<path class="st2" d="M-496.7,635.8c-2.9,0.3-37,16.8-41.5,19.4s-12,9-13.6,11.5s4.2,11.5,9.3,13.9c5,2.2,26.8,18.4,30.7,23
					c3.7,4.6,7.7,11.5,11.6,16.5c4,4.9,10,9.4,14.3,7.4c4.4-2.1-8.2-37.3-10.6-43.3c-2.4-6.1-0.9-19.2,0.4-21.5s7.8-13.7,8.6-15.2
					C-486.8,645.9-494.4,635.7-496.7,635.8z"/>
				<path class="st2" d="M-670.1,930.4c-9-3.8-28.2-13.6-33.8-19.3c-5.7-5.7-47.3-58.3-52.7-63.4c-5.4-5.2-18.4-10.8-25-12.2
					c-6.6-1.5-68.6-8.9-72.8-11.2s-10.3-14-14.1-18.5s-49.4-19.8-55.8-22.1c-6.2-2.2-53.4-2.9-61.3-2.4c-7.9,0.4-68.9-8.7-74.7-6.5
					s-14.4,13.5-26.2,17.4c-11.8,4.1-24.7,25.6-32.8,28.8c-8.1,3.2-28,13.9-33,16.5s7.3,15.6,9.4,21.8c3.6,10.7,14.7,21.7,34.4,27.2
					c19.7,5.6,55.8,8.6,68.2,13.1c12.4,4.5,19,0.5,26.4-7.8s24.3-36.5,35.2-39.5c10.8-3,52.1-14,65.6-20.7s37.4-2.1,41.2-0.9
					c3.8,1.2,25.5,11.9,29.7,15.6c4.1,3.7,6.1,13.6,11.9,18.1c5.8,4.4,40.8,38.7,45.3,43c4.4,4.2,14.8,3.4,20.9,3.7s27,2,34,7.9
					s34.5,22.5,40.3,25.5s23.5,6.7,27.5,8.5c4,1.7,8.9-2.9,10.7-5C-649.9,945.9-669.3,930.7-670.1,930.4z"/>
				<path class="st2" d="M-1150.4,783.5c-12.2,4.9-39.3,22.7-46.1,25.5c-7,2.8-54.5,19.7-61.6,24.6c-7.1,4.9-19.4,11.8-25.5,14.1
					c-6.1,2.4-3.7,8.5,1.9,12.3s38.7,3.7,49.3,7.5c10.6,3.8,19-2.6,24.2-12.7c5-10,19.8-5.8,24.7-13.9c4.9-8.1,23.8-28.5,32.5-32.1
					C-1142.3,805.3-1143.5,780.7-1150.4,783.5z"/>
				<path class="st2" d="M-125,380.9c-4.9,1.5-10.2,6.1-11,9c-0.9,2.9-8.3,24.5-9.4,29.3c-1.1,4.9-13.6,23.4-16.9,25.2
					c-3.3,1.9-7.5,8.2-9.1,9.3c-1.6,1.2-70.4,24.1-77.7,24.5c-7.4,0.4-12,3.8-11.2,7s2,8.7,1.6,10.4c-0.1,0.7,3.6,32.2,20.7,44.7
					c6.2,4.5,4.9,13,1.1,18.4c-9.8,13.6-25.1,30.4-25.9,36.9c-0.3,2.4-1.9,13.5-1.3,16.4c0.8,3.6,4,7.8,6.9,9.9
					c3.6,2.5,79.2-16.9,80.2-15.3c1.2,1.6,12.7,2.9,17.6,3.6c4.9,0.7,46.7-20.6,59.7-17.8c13.1,2.8,38.5,10.8,44,13.2
					c5.6,2.4,38.6,2.2,46.3,3.7S2.4,599.9,8.2,598s11.5-2.6,14.7-2.4s15.7-2.2,18.6-2.4s7.9-5.2,7.7-7.1c-0.3-2-0.7-9.3-0.8-14.8
					c-0.1-5.4-7.3-31.9-2.6-57.2c3.7-20.6-8.9-37.3-11.2-40.8c-2.4-3.6-7.4-2.1-9-3.4c-1.6-1.5-3.4-4.6-4.1-6.5
					c-0.7-1.7,1.6-3.7,1.1-7.4c-0.5-3.8-7.1-16.8-13.3-30.9C3,410.9-4.2,401.6-8.6,400.8s-4.6,0.9-6.7,3.2s-1.2,11-2.4,13
					s-14.7,14.9-17,16.4c-2.4,1.5-19.8-13.2-21.7-16.5s-14.1-16.5-12-18.9s1.5-6.6,2.1-8.5C-65.4,387.8-120,379.4-125,380.9z"/>
				<path class="st2" d="M-304.5,538.6c-1.9-8.6-24.7,11.9-28.2,15.2c-3.3,3.3-21.7,51.5-20.2,57c1.5,5.4,11.6,10.8,16.4,10.8
					c4.8,0.1,28.4-18,32.2-21.5c4-3.6,3.4-21.5,6.2-23.3c2.8-1.7,6.6-5.3,9.5-6.5s6.1-5,4.6-8.6c-1.3-3.4-4.2-12.4-5.9-15.1
					C-291.6,544.1-303.7,542.3-304.5,538.6z"/>
				<path class="st2" d="M-1508.9,1309.2c5.7-6.7,26.6-26.4,29.1-30.3s-1.9-10.3,3.6-18.5s7-19.4,14-23.3c7-4,58.9-30.7,67.4-35.8
					c8.3-5,27.9-13,31.1-14.5c10.2-5,22.1-5.2,28.8-9.8c6.7-4.6,48.2-35.9,51.9-39.4s35.8-32,39.1-38.5s29.5-25.1,32.5-23.7
					c3,1.5,38.2,5.9,44.4,5.3c6.2-0.7,18-11.8,24.5-8.5s49.7,31.1,53.5,35.2s9.5,19.3,11.6,22.3c2.1,3.2,60.4,72.3,64.2,77.3
					s65.9,62.8,112.3,86.7c0,0,75.9,10.7,95,20.6c19.2,9.9,86.3,50.5,86.3,50.5"/>
				<path class="st3" d="M-1481,1330.3c3.7-9.9,11.1-26,21.1-34.9c3.4-3,18.5,1.6,26.2-3.2c12.6-7.7,38.9-11.2,69.5-20.9
					c19.7-6.2,39.6-33,61.9-37.8c36.1-7.7,45.7-21.3,45.7-21.3c24.3-13.5,37.4-17.8,41.8-21.9s35.2-27.1,38.2-27.6
					c4.9-1.1,13.7-3.6,17,0s7.1,14.7,11,18.9c4,4.2,26.6,22.2,34,26.6c7.4,4.2,17.7,6.9,25.6,11.8s11.2,11.9,8.9,15.3
					s10.2,8.5,13.6,10.8c3.4,2.4,57.4,37,68.9,39.8c11.5,2.6,66.3,26.3,73.2,30s17.2,5.2,23.9,11.1s74.1,53.8,74.1,53.8"/>
				<path class="st2" d="M-1491.2,1319c4.6-9.3,13.1-24.5,22.5-33.8c3.2-3.2,14.3-1.7,21.1-7.1c11.2-8.9,32.5-16.3,58.3-29.7
					c16.5-8.7,36.7-34.2,55-43.1c60.4-29.3,92.8-54.5,92.8-54.5c21.4-15.7,32.5-21.8,36.6-26s26.6-13.7,29.1-12.7
					c5.7,2.5,12.7,1.6,16.8-1.2c4.1-2.8,13.6-8.3,16.4-6.5s8.5,6.6,11.9,10.2c3.3,3.6,15.9,49.2,20.9,55.6
					c5,6.5,107.2,74.5,142.2,102.2c35,27.6,49.4,31.1,52.3,31.7s8.7-1.5,14.4,1.1c5.7,2.5,27.4,15.9,34.1,19.6
					c6.9,3.7,32.6,28.8,32.6,28.8"/>
				<path class="st2" d="M-1527,1174.3c3.2-3,11.9-11.2,15.1-14.1c3.2-3,80.9-43.1,90.3-50.5c9.5-7.4,23.7-14.7,28.3-17.7
					c4.8-2.9,3.3-9.1,10.4-14.4s25.5-25.5,29.5-29.2s14.7-0.3,17-2.5c2.4-2.2,42-36.5,45.2-41.1c3.2-4.5,25.8-34.8,30.5-40.7
					c4.8-6.1,42.3-18.8,47.6-17.8c5.3,0.9,81.7,28,92.4,32.9c10.7,4.9,78.6,51.8,83.3,55c4.5,3.2,1.1,15.5,5.6,21.8
					s4.2,12.4,9.5,18.1c5.3,5.7,20.2,21.4,25.4,28.5s27.1,20.9,27.1,20.9s27.2-7.7,34.2-8.2s99.3,66.9,102.8,69.5
					c12,8.9,23,12.8,36.1,16.9s34.1,7.3,44.7,10.3s39,11.5,51.1,16c12.2,4.5,47,8.3,54.2,15.9c7.1,7.5,14.1,12,19.7,18.1
					c5.6,6.1,20.7,20.9,15.6,26c-5.2,5.2-14,5.9-23.8,7.7c-9.6,1.7-12.8,7.1-11.9,12c0.9,4.9,50.8,15.2,63.2,17.4
					c12.4,2.4,43.2-3.7,55.2,2.9s22.7,7.5,31.1,17.8c8.2,10.3,25.6,20,35.3,23.4c9.6,3.4,25.9,2.2,32.9,1.5s41.1,1.3,52.6,4
					c11.5,2.6,68.1,11.4,77.3,8.7c9.4-2.6,38.5-18.5,45.6-21.3"/>
				<path class="st2" d="M-1314.9,896.2c-2.9-2-4.6-6.5-5.7-9.1s0.7-20.6-1.5-23.4c-2.1-2.8-9.8-2.4-14.1-0.1
					c-4.4,2.2-9.5,10-11,37.7s-40.6,51-45.3,56c-4.8,5-38.3,52.7-42.3,59.6c-4.1,6.9-9.5,23-8.6,26.8s3.6,6.3,6.2,5.3
					c2.6-1.1,14.9-14.8,21.1-20c6.3-5.2,20-0.7,24.2-0.8c4.1-0.1,13.5,2.4,19.6-2.4c30.7-23.7,34.9-39.3,39-43.1s47.3-56,54.1-61.2
					s17.7-16.7,24.5-21.7c6.7-5,30.5-3,35.7-0.3c5.2,2.8,55.6,38.7,62.2,41.5c6.5,2.9,90.4,25.2,102.2,30.9
					c11.8,5.7,93.3,49.3,212.8,132c16.1,11.2,27.4,5.7,38.3,9.6s31.6,11.4,44,18.9s28.9,17.6,40.8,29.5c12,11.9,44.3,30.3,58.2,41.4
					c13.7,11.1,53.3,42.3,63.8,45.3c10.6,3,88.2,30.4,102.8,41.2c14.7,10.8,36.1,20,43.1,29.7c7,9.6,4.6,6.5,10.6,13.5
					c5.9,7,18.8,18.5,33.7,21.9c14.9,3.4,65.9,0.8,73.1-2.1c7.1-2.9,9.5-10,18.1-14.5s29.1-15.7,32-19c2.9-3.2,25.4-38.2,34-42.7
					s15.5-13.5,21.9-13s13.3,2,17.6,2.4c4.4,0.4,8.6,0.8,14.9-1.7c6.3-2.5,12.4-8.1,17.4-11.1l78-35.3l-8.1-68.7l-46.9-112.9
					c0,0-84.5-73.5-77.8-90.5c6.6-17.2,16.9-35.6,16.9-35.6l98.1-6.6l81.9-19.2l60.5,33.2l85.5,46.5c0,0,40.6,14,93.7,4.4
					s130.6-15.6,130.6-15.6"/>
				<path class="st2" d="M-1491.2,1377.7c56-97.5,164.4-75.6,178.2-75.7c8.9-0.1,13.5-20.4,74.4-28.7c2.6-0.4,17.4,6.9,20,6.1
					c7.1-2.2,19.4-11.8,33-15.3c8.2-2.1,13-7.8,16.5-10c3.6-2.2,1.3-5.7-1.5-9.9c-2.8-4.1-15.7-15.6-15.6-19s10.8-12.4,14.8-11.8
					c4.1,0.7,36.9,26,41.9,31.3s10.3,42,14.3,46.1s50.8,44.4,69.1,50.8c18.4,6.3,47.8,9,56.3,13.3c8.6,4.4,12.8-0.8,16.3-3
					c3.4-2.2,29.3-20.2,32.9-14c5.3,9.5,74.7,54.6,80,53.9"/>
				<path class="st3" d="M-1536.4,1251.2c8.2-9.8,19.8-18.2,21.9-19.7s25.1-17.4,32.2-23.4c7.1-5.9,154.8-86.8,160-89.1
					c5.3-2.2,16.1-14.8,19.3-17.8c3.2-3,14.3-19.6,15.7-20.6c1.5-1.1,3.2-18,5.9-20.5c8.3-7.5,29.7-30.3,34.2-34.5
					c4.5-4.2,16.9-3.8,20.4-2.9c3.4,0.9,61.2,17.7,69.8,22.5c8.7,4.6,79.4,39.9,83.8,42.7c4.4,2.8,22.9,3.3,26.7,5.7
					c3.8,2.4,10.8,36.1,18.1,43.7c7.3,7.7,87.4,54.7,97.7,62c10.3,7.4,67.4,41.8,70.4,44l93.6,20.9l85,13.2l7.4,32.1l69.4,63.8"/>
				<path class="st2" d="M-598.2,105.3c-10.7,2-41.1,11.6-44.9,16.8c-3.8,5-2.2,20.9-9.9,25.1s-6.9,12.2-2.2,14.9
					c4.6,2.9,10.6,8.7,19.8,8.6c9.3-0.1,41.1-17.6,40.6-28c-0.7-10.3-2.8-24.7,2.2-26.7C-587.6,114.1-592.6,104.3-598.2,105.3z"/>
				<path class="st2" d="M-556.3,1012c-18.2-1.6-103.6-8.1-119.1-16s-82.6-39.3-93.8-45.5c-11.2-6.1-59.5-43.2-68.6-48.4
					s-38.3-7.7-55.2-6.2c-17,1.5-50.8,18.5-65.4,17.2c-14.5-1.2-23.7,2.4-24.3,9.6c-0.7,7.3,1.2,29.5,6.3,38.1
					c5.2,8.5,142.5,101,147.8,107.6s43-0.4,50.4,4.6c7.3,5,31.3,25.4,36.6,32.1s36.7,43.5,44.1,51.1c7.4,7.7,42,14.7,50.6,16.5
					c8.7,1.9,21.9,21.1,29.6,22.6s83.7,29.5,98.5,37.7c9.6,5.4,93.6,35.8,94.5,42.6c0.9,6.7,2.4,14.9,2.8,20.1
					c0.3,5.2,5.9,8.2,11.6,9.4c5.8,1.2,81.5,8.1,90,9.1s13.1-7,16.3-10c3.2-3,42.7-69.9,54.2-76.3c11.5-6.3,21.9-20.2,28.7-18.5
					c6.9,1.7,21.7,12.4,27.5,13.7c5.8,1.2,15.5-14.1,20.9-16.3c5.4-2.1,18-30,18.5-44.4c0.5-14.3-20.2-81.8-27.1-92.2
					s-75.2-91.6-84.1-95.9c-8.9-4.4-25.2-5.8-32.8-2.8c-7.7,3-15.7,11.5-19.4,13.1c-3.8,1.5-44.4,30-49.7,32.1
					c-5.3,2.1-16.1,2.9-23.3,4.9c-7.1,2-35.8,8.1-42.6,4.6c-6.7-3.6-37-17.8-43.7-21.3c-6.7-3.4-14.3-0.5-20.9,3
					C-504.1,1011.6-547.2,1012.8-556.3,1012z"/>
				<path class="st3" d="M-818,956.7c-11-11.2-47.7-26.8-57.6-22.9c-9.9,4-18.2,24.8-26.2,27.2s-15.1,8.6-14.3,12.7
					c0.8,4.1,24.8,18.2,35.4,24.7c10.4,6.3,73.1,13.2,83.9,20.4c10.8,7.1,49.7,20.7,57.2,22.1s14-18,10.2-20.7
					C-733.1,1017.1-810.6,964.4-818,956.7z"/>
				<path class="st3" d="M-297.1,1021.3c-9,4.4-78.9,37.9-85.5,41.8c-6.7,3.8-33.4,7.4-39.1,5s-37-13.5-43.7-15.5
					s-44.5,11.9-54.6,13.5c-7,1.2-66.1-18.4-102-24.6c-15.5-2.6-17,16.8-18.8,17.2c-5.4,1.1,24.6,25.5,25.9,32
					c1.5,6.5,18.9,26.8,24.6,35.2s115.8,60.8,121.3,71.5c5.4,10.7,34.2,29.9,44.5,35.2c10.3,5.3,22.9,1.5,28.9-0.9
					s54.7-45.3,62.1-50.6c7.3-5.3,16.8-2,23.9-4.9c7.1-2.8,48.1-41.5,55.4-46.8c7.3-5.3,10.2-21.7,5.3-39.6
					c-4.9-18,1.5-46.4-5.2-54.3C-260.6,1027.4-290.2,1018-297.1,1021.3z"/>
				<path class="st2" d="M-99.8,423.3c-7.7,3-34.9,22.2-39.6,27.2c-4.8,5-21,12.6-29.6,17c-8.6,4.5-27.2,8.7-38.9,17.6
					c-11.6,8.9-19.8,13.1-18,17.6c1.9,4.5,8.6,13.7,10.4,14.5s4.8,0.1,10.3,3.7c5.6,3.6,17.6,10.2,18,13.6c0.4,3.4-1.5,12-5.4,15.2
					c-4,3.2-24.2,24.2-22.6,26.7s2.6,7.8,5.8,10.7s19.2,3.8,24.7,7.3c5.6,3.6,20.1-7,28.2-10.2c8.1-3.2,44.7-13.1,51.9-14.5
					s53.3-3.6,63.6-7.7c10.3-4.1,45.1-30.5,49.3-34.2s6.3-21.8,2.1-30c-4.4-8.2-19.6-32.2-23.5-38.1c-3.8-5.8-22.2-8.9-31.9-10.7
					c-9.6-1.9-23.9-10.3-29.5-15.3C-79.8,429-94,421.1-99.8,423.3z"/>
				<path class="st2" d="M-93.8,460.6c-7,2-56,18.6-65.3,22.9c-9.3,4.2-26.4,12-25.1,16.8c1.3,4.6,36.2,21.5,46.5,26.7
					c10.4,5.2,16.9,4.6,22.5,10.8c5.6,6.1,8.7,9,12.4,11.6c3.7,2.6,21.3-0.1,26.6-1.2c5.3-1.1,38.7-16.5,42.7-19.6
					c4-3.2,9.1-11,7.9-16.7s-6.6-14-9-18.8s-4.2-10.8-8.7-14.1c-4.5-3.4-8.1-7.1-14.9-8.6c-6.9-1.5-10.2-2.1-15.1-6.5
					C-78.3,459.7-89.6,459.4-93.8,460.6z"/>
				<path class="st2" d="M-503.5,607.4c-12.4,1.7-38.1,12-45.1,14.1c-7,2-33.3,8.6-34.4,13.7c-1.1,5.2-0.9,11.4-4.5,14.3
					c-3.6,2.9-3.3,11.5,0.1,18c3.3,6.5,11.4,11.1,19.8,16.3s15.7,10.2,24.2,17.7s17.2,7.9,23,16.7c5.8,8.6,7,9.6,11.9,20.2
					c4.9,10.6,6.5,12.3,10.2,21.7s4.5,19.3,13,16.7c8.3-2.5,21.8-4,21-13.9s-6.6-30.1-9.6-39.9c-3-9.6-7.1-23.7-8.2-30.3
					s-1.7-18.1-0.7-23.1c1.1-5.2,8.7-19.2,7.7-25.8c-1.1-6.6-2.6-18.5-7-21.4s1.3-12.3,2.2-15.7c0.9-3.4-0.8-9.8-7.4-8.7
					C-493.9,599-497.7,606.6-503.5,607.4z"/>
				<path class="st2" d="M-342,1070.1c-5.4,2.6-48.1,23.1-52.1,25.4c-4.1,2.4-20.4,4.5-23.8,3s-22.6-8.2-26.7-9.4
					c-4.1-1.2-27.2,7.3-33.2,8.2c-4.2,0.7-40.3-11.2-62.1-14.9c-9.4-1.6-10.4,10.3-11.4,10.4c-3.3,0.7,14.9,15.5,15.9,19.4
					c0.9,4,11.5,16.4,14.9,21.4s70.6,37,73.9,43.6s20.9,18.2,27.1,21.4c6.2,3.2,14,0.9,17.7-0.7c3.7-1.5,33.3-27.6,37.8-30.8
					s10.3-1.2,14.5-2.9c4.4-1.7,29.3-25.2,33.7-28.4c4.5-3.2,6.2-13.2,3.3-24.2c-2.9-11,0.9-28.3-3.2-33
					C-319.8,1073.8-337.8,1068.1-342,1070.1z"/>
				<path class="st2" d="M-1425.5,1360.1c1.5,0,102.3-24.6,119.5-30.5s39.4-19.2,39.4-19.2h74.8l29.3-32c0,0,7.5,2.9,17.7,9.8
					s15.1,20.6,15.1,20.6l-7.9,32.5l16.3,27.5"/>
				<path class="st2" d="M-595.4-14.4c-17.7,9.8-54.1,30.8-57.5,35.3s-35.4,24.2-35.4,24.2s-30,15.2-30,12.8
					c0-2.5-11.8-8.3-11.8-10.8s16.3-16.8,16.3-16.8l-22.1-6.3l-109.2,21.1c0,0-108.6,61.5-113.7,64c-4.9,2.5-25.9,16.8-25.9,16.8
					s-78.4-4-92.6-3.4c-14.3,0.5-27.1,4.4-37.4,7.9s-61.5,25.1-61.5,25.1l-59.1-7l-49.7-5.9l-9.8-33.4l-2.5-22.6
					c0,0-4.4-46.7-18.6-53.7c-14.3-6.9-54.1-51.7-54.1-51.7"/>
				<path class="st2" d="M-760.6-10.6c-7.4,2.9-75.7,27.4-83.7,31.3S-950,53.3-953.4,61.2s-36.3,28.5-36.3,28.5h-69.8
					c0,0-38.9,4.9-39.8-2.9c-0.9-7.9,6.9-19.7,11.8-26.6s16.7-23.1,33.4-28c16.8-4.9,40.8-8.3,42.3-16.3s8.3-22.6,8.3-22.6
					s28.5-18.6,30-19.2"/>
				<path class="st2" d="M-1338.4-14.9c8.3,5.9,48.6,44.8,48.6,44.8l31.5,51.1l51.7,36.9l54.6-18.8c0,0,23.3-27.9,19.2-34.6
					c-4.1-6.7-48.2-16.5-48.2-16.5s-30,18.8-35.9,16.5c-5.9-2.2-21.7-31.7-21.7-31.7l-35.9-54.1"/>
				<path class="st2" d="M-1251.9-11.5c10.8,5.4,41.8,44.3,41.8,44.3h46.7l32.5,8.9h33.4l31.1-31.1l39.8-25.1"/>
				<path class="st2" d="M-1099.5-9.5c-3.8,4.9-26.3,20.6-37.4,23.1s-56.8-0.5-61.9,0c-4.9,0.5-10.8-32.5-10.8-32.5"/>
				<path class="st2" d="M309.9-21.3c-35.4,24.6-72.3,54.1-72.3,54.1l-95.2,58.5c0,0-28.8-5.4-46.5-18.8S70.8,35,70.8,35l-58-53.9"
					/>
				<path class="st2" d="M193.5-21.3c-22.9,26-40.6,48-40.6,48L73.2-14.4"/>
				<path class="st2" d="M285.6,993.2c-17.7,4.4-103.2,18.5-129.1,19.2c-25.8,0.8-86.3-19.2-86.3-19.2L-19,970.3l-36.9,10.3
					l-51.7-34.5c0,0-51.7-10.4-57.6-7.5c-5.9,2.9-14.1,12.6-14.4,24.3c-0.3,11.8,14.4,39.1,14.4,39.1l74.5,42l44.9,51.7l66.3,133
					l-121.7,42.3l-60,63l-23.4,34.9"/>
				<path class="st2" d="M347.6,1053.6c-5.9,2.2-82.6,0-82.6,0l-101.5,8.1l-112.7-4.1l-57.9-27l-61.2-16.3l9.6,32.5l55.4,62.4
					l52.9,97.8l12.8,50.2l-61.2,21.1l-4.4,78.5"/>
				<path class="st2" d="M327.6,1090.5c-14,4.4-112.1,22.1-112.1,22.1l-89.2-15.5l-34,37.9l-14,62.4l20,59.7L62.2,1294v54.6"/>
				<path class="st2" d="M302.6,1146.6c-34.6,4.4-99.5-20.9-129.8,6.9s-28.8,89.7-28.8,89.7l33.2,45.7l-41.4,25.5l-24.3,58.5"/>
				<path class="st2" d="M270.4,1192.4c-24.6,8.1-75.5,19.2-80.6,31.7c-5.2,12.6,31.7,75.2,31.7,75.2l15.5,57.6"/>
			</g>
		</g>
	</g>
</g>
</svg>
