<?xml version="1.0" encoding="UTF-8"?>
<!-- Generator: Adobe Illustrator 23.0.4, SVG Export Plug-In . SVG Version: 6.00 Build 0)  -->
<svg version="1.1" id="Layer_1" xmlns="http://www.w3.org/2000/svg" xmlns:xlink="http://www.w3.org/1999/xlink" x="0px" y="0px" viewBox="0 0 400 400" style="enable-background:new 0 0 400 400;" xml:space="preserve">
<style type="text/css">
	.st0{fill:none;stroke:#1DCAD3;stroke-width:32;stroke-miterlimit:10;}
	.st1{fill:none;stroke:#7BADD3;stroke-width:8;stroke-miterlimit:10;}
	.st2{fill:#FFFFFF;}
	.st3{fill:#00263E;}
	.st4{fill:none;stroke:#C2D5ED;stroke-width:5.1016;stroke-miterlimit:10;}
</style>
<g>
	<line class="st0" x1="31.8" y1="200.2" x2="31.8" y2="133.6"/>
	<line class="st0" x1="87.8" y1="200.2" x2="87.8" y2="89.1"/>
	<line class="st0" x1="143.7" y1="200.2" x2="143.7" y2="44.5"/>
	<line class="st0" x1="199.7" y1="200.2" x2="199.7" y2="0"/>
	<line class="st1" x1="0" y1="199.9" x2="278.6" y2="199.9"/>
</g>
<circle class="st2" cx="201.3" cy="199" r="70"/>
<path class="st3" d="M314,185.2h-12.7c-2.6-12.6-7.7-24.3-14.4-34.7l9-9c1.7-1.7,1.7-4.5,0-6.2l-23.5-23.5c-1.7-1.7-4.5-1.7-6.2,0  l-9.1,8.9c-10.4-6.8-22.2-11.7-34.7-14.3V93.5c0-2.4-2-4.4-4.4-4.4h-33.3c-2.4,0-4.4,2-4.4,4.4v13c-12.5,2.6-24.1,7.6-34.5,14.4  l-9.3-9.3c-1.7-1.7-4.5-1.7-6.2,0l-23.5,23.5c-1.7,1.7-1.7,4.5,0,6.2l9.3,9.3c-6.8,10.4-11.6,22-14.2,34.4H88.7  c-2.4,0-4.4,2-4.4,4.4v33.3c0,2.4,2,4.4,4.4,4.4h13.2c2.6,12.5,7.5,24.1,14.2,34.5l-9.3,9.3c-1.7,1.7-1.7,4.5,0,6.2l23.5,23.5  c1.7,1.7,4.5,1.7,6.2,0l9.2-9.2c10.4,6.8,22,11.7,34.5,14.4v13c0,2.4,2,4.4,4.4,4.4h33.3c2.4,0,4.4-2,4.4-4.4v-12.8  c12.6-2.6,24.3-7.6,34.7-14.3l9,9c1.7,1.7,4.5,1.7,6.2,0l23.5-23.5c1.7-1.7,1.7-4.5,0-6.2l-9-9c6.8-10.4,11.8-22.2,14.4-34.8h12.7  c2.4,0,4.4-2,4.4-4.4v-33.3C318.5,187.2,316.6,185.2,314,185.2z M201.5,267.9c-34.1,0-61.6-27.6-61.6-61.6s27.6-61.6,61.6-61.6  s61.6,27.6,61.6,61.6S235.6,267.9,201.5,267.9z"/>
<path class="st4" d="M22.2,150.4l27.9,2.9l50.1-39.3l7-22.6c13.5-1.6,27-3.3,40.5-4.9c11.5-6.4,23-12.8,34.4-19.2  c7.3-13.4,14.7-26.7,22-40.1"/>
<script xmlns="" type="text/javascript" charset="utf-8" id="zm-extension"/></svg>