<?xml version="1.0" encoding="UTF-8"?>
<!-- Generator: Adobe Illustrator 23.0.4, SVG Export Plug-In . SVG Version: 6.00 Build 0)  -->
<svg version="1.1" id="Layer_1" xmlns="http://www.w3.org/2000/svg" xmlns:xlink="http://www.w3.org/1999/xlink" x="0px" y="0px" viewBox="0 0 746 659" style="enable-background:new 0 0 746 659;" xml:space="preserve">
<style type="text/css">
	.st0{fill:#2C2A3E;}
	.st1{fill:#F0F6FE;stroke:#2C2A3E;stroke-miterlimit:10;}
	.st2{display:none;fill:#4488EE;stroke:#2C2A3E;stroke-miterlimit:10;}
	
		.st3{fill:none;stroke:#A1C3F6;stroke-width:3;stroke-linecap:round;stroke-linejoin:round;stroke-miterlimit:10;stroke-dasharray:8,8;}
	.st4{fill:#A1C3F6;}
	.st5{fill:none;stroke:#2C2A3E;stroke-width:2;stroke-linejoin:round;stroke-miterlimit:10;}
	.st6{fill:#2C2A3E;stroke:#2C2A3E;stroke-width:2;stroke-linejoin:round;stroke-miterlimit:10;}
	.st7{fill:none;stroke:#2C2A3E;stroke-linejoin:round;stroke-miterlimit:10;}
	.st8{fill:none;stroke:#2C2A3E;stroke-miterlimit:10;}
	.st9{fill:#F0F6FE;}
	.st10{fill:none;stroke:#2C2A3E;stroke-linecap:round;stroke-linejoin:round;stroke-miterlimit:10;}
	.st11{fill:#F0F6FE;stroke:#2C2A3E;stroke-linecap:round;stroke-linejoin:round;stroke-miterlimit:10;}
	.st12{fill:none;stroke:#2C2A3E;stroke-width:2;stroke-miterlimit:10;}
	.st13{fill:#2C2A3E;stroke:#2C2A3E;stroke-width:0.25;stroke-miterlimit:10;}
	.st14{clip-path:url(#SVGID_2_);}
	.st15{fill:none;}
	.st16{font-family:'NittiGrotesk';}
	.st17{font-size:18px;}
	.st18{fill:none;stroke:#A1C3F6;stroke-width:0.5;stroke-miterlimit:10;}
	.st19{fill:none;stroke:#939393;stroke-miterlimit:10;}
	.st20{font-size:16px;}
</style>
<polyline class="st0" points="746,244.1 746,245.1 0,245.1 0,244.1 "/>
<g>
	<path id="XMLID_46_" class="st1" d="M526.1,444.1V439h-0.7l-4.2-42.6h1.2v-5.1h-1.7V370h-38.5v21.3h-0.4v3.7l-20.5,206.4h6.8   l1.4-13.9h64l1.4,13.9h6.8L526.1,444.1L526.1,444.1z M474.2,539.6H528l-57.7,39.2L474.2,539.6z M479.2,534.4l45-40l4,40H479.2z    M475,531.8l4-39.9h41L475,531.8z M523.5,486.7h-42.4l38.6-38.3L523.5,486.7z M480,481l3.7-36.9h33.5L480,481z M484.8,438.9   L515,401l3.8,37.9H484.8z M485,431.1l3.5-34.8h24.3L485,431.1z M474,582.2l55.2-37.5l3.7,37.5H474z"/>
	<g id="XMLID_3_">
		<g id="XMLID_40_">
			<rect id="XMLID_45_" x="632.1" y="415.5" class="st1" width="4.8" height="149.3"/>
			<rect id="XMLID_44_" x="626.3" y="563.2" class="st1" width="16.4" height="12.6"/>
			<rect id="XMLID_43_" x="618.5" y="603.9" class="st1" width="31.9" height="6.3"/>
			<rect id="XMLID_42_" x="622.5" y="589" class="st1" width="24.5" height="14.8"/>
			<rect id="XMLID_41_" x="630.1" y="575.9" class="st1" width="8.7" height="12.6"/>
		</g>
		<g id="XMLID_6_">
			<polygon id="XMLID_39_" class="st1" points="578.2,586.3 566.7,586.3 505,387.1 516.6,387.1    "/>
			<polygon id="XMLID_38_" class="st1" points="425.4,586.3 436.9,586.3 498.6,387.1 487.1,387.1    "/>
			<rect id="XMLID_37_" x="496.8" y="378.5" class="st1" width="11.7" height="207.8"/>
			<path id="XMLID_31_" class="st1" d="M655.7,350.5c-0.1-1-0.1-2-0.2-2.9c-0.2-3.5-0.5-6.7-1-9.7c-0.5-4-1.2-7.7-2-11     c-3.3-14.6-8.5-22.3-11.8-25.9c-1.9-2.1-3.2-2.9-3.2-2.9h-11.9l-6.4,23.5l7.5,69.6l1.2,11l2.2,20.9l1.4,13.4c0,0,4.3-7,9.2-18.2     c2.1-4.7,4.3-10.1,6.4-16.1c1.2-3.5,2.3-7.2,3.4-11c0.9-3.4,1.8-6.8,2.5-10.4s1.4-7.2,1.8-11c0.4-3,0.6-6,0.8-9.1     c0.1-1.7,0.1-3.5,0.1-5.2C655.8,353.9,655.8,352.2,655.7,350.5z"/>
			<polygon id="XMLID_30_" class="st1" points="299.1,471.8 232.2,570.3 279.1,570.3 334.6,516 334.6,471.4    "/>
			<rect id="XMLID_29_" x="371" y="325.2" class="st1" width="254.6" height="25.3"/>
			<rect id="XMLID_28_" x="493.8" y="337.8" class="st1" width="16.1" height="32"/>
			<rect id="XMLID_27_" x="487.1" y="369.8" class="st1" width="29.5" height="17.3"/>
			<rect id="XMLID_26_" x="217.2" y="577.1" class="st1" width="361" height="33.1"/>
			<path id="XMLID_25_" class="st1" d="M376.9,361.5l-10.2-3.4l9.1-19.6c0.5-1.2,2.1-1.7,3.5-1.3l5.2,1.7c1.4,0.5,2.1,1.8,1.5,2.9     L376.9,361.5z"/>
			<path id="XMLID_24_" class="st1" d="M316,480.9L316,480.9c-1.4-0.5-2.2-1.9-1.6-3.1l52.2-113.1l5.2,1.7l-52.2,113.1     C319.1,480.8,317.5,481.4,316,480.9z"/>
			<rect id="XMLID_23_" x="334.6" y="471.4" class="st1" width="58.4" height="98.9"/>
			<rect id="XMLID_22_" x="227.9" y="570.3" class="st1" width="230" height="6.8"/>
			<rect id="XMLID_21_" x="227.9" y="554" class="st1" width="106.7" height="23"/>
			<rect id="XMLID_20_" x="334.6" y="516" class="st1" width="60" height="7.2"/>
			<g id="XMLID_12_">
				<polygon id="XMLID_19_" class="st1" points="303.9,480.9 357.1,495 364.2,476.1 311,462     "/>
				<polygon id="XMLID_18_" class="st1" points="301.4,487.7 387.3,510.5 389.9,503.7 303.9,480.9     "/>
				<path id="XMLID_17_" class="st1" d="M327.8,473.9l-16.5,44.3l-9.2-2.4c0,0-5.6-18.1-1.3-31.2c4.3-13.1,18.8-12.8,18.8-12.8      L327.8,473.9z"/>
				<path id="XMLID_16_" class="st1" d="M345.6,481.4c0.9-2.4,3.9-3.7,6.7-3c2.8,0.7,4.4,3.3,3.5,5.7c-0.9,2.4-3.9,3.7-6.7,3      C346.3,486.3,344.7,483.7,345.6,481.4z"/>
				<polygon id="XMLID_15_" class="st1" points="281.9,469.2 305.9,475.6 311,462 287,455.6     "/>
				<polygon id="XMLID_14_" class="st1" points="287,455.6 311,462 316.1,448.4 292,442     "/>
				<path id="XMLID_13_" class="st1" d="M301.5,416.6l-24.9,66.9l-12.8-3.4c0,0-2.6-18.7,3.3-36.1      C273.1,426.6,301.5,416.6,301.5,416.6z"/>
			</g>
			<path id="XMLID_9_" class="st1" d="M262.8,537.3H282c2.4,0,4.3,1.9,4.3,4.3V554h-27.9v-12.5C258.5,539.2,260.4,537.3,262.8,537.3     z"/>
			<ellipse id="XMLID_8_" class="st1" cx="501.8" cy="337.8" rx="8" ry="6.8"/>
			<polygon id="XMLID_7_" class="st1" points="374.6,373.9 357.9,368.3 363.2,357 379.9,362.5    "/>
		</g>
	</g>
</g>
<g>
	<path class="st1" d="M34,292.4v166.3c0,65.5,58.7,119.1,130.4,119.1l0,0c47.3,0,89-23.3,111.8-58c11.8-17.9,18.6-38.8,18.6-61.1   V292.4c0-65.5-58.7-119.1-130.4-119.1l0,0C92.7,173.3,34,226.9,34,292.4z"/>
	<path class="st1" d="M276.2,519.9c29,60.9,29,60.9,29,60.9l-62.6-26.9"/>
</g>
<g id="solution-diagram">
</g>
<rect id="Background_1_" x="-770" class="st2" width="750" height="660"/>
<g>
	<path class="st3" d="M484.9,88.9c-21.6-43.9-74.6-62-118.5-40.4"/>
	<g>
		<g>
			<path class="st4" d="M370.2,41.1l-2.7,8c-0.2,0.5-0.7,0.8-1.3,0.6s-0.8-0.7-0.6-1.3l2.7-8c0.2-0.5,0.7-0.8,1.3-0.6     C370.1,39.9,370.4,40.5,370.2,41.1z"/>
		</g>
		<g>
			<path class="st4" d="M374.3,52.5l-8-2.7c-0.5-0.2-0.8-0.7-0.6-1.3c0.2-0.5,0.7-0.8,1.3-0.6l8,2.7c0.5,0.2,0.8,0.7,0.6,1.3     C375.3,52.3,374.8,52.6,374.3,52.5z"/>
		</g>
	</g>
	<g>
		<g>
			<path class="st4" d="M478.4,87.6l8,2.7c0.5,0.2,0.8,0.7,0.6,1.3c-0.2,0.5-0.7,0.8-1.3,0.6l-8-2.7c-0.5-0.2-0.8-0.7-0.6-1.3     C477.4,87.8,477.9,87.5,478.4,87.6z"/>
		</g>
		<g>
			<path class="st4" d="M489.8,83.7l-2.7,8c-0.2,0.5-0.7,0.8-1.3,0.6c-0.5-0.2-0.8-0.7-0.6-1.3l2.7-8c0.2-0.5,0.7-0.8,1.3-0.6     C489.7,82.5,490,83.1,489.8,83.7z"/>
		</g>
	</g>
</g>
<g>
	<rect x="211.5" y="420.4" class="st5" width="50.7" height="80.2"/>
	<g>
		<rect x="219.1" y="433.7" class="st6" width="35.1" height="17.7"/>
	</g>
	<g>
		<rect x="216.2" y="428.9" class="st7" width="41" height="51.9"/>
	</g>
	<g>
		<rect x="219.1" y="454.8" class="st7" width="10.1" height="6.2"/>
	</g>
	<g>
		<rect x="244.2" y="454.8" class="st7" width="10.1" height="6.2"/>
	</g>
	<g>
		<rect x="231.6" y="454.8" class="st7" width="10.1" height="6.2"/>
	</g>
	<g>
		<rect x="219.1" y="464.6" class="st7" width="10.1" height="6.2"/>
	</g>
	<g>
		<rect x="244.2" y="464.6" class="st7" width="10.1" height="6.2"/>
	</g>
	<g>
		<rect x="231.6" y="464.6" class="st7" width="10.1" height="6.2"/>
	</g>
</g>
<g>
	<g>
		<rect x="73.1" y="225.5" class="st5" width="177.1" height="110.8"/>
		<path class="st8" d="M181.8,326.4h-20.1c-2.2,0-4,1.8-4,4v6h28.1v-6C185.8,328.2,184,326.4,181.8,326.4z M161.7,332.5    c-1.1,0-2.1-0.9-2.1-2.1c0-1.1,0.9-2.1,2.1-2.1c1.1,0,2.1,0.9,2.1,2.1C163.8,331.5,162.8,332.5,161.7,332.5z M166.7,332.5    c-1.1,0-2.1-0.9-2.1-2.1c0-1.1,0.9-2.1,2.1-2.1c1.1,0,2.1,0.9,2.1,2.1C168.8,331.5,167.9,332.5,166.7,332.5z M171.8,332.5    c-1.1,0-2.1-0.9-2.1-2.1c0-1.1,0.9-2.1,2.1-2.1c1.1,0,2.1,0.9,2.1,2.1C173.8,331.5,172.9,332.5,171.8,332.5z M176.8,332.5    c-1.1,0-2.1-0.9-2.1-2.1c0-1.1,0.9-2.1,2.1-2.1c1.1,0,2.1,0.9,2.1,2.1C178.9,331.5,177.9,332.5,176.8,332.5z M181.8,332.5    c-1.1,0-2.1-0.9-2.1-2.1c0-1.1,0.9-2.1,2.1-2.1c1.1,0,2.1,0.9,2.1,2.1C183.9,331.5,183,332.5,181.8,332.5z"/>
		<path class="st8" d="M146.7,326.4h-10.1c-2.2,0-4,1.8-4,4v6h18v-6C150.7,328.2,148.9,326.4,146.7,326.4z M136.6,332.5    c-1.1,0-2.1-0.9-2.1-2.1c0-1.1,0.9-2.1,2.1-2.1c1.1,0,2.1,0.9,2.1,2.1C138.7,331.5,137.8,332.5,136.6,332.5z M141.7,332.5    c-1.1,0-2.1-0.9-2.1-2.1c0-1.1,0.9-2.1,2.1-2.1c1.1,0,2.1,0.9,2.1,2.1C143.7,331.5,142.8,332.5,141.7,332.5z M146.7,332.5    c-1.1,0-2.1-0.9-2.1-2.1c0-1.1,0.9-2.1,2.1-2.1c1.1,0,2.1,0.9,2.1,2.1C148.7,331.5,147.8,332.5,146.7,332.5z"/>
		<path class="st8" d="M206.7,326.4h-10.1c-2.2,0-4,1.8-4,4v6h18v-6C210.7,328.2,208.9,326.4,206.7,326.4z M196.7,332.5    c-1.1,0-2.1-0.9-2.1-2.1c0-1.1,0.9-2.1,2.1-2.1s2.1,0.9,2.1,2.1C198.7,331.5,197.8,332.5,196.7,332.5z M201.7,332.5    c-1.1,0-2.1-0.9-2.1-2.1c0-1.1,0.9-2.1,2.1-2.1s2.1,0.9,2.1,2.1C203.7,331.5,202.8,332.5,201.7,332.5z M206.7,332.5    c-1.1,0-2.1-0.9-2.1-2.1c0-1.1,0.9-2.1,2.1-2.1s2.1,0.9,2.1,2.1C208.8,331.5,207.8,332.5,206.7,332.5z"/>
		<path class="st8" d="M241.1,326.4H236c-2.2,0-4,1.8-4,4v6h13.1v-6C245.1,328.2,243.3,326.4,241.1,326.4z M236.1,332.5    c-1.1,0-2.1-0.9-2.1-2.1c0-1.1,0.9-2.1,2.1-2.1s2.1,0.9,2.1,2.1C238.2,331.5,237.3,332.5,236.1,332.5z M241.1,332.5    c-1.1,0-2.1-0.9-2.1-2.1c0-1.1,0.9-2.1,2.1-2.1s2.1,0.9,2.1,2.1C243.2,331.5,242.3,332.5,241.1,332.5z"/>
		<path class="st8" d="M173.6,231.5c0,2.2,1.8,4,4,4h35.2c2.2,0,4-1.8,4-4v-6h-43.1v6H173.6z M212.7,229.4c1.1,0,2.1,0.9,2.1,2.1    s-0.9,2.1-2.1,2.1s-2.1-0.9-2.1-2.1S211.6,229.4,212.7,229.4z M207.7,229.4c1.1,0,2.1,0.9,2.1,2.1s-0.9,2.1-2.1,2.1    s-2.1-0.9-2.1-2.1S206.6,229.4,207.7,229.4z M202.7,229.4c1.1,0,2.1,0.9,2.1,2.1s-0.9,2.1-2.1,2.1c-1.1,0-2.1-0.9-2.1-2.1    S201.5,229.4,202.7,229.4z M197.7,229.4c1.1,0,2.1,0.9,2.1,2.1s-0.9,2.1-2.1,2.1c-1.1,0-2.1-0.9-2.1-2.1S196.5,229.4,197.7,229.4z     M192.6,229.4c1.1,0,2.1,0.9,2.1,2.1s-0.9,2.1-2.1,2.1c-1.1,0-2.1-0.9-2.1-2.1S191.5,229.4,192.6,229.4z M187.6,229.4    c1.1,0,2.1,0.9,2.1,2.1s-0.9,2.1-2.1,2.1c-1.1,0-2.1-0.9-2.1-2.1S186.5,229.4,187.6,229.4z M182.6,229.4c1.1,0,2.1,0.9,2.1,2.1    s-0.9,2.1-2.1,2.1c-1.1,0-2.1-0.9-2.1-2.1S181.4,229.4,182.6,229.4z M177.5,229.4c1.1,0,2.1,0.9,2.1,2.1s-0.9,2.1-2.1,2.1    c-1.1,0-2.1-0.9-2.1-2.1S176.4,229.4,177.5,229.4z"/>
		<path class="st8" d="M221.7,225.5v6c0,2.2,1.8,4,4,4h15.1c2.2,0,4-1.8,4-4v-6H221.7z M225.6,233.6c-1.1,0-2.1-0.9-2.1-2.1    s0.9-2.1,2.1-2.1c1.1,0,2.1,0.9,2.1,2.1S226.8,233.6,225.6,233.6z M230.7,233.6c-1.1,0-2.1-0.9-2.1-2.1s0.9-2.1,2.1-2.1    c1.1,0,2.1,0.9,2.1,2.1S231.8,233.6,230.7,233.6z M235.7,233.6c-1.1,0-2.1-0.9-2.1-2.1s0.9-2.1,2.1-2.1c1.1,0,2.1,0.9,2.1,2.1    S236.8,233.6,235.7,233.6z M240.7,233.6c-1.1,0-2.1-0.9-2.1-2.1s0.9-2.1,2.1-2.1c1.1,0,2.1,0.9,2.1,2.1S241.9,233.6,240.7,233.6z"/>
	</g>
	<g>
		<path class="st0" d="M132.7,282.3c-1.2-0.3-1.7-0.5-1.7-1.2c0-0.5,0.4-0.9,1.2-0.9s1.3,0.3,1.7,0.8l1-0.8    c-0.6-0.8-1.4-1.3-2.7-1.3c-1.5,0-2.5,0.9-2.5,2.2c0,1.4,0.9,2,2.5,2.4c1.3,0.4,1.9,0.7,1.9,1.3c0,0.6-0.6,1-1.6,1    s-1.8-0.5-2.3-1.3l-1,0.7c0.7,1.1,1.8,1.8,3.3,1.8c1.8,0,2.9-0.9,2.9-2.3C135.4,283.4,134.4,282.7,132.7,282.3z"/>
		<path class="st0" d="M143.3,280.5c-0.5-1-1.5-1.5-2.7-1.5c-2.1,0-3.8,1.8-3.8,4.1c0,2.3,1.6,4.1,3.8,4.1c1.3,0,2.2-0.5,2.7-1.5    v1.3h1.4v-7.8h-1.4V280.5z M140.9,285.9c-1.5,0-2.5-1.2-2.5-2.8c0-1.7,1-2.8,2.5-2.8s2.5,1.2,2.5,2.8    C143.4,284.7,142.4,285.9,140.9,285.9z"/>
		<path class="st0" d="M156,279c-1.3,0-2.1,0.5-2.7,1.4c-0.5-1-1.3-1.4-2.3-1.4c-1.1,0-1.9,0.4-2.3,1.3v-1.1h-1.4v7.8h1.4v-4.5    c0-1.4,0.7-2.2,2-2.2c1.1,0,1.7,0.7,1.7,1.9v4.8h1.4v-4.5c0-1.4,0.7-2.2,2-2.2c1.1,0,1.7,0.6,1.7,1.9v4.8h1.4v-5    C158.8,280.1,157.6,279,156,279z"/>
		<path class="st0" d="M164,282.3c-1.2-0.3-1.7-0.5-1.7-1.2c0-0.5,0.4-0.9,1.2-0.9s1.3,0.3,1.7,0.8l1-0.8c-0.6-0.8-1.4-1.3-2.7-1.3    c-1.5,0-2.5,0.9-2.5,2.2c0,1.4,0.9,2,2.5,2.4c1.3,0.4,1.9,0.7,1.9,1.3c0,0.6-0.6,1-1.6,1s-1.8-0.5-2.3-1.3l-1,0.7    c0.7,1.1,1.8,1.8,3.3,1.8c1.8,0,2.9-0.9,2.9-2.3C166.7,283.4,165.6,282.7,164,282.3z"/>
		<path class="st0" d="M174.6,280.5c-0.5-1-1.5-1.5-2.7-1.5c-2.1,0-3.8,1.8-3.8,4.1c0,2.3,1.6,4.1,3.8,4.1c1.3,0,2.2-0.5,2.7-1.5    v1.3h1.4v-7.8h-1.4V280.5z M172.2,285.9c-1.5,0-2.5-1.2-2.5-2.8c0-1.7,1-2.8,2.5-2.8s2.5,1.2,2.5,2.8    C174.7,284.7,173.7,285.9,172.2,285.9z"/>
		<path class="st0" d="M190.2,279.2v1.3c-0.5-1-1.5-1.5-2.7-1.5c-2.1,0-3.8,1.8-3.8,4.1c0,2.3,1.6,4.1,3.8,4.1    c1.3,0,2.2-0.5,2.7-1.5v1.3h1.4v-7.8H190.2z M187.7,285.9c-1.5,0-2.5-1.2-2.5-2.8c0-1.7,1-2.8,2.5-2.8s2.5,1.2,2.5,2.8    C190.2,284.7,189.2,285.9,187.7,285.9z"/>
		<polygon class="st0" points="182.1,279 179.9,281 179.9,279.2 178.5,279.2 178.5,287 179.9,287 179.9,282.9 183.1,280.1   "/>
	</g>
	<path class="st1" d="M82.1,150.3c0-2.2,1.7-3.9,3.9-3.9l0,0c2.1,0,3.9,1.7,3.9,3.9v58.5c0,1.2-1,2.2-2.2,2.2l0,0c0,0-0.1,0-0.1,0.1   v12.7h-3.3v-12.7c0,0,0-0.1-0.1-0.1l0,0c-1.2,0-2.2-1-2.2-2.2L82.1,150.3c-0.1-2.2,1.6-3.9,3.8-3.9l0,0c2.1,0,3.9,1.7,3.9,3.9"/>
	<g>
		<g>
			<g>
				<polygon class="st1" points="87.9,225.6 84,225.6 84,221.7 84.6,221.3 87.3,221.3 87.9,221.7     "/>
				<rect x="82.9" y="225.1" class="st1" width="6.1" height="0.5"/>
			</g>
		</g>
	</g>
	<g>
		<g>
			<g>
				<polygon class="st8" points="110.5,225.6 106.6,225.6 106.6,221.7 107.2,221.3 109.9,221.3 110.5,221.7     "/>
				<rect x="105.5" y="225.1" class="st8" width="6.1" height="0.5"/>
			</g>
		</g>
	</g>
	<g>
		<g>
			<g>
				<polygon class="st1" points="134,225.6 130.2,225.6 130.2,221.7 130.8,221.3 133.4,221.3 134,221.7     "/>
				<rect x="129" y="225.1" class="st1" width="6.1" height="0.5"/>
			</g>
		</g>
	</g>
	<path class="st1" d="M88.3,222.4h-4.8c-0.4,0-0.7-0.3-0.7-0.7v-2.9c0-0.4,0.3-0.7,0.7-0.7h4.8c0.4,0,0.7,0.3,0.7,0.7v2.9   C89,222.1,88.7,222.4,88.3,222.4z"/>
	<path class="st1" d="M151.6,150.2c0-2.2,1.7-3.9,3.9-3.9l0,0c2.1,0,3.9,1.7,3.9,3.9v58.5c0,1.2-1,2.2-2.2,2.2l0,0   c0,0-0.1,0-0.1,0.1v12.7h-3.3V211c0,0,0-0.1-0.1-0.1l0,0c-1.2,0-2.2-1-2.2-2.2v-58.5c0-2.2,1.7-3.9,3.9-3.9l0,0   c2.1,0,3.9,1.7,3.9,3.9"/>
	<g>
		<g>
			<g>
				<polygon class="st1" points="157.4,225.6 153.5,225.6 153.5,221.7 154.1,221.3 156.8,221.3 157.4,221.7     "/>
				<rect x="152.4" y="225.1" class="st1" width="6.1" height="0.5"/>
			</g>
		</g>
	</g>
	<path class="st1" d="M157.9,222.3h-4.8c-0.4,0-0.7-0.3-0.7-0.7v-2.9c0-0.4,0.3-0.7,0.7-0.7h4.8c0.4,0,0.7,0.3,0.7,0.7v2.9   C158.5,222,158.2,222.3,157.9,222.3z"/>
	<g>
		<path class="st1" d="M129.6,218.5v-42.9c0-1.1,1.1-2,2.5-2l0,0c1.4,0,2.5,0.9,2.5,2v42.9"/>
		<path class="st1" d="M134.5,222.4h-4.8c-0.4,0-0.7-0.3-0.7-0.7v-2.9c0-0.4,0.3-0.7,0.7-0.7h4.8c0.4,0,0.7,0.3,0.7,0.7v2.9    C135.1,222.1,134.8,222.4,134.5,222.4z"/>
	</g>
</g>
<g>
	<rect x="76" y="395.3" class="st5" width="108.5" height="105.3"/>
	<path class="st0" d="M76.9,427.2v48.6H131v-48.6H76.9z M122.2,467.9H85.8v-27.2h36.4C122.2,440.7,122.2,467.9,122.2,467.9z"/>
	<line class="st8" x1="79.3" y1="414" x2="180.7" y2="414"/>
	<line class="st8" x1="76.5" y1="427.2" x2="183.6" y2="427.2"/>
	<line class="st8" x1="76.5" y1="475.8" x2="183.6" y2="475.8"/>
	<line class="st8" x1="79.3" y1="483.9" x2="180.7" y2="483.9"/>
	<rect x="153.1" y="440.6" class="st0" width="7.4" height="6.6"/>
	<rect x="153.1" y="455.7" class="st0" width="7.4" height="6.6"/>
	<rect x="161.5" y="448.1" class="st0" width="7.4" height="6.6"/>
	<rect x="144.7" y="448.2" class="st0" width="7.4" height="6.6"/>
	<rect x="161.5" y="465.7" class="st0" width="7.4" height="6.6"/>
	<rect x="144.7" y="465.8" class="st0" width="7.4" height="6.6"/>
	<g>
		<ellipse class="st0" cx="176.6" cy="404.6" rx="2.3" ry="2.1"/>
		<ellipse class="st0" cx="169.5" cy="404.6" rx="2.3" ry="2.1"/>
		<ellipse class="st0" cx="170.9" cy="492.2" rx="2.3" ry="2.1"/>
		<ellipse class="st0" cx="163.8" cy="492.2" rx="2.3" ry="2.1"/>
		<ellipse class="st0" cx="146.1" cy="492.2" rx="2.3" ry="2.1"/>
		<ellipse class="st0" cx="139" cy="492.2" rx="2.3" ry="2.1"/>
		<ellipse class="st0" cx="121.4" cy="492.2" rx="2.3" ry="2.1"/>
		<ellipse class="st0" cx="114.2" cy="492.2" rx="2.3" ry="2.1"/>
		<ellipse class="st0" cx="96.6" cy="492.2" rx="2.3" ry="2.1"/>
		<ellipse class="st0" cx="89.5" cy="492.2" rx="2.3" ry="2.1"/>
		<ellipse class="st0" cx="162.3" cy="404.6" rx="2.3" ry="2.1"/>
		<ellipse class="st0" cx="155.2" cy="404.6" rx="2.3" ry="2.1"/>
		<ellipse class="st0" cx="148" cy="404.6" rx="2.3" ry="2.1"/>
		<ellipse class="st0" cx="140.9" cy="404.6" rx="2.3" ry="2.1"/>
		<ellipse class="st0" cx="133.8" cy="404.6" rx="2.3" ry="2.1"/>
		<ellipse class="st0" cx="126.6" cy="404.6" rx="2.3" ry="2.1"/>
		<ellipse class="st0" cx="119.5" cy="404.6" rx="2.3" ry="2.1"/>
		<ellipse class="st0" cx="112.3" cy="404.6" rx="2.3" ry="2.1"/>
		<ellipse class="st0" cx="105.2" cy="404.6" rx="2.3" ry="2.1"/>
		<ellipse class="st0" cx="98.1" cy="404.6" rx="2.3" ry="2.1"/>
		<ellipse class="st0" cx="90.9" cy="404.6" rx="2.3" ry="2.1"/>
	</g>
</g>
<g>
	<g>
		<g>
			<g>
				<path class="st9" d="M606.7,243.9c-2.8,0-5.1-2.3-5.1-5.1V116.5c0-2.8,2.3-5.1,5.1-5.1h97.9c2.8,0,5.1,2.3,5.1,5.1v122.3      c0,2.8-2.3,5.1-5.1,5.1L606.7,243.9L606.7,243.9z"/>
				<path class="st0" d="M704.6,112.3c2.4,0,4.2,1.9,4.2,4.2v122.3c0,2.4-1.9,4.2-4.2,4.2h-97.9c-2.4,0-4.2-1.9-4.2-4.2V116.5      c0-2.4,1.9-4.2,4.2-4.2H704.6 M704.6,110.6h-97.9c-3.3,0-5.9,2.6-5.9,5.9v122.3c0,3.3,2.6,5.9,5.9,5.9h97.9      c3.3,0,5.9-2.6,5.9-5.9V116.5C710.5,113.2,707.9,110.6,704.6,110.6L704.6,110.6z"/>
			</g>
			<g>
				<rect x="612.2" y="124.5" class="st9" width="86.9" height="108"/>
				<path class="st0" d="M698.7,124.9v107.2h-86.1V124.9H698.7 M699.5,124.1h-87.8v108.8h87.8V124.1L699.5,124.1z"/>
			</g>
			<rect x="645.5" y="118.2" class="st0" width="20.3" height="0.8"/>
			<polyline class="st10" points="617.2,173.4 628.2,173.4 628.2,185.2 631.6,185.2 631.6,181 641.7,181 641.7,185.2 645.1,185.2      645.1,181 656.1,181 656.1,185.2 659.4,185.2 659.4,181 672.1,181 672.1,168.4 676.3,168.4 676.3,181 688.1,181 688.1,173.4      694.9,173.4    "/>
			<line class="st10" x1="616.8" y1="201.3" x2="694.4" y2="201.3"/>
			<line class="st10" x1="616.8" y1="207.2" x2="694.4" y2="207.2"/>
			<line class="st10" x1="616.8" y1="194.5" x2="694.4" y2="194.5"/>
			<line class="st10" x1="617.2" y1="138" x2="671.2" y2="138"/>
			<line class="st10" x1="617.2" y1="143.1" x2="688.1" y2="143.1"/>
			<line class="st10" x1="662.4" y1="220.7" x2="694.4" y2="220.7"/>
		</g>
		<g>
			<g>
				<path class="st9" d="M450.6,238.8V129.1c0-2.4,1.9-4.2,4.2-4.2h156.9c2.4,0,4.2,1.9,4.2,4.2v109.7H450.6z"/>
				<path class="st0" d="M611.8,125.8c1.9,0,3.4,1.5,3.4,3.4V238H451.4V129.1c0-1.9,1.5-3.4,3.4-3.4L611.8,125.8 M611.8,124.1h-157      c-2.8,0-5.1,2.3-5.1,5.1v110.5h167.1V129.1C616.8,126.3,614.5,124.1,611.8,124.1L611.8,124.1z"/>
			</g>
			<g>
				<rect x="456.9" y="132.1" class="st9" width="152.7" height="101.3"/>
				<path class="st0" d="M609.2,132.5v100.4H457.3V132.5H609.2 M610.1,131.7H456.5v102.1h153.6V131.7L610.1,131.7z"/>
			</g>
			<g>
				<path class="st9" d="M459.6,243.9c-0.8,0-1.8-0.1-2.6-0.3l-30-5.5c-0.9-0.1-1.6-0.8-1.6-1.7v-2.7h90.8c1.1,1,5.5,4.2,17.2,4.2      s16.1-3.2,17.2-4.2h90.7v2.8c0,0.8-0.7,1.6-1.5,1.7l-30.1,5.5c-0.8,0.2-1.8,0.3-2.6,0.3L459.6,243.9L459.6,243.9z"/>
				<path class="st0" d="M640.4,234.6v1.9c0,0.4-0.3,0.8-0.8,0.8c-0.1,0-0.1,0-0.2,0l-30,5.5c-0.8,0.2-1.7,0.2-2.5,0.2H459.6      c-0.8,0-1.7-0.1-2.4-0.2l-30.1-5.5c-0.1,0-0.1,0-0.2,0c-0.4,0-0.8-0.4-0.8-0.8v-1.9h89.6c1.6,1.4,6.2,4.2,17.6,4.2      c11.3,0,15.9-2.9,17.6-4.2H640.4 M642.1,232.9h-92c0,0-3.4,4.2-16.9,4.2s-16.9-4.2-16.9-4.2h-92v3.6c0,1.3,1,2.4,2.3,2.5      l30.1,5.5c0.9,0.2,1.9,0.3,2.8,0.3H607c0.9,0,1.9-0.1,2.8-0.3l30.1-5.5c1.3-0.1,2.3-1.2,2.3-2.5L642.1,232.9L642.1,232.9z"/>
			</g>
			<g>
				<polyline class="st11" points="537.9,170.1 537.9,156.6 529.5,156.6 529.5,170.1     "/>
				<polyline class="st11" points="526.1,170.1 526.1,163.3 517.7,163.3 517.7,170.1     "/>
				<g>
					<polyline class="st11" points="514.3,170.1 514.3,165.8 505.9,165.8 505.9,170.1      "/>
				</g>
				<polyline class="st11" points="502.5,170.1 502.5,160.8 494.1,160.8 494.1,170.1     "/>
				<polyline class="st11" points="573.4,170.1 573.4,149.8 564.9,149.8 564.9,170.1     "/>
				<polyline class="st11" points="561.6,170.1 561.6,156.6 553.1,156.6 553.1,170.1     "/>
				<polyline class="st11" points="549.7,170.1 549.7,163.3 541.3,163.3 541.3,170.1     "/>
			</g>
			<g>
				<rect x="456.5" y="173" class="st0" width="153.6" height="0.8"/>
			</g>
		</g>
	</g>
	<g>
		<rect x="475.6" y="182.3" class="st0" width="81.1" height="1.1"/>
		<rect x="561.4" y="181.9" class="st0" width="33" height="1.1"/>
		<rect x="475.6" y="191.3" class="st0" width="66.8" height="1.1"/>
		<rect x="561.4" y="191" class="st0" width="27.3" height="1.1"/>
		<rect x="475.6" y="200.4" class="st0" width="75.5" height="1.1"/>
		<rect x="561.4" y="200.2" class="st0" width="31.1" height="1.1"/>
		<rect x="475.6" y="209.4" class="st0" width="79.2" height="1.1"/>
		<rect x="561.4" y="209.3" class="st0" width="31.1" height="1.1"/>
		<rect x="475.6" y="218.5" class="st0" width="81.1" height="1.1"/>
		<rect x="561.4" y="218.4" class="st0" width="25.4" height="1.1"/>
	</g>
</g>
<path class="st1" d="M303.9,571.7"/>
<g>
	<g>
		<g>
			<path class="st9" d="M195.4,103c-17.4,0-31-13.2-31-29.9c0-16.9,13.8-30.7,30.8-30.7c0.3,0,0.6,0,1,0h1l0.2-0.8     c2-10.4,11.1-17.9,21.7-17.9c2.7,0,5.4,0.5,7.9,1.5l0.7,0.3l0.4-0.6C236.8,12.4,251,5,266.1,5c18.8,0,35.5,11.2,42.6,28.5     l0.3,0.7l0.8-0.1c1.7-0.2,4-0.3,5.5-0.3c19.4,0,35.2,15.7,35.2,35C350.4,88,335,103,315.2,103H195.4z"/>
			<path class="st0" d="M266.1,6c18.4,0,34.7,10.9,41.7,27.9l0.6,1.4l1.5-0.2c1.6-0.2,3.9-0.3,5.4-0.3c18.8,0,34.2,15.2,34.2,34     c0,18.6-15,33.3-34.2,33.3L195.4,102c-8,0-15.6-3-21.2-8.4c-5.7-5.4-8.8-12.7-8.8-20.6c0-16.4,13.4-29.7,29.8-29.7     c0.3,0,0.6,0,0.9,0h0.1l1.7,0.1l0.3-1.7c1.9-9.9,10.6-17.1,20.8-17.1c2.6,0,5.2,0.5,7.6,1.4l1.5,0.6l0.9-1.3     C237.4,13.2,251.3,6,266.1,6 M266.1,4c-16.1,0-30.2,8-38.7,20.2c-2.6-1-5.4-1.5-8.3-1.5c-11.3,0-20.7,8.1-22.7,18.7     c-0.4,0-0.8,0-1.1,0c-17.6,0-31.8,14.2-31.8,31.7s14.4,30.9,32,30.9h119.8c20,0,36.2-15.4,36.2-35.3s-16.2-36-36.2-36     c-1.7,0-4,0.1-5.6,0.3C302.6,16,285.8,4,266.1,4L266.1,4z"/>
		</g>
		<path class="st12" d="M196.1,42.4c7.2,0,10.2,1.4,16.1,4.6"/>
		<path class="st12" d="M297.3,40.4c5.9-4.3,10.4-6.8,18.3-6.8"/>
		<path class="st12" d="M227.5,25.3c3.4,1.5,6.3,3.8,8.5,6.6"/>
	</g>
</g>
<g>
	<path class="st13" d="M664.8,587.4h2.7c2.3,0,3.5,0.9,3.5,2.7s-1.2,2.7-3.5,2.7H666v3.2h-1.2V587.4z M667.5,591.9   c0.9,0,1.5-0.1,1.8-0.4s0.5-0.7,0.5-1.3s-0.2-1-0.5-1.3s-0.9-0.4-1.8-0.4H666v3.4H667.5z"/>
	<path class="st13" d="M673.5,587.4h2.7c2.3,0,3.5,0.9,3.5,2.7c0,1.4-0.8,2.2-2.1,2.5l2.6,3.5h-1.5l-2.4-3.2h-1.7v3.2h-1.2v-8.7   H673.5z M676.2,591.9c0.9,0,1.5-0.1,1.8-0.4s0.5-0.7,0.5-1.3s-0.2-1-0.5-1.3s-0.9-0.4-1.8-0.4h-1.5v3.4H676.2z"/>
	<path class="st13" d="M682.7,587.4h5.8v1h-4.6v2.7h3.8v1h-3.8v2.9h4.6v1h-5.8V587.4z"/>
	<path class="st13" d="M691.8,593.6c0.1,1.3,1.2,1.7,2.2,1.7c1.3,0,1.9-0.6,1.9-1.4c0-0.7-0.4-1.1-1.2-1.4l-1.9-0.5   c-1.3-0.4-2-1.1-2-2.3c0-1.7,1.4-2.4,3-2.4c0.9,0,1.6,0.2,2.2,0.7s0.9,1.1,0.9,2h-1.2c-0.1-1.3-1.1-1.7-2-1.7   c-1.1,0-1.7,0.5-1.7,1.3c0,0.7,0.4,1.1,1.2,1.4l1.9,0.5c0.6,0.2,1.1,0.4,1.5,0.8s0.6,0.9,0.6,1.5c0,1.8-1.5,2.5-3.2,2.5   c-1.9,0-3.3-0.9-3.4-2.7L691.8,593.6L691.8,593.6z"/>
	<path class="st13" d="M700.5,593.6c0.1,1.3,1.2,1.7,2.2,1.7c1.3,0,1.9-0.6,1.9-1.4c0-0.7-0.4-1.1-1.2-1.4l-1.9-0.5   c-1.3-0.4-2-1.1-2-2.3c0-1.7,1.4-2.4,3-2.4c0.9,0,1.6,0.2,2.2,0.7s0.9,1.1,0.9,2h-1.2c-0.1-1.3-1.1-1.7-2-1.7   c-1.1,0-1.7,0.5-1.7,1.3c0,0.7,0.4,1.1,1.2,1.4l1.9,0.5c0.6,0.2,1.1,0.4,1.5,0.8s0.6,0.9,0.6,1.5c0,1.8-1.5,2.5-3.2,2.5   c-1.9,0-3.3-0.9-3.4-2.7L700.5,593.6L700.5,593.6z"/>
	<path class="st13" d="M708.4,587.4h1.2v5.4c0,0.9,0.2,1.5,0.5,1.8s0.9,0.5,1.6,0.5c0.7,0,1.3-0.2,1.6-0.5s0.5-1,0.5-1.8v-5.4h1.2   v5.6c0,1.1-0.3,2-0.9,2.5s-1.4,0.8-2.5,0.8s-1.9-0.3-2.5-0.8s-0.9-1.3-0.9-2.5v-5.6H708.4z"/>
	<path class="st13" d="M718.1,587.4h2.7c2.3,0,3.5,0.9,3.5,2.7c0,1.4-0.8,2.2-2.1,2.5l2.6,3.5h-1.5l-2.4-3.2h-1.7v3.2H718   L718.1,587.4L718.1,587.4z M720.8,591.9c0.9,0,1.5-0.1,1.8-0.4s0.5-0.7,0.5-1.3s-0.2-1-0.5-1.3s-0.9-0.4-1.8-0.4h-1.5v3.4H720.8z"/>
	<path class="st13" d="M727.3,587.4h5.8v1h-4.6v2.7h3.8v1h-3.8v2.9h4.6v1h-5.8V587.4z"/>
</g>
<g>
	<path class="st13" d="M75.5,514.1h2.7c2.3,0,3.5,0.9,3.5,2.7s-1.2,2.7-3.5,2.7h-1.5v3.2h-1.2V514.1z M78.2,518.6   c0.9,0,1.5-0.1,1.8-0.4s0.5-0.7,0.5-1.3s-0.2-1-0.5-1.3s-0.9-0.4-1.8-0.4h-1.5v3.4H78.2z"/>
	<path class="st13" d="M84.2,514.1h1.2v7.7h4.2v1h-5.4C84.2,522.8,84.2,514.1,84.2,514.1z"/>
	<path class="st13" d="M98.4,520.1c-0.1,1.9-1.6,2.9-3.5,2.9c-2.5,0-3.8-1.8-3.8-4.5s1.3-4.5,3.8-4.5c2,0,3.4,1,3.5,2.9h-1.2   c-0.1-1-0.8-1.8-2.3-1.8c-2.1,0-2.6,1.7-2.6,3.5s0.5,3.5,2.6,3.5c1.5,0,2.2-0.9,2.3-1.8h1.2V520.1z"/>
</g>
<g>
	<path class="st13" d="M614.9,257.8h2.7c2.9,0,4.2,1.8,4.2,4.4s-1.3,4.4-4.2,4.4h-2.7V257.8z M617.7,265.4c2.3,0,2.9-1.7,2.9-3.3   s-0.6-3.3-2.9-3.3h-1.5v6.7h1.5V265.4z"/>
	<path class="st13" d="M626.8,257.8h1.3l3.3,8.7h-1.3l-0.7-2h-3.9l-0.7,2h-1.2L626.8,257.8z M629,263.5l-1.6-4.5l-1.6,4.5H629z"/>
	<path class="st13" d="M634.2,263.9c0.1,1.3,1.2,1.7,2.2,1.7c1.3,0,1.9-0.6,1.9-1.4c0-0.7-0.4-1.1-1.2-1.4l-1.9-0.5   c-1.3-0.4-2-1.1-2-2.3c0-1.7,1.4-2.4,3-2.4c0.9,0,1.6,0.2,2.2,0.7s0.9,1.1,0.9,2h-1.2c-0.1-1.3-1.1-1.7-2-1.7   c-1.1,0-1.7,0.5-1.7,1.3c0,0.7,0.4,1.1,1.2,1.4l1.9,0.5c0.6,0.2,1.1,0.4,1.5,0.8s0.6,0.9,0.6,1.5c0,1.8-1.5,2.5-3.2,2.5   c-1.9,0-3.3-0.9-3.4-2.7H634.2z"/>
	<path class="st13" d="M642.3,257.8h1.2v3.7h4.3v-3.7h1.2v8.7h-1.2v-3.9h-4.3v3.9h-1.2V257.8z"/>
	<path class="st13" d="M652.2,257.8h3.1c2,0,3.1,0.8,3.1,2.4c0,1-0.5,1.5-1.2,1.8c1,0.3,1.6,0.9,1.6,2.1c0,1.6-1.2,2.5-3.2,2.5h-3.4   L652.2,257.8L652.2,257.8z M655.2,261.5c0.7,0,1.2-0.1,1.5-0.4s0.4-0.6,0.4-1s-0.1-0.8-0.4-1s-0.8-0.4-1.5-0.4h-1.8v2.8H655.2z    M655.5,265.5c0.8,0,1.3-0.1,1.6-0.4s0.4-0.6,0.4-1.1s-0.1-0.9-0.4-1.1s-0.8-0.4-1.6-0.4h-2v3H655.5z"/>
	<path class="st13" d="M661,262.1c0-2.7,1.3-4.5,3.9-4.5s3.9,1.8,3.9,4.5s-1.3,4.5-3.9,4.5S661,264.8,661,262.1z M667.6,262.1   c0-1.7-0.5-3.5-2.7-3.5c-2.1,0-2.7,1.8-2.7,3.5s0.5,3.5,2.7,3.5S667.6,263.8,667.6,262.1z"/>
	<path class="st13" d="M673.8,257.8h1.3l3.3,8.7h-1.3l-0.7-2h-3.9l-0.7,2h-1.2L673.8,257.8z M676,263.5l-1.6-4.5l-1.6,4.5H676z"/>
	<path class="st13" d="M680.6,257.8h2.7c2.3,0,3.5,0.9,3.5,2.7c0,1.4-0.8,2.2-2.1,2.5l2.6,3.5h-1.5l-2.4-3.2h-1.7v3.2h-1.2v-8.7   H680.6z M683.3,262.2c0.9,0,1.5-0.1,1.8-0.4s0.5-0.7,0.5-1.3c0-0.6-0.2-1-0.5-1.3s-0.9-0.4-1.8-0.4h-1.5v3.4L683.3,262.2   L683.3,262.2z"/>
	<path class="st13" d="M689.8,257.8h2.7c2.9,0,4.2,1.8,4.2,4.4s-1.3,4.4-4.2,4.4h-2.7V257.8z M692.6,265.4c2.3,0,2.9-1.7,2.9-3.3   s-0.6-3.3-2.9-3.3H691v6.7h1.6V265.4z"/>
</g>
<g>
	<g>
		<g>
			<g>
				<g>
					<g>
						<defs>
							<polygon id="SVGID_1_" points="169.5,120.3 166.6,90.6 137.7,98.1 134.6,136.4 134.6,136.4        "/>
						</defs>
						<clipPath id="SVGID_2_">
							<use xlink:href="#SVGID_1_" style="overflow:visible;"/>
						</clipPath>
						<g class="st14">
							<g>
								<g>
									<path class="st4" d="M114.5,122.4c4.1-5.8,10-9.8,16.6-11.2c13.7-3,26.5,6,28.4,19.9c0.9,6.7-0.8,13.6-4.8,19.4           c-4.1,5.8-10,9.8-16.6,11.2c-13.7,3-26.5-6-28.4-19.9C108.7,135,110.5,128.2,114.5,122.4 M113.2,121.4           c-4.2,5.9-6.1,13.3-5.2,20.8c2,14.9,15.6,24.4,30.3,21.2c7.3-1.6,13.6-6,17.8-12c4.2-5.9,6.1-13.3,5.2-20.8           c-2-14.9-15.6-24.4-30.3-21.2C123.5,111.1,117.4,115.5,113.2,121.4L113.2,121.4z"/>
								</g>
							</g>
							<g>
								<g>
									<path class="st4" d="M110.2,119.3c4.9-7,12.1-11.9,20.2-13.6c16.6-3.6,32.1,7.2,34.5,24.1c1.1,8.1-0.9,16.6-5.9,23.6           c-4.9,7-12.1,11.9-20.2,13.6c-16.6,3.6-32.1-7.2-34.5-24.1C103.2,134.8,105.3,126.4,110.2,119.3 M108.9,118.4           c-5,7.1-7.4,16-6.2,24.9c2.5,17.8,18.8,29.2,36.4,25.4c8.8-1.9,16.3-7.2,21.3-14.3s7.4-16,6.2-24.9           c-2.5-17.8-18.8-29.2-36.4-25.4C121.4,105.9,113.9,111.3,108.9,118.4L108.9,118.4z"/>
								</g>
							</g>
							<g>
								<g>
									<path class="st4" d="M105.9,116.3c5.8-8.3,14.2-13.9,23.7-16c19.7-4.3,37.8,8.4,40.6,28.4c1.3,9.7-1.1,19.5-6.9,27.8           c-5.8,8.3-14.2,13.9-23.7,16c-19.7,4.3-37.8-8.4-40.6-28.4C97.7,134.5,100.1,124.6,105.9,116.3 M104.6,115.4           c-5.8,8.3-8.7,18.6-7.2,29.1c2.9,20.9,21.8,34.1,42.4,29.7c10.2-2.2,19-8.4,24.8-16.7s8.7-18.6,7.2-29.1           c-2.9-20.9-21.8-34.1-42.4-29.7C119.2,100.9,110.4,107.1,104.6,115.4L104.6,115.4z"/>
								</g>
							</g>
						</g>
					</g>
				</g>
			</g>
		</g>
	</g>
</g>
<rect x="121.9" y="118.8" class="st15" width="27.7" height="14.6"/>
<text transform="matrix(1 0 0 1 121.8505 130.4059)" class="st4 st16 st17">LTE</text>
<text transform="matrix(1 0 0 1 121.8505 130.4059)" class="st18 st16 st17">LTE</text>
<g>
	<path class="st13" d="M73.2,361.1h1.1V354h-1.1v-0.8h3.5v0.8h-1.1v7.1h1.1v0.8h-3.5V361.1z"/>
	<path class="st13" d="M79.2,353.2h1.5l4.1,7.1v-7.1H86v8.7h-1.5l-4.1-7.1v7.1h-1.2C79.2,361.9,79.2,353.2,79.2,353.2z"/>
	<path class="st13" d="M89.2,353.2h2.7c2.9,0,4.2,1.8,4.2,4.4s-1.3,4.4-4.2,4.4h-2.7V353.2z M91.9,360.9c2.3,0,2.9-1.7,2.9-3.3   s-0.6-3.3-2.9-3.3h-1.5v6.7h1.5V360.9z"/>
	<path class="st13" d="M98.6,353.2h1.2v5.4c0,0.9,0.2,1.5,0.5,1.8s0.9,0.5,1.6,0.5s1.3-0.2,1.6-0.5s0.5-1,0.5-1.8v-5.4h1.2v5.6   c0,1.1-0.3,2-0.9,2.5s-1.4,0.8-2.5,0.8s-1.9-0.3-2.5-0.8s-0.9-1.3-0.9-2.5v-5.6H98.6z"/>
	<path class="st13" d="M109.1,359.3c0.1,1.3,1.2,1.7,2.2,1.7c1.3,0,1.9-0.6,1.9-1.4c0-0.7-0.4-1.1-1.2-1.4l-1.9-0.5   c-1.3-0.4-2-1.1-2-2.3c0-1.7,1.4-2.4,3-2.4c0.9,0,1.6,0.2,2.2,0.7s0.9,1.1,0.9,2H113c-0.1-1.3-1.1-1.7-2-1.7   c-1.1,0-1.7,0.5-1.7,1.3c0,0.7,0.4,1.1,1.2,1.4l1.9,0.5c0.6,0.2,1.1,0.4,1.5,0.8s0.6,0.9,0.6,1.5c0,1.8-1.5,2.5-3.2,2.5   c-1.9,0-3.3-0.9-3.4-2.7H109.1z"/>
	<path class="st13" d="M118.5,354.2h-2.7v-1h6.6v1h-2.7v7.7h-1.2C118.5,361.9,118.5,354.2,118.5,354.2z"/>
	<path class="st13" d="M124.5,353.2h2.7c2.3,0,3.5,0.9,3.5,2.7c0,1.4-0.8,2.2-2.1,2.5l2.6,3.5h-1.5l-2.4-3.2h-1.7v3.2h-1.2   L124.5,353.2L124.5,353.2z M127.2,357.6c0.9,0,1.5-0.1,1.8-0.4s0.5-0.7,0.5-1.3c0-0.6-0.2-1-0.5-1.3s-0.9-0.4-1.8-0.4h-1.5v3.4   L127.2,357.6L127.2,357.6z"/>
	<path class="st13" d="M133,361.1h1.1V354H133v-0.8h3.5v0.8h-1.1v7.1h1.1v0.8H133V361.1z"/>
	<path class="st13" d="M141.3,353.2h1.3l3.3,8.7h-1.3l-0.7-2H140l-0.7,2H138L141.3,353.2z M143.5,358.9l-1.6-4.5l-1.6,4.5H143.5z"/>
	<path class="st13" d="M148.1,353.2h1.2v7.7h4.2v1h-5.4V353.2z"/>
	<path class="st13" d="M158.6,357.6c0-2.8,1.2-4.5,3.9-4.5c2,0,3.4,1,3.6,2.8h-1.2c-0.1-1-0.9-1.8-2.3-1.8c-2.2,0-2.7,1.7-2.7,3.5   s0.5,3.5,2.8,3.5c1.8,0,2.4-1.2,2.4-2.5h-2.4v-1h3.6v4.3h-1v-1.2c-0.7,1.1-1.8,1.4-2.6,1.4C159.8,362,158.6,360.2,158.6,357.6z"/>
	<path class="st13" d="M171.4,353.2h1.3l3.3,8.7h-1.3l-0.7-2h-3.9l-0.7,2h-1.2L171.4,353.2z M173.6,358.9l-1.6-4.5l-1.6,4.5H173.6z"/>
	<path class="st13" d="M179.5,354.2h-2.7v-1h6.6v1h-2.7v7.7h-1.2L179.5,354.2L179.5,354.2z"/>
	<path class="st13" d="M185.5,353.2h5.8v1h-4.6v2.7h3.8v1h-3.8v2.9h4.6v1h-5.8V353.2z"/>
	<path class="st13" d="M193,353.2h1.2l2,7.3l1.9-7.3h1.3l1.9,7.3l2-7.3h1.2l-2.5,8.7h-1.4l-1.9-7.1l-1.9,7.1h-1.4L193,353.2z"/>
	<path class="st13" d="M208.8,353.2h1.3l3.3,8.7h-1.3l-0.7-2h-3.9l-0.7,2h-1.2L208.8,353.2z M211,358.9l-1.6-4.5l-1.6,4.5H211z"/>
	<path class="st13" d="M217.2,358.4l-3.2-5.2h1.4l2.4,4.2l2.5-4.2h1.3l-3.2,5.2v3.5h-1.2V358.4z"/>
</g>
<g>
	<path class="st13" d="M202.5,124.3c0.1,1.3,1.2,1.7,2.2,1.7c1.3,0,1.9-0.6,1.9-1.4c0-0.7-0.4-1.1-1.2-1.4l-1.9-0.5   c-1.3-0.4-2-1.1-2-2.3c0-1.7,1.4-2.4,3-2.4c0.9,0,1.6,0.2,2.2,0.7s0.9,1.1,0.9,2h-1.2c-0.1-1.3-1.1-1.7-2-1.7   c-1.1,0-1.7,0.5-1.7,1.3c0,0.7,0.4,1.1,1.2,1.4l1.9,0.5c0.6,0.2,1.1,0.4,1.5,0.8s0.6,0.9,0.6,1.5c0,1.8-1.5,2.5-3.2,2.5   c-1.9,0-3.3-0.9-3.4-2.7H202.5z"/>
	<path class="st13" d="M212.8,118.1h1.3l3.3,8.7h-1.3l-0.7-2h-3.9l-0.7,2h-1.2L212.8,118.1z M215,123.9l-1.6-4.5l-1.6,4.5H215z"/>
	<path class="st13" d="M219.6,118.1h1.5l2.5,4.9l2.5-4.9h1.5v8.7h-1.2v-7.1l-2.4,4.7h-0.9l-2.4-4.7v7.1h-1.2L219.6,118.1   L219.6,118.1z"/>
	<path class="st13" d="M231.5,124.3c0.1,1.3,1.2,1.7,2.2,1.7c1.3,0,1.9-0.6,1.9-1.4c0-0.7-0.4-1.1-1.2-1.4l-1.9-0.5   c-1.3-0.4-2-1.1-2-2.3c0-1.7,1.4-2.4,3-2.4c0.9,0,1.6,0.2,2.2,0.7s0.9,1.1,0.9,2h-1.2c-0.1-1.3-1.1-1.7-2-1.7   c-1.1,0-1.7,0.5-1.7,1.3c0,0.7,0.4,1.1,1.2,1.4l1.9,0.5c0.6,0.2,1.1,0.4,1.5,0.8s0.6,0.9,0.6,1.5c0,1.8-1.5,2.5-3.2,2.5   c-1.9,0-3.3-0.9-3.4-2.7H231.5z"/>
	<path class="st13" d="M241.8,118.1h1.3l3.3,8.7h-1.3l-0.7-2h-3.9l-0.7,2h-1.2L241.8,118.1z M244,123.9l-1.6-4.5l-1.6,4.5H244z"/>
	<path class="st13" d="M248.6,118.1h2.7c2.3,0,3.5,0.9,3.5,2.7c0,1.4-0.8,2.2-2.1,2.5l2.6,3.5h-1.5l-2.4-3.2h-1.7v3.2h-1.2   L248.6,118.1L248.6,118.1z M251.3,122.6c0.9,0,1.5-0.1,1.8-0.4s0.5-0.7,0.5-1.3c0-0.6-0.2-1-0.5-1.3s-0.9-0.4-1.8-0.4h-1.5v3.4   C249.8,122.6,251.3,122.6,251.3,122.6z"/>
	<path class="st13" d="M259.9,118.1h1.3l3.3,8.7h-1.3l-0.7-2h-3.9l-0.7,2h-1.2L259.9,118.1z M262.1,123.9l-1.6-4.5l-1.6,4.5H262.1z"/>
	<path class="st13" d="M277,124.1c-0.1,1.9-1.6,2.9-3.5,2.9c-2.5,0-3.8-1.8-3.8-4.5s1.3-4.5,3.8-4.5c2,0,3.4,1,3.5,2.9h-1.2   c-0.1-1-0.8-1.8-2.3-1.8c-2.1,0-2.6,1.7-2.6,3.5s0.5,3.5,2.6,3.5c1.5,0,2.2-0.9,2.3-1.8h1.2V124.1z"/>
	<path class="st13" d="M279.7,118.1h1.2v7.7h4.2v1h-5.4L279.7,118.1L279.7,118.1z"/>
	<path class="st13" d="M286.6,122.5c0-2.7,1.3-4.5,3.9-4.5s3.9,1.8,3.9,4.5s-1.3,4.5-3.9,4.5S286.6,125.2,286.6,122.5z M293.2,122.5   c0-1.7-0.5-3.5-2.7-3.5c-2.1,0-2.7,1.8-2.7,3.5s0.5,3.5,2.7,3.5C292.7,125.9,293.2,124.2,293.2,122.5z"/>
	<path class="st13" d="M297,118.1h1.2v5.4c0,0.9,0.2,1.5,0.5,1.8s0.9,0.5,1.6,0.5s1.3-0.2,1.6-0.5s0.5-1,0.5-1.8v-5.4h1.2v5.6   c0,1.1-0.3,2-0.9,2.5s-1.4,0.8-2.5,0.8s-1.9-0.3-2.5-0.8s-0.9-1.3-0.9-2.5v-5.6H297z"/>
	<path class="st13" d="M306.8,118.1h2.7c2.9,0,4.2,1.8,4.2,4.4s-1.3,4.4-4.2,4.4h-2.7V118.1z M309.6,125.8c2.3,0,2.9-1.7,2.9-3.3   s-0.6-3.3-2.9-3.3H308v6.7L309.6,125.8L309.6,125.8z"/>
</g>
<path class="st19" d="M139,494.2c-0.4,46.2-0.7,92.4-1.1,138.7c165.6,0.1,331.2,0.2,496.8,0.4"/>
<line class="st19" x1="634.7" y1="633.8" x2="634.8" y2="610.7"/>
<path class="st19" d="M146.1,494.2l-0.6,132.9c119.3-0.2,238.6-0.4,357.9-0.6"/>
<path class="st19" d="M163.8,494.2L163.2,621c73.4-0.4,146.9-0.7,220.3-1.1"/>
<line class="st19" x1="503.4" y1="627.1" x2="503.4" y2="610.7"/>
<line class="st19" x1="383.4" y1="620.4" x2="383.4" y2="610.7"/>
<line class="st19" x1="254.3" y1="501.6" x2="254.3" y2="576.6"/>
<line class="st19" x1="178.8" y1="404.6" x2="236.1" y2="404.6"/>
<line class="st19" x1="241.1" y1="419.4" x2="241.1" y2="332.9"/>
<rect x="210.6" y="510.9" class="st15" width="31" height="14.6"/>
<text transform="matrix(1 0 0 1 210.6042 521.2529)" class="st13 st16 st20">VFD</text>
<line class="st19" x1="236.1" y1="405.1" x2="236.1" y2="332.9"/>
<script xmlns="" type="text/javascript" charset="utf-8" id="zm-extension"/></svg>